<svg width="116" height="62" viewBox="0 0 116 62" fill="none" xmlns="http://www.w3.org/2000/svg">
<path d="M45.928 9.368C45.9707 9.368 45.992 9.432 45.992 9.56C45.992 9.688 45.9707 9.752 45.928 9.752C45.8 9.92267 45.5227 10.2213 45.096 10.648C44.6693 11.0747 44.3707 11.352 44.2 11.48C44.1573 13.3573 44.0933 15.384 44.008 17.56C43.9653 19.736 43.9227 21.976 43.88 24.28C43.8373 26.5413 43.7947 28.8027 43.752 31.064C43.752 33.3253 43.7733 35.48 43.816 37.528C43.6453 37.784 43.368 37.9547 42.984 38.04C42.6427 38.0827 42.344 38.1893 42.088 38.36C42.3867 39.2133 42.472 39.768 42.344 40.024C42.2587 40.28 42.088 40.472 41.832 40.6C41.6187 40.6853 41.384 40.8347 41.128 41.048C40.9147 41.2613 40.808 41.7093 40.808 42.392C40.808 42.6907 40.936 42.9253 41.192 43.096C41.448 43.2667 41.7467 43.3947 42.088 43.48C42.4293 43.5227 42.7493 43.5653 43.048 43.608C43.3893 43.608 43.6453 43.608 43.816 43.608V57.112C43.816 57.8373 43.4107 58.4133 42.6 58.84C41.7893 59.3093 40.8507 59.672 39.784 59.928C38.7173 60.184 37.672 60.3547 36.648 60.44C35.6667 60.568 34.984 60.632 34.6 60.632L33.128 60.568L32.488 60.12V55H11.368C11.24 55 11.112 55.192 10.984 55.576C10.856 55.96 10.7067 56.3867 10.536 56.856C10.3653 57.3253 10.1733 57.7947 9.96 58.264C9.74667 58.776 9.512 59.1173 9.256 59.288C8.232 60.056 6.99467 60.5893 5.544 60.888C4.09334 61.2293 2.74934 61.4 1.512 61.4C1.384 61.4 1.14934 61.4 0.808002 61.4C0.466669 61.4 0.296002 61.2507 0.296002 60.952V35.928C1.02134 35.928 1.46934 35.6933 1.64 35.224C1.81067 34.7547 1.896 34.2213 1.896 33.624C1.85334 33.624 1.72534 33.5387 1.512 33.368C1.34134 33.1973 1.21334 33.1547 1.128 33.24C1 33.368 0.829335 33.6453 0.616002 34.072C0.402669 34.4987 0.296002 34.7973 0.296002 34.968V3.352H1.96C2.00267 3.352 2.28 3.45866 2.792 3.672C3.34667 3.88533 3.98667 4.16266 4.712 4.504C5.43734 4.80266 6.16267 5.12266 6.888 5.464C7.656 5.80533 8.296 6.104 8.808 6.36L10.088 7H17.896C17.896 7.46933 18.0453 7.93866 18.344 8.408C18.6853 8.87733 19.0693 9.19733 19.496 9.368C19.5813 9.41066 19.7307 9.368 19.944 9.24C20.1573 9.112 20.2853 9.00533 20.328 8.92C20.2 8.83466 19.9653 8.64266 19.624 8.344C19.3253 8.00266 19.1333 7.768 19.048 7.64C18.9627 7.46933 18.92 7.32 18.92 7.192H27.048C27.048 7.78933 27.368 8.088 28.008 8.088C28.264 8.088 28.456 8.04533 28.584 7.96C28.7547 7.87466 28.904 7.768 29.032 7.64C29.16 7.512 29.3093 7.40533 29.48 7.32C29.6507 7.23466 29.864 7.192 30.12 7.192C30.6747 7.192 31.08 7.34133 31.336 7.64C31.592 7.93866 31.976 8.088 32.488 8.088C32.9147 8.088 33.4267 7.896 34.024 7.512C34.664 7.128 35.2187 6.89333 35.688 6.808C35.56 6.63733 35.4107 6.488 35.24 6.36C35.1973 6.31733 34.984 6.18933 34.6 5.976C34.2587 5.72 34.0453 5.57066 33.96 5.528V5.08L36.52 2.52C36.5627 2.47733 36.6907 2.456 36.904 2.456C37.672 2.456 38.3973 2.75466 39.08 3.352C39.8053 3.94933 40.3813 4.52533 40.808 5.08C40.2533 5.592 39.656 6.08267 39.016 6.552C38.376 7.02133 37.6933 7.384 36.968 7.64C37.0533 7.896 37.16 8.04533 37.288 8.088C37.4587 8.088 37.6293 8.088 37.8 8.088C38.184 8.088 38.6533 8.088 39.208 8.088C39.8053 8.088 40.4027 8.06666 41 8.024C41.5973 7.98133 42.152 7.896 42.664 7.768C43.176 7.64 43.56 7.448 43.816 7.192L45.928 9.368ZM32.68 29.4C32.68 28.6747 32.6587 27.416 32.616 25.624C32.5733 23.7893 32.5307 21.848 32.488 19.8C32.4453 17.752 32.4027 15.832 32.36 14.04C32.3173 12.2053 32.296 10.9253 32.296 10.2H10.728V15.32C9.91734 14.9787 9.384 14.5093 9.128 13.912C8.91467 13.3147 8.78667 12.6747 8.744 11.992C8.70134 11.2667 8.65867 10.5413 8.616 9.816C8.57334 9.048 8.36 8.38666 7.976 7.832C7.592 7.23466 6.93067 6.744 5.992 6.36C5.05334 5.976 3.66667 5.784 1.832 5.784C1.832 6.46666 2.04534 6.872 2.472 7C2.89867 7.128 3.34667 7.192 3.816 7.192C4.328 7.192 4.79734 7.23466 5.224 7.32C5.65067 7.40533 5.864 7.72533 5.864 8.28C5.864 8.49333 5.75734 8.83466 5.544 9.304C5.37334 9.73066 5.16 10.2 4.904 10.712C4.648 11.224 4.392 11.7147 4.136 12.184C3.92267 12.6533 3.77334 12.9947 3.688 13.208C3.60267 13.336 3.432 13.4853 3.176 13.656C2.96267 13.784 2.728 13.9333 2.472 14.104C2.216 14.232 1.98134 14.36 1.768 14.488C1.59734 14.5733 1.512 14.6373 1.512 14.68C1.512 14.8933 1.61867 15.0853 1.832 15.256C2.04534 15.4267 2.28 15.576 2.536 15.704C2.792 15.832 3.02667 15.9387 3.24 16.024C3.496 16.1093 3.64534 16.152 3.688 16.152L4.584 16.344H5.16V13.336L5.736 13.208C5.90667 13.208 6.07734 13.208 6.248 13.208C6.41867 13.1653 6.568 13.1653 6.696 13.208C6.73867 13.208 6.86667 13.272 7.08 13.4C7.336 13.4853 7.48534 13.5493 7.528 13.592L7.976 16.152V16.664C7.976 17.0907 7.82667 17.432 7.528 17.688C7.22934 17.944 7.08 18.2853 7.08 18.712C7.08 19.224 7.22934 19.5013 7.528 19.544C7.82667 19.5867 8.168 19.608 8.552 19.608C8.97867 19.608 9.36267 19.608 9.704 19.608C10.0453 19.5653 10.3867 19.416 10.728 19.16V28.568L11.816 29.208H31.016C31.1013 29.2507 31.2933 29.3573 31.592 29.528C31.9333 29.6987 32.168 29.8053 32.296 29.848C32.3813 29.8907 32.5093 29.912 32.68 29.912V29.4ZM36.968 17.88C36.712 17.9227 36.392 17.9653 36.008 18.008C35.624 18.0507 35.24 18.0933 34.856 18.136C34.5147 18.1787 34.216 18.2213 33.96 18.264C33.704 18.3067 33.576 18.328 33.576 18.328V18.712C33.576 18.8827 33.6613 19.032 33.832 19.16C34.0027 19.288 34.216 19.3947 34.472 19.48C34.728 19.5227 34.984 19.5653 35.24 19.608C35.5387 19.608 35.7733 19.608 35.944 19.608C36.4133 19.608 36.7973 19.4373 37.096 19.096C37.4373 18.7547 37.608 18.3493 37.608 17.88H36.968ZM10.408 25.624C9.81067 25.624 9.384 25.8373 9.128 26.264C8.872 26.648 8.616 27.0747 8.36 27.544C8.14667 28.0133 7.848 28.4613 7.464 28.888C7.12267 29.272 6.568 29.464 5.8 29.464C5.11734 29.464 4.49867 29.3787 3.944 29.208C3.432 29.0373 2.87734 28.952 2.28 28.952C2.28 29.08 2.36534 29.2933 2.536 29.592C2.70667 29.848 2.92 30.1253 3.176 30.424C3.432 30.7227 3.688 31 3.944 31.256C4.2 31.4693 4.392 31.576 4.52 31.576C6.22667 31.576 7.63467 31 8.744 29.848C9.85334 28.696 10.408 27.288 10.408 25.624ZM42.92 29.848C43.048 29.72 43.112 29.5067 43.112 29.208C43.112 28.8667 43.048 28.6533 42.92 28.568C42.8347 28.5253 42.7707 28.568 42.728 28.696C42.728 28.824 42.728 28.9947 42.728 29.208C42.728 29.3787 42.7493 29.5493 42.792 29.72C42.8347 29.848 42.8773 29.8907 42.92 29.848ZM36.264 31.96C36.264 31.704 36.136 31.512 35.88 31.384C35.6667 31.256 35.4533 31.1707 35.24 31.128C35.24 31.0853 35.176 31.064 35.048 31.064C34.9627 31.064 34.8987 31.0853 34.856 31.128V31.96H36.264ZM42.92 32.408C43.048 32.3227 43.112 32.1733 43.112 31.96C43.112 31.7467 43.048 31.5973 42.92 31.512C42.792 31.4693 42.728 31.6187 42.728 31.96C42.728 32.3013 42.792 32.4507 42.92 32.408ZM32.488 46.36C32.6587 46.36 32.872 46.36 33.128 46.36C33.384 46.36 33.64 46.3387 33.896 46.296C34.152 46.2533 34.3653 46.168 34.536 46.04C34.7493 45.912 34.856 45.6987 34.856 45.4C34.856 44.9733 34.7707 44.696 34.6 44.568C34.4293 44.44 34.216 44.376 33.96 44.376C33.704 44.376 33.4267 44.4187 33.128 44.504C32.872 44.5467 32.6587 44.568 32.488 44.568V31.96H10.92V51.608H32.488V46.36ZM10.216 39.384C10.216 38.872 10.1307 38.5093 9.96 38.296C9.832 38.04 9.53334 37.912 9.064 37.912C8.68 37.912 8.296 37.976 7.912 38.104C7.57067 38.232 7.29334 38.4667 7.08 38.808C7.12267 38.8507 7.18667 38.936 7.272 39.064C7.4 39.1493 7.48534 39.192 7.528 39.192C7.61334 39.2347 7.784 39.2773 8.04 39.32C8.296 39.32 8.57334 39.3413 8.872 39.384C9.17067 39.384 9.448 39.384 9.704 39.384C9.96 39.384 10.1307 39.384 10.216 39.384ZM43.368 39.192C43.7093 39.2773 43.88 39.576 43.88 40.088C43.9227 40.6 43.944 40.92 43.944 41.048C43.7307 41.048 43.496 41.0053 43.24 40.92C43.0267 40.792 42.92 40.5787 42.92 40.28V40.088L43.368 39.192ZM9.832 45.592C9.832 45.2507 9.66134 45.0373 9.32 44.952C8.97867 44.824 8.65867 44.76 8.36 44.76C7.63467 44.76 7.08 45.0373 6.696 45.592H9.832ZM43.112 51.416C43.112 50.8613 43.0053 50.328 42.792 49.816C42.6213 49.2613 42.1733 48.984 41.448 48.984C41.192 48.984 41 49.0907 40.872 49.304C40.7867 49.4747 40.744 49.6667 40.744 49.88C40.744 50.4773 41.0213 50.8827 41.576 51.096C42.1307 51.3093 42.6427 51.416 43.112 51.416ZM6.44 49.88C6.184 49.88 5.94934 50.008 5.736 50.264C5.56534 50.4773 5.416 50.7547 5.288 51.096C5.16 51.3947 5.07467 51.7147 5.032 52.056C4.98934 52.3973 4.968 52.6533 4.968 52.824C4.968 53.464 5.01067 54.1253 5.096 54.808C5.224 55.448 5.416 56.0453 5.672 56.6C5.97067 57.1547 6.35467 57.6027 6.824 57.944C7.336 58.2853 7.99734 58.456 8.808 58.456C9.192 58.456 9.512 58.328 9.768 58.072C10.024 57.816 10.152 57.496 10.152 57.112C10.152 56.6853 9.98134 56.3013 9.64 55.96C9.34134 55.6613 9 55.2987 8.616 54.872C8.232 54.4027 7.86934 53.8267 7.528 53.144C7.22934 52.4187 7.08 51.48 7.08 50.328C6.99467 50.072 6.86667 49.9227 6.696 49.88H6.44ZM31.848 54.168C32.0613 54.168 32.168 54.0187 32.168 53.72C32.168 53.4213 32.0613 53.272 31.848 53.272C31.6347 53.272 31.528 53.4213 31.528 53.72C31.528 54.0187 31.6347 54.168 31.848 54.168ZM34.408 57.56C34.536 57.4747 34.6 57.3253 34.6 57.112C34.6 56.8987 34.536 56.7707 34.408 56.728C34.28 56.6427 34.216 56.7707 34.216 57.112C34.216 57.496 34.28 57.6453 34.408 57.56ZM113.384 17.432C113.469 17.432 113.555 17.368 113.64 17.24C113.768 17.112 113.875 16.9627 113.96 16.792C114.088 16.6213 114.195 16.408 114.28 16.152C114.493 16.2373 114.621 16.3653 114.664 16.536C114.707 16.7067 114.728 16.8773 114.728 17.048C114.728 17.3893 114.621 17.6453 114.408 17.816C114.237 17.9867 113.896 18.072 113.384 18.072H91.624C91.5387 18.1573 91.4747 18.2427 91.432 18.328C91.3893 18.4133 91.3467 18.4987 91.304 18.584C91.2613 18.6267 91.24 18.6693 91.24 18.712C91.1973 18.7547 91.176 18.84 91.176 18.968C91.176 19.0533 91.1973 19.1173 91.24 19.16C91.24 19.2027 91.304 19.352 91.432 19.608C91.56 19.8213 91.624 19.9493 91.624 19.992C91.6667 20.0347 91.688 20.12 91.688 20.248C91.688 20.3333 91.6667 20.3973 91.624 20.44C91.1973 20.3973 90.8133 20.248 90.472 19.992C90.1733 19.6933 89.8747 19.3947 89.576 19.096C89.2773 18.7973 88.9787 18.52 88.68 18.264C88.3813 18.008 88.0187 17.88 87.592 17.88C87.4213 17.88 87.1013 18.008 86.632 18.264C86.2053 18.52 85.736 18.8187 85.224 19.16C84.712 19.4587 84.2427 19.736 83.816 19.992C83.3893 20.248 83.1547 20.3973 83.112 20.44C83.368 21.1653 83.816 21.784 84.456 22.296C85.1387 22.808 85.8213 23.192 86.504 23.448C86.5467 23.0213 86.6533 22.68 86.824 22.424C87.0373 22.1253 87.2507 21.8693 87.464 21.656C87.6773 21.4 87.8907 21.1653 88.104 20.952C88.36 20.696 88.552 20.376 88.68 19.992C89.064 20.2053 89.4907 20.6747 89.96 21.4C90.472 22.0827 91.0053 22.808 91.56 23.576C92.1573 24.344 92.776 25.048 93.416 25.688C94.056 26.2853 94.7387 26.584 95.464 26.584V25.56C98.1947 28.1627 100.925 30.552 103.656 32.728C106.429 34.904 109.544 36.7813 113 38.36C111.976 38.616 110.803 38.808 109.48 38.936C108.2 39.064 106.92 39.2347 105.64 39.448C104.403 39.6187 103.251 39.9173 102.184 40.344C101.117 40.7707 100.307 41.3893 99.752 42.2C99.752 42.2427 99.688 42.264 99.56 42.264C99.176 42.264 98.7493 42.008 98.28 41.496C97.8533 40.9413 97.4053 40.3227 96.936 39.64C96.5093 38.9573 96.1253 38.296 95.784 37.656C95.4427 36.9733 95.208 36.504 95.08 36.248C94.0987 34.4133 93.2453 32.728 92.52 31.192C91.7947 29.656 91.0693 27.928 90.344 26.008C90.1733 25.624 90.0453 25.4747 89.96 25.56C89.9173 25.6453 89.768 25.688 89.512 25.688V41.368L89.96 41.752C90.1733 41.5813 90.3867 41.3253 90.6 40.984C90.8133 40.6427 91.0267 40.3227 91.24 40.024C91.4533 39.6827 91.688 39.384 91.944 39.128C92.2 38.872 92.456 38.744 92.712 38.744C93.0107 38.744 93.5867 39.0427 94.44 39.64C95.336 40.2373 96.232 40.9413 97.128 41.752C98.0667 42.5627 98.8773 43.416 99.56 44.312C100.285 45.208 100.648 45.9333 100.648 46.488C100.648 46.7013 100.584 46.936 100.456 47.192C100.371 47.4053 100.136 47.512 99.752 47.512H90.344L89.32 48.152V58.84C89.32 59.3093 88.9147 59.6933 88.104 59.992C87.336 60.3333 86.4613 60.6107 85.48 60.824C84.4987 61.0373 83.5387 61.1867 82.6 61.272C81.6613 61.4 81.0427 61.464 80.744 61.464L79.272 61.4L78.632 60.952V48.152L77.544 47.512H68.2C68.1573 47.512 68.072 47.448 67.944 47.32C67.8587 47.1493 67.7947 47 67.752 46.872C67.7093 46.7867 67.624 46.6373 67.496 46.424C67.4107 46.2107 67.3467 46.0827 67.304 46.04V45.592C67.432 45.3787 67.5813 45.2507 67.752 45.208C68.136 45.1653 68.84 45.1227 69.864 45.08C70.888 44.9947 71.9547 44.9307 73.064 44.888C74.216 44.8453 75.304 44.824 76.328 44.824C77.352 44.7813 78.056 44.76 78.44 44.76H78.824V45.528C79.4213 45.528 79.9333 45.5067 80.36 45.464C80.8293 45.3787 81.384 45.336 82.024 45.336C82.024 45.1227 81.896 44.9093 81.64 44.696C81.4267 44.44 81.1493 44.2053 80.808 43.992C80.4667 43.7787 80.0827 43.608 79.656 43.48C79.272 43.352 78.9307 43.288 78.632 43.288V33.688L77.992 33.24C76.4133 34.6907 74.664 36.3973 72.744 38.36C70.824 40.28 68.7973 42.1147 66.664 43.864C64.5307 45.5707 62.3333 47.0213 60.072 48.216C57.8107 49.4107 55.528 50.008 53.224 50.008V49.048C53.9493 48.3653 54.7173 47.5547 55.528 46.616C56.3813 45.6347 57.2347 44.6533 58.088 43.672C58.984 42.648 59.88 41.6667 60.776 40.728C61.7147 39.7893 62.6107 39 63.464 38.36C63.5067 38.3173 63.592 38.296 63.72 38.296C64.104 38.296 64.3813 38.4667 64.552 38.808C64.7227 39.1067 65.064 39.256 65.576 39.256C65.96 39.256 66.28 39.2347 66.536 39.192C66.792 39.1067 66.92 38.8293 66.92 38.36C66.92 37.72 66.7067 37.2293 66.28 36.888C65.8533 36.5467 65.3413 36.3333 64.744 36.248C65.4693 35.1387 66.28 33.9227 67.176 32.6C68.072 31.2347 68.904 29.8267 69.672 28.376C70.4827 26.8827 71.144 25.3893 71.656 23.896C72.2107 22.4027 72.488 20.952 72.488 19.544C72.488 19.544 72.488 19.4587 72.488 19.288C72.488 19.1173 72.4667 18.9467 72.424 18.776C72.424 18.6053 72.3813 18.456 72.296 18.328C72.2533 18.1573 72.168 18.072 72.04 18.072H55.4C55.3573 17.944 55.208 17.688 54.952 17.304C54.7387 16.92 54.5893 16.6853 54.504 16.6H54.12L53.224 17.048V16.6C53.224 16.472 53.2453 16.3013 53.288 16.088C53.3307 15.8747 53.4587 15.768 53.672 15.768H72.872C72.616 15.8107 72.4667 15.96 72.424 16.216C72.424 16.472 72.424 16.6853 72.424 16.856C72.424 17.3253 72.5733 17.624 72.872 17.752C73.1707 17.8373 73.512 17.88 73.896 17.88C74.5787 17.88 75.2613 17.8373 75.944 17.752C76.6693 17.624 77.2027 17.24 77.544 16.6C77.5867 16.5573 77.5867 16.4293 77.544 16.216L77.416 15.96H74.984C75.112 15.96 75.304 15.9387 75.56 15.896C75.8587 15.8107 76.1573 15.7467 76.456 15.704C76.7973 15.6187 77.096 15.5547 77.352 15.512C77.6507 15.4267 77.864 15.3627 77.992 15.32C78.0773 15.2773 78.2053 15.2133 78.376 15.128C78.5467 15 78.632 14.9147 78.632 14.872V0.215996C80.68 0.215996 82.7707 0.322664 84.904 0.535999C87.08 0.706664 89.192 0.94133 91.24 1.24C91.496 1.32533 91.624 1.47466 91.624 1.688C91.6667 1.90133 91.688 2.11466 91.688 2.328C91.688 2.66933 91.56 2.94666 91.304 3.16C91.0907 3.33066 90.856 3.50133 90.6 3.672C90.344 3.8 90.088 3.94933 89.832 4.12C89.6187 4.248 89.512 4.41866 89.512 4.632V15.32H99.752C100.435 15.32 100.989 14.9787 101.416 14.296C101.885 13.5707 102.312 12.7813 102.696 11.928C103.08 11.032 103.485 10.2427 103.912 9.56C104.339 8.83466 104.872 8.472 105.512 8.472C105.981 8.472 106.515 8.68533 107.112 9.112C107.709 9.53867 108.285 10.0293 108.84 10.584C109.437 11.1387 109.992 11.7147 110.504 12.312C111.016 12.8667 111.421 13.2933 111.72 13.592C111.677 13.6347 111.592 13.656 111.464 13.656C111.379 13.656 111.315 13.6347 111.272 13.592C110.973 13.464 110.611 13.2293 110.184 12.888C109.757 12.504 109.331 12.312 108.904 12.312C108.733 12.312 108.435 12.3973 108.008 12.568C107.624 12.7387 107.219 12.952 106.792 13.208C106.408 13.464 106.045 13.7413 105.704 14.04C105.405 14.3387 105.256 14.616 105.256 14.872C105.256 15.0853 105.277 15.2773 105.32 15.448C105.363 15.576 105.491 15.6827 105.704 15.768C105.832 15.6827 106.109 15.5333 106.536 15.32C107.005 15.064 107.304 14.9147 107.432 14.872H107.816C108.584 14.872 109.139 15.1493 109.48 15.704C109.864 16.2587 110.184 16.8347 110.44 17.432H113.384ZM113.384 14.872C113.597 14.872 113.704 15.0213 113.704 15.32H113.832C114.045 15.32 114.152 15.4693 114.152 15.768C114.152 16.024 114.045 16.152 113.832 16.152C113.619 16.152 113.512 16.024 113.512 15.768H113.384C113.171 15.768 113.064 15.6187 113.064 15.32H113C112.701 15.32 112.595 15.1707 112.68 14.872H112.552C112.339 14.872 112.232 14.744 112.232 14.488H112.104C111.891 14.488 111.784 14.3387 111.784 14.04C111.784 13.7413 111.891 13.592 112.104 13.592C112.317 13.592 112.424 13.7413 112.424 14.04H112.552C112.851 14.04 112.957 14.1893 112.872 14.488H113C113.213 14.488 113.32 14.616 113.32 14.872H113.384ZM87.784 16.6C87.9973 16.6 88.104 16.472 88.104 16.216C88.104 15.9173 87.9973 15.768 87.784 15.768C87.5707 15.768 87.464 15.9173 87.464 16.216C87.464 16.472 87.5707 16.6 87.784 16.6ZM92.072 21.272C91.944 21.3147 91.88 21.2507 91.88 21.08C91.88 20.9093 91.944 20.8453 92.072 20.888C92.2 20.888 92.264 20.952 92.264 21.08C92.264 21.208 92.2 21.272 92.072 21.272ZM78.632 21.272C78.3333 21.272 78.0987 21.4427 77.928 21.784C77.7573 22.1253 77.6293 22.3813 77.544 22.552C77.672 22.5947 77.8213 22.616 77.992 22.616C78.248 22.616 78.6107 22.5947 79.08 22.552C79.5493 22.5093 79.784 22.296 79.784 21.912C79.784 21.8267 79.7627 21.7627 79.72 21.72C79.6773 21.6773 79.5493 21.6133 79.336 21.528C79.1227 21.4 78.952 21.3147 78.824 21.272H78.632ZM92.904 21.72C93.1173 21.72 93.224 21.8693 93.224 22.168C93.224 22.424 93.1173 22.552 92.904 22.552C92.6907 22.552 92.584 22.424 92.584 22.168H92.52C92.3067 22.168 92.2 22.0187 92.2 21.72C92.2 21.4213 92.3067 21.272 92.52 21.272C92.7333 21.272 92.84 21.4213 92.84 21.72H92.904ZM93.8 23.832C93.5867 23.832 93.48 23.704 93.48 23.448H93.352C93.1387 23.448 93.032 23.2987 93.032 23C93.032 22.7013 93.1387 22.552 93.352 22.552C93.5653 22.552 93.672 22.7013 93.672 23H93.8C94.0133 23 94.12 23.1493 94.12 23.448C94.12 23.704 94.0133 23.832 93.8 23.832ZM94.184 24.28C94.056 24.3227 93.992 24.2587 93.992 24.088C93.992 23.9173 94.056 23.832 94.184 23.832C94.312 23.8747 94.376 23.96 94.376 24.088C94.376 24.1733 94.312 24.2373 94.184 24.28ZM95.08 25.56C94.7813 25.56 94.6747 25.4107 94.76 25.112H94.632C94.4187 25.112 94.312 24.984 94.312 24.728C94.312 24.4293 94.4187 24.28 94.632 24.28C94.9307 24.28 95.0373 24.4293 94.952 24.728H95.08C95.2933 24.728 95.4 24.8773 95.4 25.176C95.4 25.432 95.2933 25.56 95.08 25.56ZM81.448 28.76C81.448 28.4187 81.4267 28.0133 81.384 27.544C81.3413 27.032 81.064 26.776 80.552 26.776C80.2533 26.776 79.9547 26.8827 79.656 27.096C79.3573 27.3093 79.208 27.5867 79.208 27.928C79.208 28.0133 79.2933 28.1413 79.464 28.312C79.6773 28.4827 79.912 28.6747 80.168 28.888C80.424 29.0587 80.6587 29.2293 80.872 29.4C81.128 29.5707 81.2987 29.72 81.384 29.848L81.448 28.76ZM88.232 30.488C88.232 29.976 88.104 29.5067 87.848 29.08C87.6347 28.6533 87.2507 28.44 86.696 28.44C86.696 28.952 86.8453 29.4 87.144 29.784C87.4427 30.1253 87.8053 30.424 88.232 30.68V30.488ZM70.76 31.128H70.312V31.512H70.76V31.128ZM105.704 46.488C105.875 46.488 106.237 46.4453 106.792 46.36C107.347 46.232 107.709 46.1253 107.88 46.04C108.093 45.7413 108.541 45.336 109.224 44.824C109.949 44.2693 110.696 43.7147 111.464 43.16C112.275 42.5627 113.021 41.9867 113.704 41.432C114.429 40.8773 114.899 40.4293 115.112 40.088C114.941 39.832 114.664 39.576 114.28 39.32C113.896 39.064 113.597 38.8933 113.384 38.808C113.512 38.7653 113.661 38.744 113.832 38.744C114.344 38.744 114.749 38.8933 115.048 39.192C115.389 39.448 115.56 39.8107 115.56 40.28C115.56 40.7493 115.304 41.1973 114.792 41.624C114.28 42.008 113.683 42.392 113 42.776C112.317 43.16 111.635 43.544 110.952 43.928C110.312 44.312 109.843 44.7387 109.544 45.208C109.331 45.9333 109.096 46.5733 108.84 47.128C108.627 47.5973 108.349 48.0453 108.008 48.472C107.709 48.856 107.389 49.048 107.048 49.048C106.323 49.0053 105.64 48.664 105 48.024C104.403 47.384 103.933 46.872 103.592 46.488C103.592 46.104 103.656 45.848 103.784 45.72C103.955 45.592 104.168 45.528 104.424 45.528L104.872 45.592L105.704 46.488ZM99.752 46.04L97.64 43.928H96.936C96.936 44.568 97.2347 45.208 97.832 45.848C98.472 46.4453 99.112 46.744 99.752 46.744V46.04ZM85.672 49.048C85.8427 48.792 86.0773 48.536 86.376 48.28C86.6747 47.9813 86.9733 47.704 87.272 47.448C87.5707 47.1493 87.8267 46.872 88.04 46.616C88.2533 46.3173 88.36 46.0187 88.36 45.72C87.7627 45.72 87.208 45.8693 86.696 46.168C86.184 46.424 85.672 46.7227 85.16 47.064C84.6907 47.3627 84.1787 47.64 83.624 47.896C83.0693 48.152 82.4293 48.28 81.704 48.28C81.704 48.3227 81.7467 48.4293 81.832 48.6C81.8747 48.6853 81.9387 48.792 82.024 48.92C82.152 49.0053 82.2373 49.048 82.28 49.048H85.672ZM92.52 46.04L92.072 46.488L92.52 46.872L92.904 46.488L92.52 46.04ZM88.232 51.992H87.784V52.44H88.232V51.992Z" fill="#333E44"/>
</svg>
