<svg width="160" height="40" viewBox="0 0 160 40" fill="none" xmlns="http://www.w3.org/2000/svg">
<path d="M33.32 6.72C33.4267 7.2 33.64 7.68 33.96 8.16C34.3067 8.64 34.68 9.10666 35.08 9.56C35.5067 9.98667 35.92 10.3733 36.32 10.72C36.7467 11.0667 37.08 11.3333 37.32 11.52C37.08 11.76 36.7467 12.1067 36.32 12.56C35.8933 13.0133 35.4267 13.4667 34.92 13.92C34.44 14.3467 33.9467 14.7333 33.44 15.08C32.9333 15.4 32.4667 15.56 32.04 15.56C31.8267 15.56 31.6267 15.56 31.44 15.56C31.28 15.5333 31.1067 15.44 30.92 15.28C30.76 15.2533 30.48 15.2267 30.08 15.2C29.68 15.1733 29.2533 15.1467 28.8 15.12C28.3467 15.0933 27.92 15.0667 27.52 15.04C27.12 15.0133 26.84 15 26.68 15C26.6 15 26.44 14.9867 26.2 14.96C25.9867 14.9333 25.7467 14.9067 25.48 14.88C25.2133 14.8267 24.96 14.7867 24.72 14.76C24.48 14.7333 24.3333 14.72 24.28 14.72C24.2267 14.72 24.08 14.7733 23.84 14.88C23.6267 14.96 23.5067 15 23.48 15H23.2C23.1467 15.0267 23.08 15.08 23 15.16C22.9467 15.2133 22.92 15.2533 22.92 15.28V18.2L23.2 18.48L24.6 18.52C24.7067 18.52 24.8667 18.52 25.08 18.52C25.2933 18.52 25.5067 18.52 25.72 18.52C25.96 18.4933 26.16 18.48 26.32 18.48C26.5067 18.48 26.6267 18.48 26.68 18.48C26.7867 18.4533 26.9733 18.4133 27.24 18.36C27.5333 18.28 27.6933 18.2267 27.72 18.2L30.12 15.8C30.2 15.7467 30.4667 15.8667 30.92 16.16C31.3733 16.4533 31.8533 16.8 32.36 17.2C32.8933 17.6 33.3733 18 33.8 18.4C34.2267 18.8 34.44 19.0933 34.44 19.28C34.44 19.3867 34.4267 19.4667 34.4 19.52C34.32 19.4933 34.08 19.3467 33.68 19.08C33.3067 18.7867 32.8933 18.48 32.44 18.16C32.0133 17.84 31.6133 17.5467 31.24 17.28C30.8933 17.0133 30.7067 16.88 30.68 16.88C30.6533 16.88 30.6 16.92 30.52 17C30.4667 17.0533 30.4267 17.0933 30.4 17.12V17.4C30.4 17.4267 30.4267 17.4933 30.48 17.6C30.56 17.7067 30.6267 17.8267 30.68 17.96C30.7333 18.0667 30.7867 18.1733 30.84 18.28C30.8933 18.3867 30.92 18.4533 30.92 18.48C30.9467 18.5333 30.9867 18.64 31.04 18.8C31.0933 18.9333 31.1467 19.0933 31.2 19.28C31.28 19.44 31.3333 19.6 31.36 19.76C31.4133 19.8933 31.4533 20 31.48 20.08H23.48L23.2 19.8C23.0667 19.8533 22.9733 19.9467 22.92 20.08C22.8667 20.1867 22.8133 20.32 22.76 20.48C22.7333 20.6133 22.7067 20.7467 22.68 20.88C22.68 21.0133 22.68 21.0933 22.68 21.12C22.4933 21.4667 22.16 21.7333 21.68 21.92C21.2267 22.1067 20.72 22.24 20.16 22.32C19.6267 22.4 19.0933 22.4533 18.56 22.48C18.0267 22.48 17.6133 22.48 17.32 22.48H16.52C16.4933 22 16.4533 21.6267 16.4 21.36C16.3733 21.0933 16.28 20.8933 16.12 20.76C15.9867 20.6 15.7867 20.4933 15.52 20.44C15.2533 20.3867 14.88 20.3467 14.4 20.32C14.4533 20.08 14.4267 19.9333 14.32 19.88C14.24 19.8267 14.1333 19.8133 14 19.84C13.8667 19.84 13.7333 19.8667 13.6 19.92C13.4667 19.9733 13.3733 20 13.32 20V20.32H6.12L6 20.2C5.92 20.1733 5.88 20.1333 5.88 20.08L5.6 19.28V19C5.62667 18.9467 5.66667 18.8667 5.72 18.76C5.8 18.6533 5.85333 18.6 5.88 18.6H10.12C10.1467 18.6 10.24 18.4933 10.4 18.28C10.5867 18.0667 10.7733 17.84 10.96 17.6C11.1733 17.36 11.3467 17.1333 11.48 16.92C11.64 16.7067 11.72 16.6 11.72 16.6C11.9067 16.3867 12.0267 16.24 12.08 16.16C12.16 16.08 12.3067 16.04 12.52 16.04C12.8933 16.04 13.2133 16.1467 13.48 16.36C13.7733 16.5733 14.0533 16.8133 14.32 17.08C14.6133 17.3467 14.9067 17.5867 15.2 17.8C15.52 18.0133 15.88 18.12 16.28 18.12V15.4H7.48L6.92 15C6.86667 15.0533 6.77333 15.1467 6.64 15.28C6.50667 15.3867 6.34667 15.5067 6.16 15.64C6 15.7467 5.82667 15.8533 5.64 15.96C5.48 16.04 5.33333 16.08 5.2 16.08C4.96 16.08 4.82667 15.9867 4.8 15.8C4.77333 15.5867 4.76 15.4 4.76 15.24C4.76 14.8933 4.84 14.5867 5 14.32C5.18667 14.0267 5.37333 13.7467 5.56 13.48C5.77333 13.1867 5.96 12.8933 6.12 12.6C6.30667 12.28 6.4 11.92 6.4 11.52C6.4 11.3333 6.30667 11.16 6.12 11C5.96 10.8133 5.78667 10.72 5.6 10.72C5.44 10.72 5.21333 10.8 4.92 10.96C4.65333 11.12 4.38667 11.3067 4.12 11.52C3.88 11.7333 3.65333 11.96 3.44 12.2C3.25333 12.44 3.16 12.6533 3.16 12.84C3.16 13.1867 3.25333 13.5067 3.44 13.8C3.65333 14.0667 3.76 14.3733 3.76 14.72C3.76 14.9333 3.70667 15.12 3.6 15.28C3.49333 15.44 3.44 15.6133 3.44 15.8C3.44 16.0133 3.46667 16.1733 3.52 16.28C3.6 16.3867 3.76 16.4933 4 16.6C3.92 16.6267 3.78667 16.64 3.6 16.64C3.22667 16.64 2.86667 16.56 2.52 16.4C2.17333 16.2133 1.86667 15.9867 1.6 15.72C1.36 15.4267 1.16 15.1067 1 14.76C0.866667 14.4133 0.8 14.0533 0.8 13.68C0.8 13.12 0.933333 12.64 1.2 12.24C1.49333 11.84 1.82667 11.48 2.2 11.16C2.6 10.8133 3.01333 10.48 3.44 10.16C3.86667 9.84 4.22667 9.49333 4.52 9.12C4.73333 8.90667 4.85333 8.61333 4.88 8.24C4.93333 7.84 4.97333 7.45333 5 7.08C5.05333 6.68 5.13333 6.34666 5.24 6.08C5.34667 5.78667 5.56 5.64 5.88 5.64C6.28 5.64 6.56 5.86667 6.72 6.32C6.90667 6.74667 7 7.12 7 7.44C6.54667 7.44 6.18667 7.46667 5.92 7.52C5.68 7.57333 5.56 7.82666 5.56 8.28L5.6 8.6L7.2 9.4C7.22667 9.4 7.26667 9.37333 7.32 9.32C7.4 9.24 7.45333 9.17333 7.48 9.12V8.88C7.45333 8.82667 7.4 8.69333 7.32 8.48C7.24 8.24 7.2 8.10666 7.2 8.08V7.8L7.72 8.08H16.28V5.28H5.32C5.26667 5.22666 5.22667 5.17333 5.2 5.12C5.17333 5.06667 5.14667 5.02667 5.12 5C5.09333 4.97333 5.08 4.93333 5.08 4.88L4.8 4.08V3.8C4.82667 3.74666 4.86667 3.66666 4.92 3.56C5 3.45333 5.05333 3.4 5.08 3.4H27.2C27.52 3.4 27.8 3.24 28.04 2.92C28.3067 2.6 28.5467 2.25333 28.76 1.88C29 1.48 29.24 1.12 29.48 0.799999C29.7467 0.479999 30.0533 0.319998 30.4 0.319998C30.6133 0.319998 31 0.479999 31.56 0.799999C32.12 1.12 32.6933 1.50666 33.28 1.96C33.8667 2.38666 34.3867 2.82666 34.84 3.28C35.2933 3.73333 35.52 4.08 35.52 4.32C35.52 4.48 35.48 4.61333 35.4 4.72C35.32 4.82667 35.16 4.88 34.92 4.88V4.44L34.68 4.32C34.6 4.4 34.4533 4.56 34.24 4.8C34.0533 5.04 33.9333 5.2 33.88 5.28H22.92V8.08H31.72L33.32 6.72ZM20.36 4C19.96 4 19.7333 4.16 19.68 4.48C19.6533 4.8 19.64 5.13333 19.64 5.48C20.04 5.48 20.2533 5.32 20.28 5C20.3333 4.68 20.36 4.34667 20.36 4ZM22.68 4.48C22.68 4.24 22.56 4.10667 22.32 4.08C22.1067 4.02666 21.9333 4 21.8 4C21.8 4.13333 21.8133 4.32 21.84 4.56C21.8933 4.77333 22.04 4.88 22.28 4.88H22.4C22.5067 4.8 22.6 4.70666 22.68 4.6V4.48ZM39.2 10.2C39.2 10.3067 39.1867 10.4133 39.16 10.52C39.16 10.6267 39.08 10.6933 38.92 10.72L38.68 10.2L34.92 6.48C34.76 6.34666 34.5733 6.25333 34.36 6.2C34.1467 6.14666 33.9467 6.12 33.76 6.12C33.76 5.98666 33.8533 5.88 34.04 5.8C34.2533 5.72 34.3733 5.68 34.4 5.68C34.7467 5.68 35.1467 5.85333 35.6 6.2C36.0533 6.54667 36.4933 6.94667 36.92 7.4C37.3733 7.85333 37.8 8.32 38.2 8.8C38.6 9.28 38.9333 9.65333 39.2 9.92V10.2ZM20.08 9.48C20.08 9.42667 20.08 9.30667 20.08 9.12C20.1067 8.90667 20.1067 8.69333 20.08 8.48C20.08 8.24 20.0533 8.01333 20 7.8C19.9467 7.56 19.8533 7.38667 19.72 7.28C19.48 7.38667 19.3333 7.6 19.28 7.92C19.2267 8.24 19.2 8.52 19.2 8.76C19.2 9.05333 19.2667 9.25333 19.4 9.36C19.56 9.44 19.7867 9.48 20.08 9.48ZM28.76 11.52C28.9733 11.52 29.16 11.5733 29.32 11.68C29.5067 11.76 29.68 11.8533 29.84 11.96C30.0267 12.04 30.2 12.1333 30.36 12.24C30.5467 12.32 30.7467 12.36 30.96 12.36C31.2533 12.36 31.4133 12.2133 31.44 11.92C31.4667 11.6 31.48 11.3333 31.48 11.12C31.48 11.04 31.48 10.88 31.48 10.64C31.5067 10.3733 31.4133 10.2267 31.2 10.2C31.04 10.1733 30.76 10.1467 30.36 10.12C29.96 10.0667 29.5333 10.0267 29.08 10C28.6267 9.97333 28.1867 9.96 27.76 9.96C27.36 9.93333 27.08 9.92 26.92 9.92C26.7867 9.92 26.52 9.93333 26.12 9.96C25.7467 9.98667 25.3467 10.0133 24.92 10.04C24.4933 10.0667 24.0933 10.0933 23.72 10.12C23.3467 10.1467 23.08 10.1733 22.92 10.2V13.4H26.4L28.52 11.52H28.76ZM16.28 10.2H8.28L8 10.48C8 10.48 7.98667 10.5733 7.96 10.76C7.93333 10.9467 7.90667 11.1733 7.88 11.44C7.85333 11.68 7.82667 11.9333 7.8 12.2C7.77333 12.4667 7.74667 12.6933 7.72 12.88V13.12C7.74667 13.1733 7.78667 13.24 7.84 13.32C7.92 13.3733 7.97333 13.4 8 13.4H10.68L12.8 11.28C12.8267 11.2533 12.8667 11.24 12.92 11.24C13.24 11.24 13.52 11.3467 13.76 11.56C14.0267 11.7733 14.2933 12 14.56 12.24C14.8267 12.48 15.0933 12.7067 15.36 12.92C15.6267 13.1333 15.9333 13.24 16.28 13.24V10.2ZM11.6 15C11.7067 15 11.8267 14.88 11.96 14.64C12.0933 14.3733 12.2267 14.0667 12.36 13.72C12.4933 13.3733 12.6 13.0533 12.68 12.76C12.7867 12.44 12.84 12.2133 12.84 12.08C12.84 11.9467 12.8267 11.8533 12.8 11.8C12.6933 11.8533 12.5333 12.0133 12.32 12.28C12.1333 12.5467 11.9333 12.84 11.72 13.16C11.5067 13.48 11.32 13.7867 11.16 14.08C11 14.3467 10.92 14.52 10.92 14.6V14.72C10.9467 14.7467 11.0267 14.8 11.16 14.88C11.2933 14.9333 11.4 14.9733 11.48 15H11.6ZM20.8 20.48C20.8 20.1867 20.6667 19.84 20.4 19.44C20.16 19.0133 19.8533 18.7733 19.48 18.72C19.4533 18.7467 19.44 18.8 19.44 18.88C19.44 19.04 19.4933 19.2133 19.6 19.4C19.7333 19.56 19.8667 19.72 20 19.88C20.16 20.04 20.3067 20.1867 20.44 20.32C20.6 20.4533 20.72 20.5467 20.8 20.6V20.48ZM7.2 19.52C6.98667 19.6533 6.88 19.84 6.88 20.08H7.2V19.52ZM29.2 21.12C29.5733 21.12 30 21.2667 30.48 21.56C30.96 21.8533 31.44 22.2133 31.92 22.64C32.4 23.04 32.8533 23.4533 33.28 23.88C33.7333 24.3067 34.1067 24.64 34.4 24.88C34.4267 24.96 34.44 25.0933 34.44 25.28C34.44 25.6267 34.28 25.88 33.96 26.04C33.64 26.2 33.3467 26.3467 33.08 26.48C32.7867 25.6533 32.3333 25.0267 31.72 24.6L31.48 24.88C31.4533 24.88 31.44 25 31.44 25.24C31.44 25.4533 31.44 25.6133 31.44 25.72C31.44 25.88 31.44 26.1733 31.44 26.6C31.4667 27.0267 31.4933 27.4667 31.52 27.92C31.5733 28.3733 31.64 28.7867 31.72 29.16C31.8267 29.5067 31.96 29.68 32.12 29.68H32.28L32.8 29.12C32.9067 29.0667 33 29.04 33.08 29.04V37.4C33.08 37.7733 32.8667 38.08 32.44 38.32C32.0133 38.56 31.5067 38.7467 30.92 38.88C30.36 39.04 29.8 39.1467 29.24 39.2C28.68 39.2533 28.2667 39.28 28 39.28H26.92C26.8933 39.2533 26.84 39.2 26.76 39.12C26.7067 39.0667 26.68 39.0267 26.68 39C26.6533 38.9467 26.6133 38.84 26.56 38.68C26.5333 38.52 26.5067 38.3333 26.48 38.12C26.4533 37.9333 26.4267 37.76 26.4 37.6C26.4 37.44 26.4 37.3333 26.4 37.28H11.2V36.12C10.9067 36.12 10.7067 36.2 10.6 36.36C10.52 36.52 10.4533 36.7733 10.4 37.12H5.76C5.76 36.9333 5.72 36.8 5.64 36.72C5.56 36.64 5.48 36.5733 5.4 36.52C5.32 36.4933 5.24 36.4533 5.16 36.4C5.08 36.3467 5.04 36.24 5.04 36.08C5.04 36 5.05333 35.88 5.08 35.72C5.10667 35.5867 5.18667 35.52 5.32 35.52H22.4L22.12 36.08V36.32C22.2267 36.48 22.32 36.5733 22.4 36.6L23.6 36.64C24.1067 36.64 24.5333 36.5867 24.88 36.48C25.2267 36.3733 25.64 36.32 26.12 36.32C26.6 36.32 26.9467 36.4133 27.16 36.6C27.4 36.8133 27.6 37.04 27.76 37.28C27.9467 37.52 28.1333 37.7333 28.32 37.92C28.5067 38.1333 28.8 38.24 29.2 38.24C29.6533 38.24 30.04 38.1067 30.36 37.84C30.7067 37.6 31.0133 37.2933 31.28 36.92C31.5467 36.5733 31.8 36.2 32.04 35.8C32.28 35.4 32.5333 35.04 32.8 34.72C32.72 34.6133 32.5467 34.4533 32.28 34.24C32.0133 34 31.72 33.76 31.4 33.52C31.08 33.28 30.7733 33.0533 30.48 32.84C30.1867 32.6 29.9867 32.4267 29.88 32.32L29.6 32.28C29.2 32.28 28.8933 32.4533 28.68 32.8C28.4933 33.1467 28.3067 33.5333 28.12 33.96C27.96 34.36 27.76 34.7333 27.52 35.08C27.28 35.4267 26.9067 35.6 26.4 35.6V31.4H8.28C8.28 31.32 8.25333 31.2 8.2 31.04C8.17333 30.8533 8.12 30.68 8.04 30.52C7.96 30.36 7.85333 30.2267 7.72 30.12C7.61333 29.9867 7.48 29.92 7.32 29.92C7.05333 29.92 6.90667 30.08 6.88 30.4C6.85333 30.72 6.84 30.96 6.84 31.12C6.70667 31.12 6.6 31.04 6.52 30.88C6.46667 30.72 6.41333 30.5467 6.36 30.36C6.33333 30.1733 6.32 30 6.32 29.84C6.32 29.6533 6.32 29.5467 6.32 29.52H26.4V25.52H14.2C14.2 25.04 14.0667 24.72 13.8 24.56C13.56 24.4 13.2267 24.32 12.8 24.32C12.64 24.32 12.4133 24.32 12.12 24.32C11.8533 24.32 11.72 24.4533 11.72 24.72V24.88L12 25.4H7.2C7.12 25.08 6.94667 24.8 6.68 24.56C6.44 24.32 6.14667 24.2 5.8 24.2L5.88 24.08C5.88 24.0267 5.89333 23.9867 5.92 23.96C5.94667 23.9333 5.97333 23.8933 6 23.84C6.02667 23.7867 6.06667 23.7333 6.12 23.68H26.68L29.08 21.12H29.2ZM30.4 22.72C30.2933 22.48 30.16 22.3333 30 22.28C29.8667 22.2 29.6933 22.16 29.48 22.16C29.2933 22.16 29.16 22.1733 29.08 22.2V22.72H30.4ZM22.12 24.6C21.9067 24.7333 21.8 24.9067 21.8 25.12H22.12V24.6ZM6.12 25.4C6.01333 25.3733 5.93333 25.28 5.88 25.12C5.85333 25.12 5.84 25.08 5.84 25C5.84 24.9467 5.85333 24.9067 5.88 24.88L6.4 25.4H6.12ZM29.88 25.92C29.8 25.7867 29.7067 25.7067 29.6 25.68C29.5733 25.6533 29.5333 25.64 29.48 25.64C29.4 25.64 29.3467 25.6533 29.32 25.68L29.2 25.8C29.1467 25.8533 29.12 25.88 29.12 25.88L29.08 25.92C29.0267 26 28.96 26.1067 28.88 26.24C28.8 26.3733 28.72 26.5067 28.64 26.64C28.56 26.7733 28.48 26.9067 28.4 27.04C28.32 27.1733 28.28 27.2533 28.28 27.28C28.2533 27.28 28.24 27.32 28.24 27.4C28.24 27.4533 28.2533 27.4933 28.28 27.52C28.3067 27.52 28.4 27.4667 28.56 27.36C28.72 27.2533 28.8933 27.12 29.08 26.96C29.2933 26.8 29.48 26.64 29.64 26.48C29.8 26.32 29.88 26.1867 29.88 26.08V25.92ZM23.48 29.92H23.2V30.2H23.48V29.92ZM14.72 30.8C14.72 30.4533 14.5867 30.2533 14.32 30.2C14.0533 30.1467 13.7733 30.12 13.48 30.12C13.48 30.4133 13.6267 30.6 13.92 30.68C14.24 30.76 14.5067 30.8 14.72 30.8ZM18.92 36.08V36.32L19.2 36.08H18.92ZM78.68 32.32C78.7333 32.32 78.8267 32.4 78.96 32.56C79.0933 32.6933 79.1733 32.8 79.2 32.88C79.2533 33.04 79.1467 33.24 78.88 33.48C78.6133 33.72 78.2933 33.9733 77.92 34.24C77.5733 34.5067 77.2267 34.7733 76.88 35.04C76.56 35.3067 76.36 35.56 76.28 35.8C76.2267 35.9067 76.1733 36.0667 76.12 36.28C76.0667 36.52 76 36.76 75.92 37C75.84 37.24 75.7333 37.4667 75.6 37.68C75.4933 37.92 75.36 38.0933 75.2 38.2V37.8C75.2 36.7867 75.52 35.8933 76.16 35.12C76.8 34.3733 77.5467 33.8 78.4 33.4V33.28C78.4 33.04 78.3067 32.9067 78.12 32.88C77.9333 32.8533 77.76 32.84 77.6 32.84C76.9067 32.84 76.3467 33.0667 75.92 33.52C75.4933 33.9733 75.1067 34.4667 74.76 35C74.4133 35.5333 74.0533 36.0267 73.68 36.48C73.3067 36.9333 72.84 37.16 72.28 37.16C71.7467 37.16 71.28 37.04 70.88 36.8C70.5067 36.56 70.1867 36.2533 69.92 35.88C69.68 35.5067 69.4933 35.1067 69.36 34.68C69.2267 34.2267 69.1333 33.8 69.08 33.4C69.0533 33.3467 69 33.2933 68.92 33.24C68.8667 33.16 68.8267 33.12 68.8 33.12H65.6C65.3333 33.4667 65.08 33.7067 64.84 33.84C64.6267 33.9467 64.3467 34 64 34C63.8133 34 63.6533 33.96 63.52 33.88C63.4133 33.7733 63.3067 33.6667 63.2 33.56C63.12 33.4533 63.0267 33.36 62.92 33.28C62.8133 33.1733 62.68 33.12 62.52 33.12C62.2533 33.12 62.12 33.2933 62.12 33.64C62.12 33.8 62.1333 34 62.16 34.24C62.1867 34.48 62.2267 34.72 62.28 34.96C62.36 35.2 62.4533 35.4 62.56 35.56C62.6933 35.72 62.8533 35.8 63.04 35.8C63.6 35.8 64.0267 35.68 64.32 35.44C64.64 35.2267 64.88 34.9867 65.04 34.72C65.2267 34.4533 65.3733 34.2133 65.48 34C65.5867 33.76 65.72 33.64 65.88 33.64C66.2267 33.64 66.4 33.7733 66.4 34.04V34.2C66.4 34.2533 66.36 34.3867 66.28 34.6C66.2 34.8133 66.1467 34.9467 66.12 35V35.16C66.12 35.4 66.1733 35.6267 66.28 35.84C66.4133 36.08 66.5467 36.32 66.68 36.56C66.84 36.8 66.9733 37.0533 67.08 37.32C67.2133 37.5867 67.28 37.88 67.28 38.2H60.28C60.0933 37.16 59.64 36.4533 58.92 36.08C58.2267 35.7067 57.3867 35.52 56.4 35.52C56.2667 35.52 56.1467 35.5867 56.04 35.72C55.9333 35.8533 55.84 36 55.76 36.16C55.68 36.32 55.6133 36.4667 55.56 36.6C55.5067 36.76 55.48 36.8533 55.48 36.88H55.32C54.7067 36.88 54.1867 36.6133 53.76 36.08C53.36 35.5467 52.9867 34.96 52.64 34.32C52.2933 33.68 51.9467 33.0933 51.6 32.56C51.28 32.0267 50.88 31.76 50.4 31.76C50.2933 31.76 50.2 31.7733 50.12 31.8C49.4533 32.7067 48.7467 33.5867 48 34.44C47.2533 35.2933 46.4533 36.1067 45.6 36.88C45.0933 36.48 44.56 36.2133 44 36.08C43.44 35.9467 42.92 35.7867 42.44 35.6C41.96 35.44 41.56 35.1733 41.24 34.8C40.9467 34.4 40.8 33.7467 40.8 32.84C40.8 32.7333 40.8 32.64 40.8 32.56C40.8267 32.4533 40.92 32.3733 41.08 32.32C41.1867 32.2933 41.3867 32.2267 41.68 32.12C42 32.0133 42.32 31.9067 42.64 31.8C42.9867 31.6933 43.3067 31.5867 43.6 31.48C43.92 31.3733 44.1467 31.3067 44.28 31.28C44.44 31.2267 44.5733 31.16 44.68 31.08C44.7867 31.0267 44.88 30.9733 44.96 30.92C45.04 30.84 45.08 30.7733 45.08 30.72V19.92H41.08C41.0533 19.92 41 19.88 40.92 19.8C40.84 19.6933 40.8 19.6 40.8 19.52C40.7733 19.44 40.7467 19.2533 40.72 18.96C40.72 18.64 40.72 18.4267 40.72 18.32H44.28C44.52 18.32 44.7867 18.1733 45.08 17.88C45.3733 17.5867 45.6667 17.2533 45.96 16.88C46.2533 16.5067 46.52 16.1333 46.76 15.76C47.0267 15.3867 47.2667 15.1333 47.48 15H47.6C47.7333 15 47.88 15.0533 48.04 15.16C48.2267 15.24 48.4 15.3467 48.56 15.48C48.7467 15.5867 48.9067 15.7067 49.04 15.84C49.1733 15.9467 49.2667 16.0267 49.32 16.08C49.64 16.32 50.0267 16.6267 50.48 17C50.9333 17.3467 51.3733 17.6933 51.8 18.04C52.2267 18.36 52.5867 18.6533 52.88 18.92C53.1733 19.16 53.32 19.28 53.32 19.28V19.8C53.2133 19.8533 52.9867 19.9867 52.64 20.2C52.32 20.3867 52.1067 20.52 52 20.6C51.92 20.6533 51.8133 20.7467 51.68 20.88C51.5467 21.0133 51.48 21.0933 51.48 21.12V29.68C51.48 29.8133 51.5867 29.9867 51.8 30.2C52.0133 30.4133 52.2667 30.6267 52.56 30.84C52.8533 31.0267 53.1467 31.1867 53.44 31.32C53.7333 31.4533 53.96 31.52 54.12 31.52C54.1733 31.52 54.2267 31.4933 54.28 31.44C54.36 31.36 54.4 31.3067 54.4 31.28C54.4 30.4267 54.4533 29.6533 54.56 28.96C54.6667 28.2667 54.8 27.6 54.96 26.96C55.12 26.32 55.2933 25.6933 55.48 25.08C55.6667 24.44 55.84 23.7467 56 23C56.08 22.6533 56.28 22.36 56.6 22.12C56.92 21.8533 57.16 21.6133 57.32 21.4C57.3467 21.4 57.36 21.36 57.36 21.28C57.36 20.9867 57.2533 20.72 57.04 20.48C56.8533 20.24 56.76 19.96 56.76 19.64C56.76 19.4 56.8267 19.1867 56.96 19C57.12 18.8133 57.28 18.64 57.44 18.48C57.6267 18.2933 57.7867 18.1067 57.92 17.92C58.08 17.7333 58.16 17.52 58.16 17.28C58.16 17.12 58.0933 17 57.96 16.92C57.8533 16.84 57.7333 16.7733 57.6 16.72C57.4667 16.6667 57.3333 16.6133 57.2 16.56C57.0933 16.48 57.04 16.36 57.04 16.2C57.04 15.9867 57.0667 15.7467 57.12 15.48C57.2 15.2133 57.3067 14.9733 57.44 14.76C57.5733 14.52 57.7333 14.32 57.92 14.16C58.1067 14 58.3333 13.92 58.6 13.92C58.9467 13.92 59.2667 13.9733 59.56 14.08C59.88 14.16 60.2133 14.2 60.56 14.2C60.7467 14.2 60.92 14.1467 61.08 14.04C61.2667 13.9067 61.36 13.7333 61.36 13.52C61.36 13.4667 61.3467 13.4267 61.32 13.4C60.8667 13.3733 60.44 13.2667 60.04 13.08C59.64 12.8667 59.24 12.6533 58.84 12.44C58.44 12.2 58.04 11.9867 57.64 11.8C57.24 11.6133 56.8267 11.52 56.4 11.52H56.28C56.12 11.6267 56.0267 11.72 56 11.8V12.08C56.56 12.0267 56.9733 12.0933 57.24 12.28C57.5067 12.44 57.64 12.7733 57.64 13.28C57.64 13.52 57.5733 13.7067 57.44 13.84C57.3333 13.9467 57.1867 14.0267 57 14.08C56.84 14.1333 56.64 14.1733 56.4 14.2C56.1867 14.2 55.96 14.2 55.72 14.2C55.6667 14.4933 55.5733 14.8667 55.44 15.32C55.3333 15.7467 55.08 16 54.68 16.08V10.36C55.2667 10.36 55.8133 10.4667 56.32 10.68C56.8533 10.8667 57.3733 11.08 57.88 11.32C58.3867 11.56 58.8933 11.7867 59.4 12C59.9333 12.1867 60.4933 12.28 61.08 12.28V9.68C61.08 9.68 61.0133 9.66667 60.88 9.64C60.7733 9.58667 60.6267 9.54667 60.44 9.52C60.28 9.49333 60.1067 9.46667 59.92 9.44C59.7333 9.41333 59.5867 9.4 59.48 9.4C59.32 9.4 59.0533 9.4 58.68 9.4C58.3067 9.37333 57.9067 9.36 57.48 9.36C57.08 9.36 56.6933 9.36 56.32 9.36C55.9467 9.33333 55.6933 9.32 55.56 9.32C55.56 8.92 55.48 8.72 55.32 8.72C55.16 8.69333 54.9467 8.68 54.68 8.68V9.4H52C51.9733 9.34667 51.88 9.25333 51.72 9.12C51.5867 8.98667 51.5067 8.90667 51.48 8.88C51.4533 8.85333 51.4 8.84 51.32 8.84C51.1867 8.84 51.0533 8.93333 50.92 9.12C50.7867 9.28 50.6267 9.48 50.44 9.72C50.28 9.93333 50.1067 10.1467 49.92 10.36C49.7333 10.5467 49.5333 10.6667 49.32 10.72C49.48 10.3733 49.52 10.0133 49.44 9.64C49.36 9.26667 49.2 8.92 48.96 8.6C48.72 8.28 48.4267 8.02667 48.08 7.84C47.76 7.62667 47.4267 7.52 47.08 7.52C46.8667 7.52 46.6533 7.57333 46.44 7.68C46.2533 7.78667 46.0667 7.93333 45.88 8.12C45.72 8.28 45.5867 8.46667 45.48 8.68C45.3733 8.89333 45.32 9.09333 45.32 9.28C45.32 9.38667 45.4133 9.49333 45.6 9.6C45.8133 9.68 46.04 9.78667 46.28 9.92C46.52 10.0267 46.7333 10.1733 46.92 10.36C47.1333 10.5467 47.24 10.7733 47.24 11.04C46.28 11.04 45.56 10.6667 45.08 9.92C44.92 9.36 44.6533 8.74667 44.28 8.08C43.9333 7.38666 43.56 6.69333 43.16 6C42.7867 5.30667 42.4533 4.62667 42.16 3.96C41.8933 3.29333 41.76 2.68 41.76 2.12C42.7733 2.12 43.76 2.21333 44.72 2.4C45.7067 2.58667 46.6133 2.89333 47.44 3.32C48.2667 3.74667 49 4.30667 49.64 5C50.3067 5.69333 50.8267 6.53333 51.2 7.52C52.0267 7.6 52.9067 7.66667 53.84 7.72C54.8 7.77333 55.7333 7.8 56.64 7.8C56.7733 7.8 56.96 7.8 57.2 7.8C57.4667 7.8 57.6 7.66667 57.6 7.4C57.6 6.86666 57.5067 6.34667 57.32 5.84C57.16 5.33333 56.9733 4.84 56.76 4.36C56.5733 3.85333 56.4 3.36 56.24 2.88C56.08 2.4 56 1.90667 56 1.4C56 1.10667 56.08 0.946666 56.24 0.919998C56.4267 0.866665 56.6533 0.839999 56.92 0.839999C57.5067 0.839999 58.16 0.946666 58.88 1.16C59.6267 1.34667 60.32 1.62666 60.96 2C61.6 2.37333 62.1333 2.84 62.56 3.4C63.0133 3.93333 63.24 4.54667 63.24 5.24C63.24 5.61333 63.1867 5.96 63.08 6.28C62.9733 6.57333 62.92 6.90667 62.92 7.28V7.52C63.2933 7.62667 63.6 7.70667 63.84 7.76C64.08 7.78667 64.36 7.8 64.68 7.8C65.1867 7.8 65.5467 7.62667 65.76 7.28C66 6.90667 66.16 6.45333 66.24 5.92C66.32 5.38666 66.3467 4.81333 66.32 4.2C66.32 3.58666 66.32 3.01333 66.32 2.48C66.3467 1.94666 66.4 1.50666 66.48 1.16C66.56 0.786666 66.7467 0.599999 67.04 0.599999H67.2L74.4 1.92C74.5333 1.94667 74.6133 2.02667 74.64 2.16C74.6667 2.26667 74.68 2.37333 74.68 2.48C74.68 2.93333 74.4 3.33333 73.84 3.68C73.3067 4.02666 72.7067 4.38667 72.04 4.76C71.4 5.10667 70.8 5.48 70.24 5.88C69.7067 6.25333 69.44 6.70667 69.44 7.24C70.4 7.24 71.0933 7.09333 71.52 6.8C71.9467 6.48 72.2533 6.14667 72.44 5.8C72.6533 5.42667 72.8267 5.09333 72.96 4.8C73.12 4.48 73.4133 4.32 73.84 4.32C74.1333 4.32 74.56 4.49333 75.12 4.84C75.7067 5.16 76.28 5.54667 76.84 6C77.4 6.42666 77.88 6.86666 78.28 7.32C78.7067 7.77333 78.92 8.10667 78.92 8.32V8.88C78.7333 8.64 78.48 8.36 78.16 8.04C77.8667 7.69333 77.5467 7.36 77.2 7.04C76.8533 6.72 76.4933 6.45333 76.12 6.24C75.7467 6.02666 75.4 5.92 75.08 5.92C74.76 5.92 74.4667 5.96 74.2 6.04C73.96 6.12 73.6667 6.26667 73.32 6.48V6.6C73.32 6.81333 73.4533 7.04 73.72 7.28C73.9867 7.49333 74.2933 7.72 74.64 7.96C74.9867 8.2 75.32 8.45333 75.64 8.72C75.96 8.98667 76.1733 9.25333 76.28 9.52H67.72C67.6667 9.52 67.5333 9.64 67.32 9.88C67.1333 10.0933 66.92 10.3467 66.68 10.64C66.44 10.9333 66.2133 11.2267 66 11.52C65.7867 11.7867 65.6533 11.9733 65.6 12.08C65.6267 12.1867 65.7067 12.28 65.84 12.36C65.9733 12.4133 66.1067 12.4667 66.24 12.52C66.4 12.5467 66.5333 12.5733 66.64 12.6C66.7733 12.6 66.8667 12.6 66.92 12.6H67.2C67.3867 12.5733 67.6533 12.5333 68 12.48C68.3467 12.4 68.52 12.3467 68.52 12.32L70.68 10.2H71.48C71.64 10.2 71.92 10.3467 72.32 10.64C72.7467 10.9067 73.1733 11.2267 73.6 11.6C74.0533 11.9733 74.48 12.3333 74.88 12.68C75.28 13.0267 75.56 13.2667 75.72 13.4C75.8 13.4533 75.9067 13.5467 76.04 13.68C76.1733 13.8133 76.2533 13.8933 76.28 13.92V14.2C76.1733 14.2533 75.9867 14.3867 75.72 14.6C75.4533 14.7867 75.28 14.92 75.2 15C75.1467 15.0533 75.0667 15.1467 74.96 15.28C74.8533 15.4133 74.8 15.4933 74.8 15.52V30.48C74.8 30.6667 74.56 30.84 74.08 31C73.6267 31.16 73.1067 31.3067 72.52 31.44C71.9333 31.5467 71.36 31.64 70.8 31.72C70.24 31.7733 69.8667 31.8 69.68 31.8C69.28 31.8 69.0133 31.6533 68.88 31.36C68.7467 31.0667 68.6667 30.7467 68.64 30.4C68.6133 30.0533 68.5867 29.7333 68.56 29.44C68.5333 29.1467 68.44 29 68.28 29H66.4C66.6133 28.76 66.9467 28.5467 67.4 28.36C67.8533 28.1467 68.24 28.04 68.56 28.04C68.9333 28.04 69.2133 28.1467 69.4 28.36C69.6133 28.5467 69.7733 28.7733 69.88 29.04C70.0133 29.28 70.1333 29.5067 70.24 29.72C70.3467 29.9067 70.4933 30 70.68 30C70.7333 30 70.8133 29.9733 70.92 29.92C70.92 29.5733 70.9867 29.28 71.12 29.04C71.28 28.7733 71.44 28.5467 71.6 28.36C71.76 28.1733 71.9067 28.0133 72.04 27.88C72.2 27.72 72.28 27.56 72.28 27.4C72.28 27.1867 72.1867 27.04 72 26.96C71.84 26.88 71.64 26.8267 71.4 26.8C71.1867 26.7467 70.96 26.7067 70.72 26.68C70.48 26.6533 70.28 26.5867 70.12 26.48L69.08 25.4H68.8C68.7467 25.4267 68.6533 25.48 68.52 25.56C68.3867 25.6133 68.3067 25.6533 68.28 25.68C68.3067 25.6 68.32 25.4933 68.32 25.36C68.32 25.2 68.2933 25.0533 68.24 24.92C68.2133 24.76 68.16 24.6267 68.08 24.52C68 24.3867 67.88 24.32 67.72 24.32H61.08L60.52 24.88V27.4H63.2C62.9867 27.9333 62.8133 28.4667 62.68 29H61.08C61.0533 29.08 61.0133 29.1733 60.96 29.28C60.8533 29.4933 60.8 29.6267 60.8 29.68C60.6667 30.0533 60.4667 30.3333 60.2 30.52C59.96 30.68 59.6933 30.8267 59.4 30.96C59.1333 31.0667 58.8533 31.2 58.56 31.36C58.2933 31.4933 58.0667 31.7333 57.88 32.08L58.12 32.32H78.68ZM47.48 4.08C47.16 3.65333 46.6667 3.36 46 3.2C45.36 3.01333 44.7867 2.92 44.28 2.92V3.52C44.7333 3.6 45.1733 3.72 45.6 3.88C46.0267 4.01333 46.4667 4.08 46.92 4.08H47.48ZM72.52 13.68H71.48V13.92H72.52V13.68ZM68.28 17.12L68.32 16.36C68.32 16.2267 68.3067 16.0267 68.28 15.76C68.28 15.4667 68.28 15.3067 68.28 15.28C68.2533 15.2 68.2 15.0933 68.12 14.96C68.0667 14.8 68.0267 14.72 68 14.72H60.8C60.7733 14.72 60.72 14.8 60.64 14.96C60.5867 15.0933 60.5467 15.2 60.52 15.28L60.48 16.36V16.8C60.48 16.9067 60.4933 17.0133 60.52 17.12L60.8 17.4H68L68.28 17.12ZM73.36 16.72C73.36 16.6667 73.3467 16.6267 73.32 16.6C73.1867 16.68 72.8933 16.76 72.44 16.84C72.0133 16.92 71.56 17.0133 71.08 17.12C70.6267 17.2267 70.2133 17.3333 69.84 17.44C69.4667 17.5467 69.28 17.6667 69.28 17.8C69.28 17.8533 69.2933 17.8933 69.32 17.92C69.4 17.9467 69.5733 17.9867 69.84 18.04C70.1067 18.0933 70.4 18.16 70.72 18.24C71.0667 18.2933 71.3867 18.3467 71.68 18.4C72 18.4533 72.24 18.48 72.4 18.48C72.5333 18.48 72.6533 18.4133 72.76 18.28C72.8933 18.12 73 17.9467 73.08 17.76C73.16 17.5467 73.2267 17.3467 73.28 17.16C73.3333 16.9733 73.36 16.8267 73.36 16.72ZM54.92 17.92C54.9733 18.5067 55.08 19.0933 55.24 19.68C55.4 20.2667 55.48 20.84 55.48 21.4C55.48 21.64 55.4267 21.9333 55.32 22.28C55.2133 22.6267 55 22.8 54.68 22.8V17.68L54.92 17.92ZM68.28 21.92L68.32 21.16C68.32 20.7333 68.24 20.4133 68.08 20.2C67.9467 19.9867 67.7867 19.8133 67.6 19.68C67.44 19.52 67.28 19.36 67.12 19.2C66.9867 19.04 66.92 18.8 66.92 18.48H66.32C66.32 18.64 66.3333 18.8133 66.36 19C66.4133 19.16 66.52 19.2933 66.68 19.4H60.8C60.7733 19.4 60.72 19.4933 60.64 19.68C60.5867 19.84 60.5467 19.9733 60.52 20.08L60.48 21.16V21.6C60.48 21.7067 60.4933 21.8133 60.52 21.92L61.08 22.48H67.72L68.28 21.92ZM70.4 22.2C70.6133 22.4933 70.7733 22.7067 70.88 22.84C70.9867 22.9733 71.1733 23.04 71.44 23.04C71.6267 23.04 71.7733 22.9867 71.88 22.88C72.0133 22.7467 72.1067 22.5867 72.16 22.4C72.24 22.2133 72.28 22.0267 72.28 21.84C72.3067 21.6533 72.32 21.48 72.32 21.32C72.24 21.32 72.0933 21.32 71.88 21.32C71.6667 21.32 71.44 21.3467 71.2 21.4C70.9867 21.4533 70.8 21.5333 70.64 21.64C70.48 21.7467 70.4 21.8933 70.4 22.08V22.2ZM60 22.48C60 22.1067 59.8933 21.8267 59.68 21.64C59.4667 21.4267 59.1867 21.32 58.84 21.32C58.84 21.48 58.8933 21.64 59 21.8C59.1067 21.9333 59.2267 22.0667 59.36 22.2C59.4933 22.3067 59.6133 22.4133 59.72 22.52C59.8533 22.6267 59.9467 22.6933 60 22.72V22.48ZM50.68 22.2H50.4L49.08 23.52C49.0533 23.5467 49 23.56 48.92 23.56C48.84 23.56 48.7733 23.56 48.72 23.56C48.4533 23.56 48.2267 23.5067 48.04 23.4C47.8533 23.2933 47.64 23.24 47.4 23.24C47.4 23.6133 47.52 23.8933 47.76 24.08C48 24.2667 48.2933 24.4 48.64 24.48C48.9867 24.56 49.3467 24.6133 49.72 24.64C50.0933 24.64 50.4133 24.64 50.68 24.64V22.2ZM65.08 23.4C65.08 23.24 65 23.12 64.84 23.04C64.7067 22.96 64.5733 22.92 64.44 22.92C64.44 23.0533 64.4533 23.2267 64.48 23.44C64.5333 23.6267 64.64 23.7467 64.8 23.8C64.88 23.7733 64.9733 23.68 65.08 23.52V23.4ZM54.68 25.12C54.6 25.1467 54.56 25.1067 54.56 25C54.56 24.8933 54.6 24.8533 54.68 24.88C54.76 24.88 54.8 24.92 54.8 25C54.8 25.08 54.76 25.12 54.68 25.12ZM68 27.52L68.28 27.28V27.52H68ZM50.92 30.56C50.92 30.4 50.9067 30.1733 50.88 29.88C50.8533 29.5867 50.8 29.3067 50.72 29.04C50.64 28.7733 50.5067 28.5467 50.32 28.36C50.16 28.1467 49.92 28.04 49.6 28.04C49.4667 28.04 49.3333 28.08 49.2 28.16C49.0933 28.2133 49.04 28.32 49.04 28.48C49.04 28.6133 49.1067 28.8 49.24 29.04C49.3733 29.2533 49.5333 29.48 49.72 29.72C49.9333 29.9333 50.1467 30.1333 50.36 30.32C50.5733 30.48 50.76 30.56 50.92 30.56ZM44.08 32.04C43.2533 32.04 42.84 32.44 42.84 33.24C43.1333 33.24 43.4133 33.1067 43.68 32.84C43.9467 32.5733 44.08 32.3067 44.08 32.04ZM53.6 32.32C53.5733 32.2133 53.48 32.1333 53.32 32.08C53.16 32.1333 53.0667 32.2667 53.04 32.48C53.0133 32.6667 53 32.8133 53 32.92C53.1333 32.92 53.2667 32.8933 53.4 32.84C53.5333 32.76 53.6 32.64 53.6 32.48V32.32ZM60.28 33.12C60.12 33.1733 60.0267 33.2533 60 33.36C60 33.44 60 33.5467 60 33.68C60 33.7867 60 33.8933 60 34C60.0267 34.08 60.12 34.1467 60.28 34.2V33.12ZM48.28 33.4H48V33.68H48.28V33.4ZM42.4 36.88V36.6L42.68 36.88H42.4ZM44.8 37.92C44.7467 38.6933 44.44 39.08 43.88 39.08C43.2933 39.08 42.9733 38.6933 42.92 37.92H44.8ZM69.08 38.48C68.9467 38.48 68.88 38.3867 68.88 38.2C68.88 38.0133 68.9467 37.92 69.08 37.92C69.2133 37.92 69.28 38.0133 69.28 38.2C69.28 38.3867 69.2133 38.48 69.08 38.48ZM74.12 38.2C74.0933 38.28 74.0133 38.32 73.88 38.32C73.7467 38.32 73.6533 38.28 73.6 38.2C73.5467 38.12 73.6267 38.08 73.84 38.08C74.08 38.08 74.1733 38.12 74.12 38.2ZM105.32 3.52C106.013 4.32 106.653 5.04 107.24 5.68C107.853 6.29333 108.48 6.86666 109.12 7.4C109.787 7.90667 110.493 8.38667 111.24 8.84C112.013 9.29333 112.893 9.74667 113.88 10.2C114.627 10.5467 115.44 10.84 116.32 11.08C117.2 11.2933 117.987 11.6267 118.68 12.08C118.52 12.1067 118.28 12.1733 117.96 12.28C117.667 12.36 117.36 12.4667 117.04 12.6C116.747 12.7067 116.467 12.84 116.2 13C115.96 13.1333 115.8 13.2667 115.72 13.4L117.08 14.72C116.867 14.96 116.667 15.2933 116.48 15.72C116.293 16.12 116.093 16.5333 115.88 16.96C115.693 17.36 115.48 17.72 115.24 18.04C115.027 18.3333 114.787 18.48 114.52 18.48C114.173 18.48 113.827 18.3467 113.48 18.08C113.16 17.7867 112.84 17.56 112.52 17.4C112.493 17.4267 112.467 17.44 112.44 17.44C112.413 17.4667 112.387 17.48 112.36 17.48C112.36 17.6133 112.4 17.7333 112.48 17.84C112.56 17.92 112.64 18 112.72 18.08C112.8 18.16 112.88 18.2533 112.96 18.36C113.04 18.44 113.08 18.56 113.08 18.72C113.08 18.96 113 19.1867 112.84 19.4C112.68 19.5867 112.507 19.7867 112.32 20C112.133 20.2133 111.947 20.4533 111.76 20.72C111.6 20.9867 111.507 21.3067 111.48 21.68C111.373 22.8 111.28 24 111.2 25.28C111.12 26.56 110.987 27.84 110.8 29.12C110.613 30.3733 110.333 31.5867 109.96 32.76C109.613 33.9067 109.107 34.92 108.44 35.8C107.773 36.7067 106.92 37.4267 105.88 37.96C104.84 38.4933 103.547 38.76 102 38.76L101.32 38.72C100.867 38.1067 100.573 37.6 100.44 37.2C100.307 36.8267 100.227 36.5067 100.2 36.24C100.173 36 100.147 35.7867 100.12 35.6C100.093 35.4133 99.9733 35.2133 99.76 35C99.5467 34.8133 99.1733 34.5733 98.64 34.28C98.1067 33.9867 97.32 33.6 96.28 33.12C95.8267 32.9067 95.6 32.56 95.6 32.08H102.92C102.787 32.24 102.707 32.4 102.68 32.56C102.653 32.6933 102.64 32.8533 102.64 33.04C102.64 33.28 102.72 33.56 102.88 33.88C103.067 34.2 103.293 34.5067 103.56 34.8C103.827 35.0667 104.107 35.2933 104.4 35.48C104.72 35.6933 105.027 35.8 105.32 35.8C105.427 35.8 105.573 35.7333 105.76 35.6C105.947 35.4667 106.067 35.36 106.12 35.28C105.96 35.1467 105.733 34.9467 105.44 34.68C105.173 34.3867 105.04 34.0933 105.04 33.8C105.04 33.56 105.107 33.3733 105.24 33.24C105.373 33.1067 105.533 33 105.72 32.92C105.933 32.8133 106.147 32.7467 106.36 32.72C106.573 32.6667 106.76 32.6267 106.92 32.6C106.813 32.3067 106.64 31.9733 106.4 31.6C106.187 31.2 105.88 31 105.48 31C105.16 31 104.813 31.0933 104.44 31.28C104.067 31.4667 103.747 31.64 103.48 31.8C103.453 31.7733 103.44 31.7333 103.44 31.68C103.44 30.7467 103.52 29.8 103.68 28.84C103.867 27.8533 104.053 26.8667 104.24 25.88C104.453 24.8933 104.64 23.9067 104.8 22.92C104.987 21.9333 105.08 20.96 105.08 20V19.52C105.053 19.3867 105.027 19.2667 105 19.16C104.973 19.0533 104.907 19 104.8 19H99.72C99.64 19 99.5467 19.2133 99.44 19.64C99.3333 20.04 99.2267 20.5067 99.12 21.04C99.0133 21.5733 98.92 22.0933 98.84 22.6C98.76 23.08 98.7067 23.3867 98.68 23.52C98.2533 24.9067 97.6933 26.3067 97 27.72C96.3067 29.1333 95.4667 30.4 94.48 31.52C93.4933 32.64 92.3467 33.5333 91.04 34.2C89.76 34.84 88.3067 35.1067 86.68 35C86.1733 35.3467 85.7467 35.6533 85.4 35.92C85.0533 36.1867 84.7467 36.4533 84.48 36.72C84.2133 36.9867 83.96 37.2667 83.72 37.56C83.48 37.88 83.2133 38.2667 82.92 38.72C82.84 38.88 82.76 38.9733 82.68 39C82.6267 39.0267 82.5333 39.04 82.4 39.04C82.2133 39.04 82.0267 38.9733 81.84 38.84C81.68 38.7067 81.6 38.5333 81.6 38.32C81.6 38.16 81.8267 37.8667 82.28 37.44C82.76 37.04 83.3067 36.5867 83.92 36.08C84.56 35.6 85.1867 35.12 85.8 34.64C86.44 34.1333 86.9067 33.72 87.2 33.4C89.12 31.32 90.4933 29.04 91.32 26.56C92.1733 24.08 92.6 21.44 92.6 18.64C92.6267 18.64 92.6933 18.6667 92.8 18.72L93.88 19.8C94.12 19.5867 94.36 19.3333 94.6 19.04C94.84 18.7467 94.96 18.4267 94.96 18.08C94.96 17.92 94.9467 17.7733 94.92 17.64C94.8933 17.5067 94.8133 17.3867 94.68 17.28H104.8C104.8 17.28 104.907 17.1467 105.12 16.88C105.36 16.6133 105.64 16.32 105.96 16C106.307 15.68 106.653 15.3733 107 15.08C107.373 14.7867 107.707 14.5867 108 14.48C108.027 14.4533 108.067 14.44 108.12 14.44C108.28 14.44 108.44 14.4933 108.6 14.6C108.787 14.7067 108.96 14.8267 109.12 14.96C109.28 15.0667 109.427 15.1867 109.56 15.32C109.693 15.4267 109.8 15.4933 109.88 15.52C109.88 15.5467 109.92 15.56 110 15.56C110.08 15.56 110.12 15.5467 110.12 15.52C110.173 15.4933 110.227 15.4133 110.28 15.28C110.36 15.1467 110.4 15.0533 110.4 15C110.613 15.32 110.947 15.6667 111.4 16.04C111.853 16.3867 112.227 16.6667 112.52 16.88C112.707 16.7467 112.853 16.5333 112.96 16.24C113.093 15.9467 113.2 15.6533 113.28 15.36C113.36 15.04 113.427 14.7467 113.48 14.48C113.533 14.2133 113.573 14.0267 113.6 13.92H113.32C113.107 13.92 112.907 13.9733 112.72 14.08C112.56 14.1867 112.36 14.24 112.12 14.24C111.907 14.24 111.6 14.1467 111.2 13.96C110.827 13.7733 110.44 13.56 110.04 13.32C109.64 13.08 109.293 12.8667 109 12.68C108.707 12.4667 108.547 12.3467 108.52 12.32C108.173 12.5067 107.787 12.4 107.36 12C106.96 11.6 106.533 11.04 106.08 10.32C105.653 9.6 105.227 8.78666 104.8 7.88C104.4 6.97333 104.04 6.09333 103.72 5.24C103.4 4.38667 103.133 3.64 102.92 3C102.733 2.33333 102.64 1.89333 102.64 1.68C102.64 1.44 102.667 1.24 102.72 1.08C102.773 0.919998 102.933 0.839999 103.2 0.839999C103.36 0.839999 103.507 0.906665 103.64 1.04C103.8 1.17333 103.933 1.33333 104.04 1.52C104.173 1.70667 104.28 1.89333 104.36 2.08C104.44 2.24 104.493 2.37333 104.52 2.48C104.467 2.48 104.373 2.54667 104.24 2.68C104.107 2.81333 104.027 2.92 104 3C103.973 3.10666 104.013 3.29333 104.12 3.56C104.253 3.82667 104.387 4 104.52 4.08L105.08 3.52H105.32ZM99.72 3.8C99.8533 3.85333 99.9467 3.94666 100 4.08C100.053 4.18666 100.08 4.29333 100.08 4.4C99.68 4.4 99.32 4.49333 99 4.68C98.7067 4.86667 98.4133 5.08 98.12 5.32C97.8267 5.53333 97.5333 5.73333 97.24 5.92C96.9467 6.10667 96.6133 6.2 96.24 6.2C96.0533 6.2 95.8933 6.16 95.76 6.08C95.6267 6 95.4933 5.90667 95.36 5.8C95.2533 5.69333 95.12 5.6 94.96 5.52C94.8267 5.44 94.6667 5.4 94.48 5.4C94.24 5.4 93.9867 5.4 93.72 5.4C93.4533 5.37333 93.1867 5.38666 92.92 5.44C92.6533 5.46667 92.4133 5.54667 92.2 5.68C91.9867 5.78667 91.8267 5.96 91.72 6.2C92.3867 6.14666 92.92 6.18666 93.32 6.32C93.7467 6.45333 94.1333 6.61333 94.48 6.8C94.8533 6.96 95.2267 7.12 95.6 7.28C96 7.44 96.5067 7.52 97.12 7.52C97.12 7.89333 96.9733 8.2 96.68 8.44C96.3867 8.68 96.0667 8.90667 95.72 9.12C95.3733 9.33333 95.0533 9.58666 94.76 9.88C94.4933 10.1467 94.3733 10.52 94.4 11C94.16 11.2667 93.7333 11.64 93.12 12.12C92.5333 12.5733 91.9067 13.0667 91.24 13.6C90.6 14.1333 89.9867 14.6667 89.4 15.2C88.84 15.7333 88.4667 16.2 88.28 16.6C88.2533 16.6 88.24 16.64 88.24 16.72C88.24 16.8 88.2533 16.8533 88.28 16.88C88.28 16.9333 88.2933 16.9733 88.32 17C88.3467 17.0267 88.3733 17.0667 88.4 17.12C88.4267 17.1733 88.4667 17.2267 88.52 17.28H91.08C91.08 17.84 91.2933 18.32 91.72 18.72H86.4C86.1867 18.3467 85.92 18.16 85.6 18.16C85.44 18.16 85.3467 18.1733 85.32 18.2L81.88 19.8L81.4 19.84C81.24 19.84 81.0533 19.8267 80.84 19.8C80.6267 19.7733 80.52 19.64 80.52 19.4V19.28C82.0667 17.76 83.5333 16.2533 84.92 14.76C86.3067 13.24 87.5067 11.5467 88.52 9.68C88.84 9.09333 89.1333 8.44 89.4 7.72C89.6933 7 89.9867 6.26666 90.28 5.52C90.5733 4.77333 90.88 4.05333 91.2 3.36C91.52 2.64 91.88 1.98667 92.28 1.4C92.3867 1.26667 92.4667 1.18667 92.52 1.16C92.5733 1.13333 92.6667 1.12 92.8 1.12H93.08L99.72 3.8ZM89.32 10.72C89.4533 10.72 89.52 10.64 89.52 10.48C89.52 10.2933 89.4533 10.2 89.32 10.2C89.1867 10.2 89.12 10.2933 89.12 10.48C89.12 10.64 89.1867 10.72 89.32 10.72ZM119.2 12.32C119.173 12.4 119.12 12.44 119.04 12.44C118.987 12.44 118.947 12.4 118.92 12.32C118.92 12.24 118.973 12.2 119.08 12.2C119.187 12.2 119.227 12.24 119.2 12.32ZM86.72 14.04C86.1333 14.04 85.84 14.32 85.84 14.88C85.84 14.96 85.8533 15 85.88 15C85.9067 15.1067 85.9867 15.2 86.12 15.28C86.3333 15.1467 86.48 14.9733 86.56 14.76C86.6667 14.52 86.72 14.28 86.72 14.04ZM112.28 15.28V15H112.52V15.28H112.28ZM110.72 16.32C110.72 16.5067 110.787 16.6 110.92 16.6H111C111 16.7867 111.067 16.88 111.2 16.88C111.333 16.88 111.4 16.7867 111.4 16.6C111.4 16.4133 111.333 16.32 111.2 16.32H111.12C111.12 16.16 111.053 16.08 110.92 16.08H110.88C110.88 15.8933 110.813 15.8 110.68 15.8H110.6C110.6 15.6133 110.533 15.52 110.4 15.52C110.267 15.52 110.2 15.6133 110.2 15.8C110.2 15.9867 110.267 16.08 110.4 16.08H110.48C110.48 16.24 110.547 16.32 110.68 16.32H110.72ZM110.6 15.8C110.52 15.8533 110.48 15.9467 110.48 16.08C110.56 16.0533 110.6 15.96 110.6 15.8ZM87.2 16.6C87.3333 16.6 87.4 16.52 87.4 16.36C87.4 16.1733 87.3333 16.08 87.2 16.08C87.0667 16.08 87 16.1733 87 16.36C87 16.52 87.0667 16.6 87.2 16.6ZM110.88 16.08C110.773 16.08 110.72 16.16 110.72 16.32C110.827 16.32 110.88 16.24 110.88 16.08ZM111.12 16.32C111.04 16.3733 111 16.4667 111 16.6C111.08 16.5733 111.12 16.48 111.12 16.32ZM112 17.4C112.133 17.4 112.2 17.32 112.2 17.16C112.2 16.9733 112.133 16.88 112 16.88H111.92C111.973 16.6933 111.907 16.6 111.72 16.6C111.587 16.6 111.52 16.6933 111.52 16.88C111.52 17.04 111.587 17.12 111.72 17.12H111.8C111.747 17.3067 111.813 17.4 112 17.4ZM111.92 16.88C111.84 16.9333 111.8 17.0133 111.8 17.12C111.88 17.0933 111.92 17.0133 111.92 16.88ZM93.88 17.4C93.72 17.5333 93.5867 17.6133 93.48 17.64C93.3733 17.6667 93.24 17.68 93.08 17.68C92.8667 17.68 92.68 17.6667 92.52 17.64C92.3867 17.5867 92.2133 17.5067 92 17.4H93.88ZM93.6 18.48L93.88 18.2V18.48H93.6ZM107 19.4C106.547 19.4 106.213 19.56 106 19.88C105.813 20.1733 105.72 20.5333 105.72 20.96C106.2 20.96 106.533 20.8133 106.72 20.52C106.907 20.2267 107 19.8533 107 19.4ZM109.88 25.4C109.853 25.3733 109.813 25.2667 109.76 25.08C109.733 24.8667 109.693 24.6533 109.64 24.44C109.613 24.2 109.56 23.9733 109.48 23.76C109.427 23.52 109.373 23.36 109.32 23.28C109.32 23.2533 109.28 23.24 109.2 23.24C109.147 23.24 109.107 23.2533 109.08 23.28C108.787 24.08 108.48 24.88 108.16 25.68C107.84 26.4533 107.68 27.28 107.68 28.16C107.947 28.16 108.2 28.08 108.44 27.92C108.707 27.7333 108.947 27.5067 109.16 27.24C109.373 26.9733 109.547 26.6933 109.68 26.4C109.813 26.08 109.88 25.7867 109.88 25.52V25.4ZM93.08 24.6H92.8V24.88H93.08V24.6ZM92.52 28.88C92.4933 28.8533 92.4133 28.8133 92.28 28.76C92.1467 28.68 92.0533 28.6267 92 28.6H91.72C91.7733 28.7333 91.84 28.8133 91.92 28.84C92.0267 28.8667 92.1467 28.88 92.28 28.88H92.52ZM105.32 29.4C105.453 29.4 105.52 29.32 105.52 29.16C105.52 28.9733 105.453 28.88 105.32 28.88C105.187 28.88 105.12 28.9733 105.12 29.16C105.12 29.32 105.187 29.4 105.32 29.4ZM101.4 32.52C101.133 32.52 100.947 32.6133 100.84 32.8C100.76 32.9867 100.72 33.2133 100.72 33.48C101.013 33.48 101.2 33.3867 101.28 33.2C101.36 33.0133 101.4 32.7867 101.4 32.52ZM108 34.72C107.973 34.6133 107.88 34.5333 107.72 34.48C107.72 34.4533 107.68 34.44 107.6 34.44C107.52 34.44 107.48 34.4533 107.48 34.48C107.32 34.5333 107.227 34.6133 107.2 34.72H108ZM83.48 38.48C83.64 38.24 83.8933 37.96 84.24 37.64C84.5867 37.3467 84.96 37.0533 85.36 36.76C85.76 36.4933 86.1467 36.2667 86.52 36.08C86.8933 35.8933 87.2 35.8 87.44 35.8C87.6 35.8 87.7333 35.8133 87.84 35.84C87.9733 35.8667 88.12 35.9467 88.28 36.08C88.2 36.2133 87.96 36.4 87.56 36.64C87.16 36.9067 86.7067 37.1733 86.2 37.44C85.72 37.7333 85.2267 37.9733 84.72 38.16C84.24 38.3733 83.8667 38.48 83.6 38.48H83.48ZM159.92 33.92C159.92 34.0533 159.667 34.3333 159.16 34.76C158.68 35.1867 158.12 35.6533 157.48 36.16C156.84 36.6933 156.213 37.2133 155.6 37.72C155.013 38.2533 154.613 38.68 154.4 39C154.293 39.16 154.2 39.24 154.12 39.24C154.04 39.2667 153.907 39.28 153.72 39.28C153.427 39.28 153.107 39.1733 152.76 38.96C152.44 38.7467 152.12 38.48 151.8 38.16C151.507 37.8667 151.227 37.5467 150.96 37.2C150.72 36.88 150.533 36.5867 150.4 36.32C150.747 36.3733 150.973 36.36 151.08 36.28C151.187 36.2 151.24 36.0533 151.24 35.84L151.2 35.52L150.68 33.92H150.52C150.387 33.92 150.267 33.9733 150.16 34.08C150.053 34.1867 149.96 34.32 149.88 34.48C149.8 34.6133 149.707 34.76 149.6 34.92C149.52 35.08 149.427 35.2 149.32 35.28C149.107 35.04 148.907 34.84 148.72 34.68C148.533 34.52 148.293 34.44 148 34.44C147.893 34.44 147.8 34.4533 147.72 34.48C147 34.9867 146.24 35.52 145.44 36.08C144.64 36.6667 143.8 37.2 142.92 37.68C142.067 38.16 141.173 38.56 140.24 38.88C139.333 39.2 138.427 39.36 137.52 39.36C137.52 39.2267 137.533 39 137.56 38.68C137.587 38.36 137.733 38.2 138 38.2C138.213 38.2 138.4 38.24 138.56 38.32C138.747 38.4267 138.96 38.48 139.2 38.48C139.547 38.48 139.973 38.36 140.48 38.12C141.013 37.88 141.52 37.56 142 37.16C142.48 36.7867 142.893 36.3733 143.24 35.92C143.587 35.4667 143.76 35.0267 143.76 34.6C143.76 34.5467 143.747 34.5067 143.72 34.48C143.507 34.64 143.187 34.8533 142.76 35.12C142.36 35.4133 142.013 35.56 141.72 35.56C141.667 35.56 141.627 35.5467 141.6 35.52C141.867 35.28 142.24 34.96 142.72 34.56C143.2 34.16 143.667 33.72 144.12 33.24C144.6 32.7333 145.013 32.2133 145.36 31.68C145.707 31.1467 145.88 30.6533 145.88 30.2C145.88 29.7733 145.8 29.2533 145.64 28.64C145.48 28.0267 145.293 27.4 145.08 26.76C144.867 26.12 144.653 25.52 144.44 24.96C144.253 24.3733 144.107 23.8933 144 23.52L143.72 23.28C143.24 23.6 142.907 24.0933 142.72 24.76C142.56 25.4267 142.427 26.12 142.32 26.84C142.213 27.56 142.067 28.24 141.88 28.88C141.693 29.4933 141.333 29.9333 140.8 30.2L140.52 29.68C139.853 29.76 139.28 29.6933 138.8 29.48C138.347 29.24 138.12 28.76 138.12 28.04C138.12 27.72 138.147 27.4533 138.2 27.24C138.253 27.0267 138.413 26.7733 138.68 26.48C138.627 26.32 138.547 26.2267 138.44 26.2C138.36 26.1733 138.253 26.16 138.12 26.16C138.013 26.16 137.907 26.1733 137.8 26.2C137.72 26.2267 137.653 26.32 137.6 26.48C137.653 26.96 137.667 27.3467 137.64 27.64C137.613 27.9333 137.573 28.2 137.52 28.44C137.493 28.6533 137.453 28.88 137.4 29.12C137.347 29.3333 137.32 29.6133 137.32 29.96C137.32 30.12 137.387 30.2667 137.52 30.4C137.653 30.5333 137.8 30.64 137.96 30.72C138.147 30.8 138.333 30.8667 138.52 30.92C138.733 30.9733 138.907 31 139.04 31C139.333 31 139.573 30.9867 139.76 30.96C139.973 30.9333 140.227 30.8533 140.52 30.72C140.547 30.7467 140.56 30.8 140.56 30.88C140.56 31.1467 140.413 31.5333 140.12 32.04C139.853 32.52 139.507 33.0533 139.08 33.64C138.653 34.2267 138.173 34.8133 137.64 35.4C137.107 36.0133 136.587 36.56 136.08 37.04C135.573 37.5467 135.107 37.96 134.68 38.28C134.28 38.6 133.973 38.76 133.76 38.76C133.547 38.76 133.373 38.72 133.24 38.64C133.107 38.5867 133.04 38.44 133.04 38.2C133.04 38.0933 133.053 38 133.08 37.92L135.2 33.68L135.48 32.88V32.72C135.48 32.6133 135.32 32.5067 135 32.4C134.707 32.2667 134.36 32.0933 133.96 31.88C133.587 31.64 133.24 31.3467 132.92 31C132.6 30.6533 132.427 30.2133 132.4 29.68V37.92C132.4 38.2133 132.173 38.4533 131.72 38.64C131.293 38.8533 130.8 39.0267 130.24 39.16C129.68 39.2933 129.133 39.3867 128.6 39.44C128.093 39.52 127.747 39.56 127.56 39.56C127.213 39.56 126.96 39.52 126.8 39.44C126.667 39.36 126.6 39.12 126.6 38.72H130.12C130.227 38.72 130.373 38.6533 130.56 38.52C130.747 38.4133 130.867 38.3067 130.92 38.2H127.72C127.587 38.2 127.507 38.12 127.48 37.96C127.453 37.8267 127.44 37.72 127.44 37.64C127.44 37.5067 127.453 37.4267 127.48 37.4L128.8 36.08L126.52 35.52V31C126.52 30.9733 126.467 30.9333 126.36 30.88C126.28 30.8 126.2 30.7467 126.12 30.72H126C125.68 30.72 125.4 30.8667 125.16 31.16C124.947 31.4533 124.747 31.8 124.56 32.2C124.4 32.6 124.227 33.0133 124.04 33.44C123.88 33.8667 123.693 34.2133 123.48 34.48C123.4 34.5333 123.267 34.6533 123.08 34.84C122.92 35 122.733 35.1867 122.52 35.4C122.333 35.6133 122.147 35.8 121.96 35.96C121.8 36.1467 121.68 36.2667 121.6 36.32C121.547 36.3467 121.453 36.36 121.32 36.36C121.107 36.36 120.92 36.28 120.76 36.12C120.6 35.96 120.52 35.7733 120.52 35.56C120.52 35.16 120.573 34.6933 120.68 34.16C120.787 33.6267 120.92 33.08 121.08 32.52C121.24 31.96 121.387 31.4133 121.52 30.88C121.68 30.32 121.8 29.8267 121.88 29.4C121.96 29.2667 122.107 29.16 122.32 29.08C122.56 29 122.68 28.8933 122.68 28.76C122.68 28.5733 122.6 28.4533 122.44 28.4C122.307 28.32 122.173 28.28 122.04 28.28C122.04 28.1467 122.04 27.92 122.04 27.6C122.067 27.28 122.08 26.9467 122.08 26.6C122.08 26.2267 122.08 25.88 122.08 25.56C122.107 25.24 122.12 25.0133 122.12 24.88C122.12 24.8267 122.16 24.6933 122.24 24.48C122.347 24.24 122.4 24.1067 122.4 24.08C122.373 23.7867 122.293 23.52 122.16 23.28C122.053 23.04 121.933 22.8 121.8 22.56C121.693 22.32 121.587 22.08 121.48 21.84C121.373 21.5733 121.32 21.28 121.32 20.96C121.32 20.8267 121.413 20.7333 121.6 20.68C121.813 20.6267 122.053 20.6 122.32 20.6C122.613 20.6 122.947 20.6267 123.32 20.68C123.32 20.2 123.267 19.8267 123.16 19.56C123.08 19.2667 122.92 19.0533 122.68 18.92C122.467 18.7867 122.173 18.7067 121.8 18.68C121.453 18.6533 121.027 18.64 120.52 18.64V18.48C121.027 18.4533 121.627 18.4533 122.32 18.48C123.013 18.48 123.653 18.4133 124.24 18.28C124.853 18.12 125.373 17.8533 125.8 17.48C126.227 17.08 126.44 16.48 126.44 15.68C126.44 15.4933 126.427 15.36 126.4 15.28C124.88 15.1467 123.693 14.6267 122.84 13.72C121.987 12.7867 121.56 11.48 121.56 9.8C121.747 9.8 121.96 9.74667 122.2 9.64C122.467 9.53333 122.627 9.36 122.68 9.12C122.68 9.06667 122.64 8.93333 122.56 8.72C122.507 8.50667 122.453 8.37333 122.4 8.32C123.147 8.42666 123.707 8.32 124.08 8C124.48 7.68 124.76 7.25333 124.92 6.72C125.08 6.18666 125.173 5.6 125.2 4.96C125.227 4.32 125.253 3.72 125.28 3.16C125.307 2.57333 125.373 2.09333 125.48 1.72C125.613 1.32 125.853 1.12 126.2 1.12C126.547 1.12 126.947 1.17333 127.4 1.28C127.853 1.38666 128.293 1.50666 128.72 1.64C129.173 1.77333 129.587 1.92 129.96 2.08C130.36 2.24 130.68 2.37333 130.92 2.48C130.947 2.50667 130.96 2.54666 130.96 2.6C130.96 2.78666 130.88 2.92 130.72 3C130.587 3.05333 130.44 3.10666 130.28 3.16C130.12 3.18667 129.96 3.24 129.8 3.32C129.667 3.37333 129.6 3.49333 129.6 3.68C129.6 3.84 129.733 4.04 130 4.28C130.267 4.49333 130.493 4.6 130.68 4.6C130.92 4.6 131.133 4.53333 131.32 4.4C131.507 4.24 131.693 4.06667 131.88 3.88C132.067 3.69333 132.253 3.53333 132.44 3.4C132.653 3.24 132.893 3.16 133.16 3.16C133.16 3.64 133.027 3.96 132.76 4.12C132.52 4.25333 132.173 4.41333 131.72 4.6L126.92 9.4V9.72C126.92 10.04 127.027 10.4267 127.24 10.88C127.453 11.3333 127.747 11.56 128.12 11.56C128.2 11.56 128.253 11.5467 128.28 11.52C128.44 11.2533 128.6 10.8267 128.76 10.24C128.947 9.65333 129.133 9.06667 129.32 8.48C129.533 7.86666 129.76 7.33333 130 6.88C130.267 6.42667 130.573 6.2 130.92 6.2C131.08 6.2 131.213 6.21333 131.32 6.24C131.453 6.26666 131.587 6.34666 131.72 6.48C131.24 6.61333 130.8 6.94667 130.4 7.48C130.027 8.01333 129.84 8.52 129.84 9C129.84 9.50667 129.973 9.96 130.24 10.36C130.533 10.7333 130.84 11.0933 131.16 11.44C131.507 11.76 131.813 12.08 132.08 12.4C132.373 12.72 132.52 13.0533 132.52 13.4C132.52 13.4267 132.493 13.4933 132.44 13.6C132.387 13.7067 132.333 13.8267 132.28 13.96C132.227 14.0667 132.16 14.1733 132.08 14.28C132.027 14.3867 132 14.4533 132 14.48L131.96 14.76C131.96 14.8933 131.973 14.9733 132 15L133.32 15.8C133.373 15.8533 133.4 15.8933 133.4 15.92C133.4 16 133.333 16.08 133.2 16.16C133.093 16.2133 132.96 16.2667 132.8 16.32C132.64 16.3733 132.48 16.4267 132.32 16.48C132.187 16.5067 132.08 16.5467 132 16.6C132.293 16.8133 132.533 16.96 132.72 17.04C132.933 17.12 133.187 17.16 133.48 17.16C133.773 17.16 133.973 17.0667 134.08 16.88C134.187 16.6667 134.387 16.56 134.68 16.56C135.107 16.56 135.493 16.7067 135.84 17C136.213 17.2933 136.533 17.6533 136.8 18.08C137.067 18.48 137.267 18.92 137.4 19.4C137.56 19.8533 137.64 20.2533 137.64 20.6C137.64 21.4267 137.44 22.1333 137.04 22.72C136.64 23.28 135.987 23.56 135.08 23.56C134.493 23.56 133.96 23.4667 133.48 23.28C133.027 23.0667 132.627 22.7067 132.28 22.2C132.253 22.2533 132.24 22.3733 132.24 22.56C132.24 22.72 132.24 22.8267 132.24 22.88C132.24 23.3333 132.413 23.7467 132.76 24.12C133.107 24.4667 133.52 24.7867 134 25.08C134.48 25.3733 134.973 25.6533 135.48 25.92C136.013 26.1867 136.453 26.4533 136.8 26.72C137.12 26.5867 137.373 26.0933 137.56 25.24C137.773 24.36 137.933 23.4 138.04 22.36C138.173 21.32 138.267 20.3467 138.32 19.44C138.373 18.5067 138.4 17.92 138.4 17.68C138.4 17.5733 138.413 17.16 138.44 16.44C138.467 15.72 138.493 14.8933 138.52 13.96C138.573 13.0267 138.613 12.0933 138.64 11.16C138.667 10.2 138.68 9.44 138.68 8.88V8.08C138.653 7.92 138.613 7.72 138.56 7.48C138.533 7.24 138.507 7.01333 138.48 6.8C138.453 6.56 138.427 6.36 138.4 6.2C138.4 6.04 138.4 5.94667 138.4 5.92L138.12 5.68C137.907 5.65333 137.627 5.64 137.28 5.64C136.96 5.61333 136.64 5.57333 136.32 5.52C136.027 5.44 135.76 5.32 135.52 5.16C135.307 4.97333 135.2 4.69333 135.2 4.32C135.2 4.24 135.213 4.12 135.24 3.96C135.267 3.77333 135.347 3.68 135.48 3.68H147.48L149.6 1.4C149.627 1.37333 149.707 1.36 149.84 1.36C150.08 1.36 150.48 1.52 151.04 1.84C151.6 2.13333 152.173 2.49333 152.76 2.92C153.347 3.34667 153.853 3.78667 154.28 4.24C154.733 4.66667 154.96 5.01333 154.96 5.28C154.96 5.44 154.88 5.58666 154.72 5.72C154.587 5.85333 154.413 5.98666 154.2 6.12C154.013 6.22666 153.827 6.36 153.64 6.52C153.48 6.65333 153.373 6.81333 153.32 7C153.08 7.96 152.853 8.94667 152.64 9.96C152.427 10.9733 152.32 11.9867 152.32 13C152.693 13 152.987 12.8933 153.2 12.68C153.44 12.44 153.747 12.32 154.12 12.32C154.36 12.32 154.64 12.44 154.96 12.68C155.28 12.8933 155.587 13.1467 155.88 13.44C156.173 13.7333 156.427 14.0133 156.64 14.28C156.88 14.52 157.027 14.6667 157.08 14.72C156.92 14.7733 156.827 14.8533 156.8 14.96C156.8 15.04 156.8 15.1333 156.8 15.24C156.8 15.64 156.84 16.0133 156.92 16.36C157.027 16.7067 157.293 16.88 157.72 16.88C158.013 16.88 158.213 16.8133 158.32 16.68C158.453 16.5467 158.573 16.3467 158.68 16.08C158.813 16.1067 158.893 16.1733 158.92 16.28C158.947 16.3867 158.96 16.4933 158.96 16.6C158.96 16.7067 158.947 16.8 158.92 16.88C158.867 16.88 158.773 16.92 158.64 17C158.507 17.08 158.373 17.16 158.24 17.24C158.107 17.32 157.973 17.4133 157.84 17.52C157.707 17.6 157.627 17.6533 157.6 17.68C157.547 17.7067 157.44 17.9067 157.28 18.28C157.12 18.6533 156.933 19.12 156.72 19.68C156.533 20.24 156.32 20.8533 156.08 21.52C155.84 22.1867 155.6 22.84 155.36 23.48C155.12 24.12 154.893 24.7067 154.68 25.24C154.467 25.7733 154.28 26.1867 154.12 26.48C154.04 26.6133 153.92 26.8 153.76 27.04C153.627 27.2533 153.48 27.4933 153.32 27.76C153.187 28 153.067 28.2533 152.96 28.52C152.853 28.7867 152.8 29.04 152.8 29.28V29.68C152.853 29.7333 152.96 29.84 153.12 30C153.28 30.1333 153.44 30.2933 153.6 30.48C153.787 30.64 153.947 30.8 154.08 30.96C154.24 31.0933 154.347 31.2 154.4 31.28C154.507 31.4133 154.693 31.5333 154.96 31.64C155.253 31.72 155.547 31.8133 155.84 31.92C156.133 32.0267 156.4 32.16 156.64 32.32C156.88 32.4533 157.027 32.64 157.08 32.88C157.08 32.9067 157.04 33.0933 156.96 33.44C156.907 33.76 156.853 34.0133 156.8 34.2C156.8 34.2533 156.747 34.3867 156.64 34.6C156.56 34.8133 156.52 34.9467 156.52 35C156.52 35.1333 156.587 35.2133 156.72 35.24C156.853 35.2667 156.96 35.28 157.04 35.28C157.2 35.28 157.427 35.2533 157.72 35.2C158.013 35.1467 158.293 35.0667 158.56 34.96C158.853 34.8533 159.107 34.72 159.32 34.56C159.533 34.3733 159.64 34.16 159.64 33.92H159.92ZM151.72 3C151.72 2.94667 151.653 2.90667 151.52 2.88C151.413 2.82666 151.28 2.8 151.12 2.8C150.96 2.77333 150.787 2.76 150.6 2.76C150.44 2.73333 150.32 2.72 150.24 2.72C150.053 2.72 149.88 2.76 149.72 2.84C149.587 2.89333 149.52 3.04 149.52 3.28H151.72V3ZM147.32 4.6C147.507 4.6 147.72 4.57333 147.96 4.52C148.227 4.46666 148.36 4.30666 148.36 4.04C148.147 4.04 147.88 4.08 147.56 4.16C147.267 4.21333 147.053 4.36 146.92 4.6H147.32ZM140.8 5.68C140.587 5.81333 140.48 5.98667 140.48 6.2H140.8V5.68ZM147.48 6.2C147.453 6.12 147.4 6.01333 147.32 5.88C147.267 5.74667 147.227 5.68 147.2 5.68H144.8C144.8 5.94666 144.787 6.42666 144.76 7.12C144.76 7.78666 144.747 8.50667 144.72 9.28C144.693 10.0267 144.653 10.7467 144.6 11.44C144.573 12.1333 144.547 12.6133 144.52 12.88L144.56 15.08C144.107 15.08 143.773 15.1867 143.56 15.4C143.373 15.5867 143.2 15.8 143.04 16.04C142.907 16.28 142.733 16.5067 142.52 16.72C142.333 16.9333 142.027 17.0667 141.6 17.12C141.653 17.1467 141.747 17.16 141.88 17.16C141.987 17.16 142.307 17.08 142.84 16.92C143.4 16.76 143.973 16.5733 144.56 16.36C145.147 16.12 145.68 15.88 146.16 15.64C146.64 15.4 146.88 15.1867 146.88 15H145.88L147.48 6.48V6.2ZM132.8 6.72C132.827 6.72 132.987 6.77333 133.28 6.88C133.6 6.98666 133.973 7.12 134.4 7.28C134.827 7.41333 135.253 7.56 135.68 7.72C136.133 7.85333 136.507 7.97333 136.8 8.08C137.04 8.16 137.187 8.21333 137.24 8.24C137.32 8.26667 137.36 8.37333 137.36 8.56C137.36 8.8 137.28 8.98667 137.12 9.12C136.96 9.22667 136.773 9.32 136.56 9.4C136.373 9.48 136.173 9.56 135.96 9.64C135.747 9.69333 135.587 9.78667 135.48 9.92C135.4 10.0267 135.267 10.2 135.08 10.44C134.92 10.6533 134.733 10.8933 134.52 11.16C134.333 11.4 134.147 11.64 133.96 11.88C133.8 12.0933 133.68 12.24 133.6 12.32H133.32C133.187 12.32 133.04 12.24 132.88 12.08C132.747 11.8933 132.613 11.68 132.48 11.44C132.347 11.2 132.227 10.96 132.12 10.72C132.04 10.4533 132 10.24 132 10.08C132 9.49333 132.107 8.94667 132.32 8.44C132.533 7.90667 132.64 7.33333 132.64 6.72H132.8ZM150.16 8.2C150.16 7.98667 150.147 7.77333 150.12 7.56C150.12 7.34667 150.04 7.16 149.88 7C149.72 7.05333 149.627 7.13333 149.6 7.24C149.6 7.32 149.6 7.41333 149.6 7.52C149.6 7.73333 149.627 7.98667 149.68 8.28C149.76 8.54666 149.907 8.74666 150.12 8.88L150.16 8.2ZM120.8 8.6C120.747 8.57333 120.68 8.49333 120.6 8.36C120.547 8.22667 120.52 8.13333 120.52 8.08C120.52 8.05333 120.547 8.01333 120.6 7.96C120.68 7.88 120.747 7.82667 120.8 7.8H121.08L120.8 8.6ZM122.12 8.32C121.987 8.32 121.92 8.24 121.92 8.08C121.92 7.89333 121.987 7.8 122.12 7.8C122.253 7.8 122.32 7.89333 122.32 8.08C122.32 8.24 122.253 8.32 122.12 8.32ZM130.68 8.88C130.707 8.85333 130.747 8.84 130.8 8.84C130.88 8.84 130.92 8.85333 130.92 8.88C131.08 8.93333 131.173 9.01333 131.2 9.12C131.067 9.36 130.893 9.48 130.68 9.48V8.88ZM121.32 9.68C121.187 9.68 121.12 9.58667 121.12 9.4C121.12 9.21333 121.187 9.12 121.32 9.12C121.453 9.12 121.52 9.21333 121.52 9.4C121.52 9.58667 121.453 9.68 121.32 9.68ZM150.76 11.32C150.76 11.08 150.707 10.8667 150.6 10.68C150.52 10.4933 150.333 10.4 150.04 10.4C150.04 10.6667 150.08 10.8933 150.16 11.08C150.267 11.24 150.467 11.32 150.76 11.32ZM124 12.72C124 12.4267 123.88 12.1867 123.64 12C123.4 11.7867 123.16 11.6267 122.92 11.52C122.893 11.6 122.88 11.6933 122.88 11.8C122.88 12.0933 123 12.32 123.24 12.48C123.48 12.64 123.733 12.7733 124 12.88V12.72ZM143.48 12.08H139.48C139.453 12.08 139.4 12.12 139.32 12.2C139.24 12.2533 139.2 12.2933 139.2 12.32C139.173 12.4 139.147 12.5333 139.12 12.72C139.093 12.88 139.067 13.0667 139.04 13.28C139.013 13.4667 138.987 13.6533 138.96 13.84C138.933 14 138.92 14.12 138.92 14.2C139.053 14.44 139.16 14.6 139.24 14.68C139.347 14.7333 139.507 14.76 139.72 14.76C140.04 14.76 140.333 14.7333 140.6 14.68C140.867 14.6267 141.12 14.5867 141.36 14.56C141.627 14.5067 141.893 14.4667 142.16 14.44C142.453 14.4133 142.8 14.4267 143.2 14.48L143.48 14.2V12.08ZM150.4 12.32C150.187 12.3733 150.027 12.4933 149.92 12.68C149.84 12.8667 149.773 13.0667 149.72 13.28C149.693 13.4933 149.68 13.7067 149.68 13.92C149.68 14.1067 149.68 14.2533 149.68 14.36C150.08 14.36 150.293 14.1867 150.32 13.84C150.373 13.4667 150.4 13.1467 150.4 12.88V12.32ZM128.6 20.32C128.6 19.8933 128.533 19.5067 128.4 19.16C128.293 18.8133 128.24 18.4533 128.24 18.08C128.24 18 128.253 17.9467 128.28 17.92C128.893 17.2267 129.453 16.48 129.96 15.68C130.467 14.88 130.72 14 130.72 13.04L130.4 13.12C130.027 13.4933 129.773 13.8133 129.64 14.08C129.507 14.32 129.427 14.5333 129.4 14.72C129.373 14.9067 129.36 15.0667 129.36 15.2C129.36 15.3333 129.293 15.48 129.16 15.64C129.027 15.8 128.787 15.9733 128.44 16.16C128.12 16.3467 127.613 16.5867 126.92 16.88V17.4L127.48 17.92C127.507 18.0267 127.547 18.2 127.6 18.44C127.68 18.6533 127.76 18.8933 127.84 19.16C127.947 19.4 128.04 19.64 128.12 19.88C128.2 20.0933 128.253 20.24 128.28 20.32H128.6ZM157.32 15.28C157.187 15.28 157.12 15.1867 157.12 15C157.12 14.8133 157.187 14.72 157.32 14.72C157.453 14.72 157.52 14.8133 157.52 15C157.52 15.1867 157.453 15.28 157.32 15.28ZM148.28 15.52C148.413 15.52 148.48 15.44 148.48 15.28C148.48 15.0933 148.413 15 148.28 15C148.147 15 148.08 15.0933 148.08 15.28C148.08 15.44 148.147 15.52 148.28 15.52ZM158.4 16.08C158.267 16.08 158.2 15.9867 158.2 15.8H158.12C157.987 15.8 157.92 15.72 157.92 15.56C157.92 15.3733 157.987 15.28 158.12 15.28C158.253 15.28 158.32 15.36 158.32 15.52H158.4C158.533 15.52 158.6 15.6133 158.6 15.8C158.6 15.9867 158.533 16.08 158.4 16.08ZM129.32 17.12C129.293 17.1467 129.28 17.24 129.28 17.4C129.28 17.6667 129.387 17.8267 129.6 17.88C129.84 17.9333 130.053 17.96 130.24 17.96C130.587 17.96 130.88 17.9333 131.12 17.88C131.36 17.8 131.48 17.5733 131.48 17.2C131.48 16.9867 131.44 16.7067 131.36 16.36C131.28 15.9867 131.093 15.8 130.8 15.8H130.68L129.32 17.12ZM150.68 25.68C150.76 25.1733 150.88 24.7467 151.04 24.4C151.2 24.0267 151.427 23.6533 151.72 23.28C151.667 23.2533 151.587 23.24 151.48 23.24C151.107 23.24 150.8 23.3733 150.56 23.64C150.32 23.9067 150.013 24.04 149.64 24.04L149.6 23.8C149.68 23.5067 149.787 23.1333 149.92 22.68C150.08 22.2 150.24 21.7067 150.4 21.2C150.56 20.6933 150.693 20.2 150.8 19.72C150.907 19.2133 150.96 18.7867 150.96 18.44C150.96 18.0933 150.787 17.92 150.44 17.92H150.12C149.96 17.9467 149.68 17.9867 149.28 18.04C148.88 18.0667 148.453 18.0933 148 18.12C147.547 18.1467 147.12 18.1733 146.72 18.2C146.32 18.2 146.04 18.2 145.88 18.2C145.693 18.2 145.6 18.2933 145.6 18.48C145.6 19.12 145.72 19.8533 145.96 20.68C146.2 21.5067 146.533 22.2933 146.96 23.04C147.387 23.7867 147.893 24.4133 148.48 24.92C149.093 25.4267 149.773 25.68 150.52 25.68H150.68ZM156.24 20.52C155.92 20.52 155.573 20.5467 155.2 20.6C154.827 20.6267 154.64 20.8533 154.64 21.28C154.64 21.4667 154.653 21.6 154.68 21.68C154.813 21.5733 154.973 21.5067 155.16 21.48C155.347 21.4267 155.52 21.3733 155.68 21.32C155.84 21.24 155.973 21.1467 156.08 21.04C156.187 20.9333 156.24 20.76 156.24 20.52ZM154.28 23.28C154.547 23.28 154.693 23.12 154.72 22.8C154.747 22.48 154.76 22.2533 154.76 22.12C154.547 22.12 154.373 22.1867 154.24 22.32C154.107 22.4267 153.987 22.56 153.88 22.72C153.853 22.7467 153.84 22.8 153.84 22.88C153.84 22.9333 153.853 22.9733 153.88 23C153.907 23.1067 153.987 23.2 154.12 23.28H154.28ZM126.44 23.52C126.44 23.1733 126.413 22.9067 126.36 22.72C126.333 22.5333 126.12 22.44 125.72 22.44C125.24 22.44 124.72 22.6267 124.16 23C123.627 23.3467 123.213 23.7067 122.92 24.08C123.293 24.32 123.693 24.48 124.12 24.56C124.547 24.6133 124.96 24.64 125.36 24.64C125.867 24.64 126.173 24.5867 126.28 24.48C126.387 24.3733 126.44 24.0533 126.44 23.52ZM140.6 26.2C140.6 26.0667 140.573 25.8533 140.52 25.56C140.467 25.2667 140.333 25.12 140.12 25.12C139.933 25.12 139.813 25.2667 139.76 25.56C139.707 25.8533 139.68 26.0667 139.68 26.2H140.6ZM128.28 27.92C128.28 27.7867 128.2 27.6133 128.04 27.4C127.907 27.1867 127.733 26.9867 127.52 26.8C127.307 26.6133 127.08 26.4533 126.84 26.32C126.627 26.1867 126.453 26.12 126.32 26.12C126.32 26.52 126.36 26.84 126.44 27.08C126.52 27.2933 126.64 27.4667 126.8 27.6C126.987 27.7333 127.2 27.8533 127.44 27.96C127.68 28.04 127.96 28.16 128.28 28.32V27.92ZM131.2 29.56C131.2 29.08 131.187 28.6533 131.16 28.28C131.16 27.88 131.08 27.5467 130.92 27.28C130.787 27.0133 130.573 26.8133 130.28 26.68C129.987 26.52 129.56 26.44 129 26.44C129 26.6267 129.053 26.8133 129.16 27C129.293 27.1867 129.427 27.3867 129.56 27.6C129.72 27.7867 129.853 27.9867 129.96 28.2C130.093 28.4133 130.16 28.64 130.16 28.88C130.16 29.28 130.013 29.6667 129.72 30.04C129.453 30.3867 129.32 30.8 129.32 31.28C129.32 31.6267 129.507 31.8 129.88 31.8H130.12C130.173 31.72 130.253 31.5867 130.36 31.4C130.467 31.1867 130.573 30.9733 130.68 30.76C130.813 30.52 130.92 30.3067 131 30.12C131.107 29.9067 131.173 29.76 131.2 29.68V29.56ZM150 30.2C150.32 30.2 150.587 30.0933 150.8 29.88C151.013 29.6667 151.187 29.4133 151.32 29.12C151.48 28.8267 151.587 28.52 151.64 28.2C151.72 27.88 151.76 27.6133 151.76 27.4C151.76 27.24 151.733 27.0933 151.68 26.96C151.653 26.8 151.533 26.72 151.32 26.72H151.2C151.147 26.9867 151.027 27.2533 150.84 27.52C150.68 27.7867 150.507 28.0533 150.32 28.32C150.133 28.56 149.96 28.8 149.8 29.04C149.667 29.2533 149.6 29.4667 149.6 29.68C149.6 29.7067 149.627 29.7867 149.68 29.92C149.76 30.0533 149.827 30.1467 149.88 30.2H150ZM132.92 28.08C132.92 28.2667 132.973 28.4533 133.08 28.64C133.187 28.8 133.36 28.88 133.6 28.88C133.76 28.88 133.853 28.76 133.88 28.52C133.933 28.2533 133.96 28.1067 133.96 28.08H132.92ZM159.2 33.92C159.067 33.92 159 33.84 159 33.68C159 33.4933 159.067 33.4 159.2 33.4C159.333 33.4 159.4 33.4933 159.4 33.68C159.4 33.84 159.333 33.92 159.2 33.92ZM137.08 34.2V34.52C137.293 34.52 137.467 34.4133 137.6 34.2H137.08ZM153.36 37.28C153.36 37.0667 153.32 36.8933 153.24 36.76C153.187 36.6533 153.04 36.6 152.8 36.6C152.56 36.6 152.4 36.6533 152.32 36.76C152.267 36.8933 152.24 37.0667 152.24 37.28C152.24 37.4933 152.267 37.6533 152.32 37.76C152.4 37.8933 152.56 37.96 152.8 37.96C153.04 37.96 153.187 37.8933 153.24 37.76C153.32 37.6533 153.36 37.4933 153.36 37.28ZM126.68 37.68C126.627 37.7067 126.587 37.6667 126.56 37.56C126.56 37.48 126.56 37.3733 126.56 37.24C126.56 37.1333 126.56 37.04 126.56 36.96C126.587 36.88 126.627 36.8533 126.68 36.88C126.76 36.9333 126.8 37.0533 126.8 37.24C126.8 37.4533 126.76 37.6 126.68 37.68Z" fill="#333E44"/>
</svg>
