<svg width="123" height="62" viewBox="0 0 123 62" fill="none" xmlns="http://www.w3.org/2000/svg">
<path d="M60.776 17.432C60.3493 17.56 59.752 17.9227 58.984 18.52C58.216 19.1173 57.3627 19.8427 56.424 20.696C55.528 21.5493 54.5893 22.4667 53.608 23.448C52.6693 24.3867 51.7947 25.2827 50.984 26.136C50.216 26.9893 49.576 27.736 49.064 28.376C48.5947 29.016 48.36 29.4 48.36 29.528C48.36 31.064 48.6587 32.664 49.256 34.328C49.896 35.9493 50.664 37.5707 51.56 39.192C52.4987 40.7707 53.5013 42.264 54.568 43.672C55.6347 45.08 56.616 46.3387 57.512 47.448C58.4507 48.5147 59.2187 49.3893 59.816 50.072C60.456 50.712 60.776 51.0533 60.776 51.096C60.776 51.1813 60.456 51.5227 59.816 52.12C59.176 52.7173 58.4507 53.4427 57.64 54.296C56.872 55.1067 56.104 55.96 55.336 56.856C54.6107 57.7947 54.1413 58.6053 53.928 59.288C53.8853 59.3733 53.8427 59.5227 53.8 59.736C53.8 59.992 53.7573 60.2267 53.672 60.44C53.6293 60.696 53.544 60.9093 53.416 61.08C53.288 61.2933 53.096 61.4 52.84 61.4H52.648C52.5627 61.3147 52.3493 61.1013 52.008 60.76C51.6667 60.4613 51.4533 60.248 51.368 60.12C51.2827 60.0347 51.176 59.8853 51.048 59.672C50.9627 59.4587 50.92 59.3307 50.92 59.288C50.9627 59.16 51.112 58.8613 51.368 58.392C51.624 57.9227 51.7733 57.6453 51.816 57.56V57.112C50.8347 57.1973 50.0453 56.792 49.448 55.896C48.8507 55.0427 48.36 53.9333 47.976 52.568C47.6347 51.2027 47.3573 49.7307 47.144 48.152C46.9307 46.5307 46.7387 45.0373 46.568 43.672C46.3973 42.264 46.2053 41.0907 45.992 40.152C45.8213 39.2133 45.544 38.744 45.16 38.744C45.1173 38.744 44.9467 39.0427 44.648 39.64C44.392 40.2373 44.0293 41.0053 43.56 41.944C43.1333 42.8827 42.6427 43.928 42.088 45.08C41.576 46.1893 41.0427 47.2773 40.488 48.344C39.9333 49.368 39.4 50.3067 38.888 51.16C38.4187 51.9707 38.0347 52.5467 37.736 52.888C37.2667 53.3573 36.6053 54.0613 35.752 55C34.9413 55.9813 34.024 56.9413 33 57.88C32.0187 58.8613 30.9733 59.6933 29.864 60.376C28.7547 61.1013 27.7307 61.464 26.792 61.464C26.0667 61.464 25.704 61.0587 25.704 60.248C25.704 60.1627 25.704 60.056 25.704 59.928C25.7467 59.8 25.768 59.7147 25.768 59.672L27.88 57.56C27.8373 57.6453 27.752 57.8587 27.624 58.2C27.5387 58.5413 27.496 58.7547 27.496 58.84C27.4533 58.8827 27.432 58.968 27.432 59.096C27.432 59.352 27.5173 59.5227 27.688 59.608C27.9013 59.6933 28.1147 59.736 28.328 59.736C28.7973 59.736 29.0533 59.5867 29.096 59.288C29.1813 58.9893 29.224 58.6267 29.224 58.2C29.224 58.072 29.224 57.7947 29.224 57.368C29.224 56.984 29.0747 56.7707 28.776 56.728C28.8187 56.6427 28.9467 56.4293 29.16 56.088C29.416 55.7467 29.5653 55.5333 29.608 55.448V55C29.5653 54.9147 29.48 54.8293 29.352 54.744C29.2667 54.616 29.2027 54.552 29.16 54.552H9.96C9.704 54.552 9.53334 54.7227 9.448 55.064C9.36267 55.448 9.29867 55.8747 9.256 56.344C9.21334 56.856 9.128 57.3467 9 57.816C8.872 58.2853 8.63734 58.6267 8.296 58.84C7.4 59.4373 6.39734 59.864 5.288 60.12C4.17867 60.4187 3.09067 60.568 2.024 60.568C1.98134 60.568 1.72534 60.568 1.256 60.568C0.829335 60.6107 0.616002 60.4613 0.616002 60.12V42.2C0.658668 42.1147 0.786668 41.9013 1 41.56C1.256 41.2187 1.40534 41.0053 1.448 40.92V40.472L0.616002 39.64V3.8C0.616002 3.71466 0.658669 3.62933 0.744002 3.544C0.872002 3.416 0.957335 3.352 1 3.352C1.34134 3.352 1.768 3.45866 2.28 3.672C2.83467 3.84266 3.368 4.056 3.88 4.312C4.43467 4.52533 4.904 4.76 5.288 5.016C5.71467 5.22933 5.992 5.4 6.12 5.528C5.736 5.4 5.39467 5.48533 5.096 5.784C4.84 6.04 4.62667 6.38133 4.456 6.808C4.28534 7.192 4.15734 7.61867 4.072 8.088C4.02934 8.51466 4.008 8.856 4.008 9.112C4.008 10.4773 4.328 11.416 4.968 11.928C5.608 12.44 6.61067 12.696 7.976 12.696C7.976 11.8427 8.06134 11.2027 8.232 10.776C8.40267 10.3067 8.57334 9.944 8.744 9.688C8.95734 9.38933 9.14934 9.15466 9.32 8.984C9.49067 8.81333 9.576 8.57866 9.576 8.28V8.088C9.53334 8.00267 9.384 7.78933 9.128 7.448C8.872 7.064 8.72267 6.85066 8.68 6.808C8.63734 6.72266 8.616 6.57333 8.616 6.36H22.376L24.488 4.632L25.32 5.08H25.768C25.896 4.99466 26.1093 4.80266 26.408 4.504C26.7493 4.16266 26.9627 3.928 27.048 3.8C27.0907 3.75733 27.0693 3.69333 26.984 3.608C26.9413 3.48 26.92 3.39466 26.92 3.352H25.192C25.192 2.92533 25.384 2.54133 25.768 2.2C26.1947 1.816 26.6213 1.624 27.048 1.624C27.432 1.624 28.0507 1.88 28.904 2.392C29.7573 2.904 30.6107 3.52266 31.464 4.248C32.3173 4.93067 33.064 5.61333 33.704 6.296C34.3867 6.97866 34.728 7.49066 34.728 7.832V8.088C34.6427 8.216 34.4933 8.42933 34.28 8.728C34.0667 8.984 33.9387 9.112 33.896 9.112H9.576V51.16H22.376C22.4187 51.16 22.6747 50.9467 23.144 50.52C23.656 50.0507 24.1893 49.5173 24.744 48.92C25.3413 48.3227 25.8747 47.704 26.344 47.064C26.8133 46.3813 27.048 45.8267 27.048 45.4V45.208C26.9627 44.9947 26.8133 44.8453 26.6 44.76C26.344 45.656 25.768 46.3173 24.872 46.744C24.0187 47.128 23.1653 47.32 22.312 47.32C22.1413 47.32 21.9707 47.32 21.8 47.32C21.672 47.2773 21.5653 47.128 21.48 46.872C21.5653 44.696 21.5867 42.4987 21.544 40.28C21.5013 38.0613 21.352 35.864 21.096 33.688C20.8827 35.48 20.7333 37.2507 20.648 39C20.5627 40.7493 20.5627 42.52 20.648 44.312C20.648 44.696 20.4987 45.0373 20.2 45.336C19.9013 45.592 19.5173 45.8053 19.048 45.976C18.6213 46.1467 18.1733 46.2747 17.704 46.36C17.2347 46.4453 16.8507 46.488 16.552 46.488C16.04 46.488 15.6987 46.3387 15.528 46.04C15.3573 45.6987 15.208 45.272 15.08 44.76C14.952 45.8693 14.5467 46.6587 13.864 47.128C13.1813 47.5547 12.3067 47.768 11.24 47.768C11.1547 47.768 10.92 47.768 10.536 47.768C10.152 47.768 9.96 47.6187 9.96 47.32V28.44C10.4293 28.44 10.8773 28.5253 11.304 28.696C11.7307 28.824 12.1573 28.9733 12.584 29.144C13.0107 29.3147 13.416 29.4853 13.8 29.656C14.2267 29.784 14.6747 29.848 15.144 29.848C15.4 29.848 15.6347 29.784 15.848 29.656C16.0613 29.4853 16.2747 29.336 16.488 29.208C16.7013 29.0373 16.9147 28.888 17.128 28.76C17.384 28.5893 17.64 28.504 17.896 28.504C17.9813 28.504 18.0453 28.5253 18.088 28.568C18.3867 28.696 18.7493 28.952 19.176 29.336C19.6027 29.6773 20.0293 29.848 20.456 29.848C20.7547 29.848 20.968 29.7413 21.096 29.528C21.2667 29.272 21.3733 28.9733 21.416 28.632C21.5013 28.2907 21.544 27.9493 21.544 27.608C21.544 27.2667 21.544 26.9893 21.544 26.776C21.544 26.3067 21.48 25.9867 21.352 25.816C21.224 25.6027 20.904 25.496 20.392 25.496C20.0507 25.496 19.6027 25.6453 19.048 25.944C18.536 26.2 17.9387 26.52 17.256 26.904C16.5733 27.2453 15.8267 27.5653 15.016 27.864C14.2053 28.12 13.3733 28.248 12.52 28.248V10.52C13.2453 10.52 13.928 10.648 14.568 10.904C15.2507 11.1173 15.912 11.3733 16.552 11.672C17.192 11.9707 17.832 12.248 18.472 12.504C19.1547 12.7173 19.8587 12.824 20.584 12.824C21.352 12.824 21.928 12.7173 22.312 12.504C22.696 12.2907 23.144 11.672 23.656 10.648C23.784 10.6053 23.9973 10.584 24.296 10.584C24.7227 10.584 25.2773 10.7547 25.96 11.096C26.6853 11.3947 27.368 11.7787 28.008 12.248C28.6907 12.6747 29.2667 13.1653 29.736 13.72C30.248 14.232 30.504 14.7013 30.504 15.128C30.504 15.2133 30.4827 15.2773 30.44 15.32L28.968 17.048V25.56C28.968 25.9013 28.648 26.2213 28.008 26.52C27.368 26.8187 26.664 27.096 25.896 27.352C25.128 27.5653 24.424 27.7573 23.784 27.928C23.144 28.056 22.8027 28.12 22.76 28.12C22.9307 28.376 23.1867 28.6107 23.528 28.824C23.8693 29.0373 24.232 29.2293 24.616 29.4C25 29.528 25.3627 29.6347 25.704 29.72C26.088 29.8053 26.408 29.848 26.664 29.848C26.92 29.848 27.1547 29.784 27.368 29.656C27.5813 29.4853 27.7733 29.336 27.944 29.208C28.1573 29.0373 28.3707 28.888 28.584 28.76C28.7973 28.5893 29.0533 28.504 29.352 28.504C29.6507 28.504 30.056 28.632 30.568 28.888C31.08 29.1013 31.5707 29.3787 32.04 29.72C32.552 30.0187 32.9787 30.36 33.32 30.744C33.704 31.128 33.896 31.4693 33.896 31.768V31.96C33.8107 32.0453 33.576 32.2587 33.192 32.6C32.8507 32.9413 32.6587 33.1547 32.616 33.24C32.5307 33.3253 32.4453 33.4107 32.36 33.496C32.3173 33.5813 32.2533 33.6667 32.168 33.752C32.0827 33.88 32.0187 33.9867 31.976 34.072V45.208C31.8907 45.2933 31.8053 45.3573 31.72 45.4C31.6347 45.4427 31.5493 45.4853 31.464 45.528C31.4213 45.5707 31.3787 45.592 31.336 45.592L28.776 46.872C28.7333 46.9147 28.712 47 28.712 47.128C28.712 47.3413 28.8613 47.6187 29.16 47.96C29.4587 48.2587 29.8 48.5573 30.184 48.856C30.6107 49.1547 31.016 49.4107 31.4 49.624C31.8267 49.7947 32.1467 49.88 32.36 49.88C32.744 49.88 33.1067 49.5173 33.448 48.792C33.832 48.024 34.152 47.1707 34.408 46.232C34.7067 45.2933 34.9627 44.376 35.176 43.48C35.3893 42.584 35.5173 42.008 35.56 41.752C35.6027 41.8373 35.7307 41.944 35.944 42.072C36.2 42.2 36.3707 42.2427 36.456 42.2C37.0107 42.072 37.4373 41.7733 37.736 41.304C38.0347 40.792 38.2907 40.216 38.504 39.576C38.76 38.936 38.9947 38.2533 39.208 37.528C39.464 36.8027 39.784 36.12 40.168 35.48C40.5947 34.84 41.1493 34.2853 41.832 33.816C42.5147 33.304 43.4107 32.9627 44.52 32.792C44.5627 32.7067 44.584 32.5787 44.584 32.408C44.584 32.024 44.4773 31.7893 44.264 31.704C44.0933 31.576 43.8373 31.512 43.496 31.512C43.112 31.512 42.7493 31.5973 42.408 31.768C42.0667 31.896 41.704 31.96 41.32 31.96C40.936 31.96 40.5733 31.896 40.232 31.768C39.8907 31.5973 39.5493 31.4267 39.208 31.256C38.8667 31.0853 38.5253 30.936 38.184 30.808C37.8427 30.6373 37.48 30.552 37.096 30.552V23.448H36.008C35.88 23.576 35.6667 23.8107 35.368 24.152C35.0693 24.4507 34.7067 24.7707 34.28 25.112C33.8533 25.4533 33.4053 25.7733 32.936 26.072C32.5093 26.328 32.104 26.456 31.72 26.456C31.1653 26.456 30.888 26.1573 30.888 25.56C30.888 25.2187 30.9093 24.9627 30.952 24.792C31.0373 24.6213 31.1653 24.3013 31.336 23.832L33.448 17.88C33.4907 17.5387 33.6613 17.368 33.96 17.368C34.3013 17.3253 34.664 17.304 35.048 17.304C35.4747 17.2613 35.8587 17.1547 36.2 16.984C36.5413 16.8133 36.7547 16.408 36.84 15.768L37.288 14.488L34.728 13.208V13.016C34.728 11.096 34.984 9.15466 35.496 7.192C36.008 5.18666 36.328 3.20266 36.456 1.24C36.4987 0.94133 36.6693 0.791996 36.968 0.791996C37.2667 0.791996 37.5013 0.791996 37.672 0.791996C38.184 0.791996 39.0373 0.919997 40.232 1.176C41.4267 1.38933 42.6213 1.66666 43.816 2.008C45.0533 2.34933 46.12 2.73333 47.016 3.16C47.9547 3.544 48.424 3.88533 48.424 4.184C48.424 4.48266 48.168 4.888 47.656 5.4C47.144 5.86933 46.568 6.488 45.928 7.256C45.288 7.98133 44.712 8.87733 44.2 9.944C43.688 10.968 43.432 12.184 43.432 13.592H50.088C50.1733 13.848 50.28 14.104 50.408 14.36C50.536 14.5733 50.7067 14.744 50.92 14.872C51.0907 14.4453 51.3253 14.1893 51.624 14.104C51.9653 14.0187 52.3067 13.976 52.648 13.976C52.9893 13.976 53.288 14.0187 53.544 14.104C53.8 14.1467 53.928 14.4027 53.928 14.872C53.928 15.2987 53.6933 15.6827 53.224 16.024C52.7973 16.3227 52.456 16.5147 52.2 16.6C52.6267 17.4533 52.968 18.3707 53.224 19.352C53.5227 20.3333 53.7573 21.272 53.928 22.168C54.2693 22.04 54.8027 21.72 55.528 21.208C56.2533 20.6533 56.9573 20.0347 57.64 19.352C58.3227 18.6693 58.8987 17.9867 59.368 17.304C59.8373 16.6213 60.008 16.1093 59.88 15.768C60.4773 16.1093 60.776 16.536 60.776 17.048V17.432ZM40.296 2.072C40.4667 2.28533 40.5947 2.584 40.68 2.968C40.7653 3.352 40.808 3.75733 40.808 4.184C40.808 4.568 40.7867 4.93067 40.744 5.272C40.744 5.61333 40.7227 5.82666 40.68 5.912C40.936 6.296 41.256 6.552 41.64 6.68C42.0667 6.808 42.4933 6.872 42.92 6.872C42.92 6.616 42.856 6.232 42.728 5.72C42.6 5.16533 42.4293 4.632 42.216 4.12C42.0027 3.56533 41.7467 3.096 41.448 2.712C41.1493 2.28533 40.8293 2.072 40.488 2.072H40.296ZM7.016 6.36C6.80267 6.36 6.696 6.232 6.696 5.976C6.696 5.67733 6.80267 5.528 7.016 5.528C7.22934 5.528 7.336 5.67733 7.336 5.976C7.336 6.232 7.22934 6.36 7.016 6.36ZM41.128 14.04C41.2987 14.0827 41.448 14.0187 41.576 13.848C41.7467 13.6347 41.896 13.4 42.024 13.144C42.152 12.888 42.2587 12.6533 42.344 12.44C42.4293 12.184 42.472 11.992 42.472 11.864C42.472 11.5227 42.3867 11.2027 42.216 10.904C42.0453 10.6053 41.8533 10.328 41.64 10.072C41.4267 9.77333 41.2133 9.47466 41 9.176C40.8293 8.83466 40.7227 8.472 40.68 8.088C40.6373 8.04533 40.5733 8.024 40.488 8.024C40.232 8.024 40.0613 8.13066 39.976 8.344C39.8907 8.51466 39.848 8.70667 39.848 8.92C39.848 9.304 39.912 9.64533 40.04 9.944C40.2107 10.2 40.296 10.52 40.296 10.904C40.296 11.3307 40.1467 11.608 39.848 11.736C39.592 11.8213 39.2933 11.864 38.952 11.864C38.6533 11.864 38.376 11.8853 38.12 11.928C37.864 11.928 37.736 12.056 37.736 12.312C37.736 12.5253 37.7787 12.8027 37.864 13.144C37.992 13.4427 38.0773 13.592 38.12 13.592L41.128 14.04ZM17.256 8.088H16.808V8.472H17.256V8.088ZM53.48 10.2C53.5227 10.1573 53.608 10.136 53.736 10.136C53.8213 10.136 53.8853 10.1573 53.928 10.2C54.056 10.2853 54.2693 10.4987 54.568 10.84C54.9093 11.1387 55.1227 11.352 55.208 11.48C54.696 11.9067 54.248 12.1627 53.864 12.248C53.48 12.3333 53.0107 12.376 52.456 12.376C52.3707 12.376 52.1787 12.376 51.88 12.376C51.624 12.376 51.4533 12.3547 51.368 12.312L53.48 10.2ZM55.656 12.312C55.4427 12.312 55.336 12.184 55.336 11.928C55.336 11.6293 55.4427 11.48 55.656 11.48C55.8693 11.48 55.976 11.6293 55.976 11.928C55.976 12.184 55.8693 12.312 55.656 12.312ZM56.488 12.76C56.36 12.7173 56.2107 12.568 56.04 12.312H56.488C56.6587 12.44 56.808 12.5893 56.936 12.76H56.488ZM58.6 14.04C58.8987 14.04 59.0053 14.1893 58.92 14.488H59.048C59.2613 14.488 59.368 14.616 59.368 14.872H59.496C59.7093 14.872 59.816 15.0213 59.816 15.32C59.816 15.6187 59.7093 15.768 59.496 15.768C59.2827 15.768 59.176 15.6187 59.176 15.32H59.048C58.7493 15.32 58.6427 15.1707 58.728 14.872H58.6C58.3867 14.872 58.28 14.744 58.28 14.488H58.216C58.0027 14.488 57.896 14.3387 57.896 14.04H57.768C57.4693 14.04 57.3627 13.8907 57.448 13.592H57.32C57.1067 13.592 57 13.464 57 13.208C57 12.9093 57.1067 12.76 57.32 12.76C57.6187 12.76 57.7253 12.9093 57.64 13.208H57.768C57.9813 13.208 58.088 13.336 58.088 13.592H58.216C58.4293 13.592 58.536 13.7413 58.536 14.04H58.6ZM21.928 14.488C21.9707 14.36 21.9067 14.296 21.736 14.296C21.5653 14.296 21.48 14.36 21.48 14.488C21.5227 14.616 21.5867 14.68 21.672 14.68C21.8 14.68 21.8853 14.616 21.928 14.488ZM29.16 14.872C29.16 14.8293 29.096 14.7653 28.968 14.68C28.8827 14.552 28.8187 14.488 28.776 14.488C28.6053 14.4453 28.2213 14.4027 27.624 14.36C27.0267 14.3173 26.6427 14.296 26.472 14.296C26.472 14.296 26.472 14.3813 26.472 14.552C26.472 14.7227 26.4933 14.8933 26.536 15.064C26.5787 15.2347 26.6427 15.4053 26.728 15.576C26.8133 15.704 26.92 15.768 27.048 15.768C27.2613 15.768 27.6027 15.6613 28.072 15.448C28.584 15.192 28.9467 15 29.16 14.872ZM21.48 16.6C21.48 16.3867 21.3733 16.2587 21.16 16.216C20.9467 16.1733 20.776 16.152 20.648 16.152C20.52 16.152 20.3493 16.1733 20.136 16.216C19.9227 16.2587 19.816 16.3867 19.816 16.6V21.72C19.816 21.9333 19.9227 22.0613 20.136 22.104C20.3493 22.1467 20.52 22.168 20.648 22.168C20.776 22.168 20.9467 22.1467 21.16 22.104C21.3733 22.0613 21.48 21.9333 21.48 21.72V16.6ZM49.256 17.816C49.256 17.3467 49.1493 17.0267 48.936 16.856C48.7653 16.6853 48.4453 16.6 47.976 16.6C47.6773 16.6 47.4427 16.6213 47.272 16.664C47.1013 16.7067 46.9093 16.8347 46.696 17.048L46.632 18.712C46.632 19.1813 46.6107 19.6933 46.568 20.248C46.5253 20.8027 46.5253 21.3573 46.568 21.912C46.6107 22.424 46.696 22.936 46.824 23.448C46.952 23.9173 47.1867 24.344 47.528 24.728C47.9547 24.5147 48.2747 24.1093 48.488 23.512C48.744 22.9147 48.9147 22.2533 49 21.528C49.128 20.8027 49.192 20.0987 49.192 19.416C49.2347 18.7333 49.256 18.2 49.256 17.816ZM14.248 21.272C14.7173 21.0587 14.9733 20.6533 15.016 20.056C15.1013 19.416 15.144 18.8827 15.144 18.456C15.144 18.2427 15.1227 17.944 15.08 17.56C15.08 17.176 14.8667 16.984 14.44 16.984C14.3547 16.984 14.2907 17.0053 14.248 17.048V21.272ZM44.968 21.272C44.968 21.2293 45.0107 21.1013 45.096 20.888C45.1813 20.6747 45.2667 20.4613 45.352 20.248C45.48 19.992 45.5867 19.7573 45.672 19.544C45.7573 19.3307 45.8 19.2027 45.8 19.16C45.8427 19.1173 45.864 19.0533 45.864 18.968C45.864 18.6267 45.7147 18.3707 45.416 18.2C45.1173 18.0293 44.7547 17.9227 44.328 17.88C43.944 17.8373 43.5387 17.8373 43.112 17.88C42.728 17.88 42.408 17.88 42.152 17.88C42.024 17.88 41.768 17.944 41.384 18.072C41 18.2 40.5947 18.3493 40.168 18.52C39.7413 18.648 39.3573 18.7973 39.016 18.968C38.6747 19.1387 38.504 19.2667 38.504 19.352C38.504 19.48 38.5253 19.5653 38.568 19.608L39.848 20.44C39.9333 20.5253 40.0827 20.6747 40.296 20.888C40.5093 21.0587 40.7227 21.272 40.936 21.528C41.192 21.7413 41.4053 21.9547 41.576 22.168C41.7893 22.3387 41.9173 22.4667 41.96 22.552C42.0453 22.5093 42.1947 22.3813 42.408 22.168C42.6213 21.912 42.7707 21.7627 42.856 21.72H43.24C43.4533 21.8053 43.6027 21.9547 43.688 22.168V22.36C43.688 22.7013 43.5173 22.9147 43.176 23C42.8347 23.0853 42.536 23.128 42.28 23.128C42.28 23.1707 42.3227 23.2773 42.408 23.448C42.4507 23.4907 42.5147 23.576 42.6 23.704C42.728 23.7893 42.8133 23.832 42.856 23.832H45.8C45.7573 23.704 45.608 23.3627 45.352 22.808C45.1387 22.2533 45.0107 21.8907 44.968 21.72V21.272ZM25.896 18.2C25.2133 18.2 24.7653 18.4987 24.552 19.096C24.3387 19.6507 24.232 20.184 24.232 20.696C25.0427 20.696 25.512 20.44 25.64 19.928C25.8107 19.416 25.896 18.84 25.896 18.2ZM33 23.832H32.168V24.728H33V23.832ZM50.536 24.728C50.4507 24.4293 50.28 24.28 50.024 24.28C49.8107 24.2373 49.6187 24.216 49.448 24.216C48.7227 24.216 48.36 24.5147 48.36 25.112C48.36 25.3253 48.4027 25.5387 48.488 25.752C48.5733 25.9227 48.744 26.008 49 26.008H49.256L50.536 24.728ZM32.168 32.408C32.1253 32.3653 32.0613 32.344 31.976 32.344C31.3787 32.344 30.952 32.4507 30.696 32.664C30.44 32.8347 30.2053 33.048 29.992 33.304C29.7787 33.5173 29.5013 33.7093 29.16 33.88C28.8187 34.0507 28.264 34.1147 27.496 34.072C27.4533 34.1147 27.432 34.2 27.432 34.328C27.432 34.5413 27.5387 34.8613 27.752 35.288C28.008 35.672 28.3067 36.0773 28.648 36.504C28.9893 36.888 29.3307 37.2293 29.672 37.528C30.056 37.8267 30.3973 37.976 30.696 37.976C30.9947 37.976 31.208 37.9547 31.336 37.912C31.336 37.7413 31.3573 37.4427 31.4 37.016C31.4427 36.5467 31.4853 36.0773 31.528 35.608C31.5707 35.096 31.6133 34.6267 31.656 34.2C31.6987 33.7307 31.72 33.4107 31.72 33.24C31.7627 33.1547 31.8267 33.0053 31.912 32.792C32.04 32.5787 32.1253 32.4507 32.168 32.408ZM37.736 37.528C37.5653 37.7413 37.352 37.912 37.096 38.04C36.8827 38.168 36.6693 38.2747 36.456 38.36L36.392 37.08C36.392 36.2693 36.4133 35.5867 36.456 35.032C36.5413 34.4773 36.6693 33.7307 36.84 32.792C37.352 33.1333 37.6293 33.5813 37.672 34.136C37.7147 34.6907 37.736 35.2453 37.736 35.8V37.528ZM26.6 34.072L26.216 33.688V40.92H26.6V34.072ZM3.24 48.28C3.24 47.5547 2.89867 47.192 2.216 47.192C2.216 47.9173 2.55734 48.28 3.24 48.28ZM30.056 50.072C30.056 49.6453 29.8213 49.3467 29.352 49.176C28.9253 48.9627 28.5413 48.856 28.2 48.856C28.2 49.2827 28.2213 49.7093 28.264 50.136C28.3493 50.5627 28.648 50.776 29.16 50.776C29.3733 50.776 29.5653 50.7333 29.736 50.648C29.9493 50.52 30.056 50.328 30.056 50.072ZM54.76 55.448C55.4853 54.7227 56.2747 54.0187 57.128 53.336C58.024 52.6107 58.9413 52.0347 59.88 51.608C59.9227 51.48 59.944 51.3307 59.944 51.16C59.944 50.648 59.688 50.3067 59.176 50.136C58.7067 49.9227 58.28 49.816 57.896 49.816C57.8107 49.816 57.7467 49.8373 57.704 49.88C57.6613 49.88 57.5973 49.88 57.512 49.88H57.32L53.672 55.448H54.76ZM65.704 0.791996C66.8133 0.791996 68.0293 1.00533 69.352 1.432C70.6747 1.816 71.912 2.392 73.064 3.16C74.216 3.88533 75.176 4.76 75.944 5.784C76.712 6.808 77.096 7.91733 77.096 9.112C77.096 10.5627 76.6907 11.7573 75.88 12.696C75.0693 13.6347 73.896 14.104 72.36 14.104V13.592L74.92 12.312C75.048 12.2693 75.048 11.9707 74.92 11.416C74.8347 10.8613 74.6853 10.456 74.472 10.2C74.472 10.1573 74.3653 10.0933 74.152 10.008C73.9387 9.88 73.6827 9.752 73.384 9.624C73.128 9.496 72.8507 9.368 72.552 9.24C72.296 9.112 72.0827 9.00533 71.912 8.92H71.72C71.464 8.92 71.144 8.92 70.76 8.92C70.4187 8.92 70.056 8.96266 69.672 9.048C69.3307 9.13333 69.0107 9.26133 68.712 9.432C68.4133 9.60267 68.2 9.85867 68.072 10.2C67.9867 10.0293 67.8587 9.752 67.688 9.368C67.5173 8.94133 67.3467 8.51466 67.176 8.088C67.0053 7.61867 66.8347 7.192 66.664 6.808C66.536 6.38133 66.4293 6.08267 66.344 5.912V5.528C66.344 5.272 66.408 5.03733 66.536 4.824C66.7067 4.61066 66.856 4.39733 66.984 4.184C67.1547 3.97066 67.304 3.75733 67.432 3.544C67.6027 3.288 67.688 3.01066 67.688 2.712C67.688 2.584 67.6667 2.52 67.624 2.52C67.5387 2.30666 67.3467 2.136 67.048 2.008C66.7493 1.88 66.4293 1.79467 66.088 1.752C65.7467 1.70933 65.4267 1.688 65.128 1.688C64.872 1.688 64.7227 1.688 64.68 1.688C64.6373 1.64533 64.616 1.56 64.616 1.432C64.616 1.34666 64.6373 1.28266 64.68 1.24C64.68 1.19733 64.7867 1.13333 65 1.048C65.256 0.919998 65.4267 0.834665 65.512 0.791996H65.704ZM122.536 2.968C122.536 3.56533 122.365 4.14133 122.024 4.696C121.683 5.208 121.256 5.61333 120.744 5.912V58.392C120.744 58.8613 120.403 59.2667 119.72 59.608C119.037 59.992 118.248 60.312 117.352 60.568C116.499 60.824 115.645 61.016 114.792 61.144C113.939 61.3147 113.363 61.4 113.064 61.4C112.936 61.4 112.723 61.4 112.424 61.4C112.168 61.4 112.04 61.2507 112.04 60.952V40.472C112.339 40.0453 112.488 39.6187 112.488 39.192C112.488 38.2107 112.147 37.528 111.464 37.144C110.781 36.7173 110.056 36.3333 109.288 35.992C108.52 35.6507 107.816 35.2027 107.176 34.648C106.579 34.0933 106.344 33.1973 106.472 31.96C106.301 33.24 106.131 34.52 105.96 35.8C105.832 37.08 105.725 38.36 105.64 39.64C105.384 39.5547 105.064 39.64 104.68 39.896C104.296 40.1093 103.912 40.408 103.528 40.792C103.187 41.176 102.867 41.5813 102.568 42.008C102.312 42.4347 102.184 42.7973 102.184 43.096C102.184 43.352 102.227 43.5867 102.312 43.8C102.397 44.0133 102.653 44.12 103.08 44.12H105.64C105.768 45.8693 105.875 47.4693 105.96 48.92C106.045 50.328 106.088 51.8427 106.088 53.464C106.088 54.36 105.875 55.128 105.448 55.768C105.021 56.408 104.467 56.92 103.784 57.304C103.101 57.688 102.333 57.9653 101.48 58.136C100.627 58.3493 99.7947 58.456 98.984 58.456C98.856 58.456 98.792 58.4347 98.792 58.392C98.7493 58.392 98.6213 58.328 98.408 58.2C98.1947 58.1147 98.0453 58.0507 97.96 58.008L97.32 57.56V36.632C97.32 36.4613 97.1067 36.2907 96.68 36.12C96.296 35.9493 95.848 35.8 95.336 35.672C94.824 35.5013 94.312 35.3307 93.8 35.16C93.3307 34.9467 93.0107 34.7333 92.84 34.52C92.1147 37.5493 91.368 40.3867 90.6 43.032C89.832 45.6773 88.8293 48.1307 87.592 50.392C86.3547 52.6533 84.7547 54.7013 82.792 56.536C80.872 58.3707 78.376 59.992 75.304 61.4H74.472C74.3867 61.4 74.1733 61.3147 73.832 61.144C73.4907 61.016 73.2773 60.952 73.192 60.952C73.1067 60.952 72.808 61.016 72.296 61.144C71.8267 61.3147 71.5493 61.4 71.464 61.4L69.736 61.464C68.4987 61.464 67.4747 61.144 66.664 60.504C65.896 59.9067 65.512 58.9467 65.512 57.624C65.512 55.96 65.6187 54.296 65.832 52.632C66.088 50.9253 66.344 49.304 66.6 47.768V50.328H67.24C67.2827 49.1333 67.4747 48.3867 67.816 48.088C68.1573 47.7467 68.52 47.5547 68.904 47.512C69.3307 47.4267 69.6933 47.32 69.992 47.192C70.3333 47.064 70.504 46.5733 70.504 45.72C70.12 45.72 69.8427 45.848 69.672 46.104C69.5013 46.36 69.2027 46.488 68.776 46.488C68.648 46.488 68.2 46.2747 67.432 45.848C66.7067 45.3787 65.896 44.8667 65 44.312C64.1467 43.7147 63.3787 43.16 62.696 42.648C62.0133 42.0933 61.672 41.7307 61.672 41.56V41.368C61.7147 41.24 61.7787 41.112 61.864 40.984C61.992 40.8133 62.0773 40.728 62.12 40.728H65.512C65.5547 40.728 65.7253 40.472 66.024 39.96C66.3227 39.4053 66.664 38.7227 67.048 37.912C67.4747 37.0587 67.9227 36.1413 68.392 35.16C68.8613 34.136 69.288 33.176 69.672 32.28C70.0987 31.3413 70.44 30.5093 70.696 29.784C70.952 29.016 71.08 28.4613 71.08 28.12C71.08 27.9067 71.0587 27.736 71.016 27.608C71.016 27.48 70.888 27.3733 70.632 27.288C69.9067 27.3307 69.16 27.352 68.392 27.352C67.6667 27.3093 66.984 27.1813 66.344 26.968C65.7467 26.712 65.2347 26.328 64.808 25.816C64.424 25.304 64.232 24.5787 64.232 23.64C64.232 23.2987 64.2533 23.0427 64.296 22.872C64.3813 22.7013 64.4453 22.5307 64.488 22.36C64.5733 22.1467 64.6373 21.912 64.68 21.656C64.7653 21.3573 64.808 20.952 64.808 20.44H63.4L61.224 16.152V15.768C61.224 15.5973 61.2453 15.4267 61.288 15.256C61.3307 15.0853 61.4587 14.9573 61.672 14.872C64.0187 15.128 66.1093 15.7893 67.944 16.856C69.7787 17.88 71.528 19.224 73.192 20.888H73.384C74.152 20.888 74.7067 20.376 75.048 19.352C75.3893 18.328 75.6667 17.1973 75.88 15.96C76.136 14.7227 76.4347 13.592 76.776 12.568C77.1173 11.544 77.6933 11.032 78.504 11.032C79.272 11.032 79.656 11.3947 79.656 12.12C79.656 12.4187 79.6347 12.632 79.592 12.76C78.9093 15.448 78.184 18.1147 77.416 20.76C76.6907 23.3627 76.328 26.072 76.328 28.888C76.6267 28.888 76.8827 28.76 77.096 28.504C77.352 28.248 77.5653 27.9707 77.736 27.672C77.9493 27.3307 78.1413 27.0107 78.312 26.712C78.4827 26.3707 78.632 26.136 78.76 26.008V26.392L78.312 28.12L80.872 30.68V30.488C80.872 30.1467 80.7867 29.8267 80.616 29.528C80.488 29.2293 80.424 28.888 80.424 28.504C80.424 28.1627 80.488 27.8427 80.616 27.544C80.7867 27.2453 80.936 26.968 81.064 26.712C81.2347 26.4133 81.384 26.1147 81.512 25.816C81.6827 25.5173 81.768 25.176 81.768 24.792C81.768 24.1947 81.7253 23.7467 81.64 23.448C81.5973 23.1067 81.2773 22.936 80.68 22.936C80.3813 22.936 80.168 22.9573 80.04 23L80.872 24.28C80.8293 24.3227 80.7867 24.3867 80.744 24.472C80.6587 24.6427 80.552 24.728 80.424 24.728C79.9973 25.0267 79.5493 25.176 79.08 25.176C79.08 24.92 79.08 24.5573 79.08 24.088C79.1227 23.576 79.1867 23.0853 79.272 22.616C79.4 22.1467 79.5707 21.7413 79.784 21.4C79.9973 21.016 80.2747 20.824 80.616 20.824C81.0853 20.824 81.4053 20.9733 81.576 21.272C81.7893 21.5707 81.9387 21.912 82.024 22.296C82.152 22.6373 82.28 22.9787 82.408 23.32C82.5787 23.6187 82.856 23.7893 83.24 23.832V2.52L83.88 2.072H85.224C85.6507 2.072 86.376 2.072 87.4 2.072C88.424 2.02933 89.4693 2.05066 90.536 2.136C91.6027 2.22133 92.5413 2.392 93.352 2.648C94.1627 2.904 94.568 3.288 94.568 3.8C94.568 3.88533 94.5467 3.97066 94.504 4.056C94.504 4.14133 94.504 4.20533 94.504 4.248C94.4613 4.33333 94.3547 4.46133 94.184 4.632C94.056 4.76 93.8853 4.93066 93.672 5.144C93.5013 5.31466 93.3307 5.48533 93.16 5.656C92.9893 5.784 92.8827 5.86933 92.84 5.912V20.44C92.84 20.824 93.0107 21.1653 93.352 21.464C93.6933 21.7627 94.0987 22.0187 94.568 22.232C95.08 22.4453 95.5707 22.616 96.04 22.744C96.552 22.8293 96.9787 22.872 97.32 22.872V13.592C97.9173 13.976 98.472 14.4667 98.984 15.064C99.5387 15.6187 99.9013 16.28 100.072 17.048H100.52C100.691 16.0667 100.989 15.3627 101.416 14.936C101.885 14.5093 102.355 14.168 102.824 13.912C103.336 13.6133 103.805 13.3147 104.232 13.016C104.701 12.7173 105.021 12.2053 105.192 11.48C104.339 11.224 103.699 10.6053 103.272 9.624C102.888 8.6 102.483 7.576 102.056 6.552C101.672 5.528 101.139 4.696 100.456 4.056C99.816 3.416 98.8347 3.33066 97.512 3.8C97.5547 3.45867 97.7893 3.30933 98.216 3.352C98.6853 3.352 98.984 3.352 99.112 3.352C99.4107 3.352 100.029 3.352 100.968 3.352C101.907 3.30933 102.867 3.33066 103.848 3.416C104.872 3.50133 105.768 3.65067 106.536 3.864C107.347 4.07733 107.752 4.41866 107.752 4.888V5.08C107.667 5.208 107.453 5.50667 107.112 5.976C106.813 6.40266 106.6 6.68 106.472 6.808V19.992C106.472 20.248 106.664 20.568 107.048 20.952C107.475 21.2933 107.944 21.6347 108.456 21.976C108.968 22.2747 109.437 22.5307 109.864 22.744C110.333 22.9573 110.611 23.064 110.696 23.064C110.824 23.064 111.037 23.0427 111.336 23C111.635 22.9147 111.784 22.7653 111.784 22.552V12.76C111.869 12.7173 111.997 12.5893 112.168 12.376C112.339 12.1627 112.424 12.0133 112.424 11.928C112.467 11.8427 112.424 11.6933 112.296 11.48C112.168 11.224 112.083 11.0747 112.04 11.032V2.008C113.064 2.008 114.131 2.072 115.24 2.2C116.392 2.28533 117.459 2.392 118.44 2.52C118.483 2.52 118.547 2.584 118.632 2.712C118.76 2.79733 118.824 2.88266 118.824 2.968C118.824 3.65066 118.739 4.33333 118.568 5.016C118.397 5.69866 118.184 6.38133 117.928 7.064C117.715 7.74666 117.523 8.42933 117.352 9.112C117.181 9.79467 117.096 10.456 117.096 11.096C117.096 11.48 117.16 11.864 117.288 12.248C117.459 12.5893 117.629 12.9307 117.8 13.272C117.971 13.5707 118.12 13.8907 118.248 14.232C118.419 14.5733 118.504 14.936 118.504 15.32C118.504 16.0027 118.397 16.5787 118.184 17.048C117.971 17.4747 117.629 18.0293 117.16 18.712V24.728C116.819 25.1547 116.563 25.5387 116.392 25.88C116.264 26.2213 116.2 26.6267 116.2 27.096C116.2 27.3947 116.349 27.6933 116.648 27.992C116.989 28.248 117.352 28.5467 117.736 28.888C118.12 29.2293 118.461 29.6133 118.76 30.04C119.101 30.4667 119.272 30.9573 119.272 31.512C119.272 32.28 118.995 32.856 118.44 33.24C117.885 33.5813 117.309 33.8587 116.712 34.072C116.925 34.328 117.053 34.5413 117.096 34.712C117.139 34.8827 117.16 35.1173 117.16 35.416V35.8C117.117 35.928 116.968 36.2267 116.712 36.696C116.499 37.1227 116.349 37.4 116.264 37.528C117.032 38.1253 117.587 38.6587 117.928 39.128C118.269 39.5973 118.44 40.3013 118.44 41.24C118.44 41.5813 118.333 42.2 118.12 43.096C117.949 43.992 117.736 44.9733 117.48 46.04C117.224 47.1067 116.968 48.1947 116.712 49.304C116.499 50.3707 116.349 51.2667 116.264 51.992C116.221 52.504 116.029 52.9307 115.688 53.272C115.389 53.5707 115.069 53.8907 114.728 54.232C114.387 54.5307 114.067 54.8507 113.768 55.192C113.469 55.576 113.32 56.0453 113.32 56.6C113.832 56.6 114.301 56.536 114.728 56.408C115.155 56.3227 115.603 56.28 116.072 56.28C116.499 56.28 116.819 56.3653 117.032 56.536C117.245 56.7067 117.373 56.92 117.416 57.176C117.459 57.432 117.459 57.7093 117.416 58.008C117.416 58.3493 117.416 58.6693 117.416 58.968C117.587 58.968 117.821 59.0107 118.12 59.096C118.461 59.224 118.781 59.288 119.08 59.288C119.421 59.288 119.72 59.2027 119.976 59.032C120.232 58.8613 120.36 58.52 120.36 58.008V5.08C120.488 5.03733 120.744 4.84533 121.128 4.504C121.512 4.16266 121.747 3.928 121.832 3.8C121.875 3.672 121.832 3.50133 121.704 3.288C121.619 3.07467 121.512 2.968 121.384 2.968H122.536ZM85.16 3.352C85.1173 3.352 85.032 3.62933 84.904 4.184C84.8187 4.73867 84.7547 5.18666 84.712 5.528L84.648 6.04C84.9893 6.04 85.224 5.93333 85.352 5.72C85.5227 5.50666 85.6293 5.272 85.672 5.016C85.7573 4.71733 85.7787 4.41866 85.736 4.12C85.736 3.82133 85.736 3.56533 85.736 3.352H85.16ZM97.512 6.808C98.024 7.14933 98.3013 7.61866 98.344 8.216C98.3867 8.77066 98.408 9.304 98.408 9.816C98.408 9.98667 98.408 10.2427 98.408 10.584C98.408 10.8827 98.3867 11.032 98.344 11.032L97.512 11.928V6.808ZM91.688 13.272C91.688 12.9733 91.688 12.568 91.688 12.056C91.7307 11.5013 91.7093 10.968 91.624 10.456C91.5387 9.90133 91.368 9.432 91.112 9.048C90.8987 8.664 90.536 8.472 90.024 8.472C89.3413 8.472 88.7013 8.77066 88.104 9.368C87.5493 9.92266 87.272 10.5627 87.272 11.288C87.272 11.5013 87.464 11.7147 87.848 11.928C88.232 12.1413 88.68 12.3547 89.192 12.568C89.704 12.7813 90.1947 12.952 90.664 13.08C91.1333 13.208 91.4747 13.272 91.688 13.272ZM68.52 11.928C68.4347 11.9707 68.3707 11.928 68.328 11.8C68.328 11.6293 68.328 11.4587 68.328 11.288C68.328 11.0747 68.328 10.904 68.328 10.776C68.3707 10.648 68.4347 10.6053 68.52 10.648C68.648 10.7333 68.712 10.9467 68.712 11.288C68.712 11.5867 68.648 11.8 68.52 11.928ZM68.904 12.76C68.6907 12.76 68.584 12.632 68.584 12.376C68.584 12.0773 68.6907 11.928 68.904 11.928C69.1173 11.928 69.224 12.0773 69.224 12.376C69.224 12.632 69.1173 12.76 68.904 12.76ZM69.8 13.592C69.5867 13.592 69.48 13.464 69.48 13.208C69.48 12.9093 69.5867 12.76 69.8 12.76C70.0133 12.76 70.12 12.9093 70.12 13.208C70.12 13.464 70.0133 13.592 69.8 13.592ZM106.472 24.728C106.643 24.6 106.792 24.4507 106.92 24.28C105.939 23.5973 105.213 22.5947 104.744 21.272H104.232C104.232 21.6987 104.232 22.1253 104.232 22.552C104.275 22.936 104.36 23.2987 104.488 23.64C104.616 23.9387 104.808 24.1947 105.064 24.408C105.363 24.6213 105.768 24.728 106.28 24.728H106.472ZM92.392 22.168C92.4773 22.04 92.328 21.976 91.944 21.976C91.6027 21.976 91.4747 22.04 91.56 22.168C91.6027 22.296 91.7307 22.36 91.944 22.36C92.1573 22.36 92.3067 22.296 92.392 22.168ZM110.376 24.728C110.376 24.344 110.269 24.1093 110.056 24.024C109.885 23.896 109.629 23.832 109.288 23.832C108.947 23.832 108.669 23.8533 108.456 23.896C108.243 23.9387 108.008 24.0667 107.752 24.28C108.093 24.5787 108.413 24.92 108.712 25.304C109.011 25.6453 109.267 26.008 109.48 26.392C109.779 26.0933 109.992 25.8373 110.12 25.624C110.291 25.368 110.376 25.0693 110.376 24.728ZM109.096 27.672C109.096 27.5013 109.075 27.3733 109.032 27.288C108.904 27.3307 108.712 27.3947 108.456 27.48C108.243 27.5653 108.008 27.6507 107.752 27.736C107.539 27.8213 107.325 27.928 107.112 28.056C106.941 28.1413 106.856 28.2267 106.856 28.312C106.856 28.44 106.877 28.5253 106.92 28.568C106.92 28.6533 106.984 28.7173 107.112 28.76L107.304 28.952C107.731 28.952 108.136 28.8453 108.52 28.632C108.904 28.4187 109.096 28.0987 109.096 27.672ZM80.552 31.768C80.3387 31.768 79.912 31.9173 79.272 32.216C78.632 32.472 77.9493 32.792 77.224 33.176C76.4987 33.56 75.8587 33.944 75.304 34.328C74.7493 34.712 74.472 34.9893 74.472 35.16C74.472 35.6293 74.7493 35.864 75.304 35.864C75.688 35.864 76.1787 35.736 76.776 35.48C77.3733 35.1813 77.9493 34.84 78.504 34.456C79.0587 34.0293 79.528 33.5813 79.912 33.112C80.3387 32.6427 80.552 32.1947 80.552 31.768ZM110.952 31.96C110.952 32.1733 110.973 32.6 111.016 33.24C111.101 33.88 111.144 34.3067 111.144 34.52L111.592 34.968C112.573 34.2 113.064 33.1973 113.064 31.96H110.952ZM85.544 36.632C85.6293 36.8453 85.8 37.0373 86.056 37.208C86.3547 37.336 86.6533 37.464 86.952 37.592C87.2507 37.6773 87.5067 37.7627 87.72 37.848C87.976 37.8907 88.104 37.912 88.104 37.912C88.36 37.8267 88.488 37.72 88.488 37.592C88.5307 37.464 88.552 37.2933 88.552 37.08C88.552 36.6533 88.5307 36.184 88.488 35.672C88.4453 35.1173 88.1253 34.84 87.528 34.84C87.1013 34.84 86.6533 34.9893 86.184 35.288C85.7573 35.544 85.544 35.928 85.544 36.44V36.632ZM77.48 57.56C77.736 57.432 78.1413 57.3253 78.696 57.24C79.2933 57.1973 79.8907 57.112 80.488 56.984C81.0853 56.8987 81.6187 56.7707 82.088 56.6C82.6 56.4293 82.8987 56.1733 82.984 55.832C82.7707 55.4907 82.472 55.256 82.088 55.128C81.704 55.0427 81.32 55 80.936 55C80.3387 55 79.8267 55.0213 79.4 55.064C79.016 55.1067 78.504 55.2347 77.864 55.448C79.3147 52.7173 80.5307 49.8373 81.512 46.808C82.536 43.7787 83.048 40.728 83.048 37.656C83.048 37.2293 83.0053 36.888 82.92 36.632C82.8773 36.3333 82.6213 36.184 82.152 36.184C81.768 36.184 81.4053 36.2693 81.064 36.44C80.7227 36.568 80.3813 36.7173 80.04 36.888C79.6987 37.016 79.336 37.1653 78.952 37.336C78.6107 37.464 78.2267 37.528 77.8 37.528C77.16 37.528 76.584 37.464 76.072 37.336C75.56 37.1653 75.0053 37.08 74.408 37.08C74.024 37.08 73.7253 37.3147 73.512 37.784C73.3413 38.2533 73.2347 38.808 73.192 39.448C73.1493 40.088 73.128 40.728 73.128 41.368C73.1707 41.9653 73.192 42.392 73.192 42.648C73.192 43.4587 73.2987 44.632 73.512 46.168C73.768 47.6613 74.088 49.1547 74.472 50.648C74.8987 52.0987 75.368 53.3787 75.88 54.488C76.392 55.5973 76.9253 56.152 77.48 56.152V57.56ZM69.8 40.92C69.8 40.3653 69.6293 39.9173 69.288 39.576C68.9893 39.2347 68.5627 39.064 68.008 39.064L68.072 40.088C68.072 40.216 68.0933 40.4507 68.136 40.792C68.1787 41.0907 68.2213 41.432 68.264 41.816C68.3067 42.1573 68.3493 42.4987 68.392 42.84C68.4347 43.1387 68.4773 43.352 68.52 43.48C68.5627 43.5227 68.6267 43.544 68.712 43.544C68.8827 43.544 69.032 43.4373 69.16 43.224C69.288 42.968 69.3947 42.6907 69.48 42.392C69.608 42.0933 69.6933 41.816 69.736 41.56C69.7787 41.2613 69.8 41.048 69.8 40.92ZM89 45.208C89.2133 45.1227 89.3413 44.9947 89.384 44.824C89.4267 44.6533 89.448 44.4827 89.448 44.312C89.448 44.056 89.384 43.864 89.256 43.736C89.1707 43.5653 88.936 43.48 88.552 43.48C88.5093 43.48 88.424 43.544 88.296 43.672C88.2107 43.7573 88.1467 43.8427 88.104 43.928V44.312L89 45.208ZM105.256 51.8C105.256 50.648 105.149 49.6667 104.936 48.856C104.723 48.0453 104.616 47.0213 104.616 45.784C104.061 45.784 103.72 46.0187 103.592 46.488C103.507 46.9573 103.464 47.384 103.464 47.768C103.464 48.2373 103.528 48.6427 103.656 48.984C103.827 49.2827 103.912 49.6453 103.912 50.072C103.912 50.6267 103.763 51.096 103.464 51.48C103.208 51.864 102.781 52.056 102.184 52.056C101.885 52.056 101.608 51.9707 101.352 51.8C101.139 51.5867 100.925 51.3733 100.712 51.16C100.499 50.9467 100.285 50.7547 100.072 50.584C99.9013 50.3707 99.688 50.264 99.432 50.264C99.304 50.264 99.24 50.2853 99.24 50.328C99.1547 50.3707 99.0053 50.4987 98.792 50.712C98.5787 50.9253 98.4293 51.0747 98.344 51.16C98.984 51.928 99.7307 52.696 100.584 53.464C101.437 54.232 102.419 54.616 103.528 54.616C103.869 54.616 104.189 54.5947 104.488 54.552C104.787 54.4667 105.021 54.1893 105.192 53.72L105.256 51.8ZM74.536 52.568C74.536 52.312 74.5147 52.0133 74.472 51.672C74.4293 51.3307 74.344 50.9893 74.216 50.648C74.1307 50.3067 73.9813 50.0293 73.768 49.816C73.5547 49.56 73.2987 49.432 73 49.432C72.6587 49.432 72.4453 49.56 72.36 49.816C72.3173 50.0293 72.296 50.264 72.296 50.52C72.296 51.032 72.5307 51.5013 73 51.928C73.512 52.3547 74.024 52.568 74.536 52.568Z" fill="#333E44"/>
</svg>
