<svg width="80" height="40" viewBox="0 0 80 40" fill="none" xmlns="http://www.w3.org/2000/svg">
<path d="M22.28 18.72V12.96C22.2533 12.96 22.1867 12.9467 22.08 12.92C21.9733 12.8667 21.9067 12.8533 21.88 12.88C21.6933 12.96 21.44 13.1067 21.12 13.32C20.8267 13.5333 20.68 13.6533 20.68 13.68V36.88C20.68 37.04 20.5067 37.2 20.16 37.36C19.84 37.52 19.4667 37.6667 19.04 37.8C18.6133 37.9333 18.2 38.04 17.8 38.12C17.4267 38.2 17.1867 38.24 17.08 38.24C16.8933 38.24 16.7333 38.2133 16.6 38.16C16.4933 38.1067 16.3867 38.0533 16.28 38C16.2 37.9467 16.0933 37.88 15.96 37.8C15.8267 37.7467 15.6667 37.7067 15.48 37.68C15.48 37.5733 15.4667 37.3867 15.44 37.12C15.44 36.8533 15.4 36.5867 15.32 36.32C15.2667 36.0533 15.16 35.8133 15 35.6C14.8667 35.3867 14.6667 35.28 14.4 35.28H7.72C7.50667 35.28 7.32 35.4667 7.16 35.84C7.02667 36.24 6.81333 36.6667 6.52 37.12C6.22667 37.6 5.78667 38.0267 5.2 38.4C4.61333 38.8 3.76 39 2.64 39C2.58667 39 2.44 39 2.2 39C1.98667 39 1.88 38.9067 1.88 38.72V30.68C2.30667 30.68 2.65333 30.7867 2.92 31C3.18667 31.2133 3.38667 31.48 3.52 31.8C3.68 32.12 3.78667 32.48 3.84 32.88C3.92 33.2533 3.97333 33.6 4 33.92C4.05333 33.9467 4.14667 33.96 4.28 33.96C4.62667 33.96 4.8 33.7867 4.8 33.44C4.8 32.8267 4.70667 32.2267 4.52 31.64C4.33333 31.0533 4.24 30.4533 4.24 29.84L4.28 29.4L5.88 27.8C5.90667 27.7733 5.92 27.7333 5.92 27.68C5.92 27.5733 5.84 27.4933 5.68 27.44C5.54667 27.36 5.38667 27.28 5.2 27.2C5.01333 27.12 4.84 27.0133 4.68 26.88C4.54667 26.7467 4.48 26.56 4.48 26.32C4.48 26.2133 4.6 26.0267 4.84 25.76C5.08 25.4933 5.34667 25.2133 5.64 24.92C5.96 24.6267 6.26667 24.3467 6.56 24.08C6.85333 23.8133 7.06667 23.6267 7.2 23.52C6.8 23.6 6.44 23.6133 6.12 23.56C5.82667 23.48 5.53333 23.3867 5.24 23.28C4.97333 23.1467 4.69333 23.0267 4.4 22.92C4.10667 22.7867 3.74667 22.72 3.32 22.72H3.2C3.44 23.04 3.64 23.3467 3.8 23.64C3.96 23.9067 4.04 24.24 4.04 24.64C4.04 25.0133 3.88 25.3733 3.56 25.72C3.26667 26.04 2.92 26.2 2.52 26.2H2.4C2.32 26.1733 2.21333 26.1333 2.08 26.08C1.94667 26 1.88 25.9467 1.88 25.92V22.48C2.36 22.6133 2.65333 22.6133 2.76 22.48C2.89333 22.32 2.96 22.1067 2.96 21.84C2.96 21.7067 2.93333 21.56 2.88 21.4C2.85333 21.2133 2.73333 21.12 2.52 21.12H2.4C2.34667 21.1467 2.25333 21.2 2.12 21.28C1.98667 21.3333 1.90667 21.3733 1.88 21.4V17.92C1.88 17.3867 2.09333 16.88 2.52 16.4C2.94667 15.8933 3.41333 15.4133 3.92 14.96C4.45333 14.48 4.93333 14.0133 5.36 13.56C5.81333 13.08 6.04 12.6 6.04 12.12C5.69333 12.12 5.42667 12.2267 5.24 12.44C5.05333 12.6533 4.88 12.8933 4.72 13.16C4.58667 13.4267 4.41333 13.6667 4.2 13.88C4.01333 14.0933 3.73333 14.2 3.36 14.2C3.28 14.2 3.14667 14.2 2.96 14.2C2.8 14.2 2.64 14.1867 2.48 14.16C2.32 14.1333 2.17333 14.1067 2.04 14.08C1.93333 14.0267 1.88 13.9733 1.88 13.92V11.36C2.41333 11.36 2.68 11.1467 2.68 10.72C2.68 10.5333 2.62667 10.4267 2.52 10.4C2.44 10.3467 2.34667 10.32 2.24 10.32C2.16 10.2933 2.06667 10.2533 1.96 10.2C1.88 10.1467 1.84 10.0267 1.84 9.84C1.84 9.68 1.85333 9.52 1.88 9.36C1.93333 9.2 2.06667 9.12 2.28 9.12H2.4L5.32 10.48H5.72C5.77333 10.48 5.89333 10.48 6.08 10.48C6.29333 10.4533 6.4 10.36 6.4 10.2V5.8H3.48C3.66667 5.32 3.65333 4.98667 3.44 4.8C3.22667 4.58667 2.97333 4.48 2.68 4.48C2.38667 4.48 2.12 4.57333 1.88 4.76C1.66667 4.92 1.66667 5.22666 1.88 5.68H1.6C1.38667 5.68 1.22667 5.61333 1.12 5.48C1.01333 5.34667 0.92 5.2 0.84 5.04C0.786667 4.85333 0.746667 4.66667 0.72 4.48C0.72 4.26667 0.72 4.08 0.72 3.92H14.92C15.2133 3.92 15.4667 3.76 15.68 3.44C15.8933 3.12 16.0933 2.77333 16.28 2.4C16.4933 2 16.72 1.64 16.96 1.32C17.2 0.999998 17.4933 0.839999 17.84 0.839999C18.1867 0.839999 18.4667 0.933332 18.68 1.12C18.7867 1.22666 18.9867 1.41333 19.28 1.68C19.6 1.92 19.92 2.18666 20.24 2.48C20.5867 2.74667 20.9067 3.01333 21.2 3.28C21.52 3.52 21.7467 3.69333 21.88 3.8H30.92L33.32 1.4C33.3733 1.37333 33.5333 1.44 33.8 1.6C34.0933 1.76 34.44 1.98666 34.84 2.28C35.24 2.54667 35.6667 2.85333 36.12 3.2C36.5733 3.54666 36.9867 3.88 37.36 4.2C37.7333 4.49333 38.04 4.77333 38.28 5.04C38.5467 5.28 38.68 5.44 38.68 5.52V5.68C38.6 5.81333 38.5067 5.89333 38.4 5.92C38.3733 5.94667 38.32 5.96 38.24 5.96C38.0533 5.96 37.8267 5.82667 37.56 5.56C37.32 5.26666 37.0533 4.94666 36.76 4.6C36.4667 4.25333 36.1467 3.94666 35.8 3.68C35.48 3.38667 35.1467 3.24 34.8 3.24C34.48 3.24 34.0933 3.29333 33.64 3.4C33.1867 3.48 32.7467 3.61333 32.32 3.8C31.92 3.98666 31.5733 4.24 31.28 4.56C31.0133 4.88 30.88 5.25333 30.88 5.68H23.72C23.8267 5.30667 23.8 5.06667 23.64 4.96C23.48 4.85333 23.2933 4.8 23.08 4.8C22.8933 4.8 22.7333 4.85333 22.6 4.96C22.4667 5.06667 22.3333 5.18667 22.2 5.32C22.0933 5.42667 21.9733 5.53333 21.84 5.64C21.7067 5.74667 21.5333 5.8 21.32 5.8H15.72V9.4L16 9.68C16.2133 9.44 16.4133 9.24 16.6 9.08C16.7867 8.92 17.0267 8.84 17.32 8.84C17.72 8.84 18.3467 9.14666 19.2 9.76C20.0533 10.3467 21.0267 11 22.12 11.72C23.24 12.4133 24.4267 13.0667 25.68 13.68C26.96 14.2667 28.2267 14.56 29.48 14.56C29.5867 14.56 29.7867 14.5467 30.08 14.52C30.4 14.4933 30.6 14.48 30.68 14.48L31.08 14.2V5.92C31.08 5.54666 31.28 5.25333 31.68 5.04C32.08 4.82667 32.5333 4.66667 33.04 4.56C33.5733 4.45333 34.08 4.38667 34.56 4.36C35.04 4.33333 35.36 4.32 35.52 4.32C36.2133 4.32 36.56 4.68 36.56 5.4C36.56 5.66667 36.5067 5.90667 36.4 6.12C36.32 6.30666 36.2267 6.50667 36.12 6.72C36.04 6.93333 35.9467 7.16 35.84 7.4C35.76 7.61333 35.72 7.88 35.72 8.2V9.4C35.8267 9.64 35.92 9.73333 36 9.68C36.1067 9.62667 36.24 9.6 36.4 9.6V7C36.4 6.97333 36.48 6.89333 36.64 6.76C36.8267 6.62667 36.9733 6.53333 37.08 6.48C37.08 6.45333 37.12 6.44 37.2 6.44C37.2533 6.44 37.2933 6.45333 37.32 6.48L36.92 7V19C36.92 19.16 36.72 19.3067 36.32 19.44C35.92 19.5733 35.4667 19.6933 34.96 19.8C34.4533 19.88 33.96 19.9467 33.48 20C33 20.0533 32.68 20.08 32.52 20.08H31.48C31.32 19.9733 31.2267 19.88 31.2 19.8V19.52C31.2267 19.4933 31.3067 19.4533 31.44 19.4C31.6 19.32 31.6933 19.28 31.72 19.28L31.08 18.72V16.6C31.08 16.52 31 16.4667 30.84 16.44C30.68 16.3867 30.5067 16.36 30.32 16.36C30.16 16.3333 30 16.32 29.84 16.32C29.68 16.32 29.6 16.32 29.6 16.32C29.6 16.32 29.52 16.32 29.36 16.32C29.2 16.32 29.0267 16.3333 28.84 16.36C28.68 16.36 28.52 16.3867 28.36 16.44C28.2 16.4667 28.12 16.52 28.12 16.6V18.72H22.28ZM18.64 3.8C18.4533 3.8 18.3067 3.82667 18.2 3.88C18.0933 3.93333 17.9867 4.08 17.88 4.32C17.88 4.37333 18.04 4.46666 18.36 4.6C18.7067 4.70666 19.08 4.82666 19.48 4.96C19.9067 5.09333 20.3067 5.21333 20.68 5.32C21.08 5.42667 21.32 5.48 21.4 5.48C21.4 5.24 21.2933 5.02667 21.08 4.84C20.8667 4.62667 20.6133 4.44 20.32 4.28C20.0267 4.12 19.72 4 19.4 3.92C19.08 3.84 18.8267 3.8 18.64 3.8ZM23.2 5.92C23.0667 5.92 23 5.84 23 5.68C23 5.49333 23.0667 5.4 23.2 5.4C23.3333 5.4 23.4 5.49333 23.4 5.68C23.4 5.84 23.3333 5.92 23.2 5.92ZM13.84 5.88C13.3867 5.88 13.04 5.98667 12.8 6.2C12.56 6.41333 12.2933 6.77333 12 7.28C12.4 7.57333 12.7067 7.85333 12.92 8.12C13.16 8.36 13.3333 8.62667 13.44 8.92C13.5467 9.21333 13.6133 9.53333 13.64 9.88C13.6667 10.2267 13.68 10.64 13.68 11.12C13.76 11.12 13.8667 11.12 14 11.12C14.1333 11.12 14.2667 11.1067 14.4 11.08C14.56 11.0533 14.6933 11.0133 14.8 10.96C14.9067 10.88 14.96 10.76 14.96 10.6C14.96 10.4133 14.9067 10.24 14.8 10.08C14.6933 9.92 14.64 9.73333 14.64 9.52C14.64 9.25333 14.6933 9.02667 14.8 8.84C14.9067 8.62666 14.96 8.37333 14.96 8.08C14.96 7.86666 14.9467 7.64 14.92 7.4C14.92 7.13333 14.88 6.89333 14.8 6.68C14.72 6.44 14.6 6.25333 14.44 6.12C14.3067 5.96 14.1067 5.88 13.84 5.88ZM10.4 6.48C10.3733 6.37333 10.3467 6.42667 10.32 6.64C10.32 6.82667 10.3067 7.10667 10.28 7.48C10.28 7.85333 10.28 8.26667 10.28 8.72C10.28 9.17333 10.28 9.58666 10.28 9.96C10.3067 10.3333 10.32 10.6267 10.32 10.84C10.3467 11.0533 10.3733 11.1067 10.4 11C10.4533 10.84 10.4933 10.5467 10.52 10.12C10.5467 9.69333 10.56 9.24 10.56 8.76C10.56 8.25333 10.5467 7.78667 10.52 7.36C10.4933 6.90667 10.4533 6.61333 10.4 6.48ZM7.72 11.44C8.06667 11.44 8.42667 11.3333 8.8 11.12C9.17333 10.9067 9.36 10.6 9.36 10.2C9.36 9.82667 9.16 9.56 8.76 9.4C8.36 9.24 8.01333 9.14667 7.72 9.12V11.44ZM36.28 12.08C36.28 11.92 36.1733 11.8 35.96 11.72C35.7733 11.64 35.5467 11.5867 35.28 11.56C35.04 11.5067 34.7867 11.48 34.52 11.48C34.28 11.48 34.1067 11.48 34 11.48C34 11.9867 34.0933 12.36 34.28 12.6C34.4933 12.8133 34.7067 13.0933 34.92 13.44C35.16 13.7867 35.3467 14.2933 35.48 14.96C35.6133 15.6 35.6133 16.5867 35.48 17.92C35.48 17.9733 35.56 18.1467 35.72 18.44C35.88 18.7067 36.0667 18.84 36.28 18.84V12.08ZM6.68 13.12L6.4 13.4V17.68L6.68 17.92V13.12ZM14.12 13.4V19L14.4 19.28V13.12L14.12 13.4ZM8.52 22.2C8.33333 22.52 8.13333 22.8133 7.92 23.08C7.73333 23.32 7.56 23.5733 7.4 23.84C7.24 24.1067 7.10667 24.3867 7 24.68C6.92 24.9733 6.88 25.32 6.88 25.72L6.92 26.48L7.2 26.72H14.92V23.8C14.92 23.7733 14.88 23.7333 14.8 23.68C14.7467 23.6 14.7067 23.5467 14.68 23.52C14.28 23.28 13.84 23.1467 13.36 23.12C12.9067 23.0667 12.4533 23.0267 12 23C11.9733 22.9733 11.9067 22.92 11.8 22.84C11.72 22.7333 11.6267 22.6267 11.52 22.52C11.4133 22.3867 11.3067 22.2667 11.2 22.16C11.12 22.0533 11.08 21.9733 11.08 21.92V13.4C10.76 13.88 10.5733 14.52 10.52 15.32C10.4667 16.0933 10.4133 16.8933 10.36 17.72C10.3067 18.52 10.1733 19.2933 9.96 20.04C9.77333 20.76 9.38667 21.3067 8.8 21.68V20.8C8.66667 20.8 8.45333 20.8267 8.16 20.88C7.86667 20.9333 7.72 21.0533 7.72 21.24V21.4L8 22.48L8.52 22.2ZM32.24 14.2C32.24 14.36 32.28 14.56 32.36 14.8C32.44 15.0133 32.5867 15.12 32.8 15.12V14.2H32.24ZM28 15.52H28.28V15.28H28V15.52ZM33.28 16C33.28 16.2667 33.2933 16.6267 33.32 17.08C33.3733 17.5333 33.56 17.8133 33.88 17.92C34.0133 17.76 34.0933 17.6133 34.12 17.48C34.1467 17.32 34.16 17.1467 34.16 16.96C34.16 16.72 34.08 16.5067 33.92 16.32C33.76 16.1067 33.5467 16 33.28 16ZM22.4 19.52V19.28H22.68V19.52H22.4ZM34.12 31.8C34.36 31.8 34.56 31.6933 34.72 31.48C34.88 31.24 35.0133 30.9733 35.12 30.68C35.2533 30.3867 35.36 30.0933 35.44 29.8C35.5467 29.5067 35.64 29.28 35.72 29.12C36.04 29.3333 36.2533 29.6667 36.36 30.12C36.4933 30.5467 36.56 30.9333 36.56 31.28C36.56 31.76 36.3733 32.1867 36 32.56C35.6533 32.9333 35.2133 33.2667 34.68 33.56C34.1733 33.8267 33.64 34.0533 33.08 34.24C32.5467 34.4267 32.0933 34.5867 31.72 34.72C32.28 34.6667 32.72 34.7867 33.04 35.08C33.3867 35.3733 33.68 35.7067 33.92 36.08C34.16 36.4533 34.3733 36.7867 34.56 37.08C34.7733 37.3733 35.0133 37.4933 35.28 37.44L34.4 37.68H25.32C25.1867 37.68 25.0133 37.6533 24.8 37.6C24.6133 37.5733 24.4133 37.5067 24.2 37.4C23.9867 37.32 23.8 37.2133 23.64 37.08C23.5067 36.9467 23.44 36.7867 23.44 36.6C23.44 36.4933 23.4533 36.4 23.48 36.32C23.7733 35.9467 24.1467 35.5333 24.6 35.08C25.08 34.6267 25.5867 34.3333 26.12 34.2C26.1467 34.1733 26.16 34.1333 26.16 34.08C26.16 33.8933 26.04 33.7333 25.8 33.6C25.56 33.4667 25.36 33.4 25.2 33.4H25.08C25.0267 33.4267 24.9067 33.5333 24.72 33.72C24.5333 33.88 24.32 34.0667 24.08 34.28C23.84 34.4667 23.6 34.64 23.36 34.8C23.12 34.96 22.9333 35.04 22.8 35.04C22.72 35.04 22.68 35.0267 22.68 35C22.6267 34.9467 22.56 34.8533 22.48 34.72C22.4267 34.5867 22.4 34.5067 22.4 34.48V21.92C22.4 21.8933 22.48 21.84 22.64 21.76C22.8267 21.6533 23.0267 21.56 23.24 21.48C23.4533 21.4 23.6533 21.3333 23.84 21.28C24.0533 21.2 24.2 21.1467 24.28 21.12C24.2 21.0667 24.0533 20.9067 23.84 20.64C23.6533 20.3467 23.5333 20.16 23.48 20.08C23.4267 19.9733 23.4 19.88 23.4 19.8H28.12V31.8H34.12ZM19.72 22.72C19.72 22.6667 19.68 22.6133 19.6 22.56C19.52 22.5067 19.4267 22.4533 19.32 22.4C19.2133 22.32 19.08 22.2533 18.92 22.2V23.28C18.92 23.7067 18.9467 24.1467 19 24.6C19.0533 25.0533 19.2933 25.4133 19.72 25.68V22.72ZM27.48 23.4C27.48 23.1333 27.32 22.96 27 22.88C26.7067 22.7733 26.4533 22.72 26.24 22.72C25.9467 22.72 25.76 22.7867 25.68 22.92C25.6267 23.0267 25.6 23.2267 25.6 23.52C25.6 23.68 25.6 23.8533 25.6 24.04C25.6267 24.2267 25.6533 24.4 25.68 24.56C25.7333 24.72 25.8133 24.8667 25.92 25C26.0267 25.1067 26.1867 25.16 26.4 25.16C26.5067 25.16 26.6 25.1467 26.68 25.12C26.7067 25.0667 26.76 24.9733 26.84 24.84C26.92 24.68 27 24.52 27.08 24.36C27.1867 24.1733 27.2667 24.0133 27.32 23.88C27.4 23.72 27.4533 23.6 27.48 23.52V23.4ZM37.72 31.52C38.0667 31.76 38.3333 31.9733 38.52 32.16C38.7333 32.32 38.8933 32.5067 39 32.72C39.1067 32.9067 39.1733 33.12 39.2 33.36C39.2267 33.6 39.24 33.9067 39.24 34.28C39.24 34.9733 39.08 35.5067 38.76 35.88C38.4667 36.28 37.9867 36.6133 37.32 36.88C37.8533 36.48 38.2533 36.08 38.52 35.68C38.8133 35.3067 38.96 34.8133 38.96 34.2C38.96 33.88 38.9067 33.6533 38.8 33.52C38.6933 33.36 38.5733 33.2267 38.44 33.12C38.3067 33.0133 38.16 32.8933 38 32.76C37.84 32.6267 37.7067 32.4 37.6 32.08C37.6 32.0533 37.5867 31.9467 37.56 31.76C37.56 31.5733 37.5467 31.36 37.52 31.12C37.4933 30.8533 37.4533 30.5867 37.4 30.32C37.3733 30.0533 37.3467 29.84 37.32 29.68C37.32 29.5733 37.3067 29.3867 37.28 29.12C37.2533 28.8267 37.2267 28.52 37.2 28.2C37.1733 27.88 37.1467 27.5867 37.12 27.32C37.0933 27.0267 37.08 26.8267 37.08 26.72L36.52 26.48C36.5733 26.32 36.64 26.24 36.72 26.24C36.8267 26.2133 36.9467 26.2 37.08 26.2C37.16 26.2 37.28 26.2133 37.44 26.24C37.6267 26.2667 37.72 26.3467 37.72 26.48V31.52ZM2.04 28.6C2.04 28.3333 2.06667 28.0933 2.12 27.88C2.17333 27.64 2.36 27.52 2.68 27.52C2.97333 27.52 3.14667 27.64 3.2 27.88C3.25333 28.0933 3.28 28.3333 3.28 28.6H2.04ZM16.8 33.4C17.0933 33.24 17.4667 33.0533 17.92 32.84C18.3733 32.6 18.8 32.4267 19.2 32.32C18.8533 32.24 18.4533 32.0667 18 31.8C17.5733 31.5067 17.1333 31.1733 16.68 30.8C16.2533 30.4 15.8533 30 15.48 29.6C15.1333 29.1733 14.8667 28.8 14.68 28.48H12.28C12.3067 28.4 12.28 28.32 12.2 28.24C12.12 28.1333 12.0533 28.08 12 28.08C11.9467 28.08 11.84 28.1333 11.68 28.24C11.5467 28.32 11.48 28.4 11.48 28.48H6.92V33.4H14.68C14.7067 33.4 14.7467 33.3733 14.8 33.32C14.88 33.24 14.92 33.1733 14.92 33.12C14.9467 33.0933 14.9733 32.9867 15 32.8C15.0267 32.6133 15.0533 32.4267 15.08 32.24C15.1067 32.0267 15.1333 31.8267 15.16 31.64C15.1867 31.4533 15.2 31.3333 15.2 31.28C15.2533 31.2533 15.3467 31.24 15.48 31.24C15.72 31.24 15.9067 31.3067 16.04 31.44C16.1733 31.5733 16.2533 31.7467 16.28 31.96C16.3333 32.1467 16.3467 32.3467 16.32 32.56C16.32 32.7733 16.3067 32.96 16.28 33.12L16.8 33.4ZM24.48 32.16C24.7733 32.16 25.04 32.1333 25.28 32.08C25.5467 32 25.68 31.7867 25.68 31.44C25.36 31.44 25.08 31.48 24.84 31.56C24.6 31.6133 24.48 31.8133 24.48 32.16ZM35.28 37.44C35.36 37.44 35.4267 37.4267 35.48 37.4L35.28 37.44ZM79.72 22.72C79.6133 22.88 79.4133 23.08 79.12 23.32C78.8533 23.56 78.6133 23.68 78.4 23.68H69.32L68.92 24.08V37.4C68.92 37.6933 68.6933 37.9467 68.24 38.16C67.8133 38.3733 67.3067 38.5467 66.72 38.68C66.16 38.8133 65.6133 38.9067 65.08 38.96C64.5467 39.04 64.1867 39.08 64 39.08V38.08H62.28V23.68H52.52C52.4667 23.6267 52.4267 23.5733 52.4 23.52C52.3733 23.4667 52.3467 23.4267 52.32 23.4C52.2933 23.3733 52.28 23.3333 52.28 23.28C52.1467 23.0667 52.0667 22.9333 52.04 22.88C52.0133 22.8 52 22.6667 52 22.48C52 22.3733 52.0133 22.24 52.04 22.08C52.0667 21.8933 52.1467 21.8 52.28 21.8H62.12V12.88H58.92C58.68 12.88 58.4267 13.08 58.16 13.48C57.8933 13.8533 57.6 14.32 57.28 14.88C56.96 15.44 56.6133 16.0667 56.24 16.76C55.8933 17.4267 55.52 18.04 55.12 18.6C54.72 19.16 54.2933 19.64 53.84 20.04C53.4133 20.4133 52.9733 20.6 52.52 20.6C52.28 20.6 52.12 20.5467 52.04 20.44C51.9867 20.3067 51.96 20.1333 51.96 19.92C51.96 18.7467 52.1067 17.5733 52.4 16.4C52.72 15.2 53.0667 14 53.44 12.8C53.84 11.6 54.1867 10.4 54.48 9.2C54.8 7.97333 54.96 6.73333 54.96 5.48C54.96 5.21333 54.9067 5.04 54.8 4.96C54.6933 4.88 54.5067 4.84 54.24 4.84C53.9467 4.84 53.7067 4.93333 53.52 5.12C53.36 5.30667 53.2133 5.53333 53.08 5.8C52.9467 6.06667 52.84 6.34667 52.76 6.64C52.68 6.90666 52.6 7.12 52.52 7.28L50.4 11.8C50.5333 12.0133 50.72 12.1733 50.96 12.28C51.2 12.3867 51.44 12.48 51.68 12.56C51.92 12.64 52.12 12.7467 52.28 12.88C52.4667 12.9867 52.56 13.1733 52.56 13.44C52.56 13.7067 52.48 13.9067 52.32 14.04C52.16 14.1733 51.92 14.32 51.6 14.48V37.4C51.6 37.6933 51.3467 37.96 50.84 38.2C50.36 38.44 49.8 38.64 49.16 38.8C48.52 38.96 47.8933 39.08 47.28 39.16C46.6933 39.24 46.3067 39.28 46.12 39.28C45.8 39.28 45.5333 39.2 45.32 39.04C45.1333 38.88 45.04 38.64 45.04 38.32C45.04 38.08 45.24 37.8133 45.64 37.52C46.0667 37.2267 46.5333 36.88 47.04 36.48C47.5467 36.08 48 35.6267 48.4 35.12C48.8267 34.64 49.04 34.0933 49.04 33.48C48.8 33.48 48.52 33.48 48.2 33.48C47.9067 33.4533 47.6133 33.4667 47.32 33.52C47.0533 33.5733 46.8267 33.68 46.64 33.84C46.4533 34 46.36 34.2533 46.36 34.6C46.36 34.76 46.3867 34.88 46.44 34.96C46.52 35.0133 46.5867 35.0533 46.64 35.08C46.72 35.1067 46.7867 35.1333 46.84 35.16C46.92 35.2133 46.96 35.2933 46.96 35.4C46.96 35.4267 46.8667 35.4933 46.68 35.6C46.52 35.7067 46.32 35.8133 46.08 35.92C45.8667 36.0533 45.6533 36.16 45.44 36.24C45.2533 36.3467 45.1333 36.4 45.08 36.4V21.92L45.32 21.68C45.64 21.36 45.9333 21.2267 46.2 21.28C46.4933 21.3067 46.7733 21.4133 47.04 21.6C47.3067 21.7867 47.56 21.9867 47.8 22.2C48.04 22.3867 48.28 22.48 48.52 22.48C48.84 22.48 49.04 22.3333 49.12 22.04C49.2267 21.7467 49.3333 21.4267 49.44 21.08C49.5467 20.7067 49.6933 20.3733 49.88 20.08C50.0667 19.76 50.4133 19.5733 50.92 19.52C50.9467 19.4667 50.96 19.3867 50.96 19.28C50.96 19.1467 50.9333 19.0267 50.88 18.92C50.8267 18.7867 50.7067 18.72 50.52 18.72C50.3067 18.72 50.0267 18.84 49.68 19.08C49.3333 19.2933 48.9733 19.5467 48.6 19.84C48.2267 20.1067 47.8667 20.3733 47.52 20.64C47.1733 20.88 46.8933 21.04 46.68 21.12C46.6267 21.04 46.4933 20.9067 46.28 20.72C46.0933 20.5067 45.96 20.3733 45.88 20.32C45.8533 20.32 45.76 20.3733 45.6 20.48C45.44 20.56 45.3467 20.6 45.32 20.6C45.2667 20.5733 45.2267 20.5467 45.2 20.52C45.12 20.4933 45.08 20.4267 45.08 20.32C45.0533 20.2933 45 20.1733 44.92 19.96C44.8667 19.72 44.8267 19.5733 44.8 19.52H44.68C44.2533 19.52 43.88 19.6533 43.56 19.92C43.24 20.1867 42.92 20.48 42.6 20.8C42.3067 21.12 41.9867 21.4133 41.64 21.68C41.2933 21.9467 40.88 22.08 40.4 22.08C40.4 21.2533 40.56 20.3867 40.88 19.48C41.2267 18.5467 41.6133 17.6267 42.04 16.72C42.4933 15.7867 42.9467 14.88 43.4 14C43.88 13.12 44.2533 12.2933 44.52 11.52C44.6267 11.2267 44.76 10.76 44.92 10.12C45.08 9.45333 45.2533 8.73333 45.44 7.96C45.6533 7.16 45.8533 6.34667 46.04 5.52C46.2533 4.66666 46.4667 3.89333 46.68 3.2C46.8933 2.50667 47.0933 1.94667 47.28 1.52C47.4933 1.06667 47.68 0.839999 47.84 0.839999C48.6133 0.839999 49.5867 1.04 50.76 1.44C51.96 1.81333 53.2 2.24 54.48 2.72C55.7867 3.2 57.0533 3.64 58.28 4.04C59.5333 4.41333 60.6 4.6 61.48 4.6C61.5333 4.6 61.68 4.6 61.92 4.6C62.16 4.57333 62.28 4.48 62.28 4.32V1.32C63.64 1.32 64.96 1.37333 66.24 1.48C67.52 1.58666 68.8133 1.73333 70.12 1.92C70.1733 2.08 70.2 2.21333 70.2 2.32C70.2 2.69333 70.0933 2.98667 69.88 3.2C69.6933 3.38667 69.4267 3.58666 69.08 3.8V10.72C69.08 10.88 69.1467 10.9733 69.28 11C69.4133 11 69.52 11 69.6 11C70 11 70.36 10.8533 70.68 10.56C71.0267 10.2667 71.3467 9.92 71.64 9.52C71.9333 9.09333 72.2133 8.68 72.48 8.28C72.7733 7.85333 73.0533 7.52 73.32 7.28C73.72 7.46667 74.1067 7.74666 74.48 8.12C74.88 8.49333 75.2133 8.82667 75.48 9.12C75.2133 9.12 74.9467 9.2 74.68 9.36C74.4133 9.49333 74.1733 9.66667 73.96 9.88C73.7733 10.0933 73.6133 10.3333 73.48 10.6C73.3733 10.8667 73.32 11.1333 73.32 11.4V11.8C73.9067 11.8533 74.5067 11.96 75.12 12.12C75.76 12.28 76.3733 12.36 76.96 12.36C77.2533 12.36 77.48 12.3333 77.64 12.28C77.8267 12.2 78.08 12.04 78.4 11.8V12.08C78.3467 12.16 78.2533 12.2933 78.12 12.48C77.9867 12.64 77.9067 12.72 77.88 12.72H69.08V21.32C69.1333 21.32 69.24 21.3467 69.4 21.4C69.5867 21.4533 69.7733 21.5067 69.96 21.56C70.1733 21.6133 70.3733 21.6533 70.56 21.68C70.7467 21.7067 70.8667 21.7067 70.92 21.68C71.2667 21.5467 71.56 21.28 71.8 20.88C72.0667 20.48 72.32 20.0667 72.56 19.64C72.8267 19.1867 73.0933 18.7867 73.36 18.44C73.6267 18.0933 73.9333 17.92 74.28 17.92C74.5467 17.92 74.84 18.0267 75.16 18.24C75.48 18.4533 75.7867 18.7067 76.08 19C76.3733 19.2667 76.6533 19.56 76.92 19.88C77.1867 20.1733 77.4133 20.4133 77.6 20.6H77.32C77.2933 20.5733 77.16 20.48 76.92 20.32C76.7067 20.16 76.5733 20.08 76.52 20.08C76.52 20.0533 76.48 20.04 76.4 20.04C76.08 20.04 75.88 20.1733 75.8 20.44C75.72 20.68 75.68 20.9067 75.68 21.12C75.68 21.6533 75.8267 22.1467 76.12 22.6C76.44 23.0533 76.88 23.28 77.44 23.28C77.8133 23.28 78.2 23.24 78.6 23.16C79 23.08 79.2933 22.8533 79.48 22.48L79.72 22.72ZM48.8 3.28C48.8533 3.30666 48.9067 3.28 48.96 3.2C49.04 3.09333 49.1067 2.97333 49.16 2.84C49.2133 2.70667 49.2533 2.58667 49.28 2.48C49.3333 2.34667 49.36 2.25333 49.36 2.2C49.36 1.88 49.2533 1.70667 49.04 1.68C48.8533 1.65333 48.64 1.64 48.4 1.64C48.0533 1.64 47.8 1.68 47.64 1.76C47.5067 1.81333 47.44 2.02666 47.44 2.4C47.44 2.45333 47.44 2.52 47.44 2.6C47.44 2.68 47.4533 2.72 47.48 2.72L48.8 3.28ZM49.32 5.12C49.3733 5.2 49.4667 5.32 49.6 5.48C49.76 5.61333 49.8533 5.68 49.88 5.68C50.44 5.68 50.8533 5.57333 51.12 5.36C51.3867 5.14667 51.5867 4.90667 51.72 4.64C51.88 4.37333 52.0267 4.10666 52.16 3.84C52.2933 3.57333 52.5067 3.38667 52.8 3.28C52.7467 3.14667 52.6533 3.05333 52.52 3H52.28C52.2533 3 52.2 3.04 52.12 3.12C52.0667 3.17333 52.0267 3.22667 52 3.28C51.8667 3.44 51.6533 3.61333 51.36 3.8C51.0667 3.98666 50.76 4.16 50.44 4.32C50.1467 4.48 49.88 4.62667 49.64 4.76C49.4267 4.86667 49.32 4.94666 49.32 5V5.12ZM68.28 4.32H67.88C67.88 4.4 67.8933 4.58666 67.92 4.88C67.9467 5.14667 67.9733 5.32 68 5.4C68 5.42667 68.0267 5.48 68.08 5.56C68.16 5.61333 68.2267 5.65333 68.28 5.68V4.32ZM61.88 10.72C61.9067 10.72 61.9467 10.6933 62 10.64C62.08 10.56 62.12 10.5067 62.12 10.48C62.1733 10.3733 62.2267 10.1467 62.28 9.8C62.36 9.45333 62.4 9.22667 62.4 9.12C63.0133 9.06667 63.6 8.96 64.16 8.8C64.72 8.61333 65.32 8.52 65.96 8.52C65.96 8.38666 65.92 8.24 65.84 8.08C65.7867 7.89333 65.6667 7.8 65.48 7.8C65.0533 7.8 64.6267 7.89333 64.2 8.08C63.8 8.26667 63.3733 8.36 62.92 8.36L62.4 8.32C62.4 8.29333 62.4 8.2 62.4 8.04C62.4 7.85333 62.3867 7.65333 62.36 7.44C62.3333 7.22667 62.28 7.02667 62.2 6.84C62.12 6.65333 62.0133 6.53333 61.88 6.48C61.8533 6.45333 61.8 6.44 61.72 6.44C61.48 6.44 61.24 6.62666 61 7C60.7867 7.37333 60.6 7.81333 60.44 8.32C60.28 8.8 60.1467 9.28 60.04 9.76C59.9333 10.2133 59.88 10.5333 59.88 10.72H61.88ZM59.76 8.72C59.76 8.66667 59.7467 8.62667 59.72 8.6C59.5867 8.6 59.4 8.54667 59.16 8.44C58.9467 8.30667 58.72 8.17333 58.48 8.04C58.24 7.88 58.0133 7.74667 57.8 7.64C57.5867 7.53333 57.4267 7.49333 57.32 7.52C57.08 7.6 56.92 7.73333 56.84 7.92C56.7867 8.10667 56.76 8.29333 56.76 8.48C56.76 8.69333 56.8133 8.88 56.92 9.04C57.0533 9.2 57.1867 9.36 57.32 9.52C57.4533 9.68 57.5733 9.85333 57.68 10.04C57.8133 10.2 57.88 10.4 57.88 10.64C57.88 11.2 57.72 11.56 57.4 11.72C57.1067 11.88 56.7733 11.9733 56.4 12C56.0267 12 55.68 12.0133 55.36 12.04C55.0667 12.04 54.92 12.1867 54.92 12.48C54.92 12.5867 55.04 12.68 55.28 12.76C55.52 12.84 55.7867 12.92 56.08 13C56.4 13.0533 56.7067 13.0933 57 13.12C57.2933 13.1467 57.4933 13.16 57.6 13.16C57.8667 13.16 58.1067 13.0133 58.32 12.72C58.56 12.4267 58.68 12.16 58.68 11.92C58.68 11.68 58.6267 11.4667 58.52 11.28C58.4133 11.0933 58.36 10.8533 58.36 10.56C58.36 10.2933 58.4267 10.08 58.56 9.92C58.72 9.76 58.88 9.62667 59.04 9.52C59.2267 9.38667 59.3867 9.26667 59.52 9.16C59.68 9.02667 59.76 8.88 59.76 8.72ZM66.12 9.12C66.2533 9.12 66.32 9.04 66.32 8.88C66.32 8.69333 66.2533 8.6 66.12 8.6C65.9867 8.6 65.92 8.69333 65.92 8.88C65.92 9.04 65.9867 9.12 66.12 9.12ZM68.56 9.4C68.56 9.26666 68.5333 9.14666 68.48 9.04C68.4267 8.90666 68.32 8.84 68.16 8.84C68.08 8.84 68.0267 8.85333 68 8.88C67.8667 8.88 67.6 8.92 67.2 9C66.8 9.05333 66.5333 9.09333 66.4 9.12C66.3733 9.14667 66.36 9.2 66.36 9.28C66.36 9.33333 66.3733 9.37333 66.4 9.4C66.6667 9.72 66.8667 9.98667 67 10.2C67.16 10.3867 67.4 10.48 67.72 10.48C67.9867 10.48 68.1867 10.36 68.32 10.12C68.48 9.88 68.56 9.64 68.56 9.4ZM50.4 10.2C50.5333 10.2 50.6 10.12 50.6 9.96C50.6 9.77333 50.5333 9.68 50.4 9.68C50.2667 9.68 50.2 9.77333 50.2 9.96C50.2 10.12 50.2667 10.2 50.4 10.2ZM50.92 13.12C50.92 13.0933 50.8533 13.0133 50.72 12.88C50.5867 12.7467 50.48 12.6533 50.4 12.6H50.12C50.0133 12.6533 49.9067 12.7733 49.8 12.96C49.72 13.12 49.64 13.2933 49.56 13.48C49.4533 13.6933 49.3733 13.9333 49.32 14.2C49.3467 14.2533 49.4267 14.3467 49.56 14.48C49.6933 14.5867 49.8267 14.7067 49.96 14.84C50.12 14.9733 50.2667 15.0933 50.4 15.2C50.5333 15.28 50.6267 15.3067 50.68 15.28L50.92 15V13.12ZM62.68 18.2C62.6533 18.2 62.64 18.24 62.64 18.32C62.64 18.7733 62.7733 19.1467 63.04 19.44C63.3333 19.7333 63.64 20.0133 63.96 20.28C64.3067 20.5467 64.6133 20.8267 64.88 21.12C65.1733 21.4133 65.32 21.7733 65.32 22.2C65.32 22.2533 65.28 22.3867 65.2 22.6C65.12 22.8133 65.08 22.9467 65.08 23C65.0533 23.0267 65.04 23.0533 65.04 23.08V23.28C65.04 23.3867 65.0533 23.4667 65.08 23.52C65.16 23.36 65.28 23.1333 65.44 22.84C65.6 22.5467 65.7467 22.24 65.88 21.92C66.0133 21.5733 66.1333 21.2533 66.24 20.96C66.3467 20.64 66.4 20.3867 66.4 20.2C66.4 19.96 66.32 19.7467 66.16 19.56C66.0267 19.3467 65.88 19.1467 65.72 18.96C65.56 18.7467 65.4 18.5333 65.24 18.32C65.1067 18.1067 65.04 17.8533 65.04 17.56C65.04 17.16 65.16 16.8 65.4 16.48C65.64 16.1333 65.88 15.8133 66.12 15.52C65.56 15.6 65.1467 15.6 64.88 15.52C64.6133 15.44 64.3867 15.3333 64.2 15.2C64.0133 15.0667 63.8267 14.9467 63.64 14.84C63.4533 14.7067 63.1867 14.64 62.84 14.64C62.84 15.0933 62.9467 15.48 63.16 15.8C63.3733 16.0933 63.56 16.4533 63.72 16.88C63.7467 16.9067 63.76 16.9467 63.76 17C63.76 17.08 63.7467 17.12 63.72 17.12L62.68 18.2ZM78.92 21.68C79.0533 21.68 79.12 21.76 79.12 21.92H79.2C79.3333 21.92 79.4 22.0133 79.4 22.2C79.4 22.3867 79.3333 22.48 79.2 22.48C79.0667 22.48 79 22.3867 79 22.2H78.92C78.7867 22.2 78.72 22.1067 78.72 21.92H78.68C78.5467 21.92 78.48 21.84 78.48 21.68H78.4C78.2667 21.68 78.2 21.5867 78.2 21.4H78.12C77.9867 21.4 77.92 21.3067 77.92 21.12H77.88C77.7467 21.12 77.68 21.04 77.68 20.88C77.68 20.6933 77.7467 20.6 77.88 20.6C78.0133 20.6 78.08 20.6933 78.08 20.88H78.12C78.2533 20.88 78.32 20.96 78.32 21.12H78.4C78.5333 21.12 78.6 21.2133 78.6 21.4H78.68C78.8133 21.4 78.88 21.4933 78.88 21.68H78.92ZM68.52 25.68H68.08C68.08 26.08 68.0133 26.4267 67.88 26.72C67.7733 27.0133 67.64 27.2933 67.48 27.56C67.3467 27.8267 67.2133 28.0933 67.08 28.36C66.9733 28.6267 66.92 28.92 66.92 29.24C66.92 29.3733 66.9333 29.56 66.96 29.8C67.0133 30.04 67.08 30.2667 67.16 30.48C67.24 30.6933 67.3467 30.88 67.48 31.04C67.6133 31.2 67.7733 31.28 67.96 31.28C68.04 31.28 68.1467 31.2667 68.28 31.24C68.44 31.2133 68.52 31.1333 68.52 31V25.68ZM68 35.52C67.92 35.44 67.7467 35.2667 67.48 35C67.2133 34.7067 67.0267 34.5333 66.92 34.48C66.92 34.4533 66.88 34.44 66.8 34.44C66.6667 34.44 66.5467 34.5067 66.44 34.64C66.3333 34.7733 66.24 34.9333 66.16 35.12C66.08 35.3067 66.0133 35.48 65.96 35.64C65.9067 35.8267 65.88 35.9733 65.88 36.08C65.88 36.1067 65.9067 36.1467 65.96 36.2C66.04 36.28 66.0933 36.32 66.12 36.32C66.1733 36.2933 66.2667 36.2 66.4 36.04C66.5333 35.9067 66.6267 35.8267 66.68 35.8H66.92C66.9467 35.8 67.04 35.84 67.2 35.92C67.36 36 67.4533 36.0533 67.48 36.08H67.72C67.88 35.9733 67.9733 35.88 68 35.8V35.52ZM62.68 39.28C62.5467 39.28 62.48 39.1867 62.48 39C62.48 38.8133 62.5467 38.72 62.68 38.72C62.8133 38.72 62.88 38.8133 62.88 39C62.88 39.1867 62.8133 39.28 62.68 39.28Z" fill="#333E44"/>
</svg>
