<svg width="160" height="40" viewBox="0 0 160 40" fill="none" xmlns="http://www.w3.org/2000/svg">
<path d="M35.88 6.2C35.6933 6.2 35.5333 6.16 35.4 6.08C35.2667 5.97333 35.0933 5.92 34.88 5.92C34.72 5.92 34.6133 5.97333 34.56 6.08C34.5333 6.16 34.5067 6.26667 34.48 6.4C34.4533 6.50667 34.4133 6.62667 34.36 6.76C34.3333 6.86667 34.2533 6.94667 34.12 7C34.0933 7.02666 33.96 7.08 33.72 7.16C33.5067 7.21333 33.3733 7.25333 33.32 7.28C33.2933 7.28 33.28 7.32 33.28 7.4C33.28 7.45333 33.2933 7.49333 33.32 7.52C33.6933 7.52 34.0133 7.58667 34.28 7.72C34.5733 7.82667 34.84 7.94667 35.08 8.08C35.32 8.21333 35.56 8.34666 35.8 8.48C36.04 8.58666 36.32 8.64 36.64 8.64C36.7733 8.64 36.9733 8.62667 37.24 8.6C37.5067 8.54666 37.64 8.41333 37.64 8.2C37.64 8.12 37.6267 8.08 37.6 8.08C37.5467 7.97333 37.4133 7.78666 37.2 7.52C37.0133 7.25333 36.88 7.08 36.8 7C36.8267 6.97333 36.8667 6.96 36.92 6.96C37 6.96 37.0533 6.97333 37.08 7C37.16 7.08 37.3333 7.25333 37.6 7.52C37.8933 7.78666 38.0667 7.97333 38.12 8.08C38.1467 8.08 38.16 8.12 38.16 8.2C38.16 8.36 38.0533 8.52 37.84 8.68C37.6267 8.81333 37.4533 8.88 37.32 8.88H2.12C1.85333 8.88 1.69333 8.77333 1.64 8.56C1.58667 8.32 1.56 8.12 1.56 7.96C1.56 7.90667 1.57333 7.76 1.6 7.52C1.62667 7.25333 1.72 7.12 1.88 7.12H16L16.4 6.72V0.879998C16.4 0.719999 16.5067 0.639999 16.72 0.639999C16.9333 0.613333 17.08 0.599999 17.16 0.599999H17.6C17.7067 0.599999 17.9067 0.613333 18.2 0.639999C18.52 0.639999 18.8533 0.653332 19.2 0.679998C19.5467 0.706665 19.8667 0.746665 20.16 0.799999C20.48 0.826666 20.6933 0.853332 20.8 0.879998V1.72C20.9867 1.72 21.1333 1.77333 21.24 1.88C21.3467 1.96 21.4267 2.01333 21.48 2.04C21.56 2.04 21.6267 1.98666 21.68 1.88C21.7333 1.74666 21.8 1.45333 21.88 0.999999H24.52L24.44 1.36L24.28 1.92C24.2267 2.02667 24.0533 2.22667 23.76 2.52C23.4933 2.78666 23.3067 2.94667 23.2 3V7H28.8C28.96 7 29.1867 6.84 29.48 6.52C29.7733 6.2 30.0667 5.84 30.36 5.44C30.68 5.01333 30.96 4.61333 31.2 4.24C31.4667 3.86666 31.64 3.62666 31.72 3.52C31.8 3.49333 31.9333 3.48 32.12 3.48C32.44 3.48 32.7733 3.58666 33.12 3.8C33.4933 3.98666 33.8533 4.22666 34.2 4.52C34.5733 4.78667 34.9067 5.08 35.2 5.4C35.52 5.72 35.7867 5.98667 36 6.2H35.88ZM22.4 5.4H22.12V5.68H22.4V5.4ZM36.52 6.48C36.6533 6.48 36.72 6.57333 36.72 6.76C36.72 6.92 36.6533 7 36.52 7C36.3867 7 36.32 6.90667 36.32 6.72H36.28C36.1467 6.72 36.08 6.64 36.08 6.48C36.08 6.29333 36.1467 6.2 36.28 6.2C36.4133 6.2 36.48 6.29333 36.48 6.48H36.52ZM26.2 7.72C25.9333 7.72 25.7467 7.81333 25.64 8C25.56 8.18667 25.52 8.41333 25.52 8.68C25.8133 8.68 26 8.58666 26.08 8.4C26.16 8.21333 26.2 7.98666 26.2 7.72ZM11.2 9.4C11.2 9.4 11.4267 9.50667 11.88 9.72C12.3333 9.93333 12.8667 10.2 13.48 10.52C14.12 10.84 14.76 11.1733 15.4 11.52C16.0667 11.84 16.6267 12.1067 17.08 12.32C17.3467 12.4533 17.5467 12.56 17.68 12.64C17.84 12.72 17.92 12.88 17.92 13.12C17.92 13.2533 17.9067 13.3467 17.88 13.4C17.08 13.64 16.2933 14.0267 15.52 14.56C14.7733 15.0667 14.0267 15.6533 13.28 16.32C12.56 16.96 11.8267 17.6267 11.08 18.32C10.3333 19.0133 9.56 19.6533 8.76 20.24C7.96 20.8 7.10667 21.2667 6.2 21.64C5.32 22.0133 4.36 22.2 3.32 22.2H3.2C3.12 22.1467 3.01333 22.0533 2.88 21.92C2.74667 21.7867 2.68 21.7067 2.68 21.68C2.65333 21.6267 2.66667 21.5333 2.72 21.4C2.8 21.24 2.86667 21.1467 2.92 21.12C3.24 20.8267 3.58667 20.5067 3.96 20.16C4.36 19.7867 4.74667 19.4 5.12 19C5.49333 18.6 5.85333 18.2 6.2 17.8C6.57333 17.4 6.90667 17 7.2 16.6H7.32C7.50667 16.6 7.64 16.64 7.72 16.72C7.8 16.7733 7.96 16.8 8.2 16.8C8.2 16.48 8.22667 16.2533 8.28 16.12C8.33333 15.9867 8.24 15.7867 8 15.52L10.92 9.68L11.2 9.4ZM37.32 33.44C37.56 33.44 37.76 33.48 37.92 33.56C38.1067 33.6133 38.2667 33.6533 38.4 33.68C38.5333 33.68 38.6667 33.6267 38.8 33.52C38.9333 33.4133 39.0667 33.2 39.2 32.88C39.3333 32.9067 39.4133 32.9733 39.44 33.08C39.4667 33.1867 39.48 33.2933 39.48 33.4C39.48 33.72 39.32 34.0133 39 34.28C38.7067 34.52 38.3467 34.76 37.92 35C37.4933 35.2133 37.0667 35.44 36.64 35.68C36.24 35.9467 35.9333 36.2533 35.72 36.6C35.5333 36.9733 35.3867 37.3067 35.28 37.6C35.2 37.8933 35.0933 38.1467 34.96 38.36C34.8533 38.5733 34.7067 38.7333 34.52 38.84C34.3333 38.9733 34.0667 39.04 33.72 39.04C33 39.04 32.1467 38.88 31.16 38.56C30.1733 38.2667 29.1867 37.88 28.2 37.4C27.2133 36.92 26.2933 36.3733 25.44 35.76C24.5867 35.1467 23.9333 34.5333 23.48 33.92C23.5067 33.8933 23.5867 33.8133 23.72 33.68C23.88 33.5467 23.9733 33.4533 24 33.4C24.0267 33.3733 24.04 33.3333 24.04 33.28C24.04 32.8267 23.9067 32.4133 23.64 32.04C23.3733 31.6667 23.0533 31.3467 22.68 31.08C22.3067 30.8133 21.8933 30.6133 21.44 30.48C21.0133 30.32 20.6267 30.24 20.28 30.24V30.48C21.0533 30.6667 21.6 30.9467 21.92 31.32C22.2667 31.6933 22.4267 32.2933 22.4 33.12C22.3733 33.1467 22.3333 33.16 22.28 33.16C21.96 33.16 21.6667 33.0133 21.4 32.72C21.1333 32.4 20.84 32.1867 20.52 32.08C20.52 32.0533 20.48 32.04 20.4 32.04C20.0533 32.04 19.6933 32.1467 19.32 32.36C18.9733 32.5467 18.6267 32.7733 18.28 33.04C17.9333 33.28 17.5867 33.5467 17.24 33.84C16.8933 34.1067 16.5733 34.32 16.28 34.48C15.2133 35.04 14.08 35.6 12.88 36.16C11.68 36.7467 10.44 37.2667 9.16 37.72C7.90667 38.1733 6.62667 38.5467 5.32 38.84C4.04 39.1333 2.78667 39.28 1.56 39.28C1.37333 39.28 1.2 39.2133 1.04 39.08C0.88 38.9733 0.8 38.8133 0.8 38.6V38.48C0.853333 38.4 0.946667 38.2933 1.08 38.16C1.21333 38.0267 1.29333 37.9467 1.32 37.92L5.08 36.6H5.32C5.66667 36.6 5.96 36.6267 6.2 36.68C6.46667 36.76 6.8 36.8 7.2 36.8C7.2 36.3733 7.21333 36.0533 7.24 35.84C7.29333 35.6267 7.38667 35.4533 7.52 35.32C7.68 35.1867 7.89333 35.0667 8.16 34.96C8.45333 34.8533 8.84 34.6933 9.32 34.48C9.4 34.6133 9.44 34.8 9.44 35.04C9.46667 35.28 9.48 35.5067 9.48 35.72C9.50667 35.96 9.54667 36.16 9.6 36.32C9.68 36.5067 9.81333 36.6 10 36.6C10.9067 36.6 11.64 36.3333 12.2 35.8C12.7867 35.2667 13.08 34.56 13.08 33.68V33.4C13 33.4267 12.88 33.48 12.72 33.56C12.5867 33.6133 12.4267 33.6933 12.24 33.8C12.08 33.88 11.92 33.96 11.76 34.04C11.6267 34.12 11.5333 34.1733 11.48 34.2H11.2C11.1467 34.1733 11.04 34.1333 10.88 34.08C10.7467 34 10.68 33.9467 10.68 33.92C10.6533 33.92 10.64 33.88 10.64 33.8C10.64 33.6133 10.8 33.3867 11.12 33.12C11.44 32.8267 11.84 32.52 12.32 32.2C12.8 31.8533 13.32 31.5067 13.88 31.16C14.44 30.8133 14.9467 30.48 15.4 30.16C15.88 29.8133 16.28 29.4933 16.6 29.2C16.92 28.88 17.08 28.6 17.08 28.36C17.08 28.1733 17.0267 28.0533 16.92 28C16.84 27.92 16.8 27.8133 16.8 27.68V27.52L18.4 26.72H18.68C18.7067 26.7733 18.8267 26.92 19.04 27.16C19.28 27.3733 19.4267 27.4933 19.48 27.52C19.48 27.5467 19.52 27.56 19.6 27.56C19.6533 27.56 19.6933 27.5467 19.72 27.52C20.0133 27.3067 20.3067 26.9733 20.6 26.52C20.8933 26.04 21.2 25.5733 21.52 25.12C21.84 24.6667 22.1733 24.28 22.52 23.96C22.8933 23.6133 23.2933 23.4667 23.72 23.52C23.7467 23.4933 23.76 23.4533 23.76 23.4C23.76 23.24 23.6933 23.1333 23.56 23.08C23.4533 23 23.3333 22.96 23.2 22.96C22.8267 22.96 22.4267 23.08 22 23.32C21.6 23.5333 21.2 23.8 20.8 24.12C20.4 24.44 20.0267 24.7867 19.68 25.16C19.36 25.5333 19.1067 25.88 18.92 26.2H18.68C18.3867 26.2 18.2133 26.08 18.16 25.84C18.1067 25.6 18.0533 25.36 18 25.12C17.9733 24.88 17.88 24.6933 17.72 24.56C17.5867 24.4 17.28 24.4133 16.8 24.6C16.7467 24.6267 16.6667 24.6933 16.56 24.8C16.4533 24.88 16.3333 24.9733 16.2 25.08C16.0933 25.1867 15.9867 25.2933 15.88 25.4C15.8 25.5067 15.7467 25.6 15.72 25.68C15.3733 25.44 15.0133 25.04 14.64 24.48C14.2667 23.92 13.92 23.32 13.6 22.68C13.28 22.0133 13.0133 21.3467 12.8 20.68C12.6133 20.0133 12.52 19.44 12.52 18.96C12.52 18.7467 12.5467 18.56 12.6 18.4C12.6533 18.24 12.8133 18.16 13.08 18.16C13.2133 18.16 13.3067 18.1733 13.36 18.2C13.4133 18.2267 13.4933 18.32 13.6 18.48L15.72 22.08H14.56L14.44 22.24C14.3867 22.3733 14.3733 22.4533 14.4 22.48C14.5333 22.64 14.72 22.7733 14.96 22.88C15.2 22.96 15.4533 23.04 15.72 23.12C16.0133 23.2 16.2933 23.2933 16.56 23.4C16.8533 23.48 17.1067 23.6133 17.32 23.8C17.5067 23.96 17.6533 24.0933 17.76 24.2C17.8933 24.3067 18 24.4 18.08 24.48C18.16 24.5333 18.2533 24.5733 18.36 24.6C18.4667 24.6267 18.6 24.64 18.76 24.64C19.2133 24.64 19.6 24.4667 19.92 24.12C20.24 23.7467 20.5067 23.2933 20.72 22.76C20.9333 22.2267 21.12 21.64 21.28 21C21.4667 20.36 21.6533 19.7733 21.84 19.24C22.0267 18.7067 22.24 18.2667 22.48 17.92C22.7467 17.5467 23.0667 17.36 23.44 17.36C24 17.36 24.5333 17.4933 25.04 17.76C25.5733 18 26.0933 18.2667 26.6 18.56C27.1067 18.8533 27.6133 19.1333 28.12 19.4C28.6533 19.64 29.2 19.76 29.76 19.76C29.76 19.12 29.5867 18.4933 29.24 17.88C28.92 17.24 28.4933 16.64 27.96 16.08C27.4533 15.52 26.9067 14.9867 26.32 14.48C25.7333 13.9733 25.1733 13.4933 24.64 13.04C24.1333 12.5867 23.7067 12.1733 23.36 11.8C23.04 11.4 22.88 11.04 22.88 10.72C22.88 10.48 22.9867 10.3333 23.2 10.28C23.4133 10.2267 23.6267 10.2 23.84 10.2C24.6933 10.2 25.6133 10.28 26.6 10.44C27.6133 10.5733 28.6 10.8 29.56 11.12C30.52 11.44 31.4267 11.8533 32.28 12.36C33.1333 12.8667 33.84 13.48 34.4 14.2C34.2667 14.2533 34.08 14.2933 33.84 14.32C33.6267 14.3467 33.4133 14.3867 33.2 14.44C33.0133 14.4933 32.84 14.5733 32.68 14.68C32.5467 14.76 32.48 14.8933 32.48 15.08C32.48 15.2933 32.52 15.48 32.6 15.64C32.68 15.7733 32.84 15.84 33.08 15.84C33.4267 15.84 33.7467 15.6933 34.04 15.4C34.3333 15.08 34.5467 14.7733 34.68 14.48C34.8933 14.6133 35.0667 14.8 35.2 15.04C35.3333 15.2533 35.44 15.5067 35.52 15.8C35.6 16.0667 35.6533 16.3467 35.68 16.64C35.7333 16.9067 35.76 17.16 35.76 17.4C35.76 18.4133 35.52 19.1467 35.04 19.6C34.56 20.0267 33.96 20.3333 33.24 20.52C32.5467 20.7067 31.8 20.8667 31 21C30.2 21.1067 29.4667 21.3333 28.8 21.68C28.72 21.7333 28.5467 21.9333 28.28 22.28C28.04 22.6 27.76 23 27.44 23.48C27.12 23.9333 26.7867 24.4267 26.44 24.96C26.0933 25.4933 25.7733 26 25.48 26.48C25.1867 26.9333 24.9467 27.32 24.76 27.64C24.6 27.9333 24.52 28.08 24.52 28.08C24.52 28.4267 24.7467 28.7333 25.2 29C25.6533 29.2667 26.16 29.5067 26.72 29.72C27.28 29.9067 27.8133 30.0667 28.32 30.2C28.8533 30.3333 29.1867 30.4267 29.32 30.48C30.68 30.88 32.0133 31.2533 33.32 31.6C34.6267 31.9467 35.96 32.28 37.32 32.6V33.44ZM12.72 15.08C12.72 14.6267 12.5733 14.2133 12.28 13.84C11.9867 13.44 11.6 13.24 11.12 13.24C11.12 13.8533 11.2267 14.32 11.44 14.64C11.6533 14.9333 12.08 15.08 12.72 15.08ZM9.32 17.92C9.10667 18.0533 9 18.2533 9 18.52C9.26667 18.52 9.46667 18.4133 9.6 18.2L9.32 17.92ZM27.48 22.08C27.48 21.76 27.3467 21.56 27.08 21.48C26.8133 21.4 26.5733 21.36 26.36 21.36C25.96 21.36 25.7333 21.4667 25.68 21.68C25.6267 21.8933 25.6 22.2 25.6 22.6C25.6 22.7867 25.64 22.96 25.72 23.12C25.8 23.2533 25.9333 23.32 26.12 23.32C26.44 23.32 26.6933 23.2 26.88 22.96C27.0667 22.6933 27.2667 22.44 27.48 22.2V22.08ZM24.52 24.6L24.28 24.88L24.52 25.12L24.8 24.88L24.52 24.6ZM16.52 27.52C16.3867 27.52 16.32 27.44 16.32 27.28C16.32 27.0933 16.3867 27 16.52 27C16.6533 27 16.72 27.0933 16.72 27.28C16.72 27.44 16.6533 27.52 16.52 27.52ZM19.48 28.6C19.56 28.5467 19.6 28.4533 19.6 28.32C19.6 28.1867 19.56 28.1067 19.48 28.08C19.4 28.0267 19.36 28.12 19.36 28.36C19.36 28.5733 19.4 28.6533 19.48 28.6ZM32.8 32.6C32.6133 32.1733 32.2267 31.96 31.64 31.96C31.64 32.2 31.6667 32.4133 31.72 32.6C31.8 32.7867 31.9867 32.88 32.28 32.88C32.3867 32.88 32.48 32.8667 32.56 32.84C32.6667 32.8133 32.7467 32.7333 32.8 32.6ZM26.96 32.48C26.96 32.2933 26.88 32.1733 26.72 32.12C26.5867 32.04 26.4533 32 26.32 32C26.32 32.1333 26.3333 32.3067 26.36 32.52C26.3867 32.7067 26.4933 32.8267 26.68 32.88C26.8133 32.8 26.8933 32.7067 26.92 32.6C26.9467 32.5733 26.96 32.5333 26.96 32.48ZM77.6 7.52C77.6533 7.49333 77.7867 7.45333 78 7.4C78.2133 7.32 78.3467 7.28 78.4 7.28C78.4267 7.25333 78.48 7.24 78.56 7.24C78.6667 7.24 78.7333 7.24 78.76 7.24C78.76 7.37333 78.6933 7.52 78.56 7.68C78.4267 7.84 78.28 7.92 78.12 7.92H67.2L66.68 8.32C66.5467 8.42666 66.3067 8.64 65.96 8.96C65.64 9.25333 65.28 9.6 64.88 10C64.5067 10.4 64.1333 10.8133 63.76 11.24C63.3867 11.64 63.1067 12 62.92 12.32V12.6C63 12.7067 63.0933 12.8 63.2 12.88C63.8667 12.7467 64.36 12.7733 64.68 12.96C65.0267 13.1467 65.3067 13.3733 65.52 13.64C65.76 13.9067 66 14.16 66.24 14.4C66.48 14.64 66.84 14.76 67.32 14.76C67.4 14.76 67.4533 14.7467 67.48 14.72C67.5867 14.6933 67.6667 14.6133 67.72 14.48C67.7467 14.4533 67.76 14.4 67.76 14.32C67.76 14.2667 67.7467 14.2267 67.72 14.2C67.6933 14.1467 67.56 14.0133 67.32 13.8C67.1067 13.5867 66.9733 13.4533 66.92 13.4V13.12C67 13.12 67.1333 13.12 67.32 13.12C67.5333 13.0933 67.7467 13.0533 67.96 13C68.2 12.9467 68.4 12.8667 68.56 12.76C68.7467 12.6533 68.84 12.52 68.84 12.36C68.84 12.04 68.7333 11.76 68.52 11.52C68.3333 11.28 68.12 11.04 67.88 10.8C67.64 10.56 67.4133 10.32 67.2 10.08C67.0133 9.84 66.92 9.57333 66.92 9.28C66.92 9.12 66.96 9.01333 67.04 8.96C67.12 8.90666 67.2133 8.86666 67.32 8.84C67.4533 8.81333 67.5733 8.81333 67.68 8.84C67.8133 8.84 67.92 8.84 68 8.84C68.2933 8.84 68.6133 8.85333 68.96 8.88C69.3333 8.90667 69.6667 8.96 69.96 9.04C70.28 9.12 70.5467 9.25333 70.76 9.44C70.9733 9.6 71.08 9.82667 71.08 10.12C72.36 10.12 73.4267 10.3867 74.28 10.92C75.1333 11.4533 75.9733 12.1867 76.8 13.12C76.8267 13.1467 76.84 13.2 76.84 13.28C76.84 13.4133 76.7867 13.5067 76.68 13.56C76.5733 13.6133 76.44 13.6533 76.28 13.68C76.1467 13.68 76.0133 13.68 75.88 13.68C75.7467 13.68 75.6533 13.68 75.6 13.68C75.2267 13.68 74.9067 13.6267 74.64 13.52C74.3733 13.4133 74.04 13.36 73.64 13.36C73.3467 13.36 73.08 13.4267 72.84 13.56C72.6267 13.6667 72.52 13.92 72.52 14.32V14.48C72.6 14.6133 72.6933 14.6933 72.8 14.72C72.9067 14.6933 73.1333 14.6533 73.48 14.6C73.8267 14.52 74.04 14.48 74.12 14.48C74.1467 14.4533 74.2 14.44 74.28 14.44C74.52 14.44 74.7467 14.5467 74.96 14.76C75.1733 14.9467 75.3467 15.12 75.48 15.28C75.48 15.36 75.4933 15.5067 75.52 15.72C75.5467 15.9067 75.5733 16.12 75.6 16.36C75.6267 16.5733 75.6533 16.7867 75.68 17C75.7067 17.1867 75.72 17.32 75.72 17.4C75.72 17.48 75.68 17.6267 75.6 17.84C75.5467 18.0267 75.5067 18.1467 75.48 18.2H75.72C76.0667 18.2 76.36 18.08 76.6 17.84C76.8667 17.6 77.0667 17.32 77.2 17C77.3333 16.6533 77.4267 16.3067 77.48 15.96C77.56 15.5867 77.6 15.2667 77.6 15L77.64 15.92C77.64 16.48 77.48 16.96 77.16 17.36C76.84 17.76 76.48 18.1333 76.08 18.48C75.68 18.8267 75.32 19.1733 75 19.52C74.68 19.84 74.52 20.2 74.52 20.6V26.72C74.4933 26.6933 74.4267 26.6533 74.32 26.6C74.24 26.52 74.1733 26.48 74.12 26.48C74.12 26.4533 74.08 26.44 74 26.44C73.76 26.44 73.6267 26.5467 73.6 26.76C73.5733 26.9467 73.5467 27.16 73.52 27.4C73.52 27.64 73.4667 27.8667 73.36 28.08C73.28 28.2667 73.0533 28.36 72.68 28.36C72.52 28.36 72.3467 28.28 72.16 28.12C72 27.9333 71.84 27.7333 71.68 27.52C71.5467 27.28 71.4267 27.0533 71.32 26.84C71.24 26.6 71.2 26.44 71.2 26.36C71.2 26.1467 71.24 25.9733 71.32 25.84C71.4267 25.68 71.48 25.48 71.48 25.24C71.48 24.9733 71.3867 24.72 71.2 24.48C71.0133 24.2133 70.7733 23.9733 70.48 23.76C70.2133 23.5467 69.92 23.36 69.6 23.2C69.3067 23.0133 69.04 22.8533 68.8 22.72V18.48C68.8 18.32 68.8667 18.24 69 18.24C69.1333 18.2133 69.24 18.2 69.32 18.2C69.6933 18.2 70.0133 18.28 70.28 18.44C70.5733 18.6 70.84 18.7733 71.08 18.96C71.32 19.1467 71.56 19.32 71.8 19.48C72.0667 19.64 72.3733 19.72 72.72 19.72C72.72 19.5333 72.68 19.2 72.6 18.72C72.52 18.2133 72.4133 17.7067 72.28 17.2C72.1467 16.6933 71.9867 16.2533 71.8 15.88C71.6133 15.48 71.4133 15.28 71.2 15.28H69.6C69.3867 15.3333 69.0133 15.44 68.48 15.6C67.9467 15.7333 67.3733 15.88 66.76 16.04C66.1733 16.2 65.6133 16.36 65.08 16.52C64.5733 16.68 64.2133 16.8 64 16.88L60 17.92C59.8933 17.9467 59.7333 18 59.52 18.08C59.3333 18.1333 59.1333 18.1867 58.92 18.24C58.7067 18.2933 58.52 18.3467 58.36 18.4C58.2 18.4533 58.12 18.48 58.12 18.48C58.0667 18.48 57.9733 18.52 57.84 18.6C57.7067 18.68 57.6267 18.72 57.6 18.72C57.5733 18.7467 57.56 18.8 57.56 18.88C57.56 18.9333 57.5733 18.9733 57.6 19C57.6533 19.0533 57.7467 19.12 57.88 19.2C58.0133 19.2533 58.0933 19.28 58.12 19.28H61.08C61.24 19.0933 61.4267 19 61.64 19C61.88 19 62.1067 19 62.32 19C62.5067 19 62.9067 19 63.52 19C64.1333 19 64.7733 19.0267 65.44 19.08C66.1067 19.1067 66.6933 19.1867 67.2 19.32C67.7333 19.4533 68 19.6533 68 19.92V20.08C67.9467 20.16 67.8 20.3467 67.56 20.64C67.32 20.9067 67.16 21.0667 67.08 21.12V35.8C67.08 36.2 66.8133 36.5067 66.28 36.72C65.7733 36.96 65.2 37.1333 64.56 37.24C63.92 37.3467 63.3067 37.4133 62.72 37.44C62.1333 37.4667 61.76 37.48 61.6 37.48V26.16C61.9467 26.16 62.1867 26.24 62.32 26.4C62.48 26.5333 62.5733 26.7067 62.6 26.92C62.6267 27.1333 62.6267 27.3733 62.6 27.64C62.6 27.88 62.6267 28.1067 62.68 28.32C62.76 28.6667 62.8933 28.92 63.08 29.08C63.2933 29.24 63.5067 29.3867 63.72 29.52C63.96 29.6533 64.16 29.8267 64.32 30.04C64.48 30.2533 64.56 30.6 64.56 31.08C64.56 31.7733 64.3067 32.2667 63.8 32.56C63.2933 32.8533 62.7333 33.04 62.12 33.12V33.28C62.12 33.28 62.1733 33.3867 62.28 33.6C62.4133 33.8133 62.56 34.0533 62.72 34.32C62.88 34.56 63.04 34.7867 63.2 35C63.36 35.1867 63.4933 35.28 63.6 35.28C63.76 35.28 63.9733 35.2133 64.24 35.08C64.5333 34.9467 64.8133 34.7733 65.08 34.56C65.3733 34.3467 65.6267 34.12 65.84 33.88C66.0533 33.6133 66.16 33.36 66.16 33.12C66.16 32.72 66.0533 32.3733 65.84 32.08C65.6533 31.7867 65.56 31.4267 65.56 31C65.56 30.6 65.6533 30.2667 65.84 30C66.0533 29.7067 66.16 29.3733 66.16 29C66.16 28.68 66.0667 28.3733 65.88 28.08C65.6933 27.7867 65.6 27.48 65.6 27.16C65.6 26.8133 65.68 26.5067 65.84 26.24C66.0267 25.9467 66.2133 25.6667 66.4 25.4V22.72C66.1333 22.6133 65.9733 22.4933 65.92 22.36C65.8667 22.2267 65.84 22.0533 65.84 21.84C65.84 21.6 65.8933 21.4267 66 21.32C66.1067 21.1867 66.2267 21.08 66.36 21C66.4933 20.8933 66.64 20.8 66.8 20.72C66.96 20.6133 67.0933 20.48 67.2 20.32C67.1733 20.2133 67.1067 20.1467 67 20.12C66.92 20.0667 66.8133 20.04 66.68 20.04C66.5733 20.04 66.4667 20.0533 66.36 20.08C66.2533 20.08 66.1733 20.08 66.12 20.08C66.0933 20.0533 66.0133 20.0133 65.88 19.96C65.7467 19.9067 65.6 19.8533 65.44 19.8C65.3067 19.7467 65.1733 19.6933 65.04 19.64C64.9067 19.5867 64.8267 19.5467 64.8 19.52H64.68C64.6 19.52 64.4933 19.6533 64.36 19.92C64.2533 20.1867 64.1467 20.5067 64.04 20.88C63.96 21.2267 63.88 21.5733 63.8 21.92C63.7467 22.24 63.72 22.4667 63.72 22.6V23C64.2267 23 64.6667 23.0933 65.04 23.28C65.44 23.44 65.64 23.7867 65.64 24.32C65.64 24.8 65.48 25.1067 65.16 25.24C64.8667 25.3467 64.48 25.4 64 25.4C63.76 25.4 63.5333 25.32 63.32 25.16C63.1067 24.9733 62.8933 24.7867 62.68 24.6C62.4933 24.3867 62.3067 24.2267 62.12 24.12C61.9333 23.9867 61.76 23.9733 61.6 24.08C61.6 23.9733 61.5867 23.8133 61.56 23.6C61.56 23.36 61.5467 23.12 61.52 22.88C61.4933 22.6133 61.4533 22.3733 61.4 22.16C61.3733 21.92 61.3467 21.76 61.32 21.68C61.32 21.6267 61.28 21.5333 61.2 21.4C61.1467 21.2667 61.1067 21.1733 61.08 21.12H60.8L60.52 21.68C60.52 22.5867 60.44 23.6533 60.28 24.88C60.12 26.08 59.8667 27.32 59.52 28.6C59.1733 29.88 58.72 31.1467 58.16 32.4C57.6267 33.6267 56.9733 34.7333 56.2 35.72C55.4533 36.7067 54.5867 37.4933 53.6 38.08C52.6133 38.6933 51.4933 39 50.24 39C50.0533 39 49.88 38.9467 49.72 38.84C49.56 38.76 49.3867 38.72 49.2 38.72C48.7467 38.72 48.32 38.8133 47.92 39C47.5467 39.1867 47.12 39.28 46.64 39.28C45.84 39.28 45.1467 39.04 44.56 38.56C44 38.08 43.72 37.44 43.72 36.64C43.72 36.2667 43.72 35.9467 43.72 35.68C43.7467 35.4133 43.84 35.0933 44 34.72C44.0267 34.7733 44.1067 34.8667 44.24 35C44.4 35.1333 44.4933 35.2267 44.52 35.28H44.68C44.8667 35.28 45.0267 35.1333 45.16 34.84C45.2933 34.5467 45.3467 34.3333 45.32 34.2C45.2933 34.0133 45.16 33.8533 44.92 33.72C44.68 33.5867 44.4667 33.5733 44.28 33.68C44.2533 33.4667 44.24 33.1467 44.24 32.72C44.24 32.2667 44.2133 31.7867 44.16 31.28C44.1333 30.7733 44.0667 30.28 43.96 29.8C43.8533 29.2933 43.6933 28.8933 43.48 28.6C43.32 28.4133 43.12 28.28 42.88 28.2C42.64 28.0933 42.4 28 42.16 27.92C41.92 27.84 41.72 27.7333 41.56 27.6C41.4 27.4667 41.32 27.2667 41.32 27C41.32 26.92 41.3333 26.7867 41.36 26.6C41.3867 26.4133 41.4667 26.32 41.6 26.32H43.72C43.7467 26.32 43.8267 26.24 43.96 26.08C44.0933 25.8933 44.2 25.76 44.28 25.68L44.8 24.88C44.96 24.56 45.2133 24.0533 45.56 23.36C45.9333 22.64 46.32 21.88 46.72 21.08C47.12 20.28 47.48 19.5333 47.8 18.84C48.1467 18.1467 48.3867 17.6667 48.52 17.4C48.6 17.24 48.7867 16.8267 49.08 16.16C49.4 15.4667 49.7333 14.7333 50.08 13.96C50.4533 13.16 50.8 12.4267 51.12 11.76C51.44 11.0667 51.64 10.64 51.72 10.48C51.8 10.32 51.9333 10.1067 52.12 9.84C52.3067 9.54667 52.5333 9.4 52.8 9.4C53.0933 9.4 53.2533 9.46666 53.28 9.6C53.3333 9.70666 53.36 9.85333 53.36 10.04C53.36 10.84 53.2533 11.6267 53.04 12.4C52.8267 13.1733 52.72 13.9867 52.72 14.84C52.5067 14.84 52.2533 15.12 51.96 15.68C51.6933 16.24 51.4267 16.96 51.16 17.84C50.8933 18.6933 50.6267 19.64 50.36 20.68C50.12 21.72 49.8933 22.7333 49.68 23.72C49.4933 24.68 49.3333 25.5467 49.2 26.32C49.0933 27.0933 49.04 27.64 49.04 27.96C49.04 28.44 49.1067 28.9067 49.24 29.36C49.4 29.8133 49.5733 30.2667 49.76 30.72C49.9733 31.1467 50.16 31.5867 50.32 32.04C50.5067 32.4667 50.6267 32.92 50.68 33.4C50.68 33.5333 50.6667 33.7733 50.64 34.12C50.6133 34.44 50.5867 34.7867 50.56 35.16C50.56 35.56 50.5467 35.92 50.52 36.24C50.4933 36.5867 50.48 36.8267 50.48 36.96C50.5333 36.96 50.6533 36.9333 50.84 36.88C51.0267 36.8533 51.1467 36.8533 51.2 36.88C51.2267 36.88 51.2667 36.92 51.32 37C51.4 37.08 51.4533 37.12 51.48 37.12C51.48 37.1467 51.52 37.16 51.6 37.16C51.6533 37.16 51.6933 37.1467 51.72 37.12C51.7733 36.9867 51.9067 36.8 52.12 36.56C52.3333 36.32 52.5467 36.08 52.76 35.84C53 35.6 53.2 35.3733 53.36 35.16C53.5467 34.9733 53.64 34.84 53.64 34.76C53.64 34.68 53.6267 34.5733 53.6 34.44C53.5733 34.28 53.48 34.2 53.32 34.2C53.2667 34.2 53.1733 34.24 53.04 34.32C52.9067 34.3733 52.8267 34.4267 52.8 34.48V34.32C52.8 34.2933 52.8667 34.0667 53 33.64C53.1333 33.1867 53.28 32.7067 53.44 32.2C53.6 31.6667 53.7467 31.1733 53.88 30.72C54.04 30.2667 54.12 30 54.12 29.92C54.4667 28.7467 54.64 27.56 54.64 26.36C54.6667 25.16 54.68 23.9467 54.68 22.72V20.08C54.4667 19.7333 54.2667 19.3733 54.08 19C53.92 18.6 53.84 18.2 53.84 17.8C53.84 17.2133 53.9733 16.68 54.24 16.2C54.5333 15.6933 54.68 15.1467 54.68 14.56C54.68 14.1867 54.6 13.9067 54.44 13.72C54.28 13.5333 54 13.2933 53.6 13H57.88C57.9333 12.9467 57.9733 12.8933 58 12.84L58.12 12.6C58.1733 12.52 58.2667 12.3467 58.4 12.08C58.5333 11.7867 58.6267 11.6 58.68 11.52H58.8C59.0133 11.52 59.2133 11.5733 59.4 11.68C59.5867 11.76 59.8 11.8 60.04 11.8H60.28C60.3067 11.7733 60.3733 11.72 60.48 11.64C60.5867 11.5333 60.6933 11.4267 60.8 11.32C60.9333 11.1867 61.04 11.0667 61.12 10.96C61.2267 10.8533 61.2933 10.7733 61.32 10.72C60.68 10.32 59.9733 10.0533 59.2 9.92C59.2 9.86667 59.2 9.77333 59.2 9.64C59.2267 9.48 59.24 9.32 59.24 9.16C59.24 8.97333 59.2267 8.81333 59.2 8.68C59.2 8.52 59.2 8.4 59.2 8.32C59.2 8.29333 59.16 8.25333 59.08 8.2C59.0267 8.12 58.9733 8.08 58.92 8.08C58.68 8.05333 58.2267 8.02667 57.56 8C56.92 7.94667 56.2267 7.90667 55.48 7.88C54.7333 7.85333 54.0267 7.84 53.36 7.84C52.72 7.81333 52.2667 7.8 52 7.8H51.84C51.6 7.8 51.3733 7.85333 51.16 7.96C50.9467 8.06666 50.72 8.2 50.48 8.36C50.2667 8.49333 50.0267 8.61333 49.76 8.72C49.52 8.82667 49.24 8.88 48.92 8.88C48.1467 8.88 47.5067 8.68 47 8.28C46.52 7.88 46.0933 7.38667 45.72 6.8C45.3733 6.18666 45.0533 5.54667 44.76 4.88C44.4667 4.18667 44.12 3.56 43.72 3C43.6667 2.94667 43.6133 2.88 43.56 2.8C43.5067 2.69333 43.4533 2.6 43.4 2.52C43.32 2.41333 43.2533 2.30666 43.2 2.2L43.48 1.92C43.6133 2.18667 43.76 2.4 43.92 2.56C44.08 2.69333 44.28 2.76 44.52 2.76C44.6533 2.76 44.7467 2.74666 44.8 2.72L44.28 1.68C44.36 1.65333 44.4933 1.64 44.68 1.64C46.52 1.64 48.04 1.96 49.24 2.6C50.4667 3.21333 51.48 4.32 52.28 5.92C52.28 6.02666 52.32 6.09333 52.4 6.12C52.4267 6.14667 52.4667 6.17333 52.52 6.2H60.8V1.68L61.08 1.12H62.12C62.4667 1.12 62.9867 1.09333 63.68 1.04C64.3733 0.986666 65.0667 0.973333 65.76 0.999999C66.4533 1.02667 67.0533 1.10667 67.56 1.24C68.0667 1.37333 68.32 1.64 68.32 2.04C68.32 2.33333 68.2933 2.49333 68.24 2.52C68.2133 2.52 68.1467 2.52 68.04 2.52C67.96 2.52 67.84 2.57333 67.68 2.68C67.5467 2.78667 67.3867 3.06667 67.2 3.52C67.1733 3.62666 67.1333 3.8 67.08 4.04C67.0533 4.25333 67.0267 4.49333 67 4.76C66.9733 5 66.9467 5.24 66.92 5.48C66.92 5.69333 66.92 5.84 66.92 5.92C66.7067 6.32 66.48 6.57333 66.24 6.68C66 6.78667 65.7733 6.88 65.56 6.96C65.3733 7.04 65.2133 7.16 65.08 7.32C64.9467 7.48 64.88 7.8 64.88 8.28C65.12 8.28 65.44 8.24 65.84 8.16C66.24 8.08 66.64 7.96 67.04 7.8C67.44 7.64 67.7867 7.45333 68.08 7.24C68.3733 7.02667 68.52 6.77333 68.52 6.48C68.8667 6.45333 69.3067 6.4 69.84 6.32C70.3733 6.24 70.8267 6.10667 71.2 5.92L72.8 7.52H77.6ZM63.48 2.96C63.48 2.69333 63.4667 2.48 63.44 2.32C63.4133 2.13333 63.3333 1.92 63.2 1.68C62.7733 2 62.44 2.49333 62.2 3.16C61.96 3.8 61.84 4.37333 61.84 4.88C61.84 5.12 61.9067 5.36 62.04 5.6C62.2 5.84 62.4133 5.96 62.68 5.96C62.92 5.96 63.0933 5.84 63.2 5.6C63.3067 5.36 63.3733 5.08 63.4 4.76C63.4533 4.41333 63.48 4.08 63.48 3.76C63.48 3.41333 63.48 3.14667 63.48 2.96ZM76.28 5C76.28 5.08 76.2133 5.16 76.08 5.24C75.9733 5.32 75.84 5.38666 75.68 5.44C75.52 5.49333 75.36 5.54667 75.2 5.6C75.0667 5.62667 74.9733 5.65333 74.92 5.68H74.8C74.3733 5.68 73.9333 5.48 73.48 5.08C73.0533 4.68 72.7333 4.34667 72.52 4.08V3.8L73.6 2.72H73.88C74.3067 2.96 74.7333 3.30667 75.16 3.76C75.6133 4.18667 75.9867 4.56 76.28 4.88V5ZM48.52 6.48C48.5467 6.48 48.6267 6.52 48.76 6.6C48.8933 6.65333 49 6.69333 49.08 6.72C49.4533 6.90667 49.8267 7.10666 50.2 7.32C50.5733 7.50666 50.9733 7.6 51.4 7.6C51.4 7.04 51.24 6.61333 50.92 6.32C50.6 6.02667 50.1867 5.88 49.68 5.88C49.52 5.88 49.28 5.88 48.96 5.88C48.6667 5.88 48.52 6.04 48.52 6.36V6.48ZM62.76 10.16C62.4667 10.16 62.1733 10.2667 61.88 10.48C61.88 10.5067 61.9067 10.56 61.96 10.64C62.04 10.6933 62.0933 10.72 62.12 10.72C62.28 10.72 62.4267 10.6667 62.56 10.56C62.6933 10.4533 62.76 10.32 62.76 10.16ZM48.56 15C48.56 15.8267 48.2533 16.5333 47.64 17.12C47.0267 17.68 46.32 17.96 45.52 17.96C44.9067 17.96 44.28 17.68 43.64 17.12C43.0267 16.5333 42.4667 15.8533 41.96 15.08C41.48 14.3067 41.08 13.5333 40.76 12.76C40.44 11.9867 40.28 11.4 40.28 11C40.28 10.7067 40.4 10.5467 40.64 10.52C40.9067 10.4667 41.12 10.44 41.28 10.44C41.92 10.44 42.6533 10.52 43.48 10.68C44.3333 10.84 45.1333 11.1067 45.88 11.48C46.6267 11.8267 47.2533 12.2933 47.76 12.88C48.2933 13.4667 48.56 14.1733 48.56 15ZM77.08 13.92C76.9467 13.92 76.88 13.84 76.88 13.68C76.88 13.4933 76.9467 13.4 77.08 13.4C77.2133 13.4 77.28 13.4933 77.28 13.68C77.28 13.84 77.2133 13.92 77.08 13.92ZM51.8 15.08C51.8 14.6533 51.6 14.44 51.2 14.44C51.0933 14.44 51 14.4533 50.92 14.48C51.0267 14.6133 51.1467 14.7467 51.28 14.88C51.44 15.0133 51.6133 15.08 51.8 15.08ZM47.48 16.64C47.48 16.5067 47.4667 16.3867 47.44 16.28C47.4133 16.1733 47.3333 16.1067 47.2 16.08C47.12 16.1333 46.9467 16.28 46.68 16.52C46.44 16.7333 46.32 16.9467 46.32 17.16C46.5333 17.16 46.7733 17.1467 47.04 17.12C47.3333 17.0667 47.48 16.9067 47.48 16.64ZM53.6 17.4C53.4667 17.4 53.4 17.32 53.4 17.16C53.4 16.9733 53.4667 16.88 53.6 16.88C53.7333 16.88 53.8 16.9733 53.8 17.16C53.8 17.32 53.7333 17.4 53.6 17.4ZM73.08 17.4V17.68H73.32L73.08 17.4ZM56.8 21.12C56.96 21.0933 57.04 21 57.04 20.84C57.0667 20.68 57.08 20.5467 57.08 20.44C57.08 20.2267 57.0533 20.0533 57 19.92C56.9467 19.76 56.7867 19.6267 56.52 19.52V19.8L56.8 21.12ZM77.08 28.88C77.0533 29.4133 77.08 29.9333 77.16 30.44C77.24 30.9467 77.3333 31.4533 77.44 31.96C77.5467 32.44 77.64 32.9333 77.72 33.44C77.8267 33.92 77.88 34.4 77.88 34.88C77.88 35.12 77.8133 35.36 77.68 35.6C77.5733 35.84 77.44 36.0667 77.28 36.28C77.12 36.52 76.9467 36.7333 76.76 36.92C76.5733 37.1067 76.4133 37.2667 76.28 37.4C76.3333 37.4 76.44 37.4133 76.6 37.44C76.76 37.4667 76.8667 37.48 76.92 37.48C77.2667 37.48 77.5867 37.3733 77.88 37.16C78.2 36.9733 78.48 36.72 78.72 36.4C78.96 36.1067 79.16 35.7867 79.32 35.44C79.5067 35.0933 79.64 34.7733 79.72 34.48C79.7467 34.5333 79.76 34.64 79.76 34.8C79.76 34.96 79.76 35.0667 79.76 35.12C79.76 35.92 79.5333 36.5467 79.08 37C78.6267 37.4533 78.0667 37.7867 77.4 38C76.7333 38.24 76.0267 38.3733 75.28 38.4C74.5333 38.4533 73.88 38.48 73.32 38.48C72.8667 38.48 72.3733 38.4667 71.84 38.44C71.3067 38.4133 70.8133 38.32 70.36 38.16C69.9067 38 69.5333 37.7467 69.24 37.4C68.9467 37.0533 68.8 36.56 68.8 35.92V35.52C69.3867 35.68 69.8933 35.8933 70.32 36.16C70.7733 36.4533 71.24 36.7733 71.72 37.12C71.64 36.56 71.7067 36.0933 71.92 35.72C72.16 35.3733 72.4267 35.0933 72.72 34.88C73.0133 34.64 73.28 34.4533 73.52 34.32C73.7867 34.1867 73.9067 34.0533 73.88 33.92C73.8533 33.8667 73.7733 33.7733 73.64 33.64C73.5067 33.48 73.4 33.4 73.32 33.4C73.0267 33.3467 72.7467 33.4 72.48 33.56C72.2133 33.72 71.96 33.92 71.72 34.16C71.48 34.3733 71.24 34.5733 71 34.76C70.7867 34.9467 70.56 35.04 70.32 35.04C70.0267 35.04 69.7733 34.9867 69.56 34.88C69.3467 34.7467 69.0933 34.68 68.8 34.68V23.8L70.4 24.6C70.4267 24.6267 70.44 24.7067 70.44 24.84L70.4 25.12C70.3733 25.2 70.32 25.32 70.24 25.48C70.1867 25.6133 70.1067 25.7733 70 25.96C69.92 26.12 69.84 26.28 69.76 26.44C69.68 26.5733 69.6267 26.6667 69.6 26.72C69.8133 26.9067 70.0267 27.1733 70.24 27.52C70.4533 27.84 70.6667 28.16 70.88 28.48C71.12 28.8 71.3733 29.08 71.64 29.32C71.9067 29.56 72.2 29.68 72.52 29.68C72.68 29.68 72.8667 29.6 73.08 29.44C73.2933 29.28 73.4933 29.0933 73.68 28.88C73.8933 28.64 74.0667 28.4267 74.2 28.24C74.36 28.0267 74.4667 27.88 74.52 27.8V32.08C74.5733 32.1333 74.6267 32.1733 74.68 32.2C74.7333 32.2267 74.7733 32.2533 74.8 32.28C74.8267 32.3067 74.8667 32.32 74.92 32.32C74.9467 32.3467 75 32.36 75.08 32.36C75.3467 32.36 75.5733 32.1867 75.76 31.84C75.9733 31.4667 76.1467 31.0667 76.28 30.64C76.44 30.1867 76.56 29.76 76.64 29.36C76.72 28.9333 76.7733 28.68 76.8 28.6L77.08 28.88ZM45.6 29.44C46.1867 29.44 46.7333 29.24 47.24 28.84C47.7733 28.44 48.04 27.92 48.04 27.28C48.04 27.1733 47.92 27.0133 47.68 26.8C47.44 26.5867 47.1733 26.3733 46.88 26.16C46.5333 25.8933 46.1467 25.6267 45.72 25.36C45.6667 25.36 45.6267 25.3733 45.6 25.4V29.44ZM78.4 32.08C78.3733 32.2133 78.3467 32.16 78.32 31.92C78.32 31.6533 78.3067 31.3067 78.28 30.88C78.28 30.4267 78.28 29.9333 78.28 29.4C78.28 28.8667 78.28 28.3867 78.28 27.96C78.3067 27.5067 78.32 27.16 78.32 26.92C78.3467 26.6533 78.3733 26.5867 78.4 26.72C78.4533 26.9333 78.4933 27.2933 78.52 27.8C78.5467 28.3067 78.56 28.84 78.56 29.4C78.56 29.96 78.5467 30.5067 78.52 31.04C78.4933 31.5467 78.4533 31.8933 78.4 32.08ZM77.08 28.08C76.9467 28.08 76.88 27.9867 76.88 27.8C76.88 27.6133 76.9467 27.52 77.08 27.52C77.2133 27.52 77.28 27.6133 77.28 27.8C77.28 27.9867 77.2133 28.08 77.08 28.08ZM58.68 30.2C58.6 29.96 58.4533 29.72 58.24 29.48C58.0267 29.24 57.7733 29.12 57.48 29.12C57.32 29.12 57.0533 29.2533 56.68 29.52C56.3067 29.76 55.92 30.0533 55.52 30.4C55.12 30.72 54.7733 31.0533 54.48 31.4C54.1867 31.72 54.04 31.9467 54.04 32.08C54.2533 32.08 54.6133 32.0533 55.12 32C55.6267 31.9467 56.1467 31.8533 56.68 31.72C57.2133 31.5867 57.68 31.4133 58.08 31.2C58.48 30.96 58.68 30.6667 58.68 30.32V30.2ZM61.88 33.12C62.0133 33.12 62.08 33.04 62.08 32.88C62.08 32.6933 62.0133 32.6 61.88 32.6C61.7467 32.6 61.68 32.6933 61.68 32.88C61.68 33.04 61.7467 33.12 61.88 33.12ZM48 35C47.9733 34.92 47.88 34.8267 47.72 34.72C47.6933 34.72 47.64 34.76 47.56 34.84C47.5067 34.8933 47.48 34.9467 47.48 35C47.48 35.0533 47.5067 35.1467 47.56 35.28C47.64 35.4133 47.6933 35.4933 47.72 35.52C47.88 35.4667 47.9733 35.3867 48 35.28V35ZM74.68 36.8C74.44 36.8 74.2533 36.9067 74.12 37.12H74.68V36.8ZM119.48 28.08C119.453 28.08 119.4 28.12 119.32 28.2C119.267 28.2533 119.227 28.2933 119.2 28.32C119.147 28.3733 119.093 28.4267 119.04 28.48C118.987 28.5067 118.933 28.5467 118.88 28.6C118.8 28.6533 118.733 28.6933 118.68 28.72H110.4L110.12 29.12C110.067 30.4533 109.973 31.7333 109.84 32.96C109.733 34.16 109.453 35.2267 109 36.16C108.573 37.12 107.92 37.88 107.04 38.44C106.16 39 104.92 39.28 103.32 39.28C103.133 39.28 102.96 39.0667 102.8 38.64C102.64 38.2133 102.453 37.72 102.24 37.16C102.027 36.6 101.76 36.0533 101.44 35.52C101.147 35.0133 100.76 34.6667 100.28 34.48C100.227 34.4533 100.08 34.4133 99.84 34.36C99.6267 34.28 99.3867 34.1867 99.12 34.08C98.88 33.9733 98.6533 33.8533 98.44 33.72C98.2267 33.5867 98.12 33.44 98.12 33.28V33.12C98.1467 33.0933 98.1867 33.0533 98.24 33C98.32 32.92 98.3733 32.88 98.4 32.88H103.72V28.88H94.4L94.12 29.12L95.2 30.48C94.88 30.4 94.6267 30.3867 94.44 30.44C94.2533 30.4667 94.08 30.5333 93.92 30.64C93.76 30.72 93.5867 30.8 93.4 30.88C93.2133 30.96 92.9733 31 92.68 31H92.52C92.4667 31 92.2933 30.96 92 30.88C91.7067 30.8 91.5333 30.7467 91.48 30.72H91.2C90.9067 30.72 90.64 30.7733 90.4 30.88C90.1867 30.9867 89.92 31.04 89.6 31.04C89.1467 31.04 88.8667 30.96 88.76 30.8C88.6533 30.6133 88.5867 30.4267 88.56 30.24C88.56 30.0267 88.5467 29.84 88.52 29.68C88.4933 29.4933 88.32 29.4 88 29.4C87.84 29.4 87.7067 29.4133 87.6 29.44C87.4933 29.4667 87.36 29.5467 87.2 29.68L86.92 29.12C86.8933 29.0933 86.8667 29.0667 86.84 29.04C86.84 28.9867 86.8267 28.9333 86.8 28.88C86.7733 28.8267 86.7333 28.7733 86.68 28.72H81.32C81.2667 28.6933 81.2267 28.6533 81.2 28.6C81.1733 28.5467 81.1467 28.5067 81.12 28.48C81.0933 28.4267 81.08 28.3733 81.08 28.32C80.9467 28.1067 80.8667 27.9733 80.84 27.92C80.8133 27.8667 80.8 27.7333 80.8 27.52C80.8 27.44 80.8133 27.32 80.84 27.16C80.8667 26.9733 80.9467 26.88 81.08 26.88H85.08V25.92L83.2 21.92C83.1733 21.8933 83.16 21.8 83.16 21.64C83.16 21.48 83.1867 21.36 83.24 21.28C83.32 21.1733 83.48 21.12 83.72 21.12H96.52L97.08 20.6L97.6 21.68H97.88C97.88 21.2 97.9333 20.6933 98.04 20.16C98.1467 19.6 98.36 19.12 98.68 18.72C98.6 18.6933 98.4667 18.68 98.28 18.68C98.12 18.68 97.9867 18.7333 97.88 18.84C97.7733 18.92 97.6667 19.0133 97.56 19.12C97.48 19.2267 97.3867 19.3333 97.28 19.44C97.2 19.52 97.0933 19.56 96.96 19.56C96.88 19.56 96.8267 19.5467 96.8 19.52C96.7467 19.52 96.6533 19.4933 96.52 19.44C96.3867 19.36 96.3067 19.3067 96.28 19.28H92.28C91.56 19.6 90.76 19.9467 89.88 20.32C89 20.6933 88.1467 20.88 87.32 20.88H87.2C87.12 20.8533 87.0133 20.8133 86.88 20.76C86.7467 20.68 86.68 20.6267 86.68 20.6V15.08C86.92 15.08 87.16 14.9467 87.4 14.68C87.6667 14.3867 87.9067 14.0533 88.12 13.68C88.36 13.3067 88.5733 12.9467 88.76 12.6C88.9733 12.2267 89.16 11.96 89.32 11.8H88.28L86.52 13.4V6.72L86.12 6.32H81.88C81.8533 6.32 81.8 6.28 81.72 6.2C81.6667 6.09333 81.6267 6 81.6 5.92C81.5467 5.84 81.48 5.69333 81.4 5.48C81.3467 5.26666 81.32 5.14666 81.32 5.12C81.32 5.09333 81.3467 5.05333 81.4 5C81.48 4.92 81.5467 4.88 81.6 4.88H84.8C84.9867 5.12 85.2133 5.36 85.48 5.6C85.7733 5.84 86.08 5.96 86.4 5.96C86.5333 5.96 86.6533 5.93333 86.76 5.88C86.8933 5.8 86.96 5.68 86.96 5.52C86.96 5.46667 86.9467 5.42667 86.92 5.4C86.8933 5.50666 86.8133 5.6 86.68 5.68H86.4C86.32 5.6 86.1733 5.44 85.96 5.2C85.7733 4.96 85.6533 4.8 85.6 4.72H96.28L96.8 4.08V1.12C96.8 0.826665 96.8533 0.666665 96.96 0.639999C97.0667 0.613333 97.2133 0.599999 97.4 0.599999H97.88C98.0933 0.626666 98.48 0.666665 99.04 0.719998C99.6 0.773332 100.187 0.826666 100.8 0.879998C101.413 0.906665 102 0.946665 102.56 0.999999C103.12 1.05333 103.507 1.09333 103.72 1.12L104.28 1.4V1.52C104.28 1.78667 104.2 2 104.04 2.16C103.907 2.32 103.747 2.48 103.56 2.64C103.4 2.77333 103.24 2.93333 103.08 3.12C102.947 3.28 102.88 3.49333 102.88 3.76C102.88 4.08 102.933 4.32 103.04 4.48C103.147 4.61333 103.293 4.72 103.48 4.8C103.667 4.85333 103.893 4.88 104.16 4.88C104.453 4.88 104.76 4.88 105.08 4.88V4.96C105.16 4.96 105.24 4.98667 105.32 5.04C105.427 5.09333 105.52 5.13333 105.6 5.16C105.68 5.16 105.747 5.13333 105.8 5.08C105.853 5 105.88 4.84 105.88 4.6H110.4C110.773 4.6 111.08 4.44 111.32 4.12C111.56 3.77333 111.773 3.4 111.96 3C112.173 2.6 112.387 2.24 112.6 1.92C112.813 1.57333 113.093 1.4 113.44 1.4C113.68 1.4 113.92 1.46667 114.16 1.6C114.4 1.73333 114.627 1.90667 114.84 2.12C115.08 2.30666 115.293 2.50666 115.48 2.72C115.693 2.93333 115.867 3.12 116 3.28H114.68V5.4C114.68 5.42667 114.707 5.48 114.76 5.56C114.84 5.61333 114.893 5.65333 114.92 5.68C114.973 5.68 115.107 5.68 115.32 5.68C115.56 5.65333 115.693 5.65333 115.72 5.68C115.747 5.68 115.813 5.70667 115.92 5.76C116.027 5.81333 116.133 5.88 116.24 5.96C116.373 6.01333 116.493 6.06666 116.6 6.12C116.707 6.17333 116.773 6.2 116.8 6.2C117.093 6.22667 117.413 6.16 117.76 6C118.107 5.84 118.227 5.54667 118.12 5.12C118.28 5.17333 118.373 5.25333 118.4 5.36C118.427 5.46666 118.44 5.57333 118.44 5.68C118.44 5.94666 118.347 6.17333 118.16 6.36C117.973 6.52 117.693 6.6 117.32 6.6H111.56C111.56 7.02667 111.733 7.37333 112.08 7.64C112.453 7.90667 112.84 8.16 113.24 8.4C113.667 8.64 114.053 8.89333 114.4 9.16C114.773 9.42667 114.96 9.77333 114.96 10.2C114.96 10.4133 114.88 10.5733 114.72 10.68C114.56 10.7867 114.387 10.8933 114.2 11C114.04 11.1067 113.88 11.2267 113.72 11.36C113.56 11.4667 113.48 11.6133 113.48 11.8V19C113.4 19.0533 113.24 19.1867 113 19.4C112.76 19.5867 112.6 19.72 112.52 19.8V19.92C112.52 20.16 112.64 20.3467 112.88 20.48C113.147 20.6133 113.453 20.7333 113.8 20.84C114.147 20.9467 114.48 21.0667 114.8 21.2C115.12 21.3067 115.347 21.4667 115.48 21.68C115.053 21.7067 114.733 21.76 114.52 21.84C114.307 21.92 114.2 22.1333 114.2 22.48H116L115.72 21.92H115.88C116.173 21.92 116.4 22.0267 116.56 22.24C116.72 22.4267 116.84 22.6667 116.92 22.96C117 23.2267 117.04 23.5067 117.04 23.8C117.067 24.0933 117.08 24.32 117.08 24.48V25.68C117.027 25.68 116.933 25.72 116.8 25.8C116.667 25.8533 116.573 25.8933 116.52 25.92V26.04C116.52 26.28 116.533 26.5333 116.56 26.8C116.613 27.0667 116.693 27.32 116.8 27.56C116.907 27.7733 117.04 27.96 117.2 28.12C117.387 28.28 117.6 28.36 117.84 28.36C118.133 28.36 118.413 28.32 118.68 28.24C118.973 28.1333 119.147 27.8933 119.2 27.52C119.307 27.6 119.4 27.6933 119.48 27.8V28.08ZM116.52 3.52C116.653 3.52 116.72 3.61333 116.72 3.8H116.8C116.933 3.8 117 3.89333 117 4.08C117 4.24 116.933 4.32 116.8 4.32C116.667 4.32 116.6 4.24 116.6 4.08H116.52C116.387 4.08 116.32 3.98666 116.32 3.8H116.28C116.147 3.8 116.08 3.72 116.08 3.56C116.08 3.37333 116.147 3.28 116.28 3.28C116.413 3.28 116.48 3.36 116.48 3.52H116.52ZM117.32 4.6C117.213 4.57333 117.133 4.48 117.08 4.32H117.32C117.48 4.42667 117.573 4.52 117.6 4.6H117.32ZM117.88 5.12C117.747 5.12 117.68 5.04 117.68 4.88C117.68 4.69333 117.747 4.6 117.88 4.6C118.013 4.6 118.08 4.69333 118.08 4.88C118.08 5.04 118.013 5.12 117.88 5.12ZM100.8 5.4C100.933 5.4 101 5.32 101 5.16C101 4.97333 100.933 4.88 100.8 4.88C100.667 4.88 100.6 4.97333 100.6 5.16C100.6 5.32 100.667 5.4 100.8 5.4ZM109.88 5.92C109.827 5.78666 109.747 5.65333 109.64 5.52C109.56 5.36 109.453 5.22667 109.32 5.12C109.293 5.12 109.24 5.16 109.16 5.24C109.107 5.29333 109.08 5.34667 109.08 5.4C109.08 5.64 109.12 5.8 109.2 5.88C109.307 5.93333 109.44 5.96 109.6 5.96C109.707 5.96 109.8 5.94667 109.88 5.92ZM99.76 8.92C99.76 8.76 99.76 8.52 99.76 8.2C99.76 7.85333 99.7333 7.52 99.68 7.2C99.6267 6.85333 99.5333 6.56 99.4 6.32C99.2933 6.05333 99.1333 5.92 98.92 5.92C98.52 5.92 98.28 6.08 98.2 6.4C98.12 6.69333 98.08 6.98666 98.08 7.28C98.08 7.78667 98.2267 8.18667 98.52 8.48C98.8133 8.77333 99.2267 8.92 99.76 8.92ZM112.28 9.68C111.88 9.49333 111.587 9.22666 111.4 8.88C111.24 8.50666 111.107 8.14667 111 7.8C110.893 7.42667 110.773 7.10667 110.64 6.84C110.533 6.57333 110.32 6.44 110 6.44C109.627 6.44 109.347 6.6 109.16 6.92C109 7.24 108.88 7.61333 108.8 8.04C108.747 8.44 108.72 8.84 108.72 9.24C108.72 9.61333 108.72 9.86667 108.72 10C108.853 10 108.96 9.97333 109.04 9.92C109.12 9.84 109.2 9.76 109.28 9.68C109.36 9.6 109.44 9.53333 109.52 9.48C109.6 9.4 109.72 9.36 109.88 9.36C110.12 9.36 110.307 9.4 110.44 9.48C110.573 9.56 110.707 9.65333 110.84 9.76C111 9.84 111.173 9.92 111.36 10C111.573 10.08 111.88 10.12 112.28 10.12V9.68ZM106.92 8.6C107.08 8.6 107.253 8.54667 107.44 8.44C107.653 8.33333 107.84 8.2 108 8.04C108.16 7.88 108.293 7.70667 108.4 7.52C108.507 7.33333 108.56 7.16 108.56 7C108.56 6.84 108.52 6.72 108.44 6.64C108.387 6.53333 108.24 6.48 108 6.48H102.92V8.6H106.92ZM88.48 6.72C88.48 7.14667 88.7333 7.49333 89.24 7.76C89.7467 8 90.32 8.18666 90.96 8.32C91.6267 8.45333 92.28 8.54666 92.92 8.6C93.56 8.62667 94.0133 8.64 94.28 8.64L96.28 8.6C96.3067 8.6 96.3467 8.57333 96.4 8.52C96.48 8.44 96.52 8.37333 96.52 8.32C96.52 8.26667 96.52 8.17333 96.52 8.04C96.5467 7.88 96.56 7.72 96.56 7.56C96.5867 7.37333 96.6 7.21333 96.6 7.08C96.6267 6.92 96.64 6.8 96.64 6.72H88.48ZM96.64 12.88C96.64 13.0667 96.5867 13.1867 96.48 13.24C96.4 13.2667 96.3067 13.3067 96.2 13.36C96.0933 13.3867 95.9867 13.4533 95.88 13.56C95.8 13.6667 95.76 13.88 95.76 14.2C96.0267 14.2 96.3733 14.16 96.8 14.08C97.2267 14 97.64 13.88 98.04 13.72C98.44 13.5333 98.7733 13.2933 99.04 13C99.3333 12.7067 99.48 12.3467 99.48 11.92C99.48 11.8133 99.4267 11.7333 99.32 11.68C99.2133 11.6 99.08 11.56 98.92 11.56C98.76 11.5333 98.6 11.52 98.44 11.52C98.3067 11.52 98.2 11.52 98.12 11.52H97.6C97.5733 11.5467 97.48 11.6 97.32 11.68C97.1867 11.76 97.1067 11.8 97.08 11.8C96.9467 11.8 96.8533 11.7333 96.8 11.6C96.7467 11.4667 96.6933 11.32 96.64 11.16C96.6133 10.9733 96.5733 10.8133 96.52 10.68C96.4667 10.5467 96.3867 10.48 96.28 10.48H92.52V12.88H96.64ZM107.48 10.48H102.92V12.88H107.48V10.48ZM107.48 13.88C107.24 13.88 107.053 13.9867 106.92 14.2H107.48V13.88ZM96.52 15H92.52V17.4H96.52V15ZM107.48 15H102.92V17.12C102.92 17.1467 102.947 17.2 103 17.28C103.08 17.3333 103.147 17.3733 103.2 17.4L104.28 17.68L104 17.92C104.08 18.1867 104.24 18.4 104.48 18.56C104.72 18.6933 104.973 18.8 105.24 18.88C105.533 18.9333 105.813 18.9733 106.08 19C106.373 19 106.6 19 106.76 19C106.787 18.76 106.787 18.5467 106.76 18.36C106.733 18.2 106.693 18.0533 106.64 17.92C106.613 17.7867 106.533 17.7067 106.4 17.68L107.2 17.4C107.253 17.3733 107.307 17.3333 107.36 17.28C107.44 17.2 107.48 17.1467 107.48 17.12V15ZM89.88 16.88C89.72 16.64 89.5067 16.48 89.24 16.4C88.9733 16.32 88.72 16.28 88.48 16.28C88.48 16.5467 88.6 16.76 88.84 16.92C89.1067 17.0533 89.36 17.12 89.6 17.12C89.6533 17.12 89.7067 17.0933 89.76 17.04C89.84 16.96 89.88 16.9067 89.88 16.88ZM109.6 17.68H109C109 18.08 109.2 18.28 109.6 18.28V17.68ZM108 19.52C107.92 19.5467 107.773 19.5733 107.56 19.6C107.373 19.6267 107.16 19.6533 106.92 19.68C106.707 19.7067 106.493 19.7333 106.28 19.76C106.093 19.7867 105.96 19.8 105.88 19.8C105.693 19.8 105.6 19.8933 105.6 20.08C105.6 20.1333 105.627 20.2267 105.68 20.36C105.76 20.4933 105.827 20.5733 105.88 20.6H105.72C105.453 20.6 105.307 20.4667 105.28 20.2C105.28 19.9067 105.293 19.68 105.32 19.52C105.267 19.52 105.16 19.5067 105 19.48C104.867 19.4533 104.707 19.4267 104.52 19.4C104.36 19.3733 104.2 19.3467 104.04 19.32C103.907 19.2933 103.8 19.28 103.72 19.28H103.48C103.427 19.28 103.333 19.32 103.2 19.4C103.067 19.4533 102.973 19.4933 102.92 19.52V20.88C102.92 20.9067 102.96 21 103.04 21.16C103.147 21.2933 103.2 21.3733 103.2 21.4C103.2 21.4267 103.12 21.52 102.96 21.68C102.827 21.8133 102.733 21.8933 102.68 21.92C102.6 21.9733 102.453 22.0533 102.24 22.16C102.053 22.2667 101.84 22.3867 101.6 22.52C101.387 22.6267 101.173 22.7333 100.96 22.84C100.747 22.92 100.6 22.9733 100.52 23C100.493 23.0533 100.48 23.1467 100.48 23.28C100.48 23.6533 100.76 23.92 101.32 24.08C101.213 24.3733 100.787 24.6133 100.04 24.8C99.32 24.9867 98.44 25.1467 97.4 25.28C96.3867 25.3867 95.28 25.4933 94.08 25.6C92.9067 25.68 91.8267 25.7733 90.84 25.88C89.8533 25.9867 89.04 26.12 88.4 26.28C87.76 26.44 87.4533 26.64 87.48 26.88H94.4C94.1867 27.36 94.1867 27.6933 94.4 27.88C94.6133 28.0667 94.88 28.16 95.2 28.16C95.52 28.16 95.7867 28.0667 96 27.88C96.2133 27.6933 96.2133 27.36 96 26.88H103.72V24.6C103.72 24.5733 103.68 24.5333 103.6 24.48C103.547 24.4 103.507 24.3467 103.48 24.32C103.4 24.32 103.28 24.3067 103.12 24.28C102.987 24.2533 102.827 24.2267 102.64 24.2C102.48 24.1733 102.32 24.1467 102.16 24.12C102.027 24.0933 101.933 24.08 101.88 24.08C101.88 24.08 101.973 24.0667 102.16 24.04C102.373 24.0133 102.587 23.9733 102.8 23.92C103.04 23.8667 103.253 23.7867 103.44 23.68C103.627 23.5733 103.72 23.44 103.72 23.28V21.28H105.88C105.88 21.2267 105.907 21.16 105.96 21.08C106.04 20.9733 106.093 20.9067 106.12 20.88C106.147 20.8533 106.187 20.84 106.24 20.84C106.32 20.84 106.373 20.8533 106.4 20.88C106.453 20.88 106.627 20.9333 106.92 21.04C107.24 21.12 107.427 21.1467 107.48 21.12C107.613 21.12 107.733 21.0533 107.84 20.92C107.947 20.7867 108.027 20.64 108.08 20.48C108.16 20.2933 108.213 20.12 108.24 19.96C108.293 19.7733 108.32 19.6267 108.32 19.52H108ZM87.2 20.32C87.2267 20.24 87.1867 20.2 87.08 20.2C86.9733 20.2 86.92 20.24 86.92 20.32C86.9467 20.4 86.9867 20.44 87.04 20.44C87.12 20.44 87.1733 20.4 87.2 20.32ZM107.32 22.8C107.32 22.32 107.28 21.96 107.2 21.72C107.12 21.4533 106.827 21.32 106.32 21.32C106.32 21.6133 106.387 21.9333 106.52 22.28C106.68 22.6267 106.947 22.8 107.32 22.8ZM86.32 21.68C86.32 22.1067 86.4133 22.3467 86.6 22.4C86.8133 22.4533 87.12 22.48 87.52 22.48C87.7867 22.48 88.08 22.44 88.4 22.36C88.72 22.28 88.88 22.0533 88.88 21.68H86.32ZM109.96 24.16C109.96 23.7333 109.88 23.48 109.72 23.4C109.587 23.2933 109.333 23.24 108.96 23.24C108.56 23.24 108.16 23.28 107.76 23.36C107.36 23.4133 107 23.56 106.68 23.8C106.867 23.9333 107.12 24.0267 107.44 24.08C107.787 24.1333 108.12 24.1733 108.44 24.2C108.787 24.2 109.093 24.2 109.36 24.2C109.653 24.1733 109.853 24.16 109.96 24.16ZM112 26.32C112 26.08 111.893 25.9067 111.68 25.8C111.493 25.6933 111.293 25.64 111.08 25.64C110.893 25.64 110.64 25.6933 110.32 25.8C110 25.88 109.84 26.0533 109.84 26.32C109.84 26.48 109.88 26.5867 109.96 26.64C110.04 26.6933 110.133 26.7333 110.24 26.76C110.373 26.7867 110.493 26.8 110.6 26.8C110.733 26.7733 110.84 26.76 110.92 26.76C111.08 26.76 111.293 26.76 111.56 26.76C111.853 26.76 112 26.6133 112 26.32ZM117.32 26.2C117.187 26.2 117.12 26.12 117.12 25.96C117.12 25.7733 117.187 25.68 117.32 25.68C117.453 25.68 117.52 25.7733 117.52 25.96C117.52 26.12 117.453 26.2 117.32 26.2ZM118.92 27C119.053 27 119.12 27.0933 119.12 27.28C119.12 27.44 119.053 27.52 118.92 27.52C118.787 27.52 118.72 27.44 118.72 27.28H118.68C118.547 27.28 118.48 27.1867 118.48 27H118.4C118.213 27 118.147 26.9067 118.2 26.72H118.12C117.987 26.72 117.92 26.64 117.92 26.48C117.92 26.2933 117.987 26.2 118.12 26.2C118.307 26.2 118.373 26.2933 118.32 26.48H118.4C118.533 26.48 118.6 26.56 118.6 26.72H118.68C118.813 26.72 118.88 26.8133 118.88 27H118.92ZM100.6 28.08C100.6 27.76 100.48 27.5867 100.24 27.56C100.027 27.5333 99.8133 27.52 99.6 27.52H98.92V28.08H100.6ZM87.72 30.2C87.5867 30.2 87.52 30.12 87.52 29.96C87.52 29.7733 87.5867 29.68 87.72 29.68C87.8533 29.68 87.92 29.7733 87.92 29.96C87.92 30.12 87.8533 30.2 87.72 30.2ZM88.28 30.72C88.1467 30.72 88.08 30.64 88.08 30.48C88.08 30.2933 88.1467 30.2 88.28 30.2C88.4133 30.2 88.48 30.2933 88.48 30.48C88.48 30.64 88.4133 30.72 88.28 30.72ZM95.48 31C95.3467 31 95.28 30.92 95.28 30.76C95.28 30.5733 95.3467 30.48 95.48 30.48C95.6133 30.48 95.68 30.5733 95.68 30.76C95.68 30.92 95.6133 31 95.48 31ZM96.56 33.2C96.56 34.16 96.3067 34.92 95.8 35.48C95.32 36.0667 94.56 36.36 93.52 36.36C92.8533 36.36 92.3333 36.24 91.96 36C91.6133 35.7867 91.32 35.4933 91.08 35.12C90.8667 34.7467 90.68 34.32 90.52 33.84C90.36 33.36 90.1467 32.8533 89.88 32.32C89.96 32.2933 90.1733 32.2533 90.52 32.2C90.8667 32.12 91.0933 32.08 91.2 32.08C91.2267 32.0533 91.28 32.04 91.36 32.04C91.6533 32.04 91.92 32.2 92.16 32.52C92.4267 32.8133 92.6933 33.16 92.96 33.56C93.2267 33.9333 93.5067 34.28 93.8 34.6C94.0933 34.8933 94.4267 35.04 94.8 35.04C95.2 35.04 95.5467 34.8933 95.84 34.6C96.16 34.28 96.32 33.92 96.32 33.52C96.32 33.3333 96.3067 33.2 96.28 33.12C95.9867 33.3333 95.7333 33.48 95.52 33.56C95.3333 33.64 95.0933 33.68 94.8 33.68C94.4 33.68 94.1333 33.56 94 33.32C93.8933 33.08 93.84 32.8 93.84 32.48C93.84 32.4267 93.84 32.32 93.84 32.16C93.84 31.9733 93.8533 31.8533 93.88 31.8C94.2 31.56 94.5467 31.4267 94.92 31.4C95.32 31.3733 95.68 31.24 96 31C96.32 31.3467 96.4933 31.6933 96.52 32.04C96.5467 32.3867 96.56 32.7733 96.56 33.2ZM89.6 32.32C89.4667 32.32 89.4 32.24 89.4 32.08C89.4 31.8933 89.4667 31.8 89.6 31.8C89.7333 31.8 89.8 31.8933 89.8 32.08C89.8 32.24 89.7333 32.32 89.6 32.32ZM154.92 31.04C154.92 31.4933 155.16 31.8933 155.64 32.24C156.12 32.56 156.64 32.88 157.2 33.2C157.76 33.4933 158.28 33.8 158.76 34.12C159.24 34.44 159.48 34.8267 159.48 35.28V35.52H159.2C158.987 35.3333 158.747 35.1067 158.48 34.84C158.213 34.5733 157.933 34.32 157.64 34.08C157.347 33.84 157.04 33.64 156.72 33.48C156.427 33.32 156.12 33.24 155.8 33.24C155.8 33.7467 155.893 34.2 156.08 34.6C156.293 35 156.4 35.4933 156.4 36.08H142.92C142.92 36.0267 142.88 35.9333 142.8 35.8C142.747 35.6667 142.707 35.5733 142.68 35.52H142.4L142.12 36.08H136.52C136.6 36.0533 136.733 35.96 136.92 35.8C137.133 35.6667 137.267 35.5733 137.32 35.52V35.48C137.32 35.48 137.307 35.4533 137.28 35.4C137.253 35.3733 137.24 35.3333 137.24 35.28H134.92L134.8 35.4C134.747 35.4533 134.72 35.48 134.72 35.48L134.68 35.52C134.653 35.5467 134.64 35.6 134.64 35.68C134.64 35.76 134.653 35.8 134.68 35.8C134.707 35.8267 134.787 35.8667 134.92 35.92C135.053 36 135.147 36.0533 135.2 36.08H131.72C131.693 35.6533 131.587 35.4 131.4 35.32C131.213 35.2667 130.987 35.24 130.72 35.24C130.32 35.24 129.987 35.4667 129.72 35.92C129.48 36.3733 129.16 36.8667 128.76 37.4C128.36 37.9333 127.813 38.4267 127.12 38.88C126.453 39.3333 125.493 39.56 124.24 39.56C123.893 39.56 123.627 39.5333 123.44 39.48C123.253 39.4533 123.16 39.2533 123.16 38.88C123.16 38.5333 123.253 38.2667 123.44 38.08C123.627 37.8933 123.84 37.7333 124.08 37.6C124.32 37.4933 124.533 37.3733 124.72 37.24C124.907 37.1067 125 36.92 125 36.68C124.76 36.68 124.573 36.6667 124.44 36.64C124.307 36.6133 124.173 36.5867 124.04 36.56C123.933 36.56 123.813 36.5733 123.68 36.6C123.547 36.6533 123.387 36.7467 123.2 36.88V20.68C123.387 20.68 123.6 20.64 123.84 20.56C124.107 20.48 124.347 20.3733 124.56 20.24C124.8 20.1067 124.987 19.9467 125.12 19.76C125.28 19.5733 125.36 19.36 125.36 19.12C125.36 18.6933 125.173 18.44 124.8 18.36C124.453 18.2533 124.08 18.2 123.68 18.2C123.547 18.2 123.44 18.2133 123.36 18.24C123.307 18.24 123.253 18.3067 123.2 18.44V11.84C123.6 11.84 123.933 11.8933 124.2 12C124.467 12.1067 124.72 12.24 124.96 12.4C125.2 12.5333 125.44 12.6533 125.68 12.76C125.92 12.8667 126.2 12.92 126.52 12.92L127.2 12.88C126.747 12.1867 126.147 11.72 125.4 11.48C124.653 11.2133 123.92 10.96 123.2 10.72V1.32C123.76 1.32 124.307 1.45333 124.84 1.72C125.373 1.96 125.893 2.24 126.4 2.56C126.907 2.88 127.427 3.17333 127.96 3.44C128.493 3.68 129.04 3.8 129.6 3.8H148.8C148.88 3.8 149.04 3.68 149.28 3.44C149.547 3.17333 149.8 2.88 150.04 2.56C150.307 2.24 150.547 1.94667 150.76 1.68C151 1.38666 151.147 1.2 151.2 1.12C151.307 1.01333 151.453 0.853333 151.64 0.639999C151.853 0.426665 151.973 0.319998 152 0.319998C152.24 0.293332 152.667 0.466665 153.28 0.839999C153.893 1.18667 154.52 1.61333 155.16 2.12C155.8 2.6 156.36 3.10667 156.84 3.64C157.347 4.14666 157.6 4.56 157.6 4.88C157.6 5.01333 157.533 5.09333 157.4 5.12C157.267 5.14666 157.16 5.16 157.08 5.16C156.947 5.16 156.827 5.14666 156.72 5.12C156.64 5.09333 156.573 5.01333 156.52 4.88H154.4L154.12 5.52H148.28C148.227 5.52 148.16 5.57333 148.08 5.68C148.027 5.78667 148 5.86667 148 5.92C148 6.32 148.213 6.66667 148.64 6.96C149.067 7.22667 149.52 7.49333 150 7.76C150.507 8 150.973 8.25333 151.4 8.52C151.827 8.78667 152.04 9.12 152.04 9.52C152.04 9.6 152.027 9.65333 152 9.68L150.52 11V17.4C150.52 17.5067 150.36 17.6267 150.04 17.76C149.72 17.8667 149.36 17.9733 148.96 18.08C148.587 18.1867 148.213 18.28 147.84 18.36C147.493 18.44 147.28 18.48 147.2 18.48H146.92C146.893 18.4533 146.8 18.4 146.64 18.32C146.507 18.24 146.427 18.2 146.4 18.2C146.373 18.2 146.28 18.2933 146.12 18.48C145.987 18.64 145.907 18.72 145.88 18.72C145.853 18.7467 145.773 18.76 145.64 18.76C145.533 18.76 145.44 18.76 145.36 18.76C145.013 18.76 144.787 18.6667 144.68 18.48C144.573 18.2667 144.493 18.0533 144.44 17.84C144.413 17.6 144.373 17.3867 144.32 17.2C144.293 16.9867 144.187 16.88 144 16.88H140.52C140.52 16.88 140.467 16.9467 140.36 17.08C140.28 17.1867 140.187 17.3333 140.08 17.52C139.973 17.68 139.853 17.8533 139.72 18.04C139.613 18.2267 139.533 18.3733 139.48 18.48C139.453 18.48 139.44 18.52 139.44 18.6C139.44 18.7333 139.547 18.9333 139.76 19.2C140 19.44 140.267 19.6933 140.56 19.96C140.853 20.2 141.147 20.4133 141.44 20.6C141.76 20.7867 141.987 20.88 142.12 20.88C142.307 20.88 142.427 20.7867 142.48 20.6C142.533 20.3867 142.56 20.16 142.56 19.92C142.587 19.6533 142.64 19.4 142.72 19.16C142.8 18.92 142.96 18.7733 143.2 18.72C143.547 18.6667 143.933 18.72 144.36 18.88C144.787 19.04 145.227 19.24 145.68 19.48C146.16 19.6933 146.627 19.8933 147.08 20.08C147.56 20.2667 148.027 20.36 148.48 20.36C148.587 20.36 148.747 20.36 148.96 20.36C149.2 20.36 149.32 20.3467 149.32 20.32L151.48 18.48C151.48 18.4533 151.547 18.48 151.68 18.56C151.813 18.64 151.92 18.6933 152 18.72C152.053 18.7733 152.187 18.8667 152.4 19C152.613 19.1333 152.747 19.2267 152.8 19.28C152.907 19.36 153.12 19.5067 153.44 19.72C153.76 19.9333 154.093 20.1733 154.44 20.44C154.787 20.7067 155.107 20.96 155.4 21.2C155.693 21.4133 155.893 21.5733 156 21.68C156.027 21.7333 156.04 21.8133 156.04 21.92C156.04 22.1867 155.96 22.4 155.8 22.56C155.64 22.6933 155.44 22.84 155.2 23C155.2 23.2933 155.187 23.8133 155.16 24.56C155.16 25.28 155.147 26.0533 155.12 26.88C155.093 27.7067 155.053 28.48 155 29.2C154.973 29.92 154.947 30.4267 154.92 30.72V31.04ZM151.88 1.12C151.693 1.12 151.573 1.18666 151.52 1.32C151.467 1.42666 151.44 1.54666 151.44 1.68C151.44 2.10666 151.627 2.49333 152 2.84C152.373 3.18667 152.76 3.36 153.16 3.36C153.16 3.17333 153.147 2.94667 153.12 2.68C153.093 2.41333 153.027 2.17333 152.92 1.96C152.84 1.72 152.707 1.52 152.52 1.36C152.36 1.2 152.147 1.12 151.88 1.12ZM150.92 34.48C151 34.48 151.093 34.4267 151.2 34.32C151.333 34.2133 151.453 34.0933 151.56 33.96C151.667 33.8 151.76 33.6533 151.84 33.52C151.92 33.36 151.973 33.2267 152 33.12C152.027 33.0667 152.04 32.9333 152.04 32.72C152.067 32.6667 152.08 32.5867 152.08 32.48H150.28C150.28 32.32 150.227 32.1333 150.12 31.92C150.04 31.68 149.92 31.4533 149.76 31.24C149.627 31.0267 149.453 30.84 149.24 30.68C149.053 30.52 148.867 30.44 148.68 30.44C148.547 30.44 148.333 30.5733 148.04 30.84C147.773 31.08 147.413 31.36 146.96 31.68C146.533 31.9733 146.027 32.2533 145.44 32.52C144.88 32.76 144.253 32.88 143.56 32.88C143.347 32.9067 143.173 32.9067 143.04 32.88C142.693 32.88 142.52 32.7867 142.52 32.6V23H142V31C142 31.2667 141.8 31.4933 141.4 31.68C141.027 31.84 140.6 31.9733 140.12 32.08C139.64 32.1867 139.173 32.2667 138.72 32.32C138.267 32.3467 137.987 32.36 137.88 32.36L136.8 32.32C136.8 32.1867 136.8 32.0133 136.8 31.8C136.8 31.5867 136.773 31.3867 136.72 31.2C136.667 30.9867 136.587 30.8133 136.48 30.68C136.373 30.52 136.213 30.44 136 30.44C135.893 30.44 135.8 30.4533 135.72 30.48C135.64 31.2 135.427 31.76 135.08 32.16C134.76 32.5333 134.347 32.8133 133.84 33C133.36 33.16 132.813 33.2533 132.2 33.28C131.613 33.3067 131.013 33.32 130.4 33.32V19.08C130.88 19.08 131.333 19.16 131.76 19.32C132.213 19.48 132.653 19.6667 133.08 19.88C133.533 20.0667 133.973 20.24 134.4 20.4C134.853 20.56 135.32 20.64 135.8 20.64C136.067 20.64 136.36 20.56 136.68 20.4C137 20.2133 137.16 19.96 137.16 19.64C137.08 19.64 136.933 19.64 136.72 19.64C136.507 19.64 136.28 19.64 136.04 19.64C135.8 19.6133 135.573 19.6 135.36 19.6C135.147 19.5733 135 19.5467 134.92 19.52C134.84 19.52 134.733 19.4933 134.6 19.44C134.467 19.36 134.4 19.3067 134.4 19.28V15C134.587 14.9733 134.68 14.8667 134.68 14.68C134.68 14.4667 134.68 14.3067 134.68 14.2C134.68 14.0133 134.667 13.84 134.64 13.68C134.64 13.4933 134.56 13.3067 134.4 13.12V6.2H135.2L138.92 7.8C139.027 7.85333 139.173 7.92 139.36 8C139.573 8.05333 139.693 8.08 139.72 8.08H144.28C144.28 8.08 144.32 8.04 144.4 7.96C144.507 7.88 144.613 7.78667 144.72 7.68C144.827 7.54667 144.933 7.42667 145.04 7.32C145.147 7.18667 145.24 7.08 145.32 7C145.373 6.94667 145.427 6.88 145.48 6.8C145.56 6.69333 145.627 6.6 145.68 6.52C145.76 6.41333 145.827 6.30667 145.88 6.2L145.6 5.92H129.2V30C128.747 30 128.333 30.12 127.96 30.36C127.587 30.6 127.16 30.72 126.68 30.72C126.44 30.72 126.24 30.6667 126.08 30.56C125.92 30.4533 125.76 30.3333 125.6 30.2C125.467 30.04 125.32 29.9067 125.16 29.8C125.027 29.6933 124.867 29.64 124.68 29.64C124.52 29.64 124.4 29.7067 124.32 29.84C124.267 29.9467 124.24 30.0667 124.24 30.2C124.24 30.36 124.253 30.4933 124.28 30.6C124.333 30.7067 124.413 30.84 124.52 31C124.92 31.0267 125.307 31.1067 125.68 31.24C126.08 31.3467 126.467 31.4667 126.84 31.6C127.213 31.7067 127.587 31.8133 127.96 31.92C128.333 32 128.707 32.04 129.08 32.04V32.88L128.8 32.6C128.507 32.76 128.293 32.92 128.16 33.08C128.027 33.2133 127.96 33.4 127.96 33.64C127.96 33.88 128.013 34.04 128.12 34.12C128.253 34.1733 128.4 34.2133 128.56 34.24C128.747 34.24 128.933 34.2533 129.12 34.28C129.307 34.28 129.467 34.3467 129.6 34.48H150.92ZM148.28 7.8C148.093 7.82667 147.853 7.85333 147.56 7.88C147.293 7.90667 147.027 7.93333 146.76 7.96C146.52 7.98667 146.307 8.01333 146.12 8.04C145.96 8.06667 145.88 8.08 145.88 8.08V8.6C145.96 8.6 146.2 8.62667 146.6 8.68C147.027 8.73333 147.48 8.8 147.96 8.88C148.467 8.93333 148.96 8.98667 149.44 9.04C149.92 9.09333 150.28 9.12 150.52 9.12H150.68C150.44 8.85333 150.12 8.57333 149.72 8.28C149.347 7.96 148.96 7.8 148.56 7.8H148.28ZM142.92 9.44C143.187 9.44 143.44 9.36 143.68 9.2C143.92 9.01333 144.12 8.81333 144.28 8.6L143.6 8.56C143.547 8.56 143.453 8.56 143.32 8.56C143.187 8.56 143.053 8.57333 142.92 8.6C142.787 8.62667 142.667 8.68 142.56 8.76C142.453 8.81333 142.4 8.89333 142.4 9C142.4 9.29333 142.573 9.44 142.92 9.44ZM150.92 9.12C150.787 9.12 150.72 9.21333 150.72 9.4C150.72 9.58667 150.787 9.68 150.92 9.68H151C151 9.84 151.067 9.92 151.2 9.92C151.333 9.92 151.4 9.84 151.4 9.68C151.4 9.49333 151.333 9.4 151.2 9.4H151.12C151.12 9.21333 151.053 9.12 150.92 9.12ZM151 9.68C151.08 9.65333 151.12 9.56 151.12 9.4C151.04 9.45333 151 9.54667 151 9.68ZM134.92 10.04C134.92 10.5733 135.093 10.9733 135.44 11.24C135.787 11.48 136.173 11.6 136.6 11.6C136.6 11.4667 136.573 11.2933 136.52 11.08C136.493 10.84 136.44 10.6133 136.36 10.4C136.28 10.1867 136.173 10.0133 136.04 9.88C135.907 9.72 135.76 9.64 135.6 9.64C135.52 9.64 135.48 9.65333 135.48 9.68C135.4 9.68 135.293 9.72 135.16 9.8C135.027 9.88 134.947 9.92 134.92 9.92V10.04ZM144.28 10.2H140.52V14.72H144.28V10.2ZM139.2 13.12C139.227 13.0667 139.24 12.9867 139.24 12.88C139.24 12.5067 139.053 12.32 138.68 12.32H138.4L139.2 13.12ZM146.4 13.12C146.48 13.12 146.52 13.08 146.52 13C146.52 12.92 146.48 12.88 146.4 12.88C146.32 12.8533 146.28 12.8933 146.28 13C146.28 13.1067 146.32 13.1467 146.4 13.12ZM146.64 14.08C146.64 14.3467 146.72 14.5867 146.88 14.8C147.067 14.9867 147.307 15.08 147.6 15.08C147.6 14.76 147.507 14.4933 147.32 14.28C147.16 14.04 146.947 13.84 146.68 13.68C146.653 13.76 146.64 13.8933 146.64 14.08ZM128.8 16.32C128.773 16.2667 128.747 16.2267 128.72 16.2C128.693 16.1733 128.653 16.16 128.6 16.16C128.573 16.1333 128.547 16.1067 128.52 16.08C128.2 15.84 127.893 15.72 127.6 15.72C127.333 15.72 126.973 15.72 126.52 15.72C126.52 15.9867 126.547 16.2933 126.6 16.64C126.653 16.9867 126.733 17.32 126.84 17.64C126.973 17.96 127.147 18.2267 127.36 18.44C127.6 18.6533 127.907 18.76 128.28 18.76C128.36 18.76 128.467 18.7467 128.6 18.72C128.733 18.6933 128.8 18.6133 128.8 18.48V16.32ZM139.48 17.12L138.92 16.6V16.88C138.92 16.9867 138.933 17.0933 138.96 17.2C138.987 17.28 139.067 17.3467 139.2 17.4L139.48 17.12ZM123.2 19C123.173 18.7333 123.173 18.5467 123.2 18.44V19ZM148.28 28.44C148.333 28.44 148.453 28.4267 148.64 28.4C148.853 28.3733 149 28.3467 149.08 28.32C149.133 28.32 149.213 28.2933 149.32 28.24C149.427 28.16 149.48 28.1067 149.48 28.08V22.72C149.587 22.8533 149.68 22.9467 149.76 23C149.867 23.0267 150 23.04 150.16 23.04C150.453 23.04 150.68 22.9067 150.84 22.64C151.027 22.3733 151.16 22.0667 151.24 21.72C151.347 21.3467 151.413 20.9867 151.44 20.64C151.467 20.2667 151.48 19.9867 151.48 19.8C151.48 19.6667 151.467 19.56 151.44 19.48C151.44 19.4 151.36 19.3333 151.2 19.28C151.12 19.3067 150.92 19.48 150.6 19.8C150.307 20.12 149.987 20.48 149.64 20.88C149.293 21.28 148.973 21.6667 148.68 22.04C148.413 22.3867 148.28 22.6133 148.28 22.72V28.44ZM139.76 20.2C139.76 20.0133 139.653 19.8933 139.44 19.84C139.227 19.7867 139.053 19.76 138.92 19.76C138.733 19.76 138.533 19.8533 138.32 20.04C138.107 20.2 137.907 20.4 137.72 20.64C137.533 20.88 137.373 21.1333 137.24 21.4C137.107 21.6667 137.04 21.8933 137.04 22.08C137.04 22.1333 137.053 22.1733 137.08 22.2C137.293 22.1733 137.547 22.1067 137.84 22C138.16 21.8933 138.453 21.76 138.72 21.6C139.013 21.4133 139.253 21.2133 139.44 21C139.653 20.76 139.76 20.4933 139.76 20.2ZM149.32 22.72C149.187 22.72 149.12 22.64 149.12 22.48C149.12 22.2933 149.187 22.2 149.32 22.2C149.453 22.2 149.52 22.2933 149.52 22.48C149.52 22.64 149.453 22.72 149.32 22.72ZM136.52 23C136.52 22.8667 136.453 22.7867 136.32 22.76C136.187 22.7333 136.08 22.72 136 22.72H135.72V28.32H136.52V23ZM132.8 23V23.28L133.08 23H132.8ZM150.68 24.88C150.68 24.6933 150.64 24.5067 150.56 24.32C150.507 24.1333 150.36 24.04 150.12 24.04C150.013 24.04 149.933 24.0533 149.88 24.08V26.2H150.12C150.147 26.2 150.227 26.0667 150.36 25.8C150.52 25.5067 150.627 25.28 150.68 25.12V24.88ZM134.4 25.12C134.427 25.04 134.387 25 134.28 25C134.173 25 134.12 25.04 134.12 25.12C134.147 25.2 134.187 25.24 134.24 25.24C134.32 25.24 134.373 25.2 134.4 25.12ZM146.68 26.48H146.92V26.2H146.68V26.48ZM143.2 27.92C143.2 28.1333 143.24 28.32 143.32 28.48C143.427 28.6133 143.48 28.7867 143.48 29C143.48 29.48 143.413 29.8933 143.28 30.24C143.173 30.56 143.12 31 143.12 31.56C143.6 31.56 143.987 31.3733 144.28 31C144.253 30.76 144.24 30.48 144.24 30.16C144.24 29.8133 144.28 29.48 144.36 29.16C144.44 28.84 144.547 28.5333 144.68 28.24C144.84 27.9467 145.053 27.7067 145.32 27.52H143.48C143.453 27.52 143.4 27.56 143.32 27.64C143.267 27.6933 143.227 27.7467 143.2 27.8V27.92ZM138.4 27.8V28.08H138.68V27.8H138.4ZM152.2 29.56C152.2 29.8 152.267 30 152.4 30.16C152.56 30.32 152.747 30.4533 152.96 30.56C153.2 30.6667 153.44 30.7467 153.68 30.8C153.92 30.8533 154.133 30.88 154.32 30.88C154.32 30.5333 154.267 30.2667 154.16 30.08C154.053 29.8933 153.893 29.76 153.68 29.68C153.493 29.6 153.267 29.56 153 29.56C152.76 29.56 152.493 29.56 152.2 29.56Z" fill="white"/>
</svg>
