<svg width="194" height="40" viewBox="0 0 194 40" fill="none" xmlns="http://www.w3.org/2000/svg">
<path d="M29.2 6.48C29.2267 6.48 29.24 6.52 29.24 6.6C29.24 6.68 29.2267 6.72 29.2 6.72C29.12 6.82667 28.9467 7.01333 28.68 7.28C28.4133 7.54667 28.2267 7.72 28.12 7.8C28.0933 8.97333 28.0533 10.24 28 11.6C27.9733 12.96 27.9467 14.36 27.92 15.8C27.8933 17.2133 27.8667 18.6267 27.84 20.04C27.84 21.4533 27.8533 22.8 27.88 24.08C27.7733 24.24 27.6 24.3467 27.36 24.4C27.1467 24.4267 26.96 24.4933 26.8 24.6C26.9867 25.1333 27.04 25.48 26.96 25.64C26.9067 25.8 26.8 25.92 26.64 26C26.5067 26.0533 26.36 26.1467 26.2 26.28C26.0667 26.4133 26 26.6933 26 27.12C26 27.3067 26.08 27.4533 26.24 27.56C26.4 27.6667 26.5867 27.7467 26.8 27.8C27.0133 27.8267 27.2133 27.8533 27.4 27.88C27.6133 27.88 27.7733 27.88 27.88 27.88V36.32C27.88 36.7733 27.6267 37.1333 27.12 37.4C26.6133 37.6933 26.0267 37.92 25.36 38.08C24.6933 38.24 24.04 38.3467 23.4 38.4C22.7867 38.48 22.36 38.52 22.12 38.52L21.2 38.48L20.8 38.2V35H7.6C7.52 35 7.44 35.12 7.36 35.36C7.28 35.6 7.18667 35.8667 7.08 36.16C6.97333 36.4533 6.85333 36.7467 6.72 37.04C6.58667 37.36 6.44 37.5733 6.28 37.68C5.64 38.16 4.86667 38.4933 3.96 38.68C3.05333 38.8933 2.21333 39 1.44 39C1.36 39 1.21333 39 1 39C0.786667 39 0.68 38.9067 0.68 38.72V23.08C1.13333 23.08 1.41333 22.9333 1.52 22.64C1.62667 22.3467 1.68 22.0133 1.68 21.64C1.65333 21.64 1.57333 21.5867 1.44 21.48C1.33333 21.3733 1.25333 21.3467 1.2 21.4C1.12 21.48 1.01333 21.6533 0.88 21.92C0.746667 22.1867 0.68 22.3733 0.68 22.48V2.72H1.72C1.74667 2.72 1.92 2.78666 2.24 2.92C2.58667 3.05333 2.98667 3.22666 3.44 3.44C3.89333 3.62666 4.34667 3.82666 4.8 4.04C5.28 4.25333 5.68 4.44 6 4.6L6.8 5H11.68C11.68 5.29333 11.7733 5.58667 11.96 5.88C12.1733 6.17333 12.4133 6.37333 12.68 6.48C12.7333 6.50667 12.8267 6.48 12.96 6.4C13.0933 6.32 13.1733 6.25333 13.2 6.2C13.12 6.14666 12.9733 6.02666 12.76 5.84C12.5733 5.62666 12.4533 5.48 12.4 5.4C12.3467 5.29333 12.32 5.2 12.32 5.12H17.4C17.4 5.49333 17.6 5.68 18 5.68C18.16 5.68 18.28 5.65333 18.36 5.6C18.4667 5.54667 18.56 5.48 18.64 5.4C18.72 5.32 18.8133 5.25333 18.92 5.2C19.0267 5.14666 19.16 5.12 19.32 5.12C19.6667 5.12 19.92 5.21333 20.08 5.4C20.24 5.58667 20.48 5.68 20.8 5.68C21.0667 5.68 21.3867 5.56 21.76 5.32C22.16 5.08 22.5067 4.93333 22.8 4.88C22.72 4.77333 22.6267 4.68 22.52 4.6C22.4933 4.57333 22.36 4.49333 22.12 4.36C21.9067 4.2 21.7733 4.10667 21.72 4.08V3.8L23.32 2.2C23.3467 2.17333 23.4267 2.16 23.56 2.16C24.04 2.16 24.4933 2.34667 24.92 2.72C25.3733 3.09333 25.7333 3.45333 26 3.8C25.6533 4.12 25.28 4.42667 24.88 4.72C24.48 5.01333 24.0533 5.24 23.6 5.4C23.6533 5.56 23.72 5.65333 23.8 5.68C23.9067 5.68 24.0133 5.68 24.12 5.68C24.36 5.68 24.6533 5.68 25 5.68C25.3733 5.68 25.7467 5.66667 26.12 5.64C26.4933 5.61333 26.84 5.56 27.16 5.48C27.48 5.4 27.72 5.28 27.88 5.12L29.2 6.48ZM20.92 19C20.92 18.5467 20.9067 17.76 20.88 16.64C20.8533 15.4933 20.8267 14.28 20.8 13C20.7733 11.72 20.7467 10.52 20.72 9.4C20.6933 8.25333 20.68 7.45333 20.68 7H7.2V10.2C6.69333 9.98667 6.36 9.69333 6.2 9.32C6.06667 8.94667 5.98667 8.54667 5.96 8.12C5.93333 7.66667 5.90667 7.21333 5.88 6.76C5.85333 6.28 5.72 5.86667 5.48 5.52C5.24 5.14666 4.82667 4.84 4.24 4.6C3.65333 4.36 2.78667 4.24 1.64 4.24C1.64 4.66667 1.77333 4.92 2.04 5C2.30667 5.08 2.58667 5.12 2.88 5.12C3.2 5.12 3.49333 5.14666 3.76 5.2C4.02667 5.25333 4.16 5.45333 4.16 5.8C4.16 5.93333 4.09333 6.14667 3.96 6.44C3.85333 6.70666 3.72 7 3.56 7.32C3.4 7.64 3.24 7.94667 3.08 8.24C2.94667 8.53333 2.85333 8.74666 2.8 8.88C2.74667 8.96 2.64 9.05333 2.48 9.16C2.34667 9.24 2.2 9.33333 2.04 9.44C1.88 9.52 1.73333 9.6 1.6 9.68C1.49333 9.73333 1.44 9.77333 1.44 9.8C1.44 9.93333 1.50667 10.0533 1.64 10.16C1.77333 10.2667 1.92 10.36 2.08 10.44C2.24 10.52 2.38667 10.5867 2.52 10.64C2.68 10.6933 2.77333 10.72 2.8 10.72L3.36 10.84H3.72V8.96L4.08 8.88C4.18667 8.88 4.29333 8.88 4.4 8.88C4.50667 8.85333 4.6 8.85333 4.68 8.88C4.70667 8.88 4.78667 8.92 4.92 9C5.08 9.05333 5.17333 9.09333 5.2 9.12L5.48 10.72V11.04C5.48 11.3067 5.38667 11.52 5.2 11.68C5.01333 11.84 4.92 12.0533 4.92 12.32C4.92 12.64 5.01333 12.8133 5.2 12.84C5.38667 12.8667 5.6 12.88 5.84 12.88C6.10667 12.88 6.34667 12.88 6.56 12.88C6.77333 12.8533 6.98667 12.76 7.2 12.6V18.48L7.88 18.88H19.88C19.9333 18.9067 20.0533 18.9733 20.24 19.08C20.4533 19.1867 20.6 19.2533 20.68 19.28C20.7333 19.3067 20.8133 19.32 20.92 19.32V19ZM23.6 11.8C23.44 11.8267 23.24 11.8533 23 11.88C22.76 11.9067 22.52 11.9333 22.28 11.96C22.0667 11.9867 21.88 12.0133 21.72 12.04C21.56 12.0667 21.48 12.08 21.48 12.08V12.32C21.48 12.4267 21.5333 12.52 21.64 12.6C21.7467 12.68 21.88 12.7467 22.04 12.8C22.2 12.8267 22.36 12.8533 22.52 12.88C22.7067 12.88 22.8533 12.88 22.96 12.88C23.2533 12.88 23.4933 12.7733 23.68 12.56C23.8933 12.3467 24 12.0933 24 11.8H23.6ZM7 16.64C6.62667 16.64 6.36 16.7733 6.2 17.04C6.04 17.28 5.88 17.5467 5.72 17.84C5.58667 18.1333 5.4 18.4133 5.16 18.68C4.94667 18.92 4.6 19.04 4.12 19.04C3.69333 19.04 3.30667 18.9867 2.96 18.88C2.64 18.7733 2.29333 18.72 1.92 18.72C1.92 18.8 1.97333 18.9333 2.08 19.12C2.18667 19.28 2.32 19.4533 2.48 19.64C2.64 19.8267 2.8 20 2.96 20.16C3.12 20.2933 3.24 20.36 3.32 20.36C4.38667 20.36 5.26667 20 5.96 19.28C6.65333 18.56 7 17.68 7 16.64ZM27.32 19.28C27.4 19.2 27.44 19.0667 27.44 18.88C27.44 18.6667 27.4 18.5333 27.32 18.48C27.2667 18.4533 27.2267 18.48 27.2 18.56C27.2 18.64 27.2 18.7467 27.2 18.88C27.2 18.9867 27.2133 19.0933 27.24 19.2C27.2667 19.28 27.2933 19.3067 27.32 19.28ZM23.16 20.6C23.16 20.44 23.08 20.32 22.92 20.24C22.7867 20.16 22.6533 20.1067 22.52 20.08C22.52 20.0533 22.48 20.04 22.4 20.04C22.3467 20.04 22.3067 20.0533 22.28 20.08V20.6H23.16ZM27.32 20.88C27.4 20.8267 27.44 20.7333 27.44 20.6C27.44 20.4667 27.4 20.3733 27.32 20.32C27.24 20.2933 27.2 20.3867 27.2 20.6C27.2 20.8133 27.24 20.9067 27.32 20.88ZM20.8 29.6C20.9067 29.6 21.04 29.6 21.2 29.6C21.36 29.6 21.52 29.5867 21.68 29.56C21.84 29.5333 21.9733 29.48 22.08 29.4C22.2133 29.32 22.28 29.1867 22.28 29C22.28 28.7333 22.2267 28.56 22.12 28.48C22.0133 28.4 21.88 28.36 21.72 28.36C21.56 28.36 21.3867 28.3867 21.2 28.44C21.04 28.4667 20.9067 28.48 20.8 28.48V20.6H7.32V32.88H20.8V29.6ZM6.88 25.24C6.88 24.92 6.82667 24.6933 6.72 24.56C6.64 24.4 6.45333 24.32 6.16 24.32C5.92 24.32 5.68 24.36 5.44 24.44C5.22667 24.52 5.05333 24.6667 4.92 24.88C4.94667 24.9067 4.98667 24.96 5.04 25.04C5.12 25.0933 5.17333 25.12 5.2 25.12C5.25333 25.1467 5.36 25.1733 5.52 25.2C5.68 25.2 5.85333 25.2133 6.04 25.24C6.22667 25.24 6.4 25.24 6.56 25.24C6.72 25.24 6.82667 25.24 6.88 25.24ZM27.6 25.12C27.8133 25.1733 27.92 25.36 27.92 25.68C27.9467 26 27.96 26.2 27.96 26.28C27.8267 26.28 27.68 26.2533 27.52 26.2C27.3867 26.12 27.32 25.9867 27.32 25.8V25.68L27.6 25.12ZM6.64 29.12C6.64 28.9067 6.53333 28.7733 6.32 28.72C6.10667 28.64 5.90667 28.6 5.72 28.6C5.26667 28.6 4.92 28.7733 4.68 29.12H6.64ZM27.44 32.76C27.44 32.4133 27.3733 32.08 27.24 31.76C27.1333 31.4133 26.8533 31.24 26.4 31.24C26.24 31.24 26.12 31.3067 26.04 31.44C25.9867 31.5467 25.96 31.6667 25.96 31.8C25.96 32.1733 26.1333 32.4267 26.48 32.56C26.8267 32.6933 27.1467 32.76 27.44 32.76ZM4.52 31.8C4.36 31.8 4.21333 31.88 4.08 32.04C3.97333 32.1733 3.88 32.3467 3.8 32.56C3.72 32.7467 3.66667 32.9467 3.64 33.16C3.61333 33.3733 3.6 33.5333 3.6 33.64C3.6 34.04 3.62667 34.4533 3.68 34.88C3.76 35.28 3.88 35.6533 4.04 36C4.22667 36.3467 4.46667 36.6267 4.76 36.84C5.08 37.0533 5.49333 37.16 6 37.16C6.24 37.16 6.44 37.08 6.6 36.92C6.76 36.76 6.84 36.56 6.84 36.32C6.84 36.0533 6.73333 35.8133 6.52 35.6C6.33333 35.4133 6.12 35.1867 5.88 34.92C5.64 34.6267 5.41333 34.2667 5.2 33.84C5.01333 33.3867 4.92 32.8 4.92 32.08C4.86667 31.92 4.78667 31.8267 4.68 31.8H4.52ZM20.4 34.48C20.5333 34.48 20.6 34.3867 20.6 34.2C20.6 34.0133 20.5333 33.92 20.4 33.92C20.2667 33.92 20.2 34.0133 20.2 34.2C20.2 34.3867 20.2667 34.48 20.4 34.48ZM22 36.6C22.08 36.5467 22.12 36.4533 22.12 36.32C22.12 36.1867 22.08 36.1067 22 36.08C21.92 36.0267 21.88 36.1067 21.88 36.32C21.88 36.56 21.92 36.6533 22 36.6ZM72.12 11.52C72.1733 11.52 72.2267 11.48 72.28 11.4C72.36 11.32 72.4267 11.2267 72.48 11.12C72.56 11.0133 72.6267 10.88 72.68 10.72C72.8133 10.7733 72.8933 10.8533 72.92 10.96C72.9467 11.0667 72.96 11.1733 72.96 11.28C72.96 11.4933 72.8933 11.6533 72.76 11.76C72.6533 11.8667 72.44 11.92 72.12 11.92H58.52C58.4667 11.9733 58.4267 12.0267 58.4 12.08C58.3733 12.1333 58.3467 12.1867 58.32 12.24C58.2933 12.2667 58.28 12.2933 58.28 12.32C58.2533 12.3467 58.24 12.4 58.24 12.48C58.24 12.5333 58.2533 12.5733 58.28 12.6C58.28 12.6267 58.32 12.72 58.4 12.88C58.48 13.0133 58.52 13.0933 58.52 13.12C58.5467 13.1467 58.56 13.2 58.56 13.28C58.56 13.3333 58.5467 13.3733 58.52 13.4C58.2533 13.3733 58.0133 13.28 57.8 13.12C57.6133 12.9333 57.4267 12.7467 57.24 12.56C57.0533 12.3733 56.8667 12.2 56.68 12.04C56.4933 11.88 56.2667 11.8 56 11.8C55.8933 11.8 55.6933 11.88 55.4 12.04C55.1333 12.2 54.84 12.3867 54.52 12.6C54.2 12.7867 53.9067 12.96 53.64 13.12C53.3733 13.28 53.2267 13.3733 53.2 13.4C53.36 13.8533 53.64 14.24 54.04 14.56C54.4667 14.88 54.8933 15.12 55.32 15.28C55.3467 15.0133 55.4133 14.8 55.52 14.64C55.6533 14.4533 55.7867 14.2933 55.92 14.16C56.0533 14 56.1867 13.8533 56.32 13.72C56.48 13.56 56.6 13.36 56.68 13.12C56.92 13.2533 57.1867 13.5467 57.48 14C57.8 14.4267 58.1333 14.88 58.48 15.36C58.8533 15.84 59.24 16.28 59.64 16.68C60.04 17.0533 60.4667 17.24 60.92 17.24V16.6C62.6267 18.2267 64.3333 19.72 66.04 21.08C67.7733 22.44 69.72 23.6133 71.88 24.6C71.24 24.76 70.5067 24.88 69.68 24.96C68.88 25.04 68.08 25.1467 67.28 25.28C66.5067 25.3867 65.7867 25.5733 65.12 25.84C64.4533 26.1067 63.9467 26.4933 63.6 27C63.6 27.0267 63.56 27.04 63.48 27.04C63.24 27.04 62.9733 26.88 62.68 26.56C62.4133 26.2133 62.1333 25.8267 61.84 25.4C61.5733 24.9733 61.3333 24.56 61.12 24.16C60.9067 23.7333 60.76 23.44 60.68 23.28C60.0667 22.1333 59.5333 21.08 59.08 20.12C58.6267 19.16 58.1733 18.08 57.72 16.88C57.6133 16.64 57.5333 16.5467 57.48 16.6C57.4533 16.6533 57.36 16.68 57.2 16.68V26.48L57.48 26.72C57.6133 26.6133 57.7467 26.4533 57.88 26.24C58.0133 26.0267 58.1467 25.8267 58.28 25.64C58.4133 25.4267 58.56 25.24 58.72 25.08C58.88 24.92 59.04 24.84 59.2 24.84C59.3867 24.84 59.7467 25.0267 60.28 25.4C60.84 25.7733 61.4 26.2133 61.96 26.72C62.5467 27.2267 63.0533 27.76 63.48 28.32C63.9333 28.88 64.16 29.3333 64.16 29.68C64.16 29.8133 64.12 29.96 64.04 30.12C63.9867 30.2533 63.84 30.32 63.6 30.32H57.72L57.08 30.72V37.4C57.08 37.6933 56.8267 37.9333 56.32 38.12C55.84 38.3333 55.2933 38.5067 54.68 38.64C54.0667 38.7733 53.4667 38.8667 52.88 38.92C52.2933 39 51.9067 39.04 51.72 39.04L50.8 39L50.4 38.72V30.72L49.72 30.32H43.88C43.8533 30.32 43.8 30.28 43.72 30.2C43.6667 30.0933 43.6267 30 43.6 29.92C43.5733 29.8667 43.52 29.7733 43.44 29.64C43.3867 29.5067 43.3467 29.4267 43.32 29.4V29.12C43.4 28.9867 43.4933 28.9067 43.6 28.88C43.84 28.8533 44.28 28.8267 44.92 28.8C45.56 28.7467 46.2267 28.7067 46.92 28.68C47.64 28.6533 48.32 28.64 48.96 28.64C49.6 28.6133 50.04 28.6 50.28 28.6H50.52V29.08C50.8933 29.08 51.2133 29.0667 51.48 29.04C51.7733 28.9867 52.12 28.96 52.52 28.96C52.52 28.8267 52.44 28.6933 52.28 28.56C52.1467 28.4 51.9733 28.2533 51.76 28.12C51.5467 27.9867 51.3067 27.88 51.04 27.8C50.8 27.72 50.5867 27.68 50.4 27.68V21.68L50 21.4C49.0133 22.3067 47.92 23.3733 46.72 24.6C45.52 25.8 44.2533 26.9467 42.92 28.04C41.5867 29.1067 40.2133 30.0133 38.8 30.76C37.3867 31.5067 35.96 31.88 34.52 31.88V31.28C34.9733 30.8533 35.4533 30.3467 35.96 29.76C36.4933 29.1467 37.0267 28.5333 37.56 27.92C38.12 27.28 38.68 26.6667 39.24 26.08C39.8267 25.4933 40.3867 25 40.92 24.6C40.9467 24.5733 41 24.56 41.08 24.56C41.32 24.56 41.4933 24.6667 41.6 24.88C41.7067 25.0667 41.92 25.16 42.24 25.16C42.48 25.16 42.68 25.1467 42.84 25.12C43 25.0667 43.08 24.8933 43.08 24.6C43.08 24.2 42.9467 23.8933 42.68 23.68C42.4133 23.4667 42.0933 23.3333 41.72 23.28C42.1733 22.5867 42.68 21.8267 43.24 21C43.8 20.1467 44.32 19.2667 44.8 18.36C45.3067 17.4267 45.72 16.4933 46.04 15.56C46.3867 14.6267 46.56 13.72 46.56 12.84C46.56 12.84 46.56 12.7867 46.56 12.68C46.56 12.5733 46.5467 12.4667 46.52 12.36C46.52 12.2533 46.4933 12.16 46.44 12.08C46.4133 11.9733 46.36 11.92 46.28 11.92H35.88C35.8533 11.84 35.76 11.68 35.6 11.44C35.4667 11.2 35.3733 11.0533 35.32 11H35.08L34.52 11.28V11C34.52 10.92 34.5333 10.8133 34.56 10.68C34.5867 10.5467 34.6667 10.48 34.8 10.48H46.8C46.64 10.5067 46.5467 10.6 46.52 10.76C46.52 10.92 46.52 11.0533 46.52 11.16C46.52 11.4533 46.6133 11.64 46.8 11.72C46.9867 11.7733 47.2 11.8 47.44 11.8C47.8667 11.8 48.2933 11.7733 48.72 11.72C49.1733 11.64 49.5067 11.4 49.72 11C49.7467 10.9733 49.7467 10.8933 49.72 10.76L49.64 10.6H48.12C48.2 10.6 48.32 10.5867 48.48 10.56C48.6667 10.5067 48.8533 10.4667 49.04 10.44C49.2533 10.3867 49.44 10.3467 49.6 10.32C49.7867 10.2667 49.92 10.2267 50 10.2C50.0533 10.1733 50.1333 10.1333 50.24 10.08C50.3467 10 50.4 9.94666 50.4 9.92V0.759997C51.68 0.759997 52.9867 0.826665 54.32 0.96C55.68 1.06666 57 1.21333 58.28 1.4C58.44 1.45333 58.52 1.54666 58.52 1.68C58.5467 1.81333 58.56 1.94666 58.56 2.08C58.56 2.29333 58.48 2.46666 58.32 2.6C58.1867 2.70666 58.04 2.81333 57.88 2.92C57.72 3 57.56 3.09333 57.4 3.2C57.2667 3.28 57.2 3.38666 57.2 3.52V10.2H63.6C64.0267 10.2 64.3733 9.98667 64.64 9.56C64.9333 9.10666 65.2 8.61333 65.44 8.08C65.68 7.52 65.9333 7.02667 66.2 6.6C66.4667 6.14666 66.8 5.92 67.2 5.92C67.4933 5.92 67.8267 6.05333 68.2 6.32C68.5733 6.58667 68.9333 6.89333 69.28 7.24C69.6533 7.58667 70 7.94666 70.32 8.32C70.64 8.66666 70.8933 8.93333 71.08 9.12C71.0533 9.14667 71 9.16 70.92 9.16C70.8667 9.16 70.8267 9.14667 70.8 9.12C70.6133 9.04 70.3867 8.89333 70.12 8.68C69.8533 8.44 69.5867 8.32 69.32 8.32C69.2133 8.32 69.0267 8.37333 68.76 8.48C68.52 8.58666 68.2667 8.72 68 8.88C67.76 9.04 67.5333 9.21333 67.32 9.4C67.1333 9.58667 67.04 9.76 67.04 9.92C67.04 10.0533 67.0533 10.1733 67.08 10.28C67.1067 10.36 67.1867 10.4267 67.32 10.48C67.4 10.4267 67.5733 10.3333 67.84 10.2C68.1333 10.04 68.32 9.94666 68.4 9.92H68.64C69.12 9.92 69.4667 10.0933 69.68 10.44C69.92 10.7867 70.12 11.1467 70.28 11.52H72.12ZM72.12 9.92C72.2533 9.92 72.32 10.0133 72.32 10.2H72.4C72.5333 10.2 72.6 10.2933 72.6 10.48C72.6 10.64 72.5333 10.72 72.4 10.72C72.2667 10.72 72.2 10.64 72.2 10.48H72.12C71.9867 10.48 71.92 10.3867 71.92 10.2H71.88C71.6933 10.2 71.6267 10.1067 71.68 9.92H71.6C71.4667 9.92 71.4 9.84 71.4 9.68H71.32C71.1867 9.68 71.12 9.58667 71.12 9.4C71.12 9.21333 71.1867 9.12 71.32 9.12C71.4533 9.12 71.52 9.21333 71.52 9.4H71.6C71.7867 9.4 71.8533 9.49333 71.8 9.68H71.88C72.0133 9.68 72.08 9.76 72.08 9.92H72.12ZM56.12 11C56.2533 11 56.32 10.92 56.32 10.76C56.32 10.5733 56.2533 10.48 56.12 10.48C55.9867 10.48 55.92 10.5733 55.92 10.76C55.92 10.92 55.9867 11 56.12 11ZM58.8 13.92C58.72 13.9467 58.68 13.9067 58.68 13.8C58.68 13.6933 58.72 13.6533 58.8 13.68C58.88 13.68 58.92 13.72 58.92 13.8C58.92 13.88 58.88 13.92 58.8 13.92ZM50.4 13.92C50.2133 13.92 50.0667 14.0267 49.96 14.24C49.8533 14.4533 49.7733 14.6133 49.72 14.72C49.8 14.7467 49.8933 14.76 50 14.76C50.16 14.76 50.3867 14.7467 50.68 14.72C50.9733 14.6933 51.12 14.56 51.12 14.32C51.12 14.2667 51.1067 14.2267 51.08 14.2C51.0533 14.1733 50.9733 14.1333 50.84 14.08C50.7067 14 50.6 13.9467 50.52 13.92H50.4ZM59.32 14.2C59.4533 14.2 59.52 14.2933 59.52 14.48C59.52 14.64 59.4533 14.72 59.32 14.72C59.1867 14.72 59.12 14.64 59.12 14.48H59.08C58.9467 14.48 58.88 14.3867 58.88 14.2C58.88 14.0133 58.9467 13.92 59.08 13.92C59.2133 13.92 59.28 14.0133 59.28 14.2H59.32ZM59.88 15.52C59.7467 15.52 59.68 15.44 59.68 15.28H59.6C59.4667 15.28 59.4 15.1867 59.4 15C59.4 14.8133 59.4667 14.72 59.6 14.72C59.7333 14.72 59.8 14.8133 59.8 15H59.88C60.0133 15 60.08 15.0933 60.08 15.28C60.08 15.44 60.0133 15.52 59.88 15.52ZM60.12 15.8C60.04 15.8267 60 15.7867 60 15.68C60 15.5733 60.04 15.52 60.12 15.52C60.2 15.5467 60.24 15.6 60.24 15.68C60.24 15.7333 60.2 15.7733 60.12 15.8ZM60.68 16.6C60.4933 16.6 60.4267 16.5067 60.48 16.32H60.4C60.2667 16.32 60.2 16.24 60.2 16.08C60.2 15.8933 60.2667 15.8 60.4 15.8C60.5867 15.8 60.6533 15.8933 60.6 16.08H60.68C60.8133 16.08 60.88 16.1733 60.88 16.36C60.88 16.52 60.8133 16.6 60.68 16.6ZM52.16 18.6C52.16 18.3867 52.1467 18.1333 52.12 17.84C52.0933 17.52 51.92 17.36 51.6 17.36C51.4133 17.36 51.2267 17.4267 51.04 17.56C50.8533 17.6933 50.76 17.8667 50.76 18.08C50.76 18.1333 50.8133 18.2133 50.92 18.32C51.0533 18.4267 51.2 18.5467 51.36 18.68C51.52 18.7867 51.6667 18.8933 51.8 19C51.96 19.1067 52.0667 19.2 52.12 19.28L52.16 18.6ZM56.4 19.68C56.4 19.36 56.32 19.0667 56.16 18.8C56.0267 18.5333 55.7867 18.4 55.44 18.4C55.44 18.72 55.5333 19 55.72 19.24C55.9067 19.4533 56.1333 19.64 56.4 19.8V19.68ZM45.48 20.08H45.2V20.32H45.48V20.08ZM67.32 29.68C67.4267 29.68 67.6533 29.6533 68 29.6C68.3467 29.52 68.5733 29.4533 68.68 29.4C68.8133 29.2133 69.0933 28.96 69.52 28.64C69.9733 28.2933 70.44 27.9467 70.92 27.6C71.4267 27.2267 71.8933 26.8667 72.32 26.52C72.7733 26.1733 73.0667 25.8933 73.2 25.68C73.0933 25.52 72.92 25.36 72.68 25.2C72.44 25.04 72.2533 24.9333 72.12 24.88C72.2 24.8533 72.2933 24.84 72.4 24.84C72.72 24.84 72.9733 24.9333 73.16 25.12C73.3733 25.28 73.48 25.5067 73.48 25.8C73.48 26.0933 73.32 26.3733 73 26.64C72.68 26.88 72.3067 27.12 71.88 27.36C71.4533 27.6 71.0267 27.84 70.6 28.08C70.2 28.32 69.9067 28.5867 69.72 28.88C69.5867 29.3333 69.44 29.7333 69.28 30.08C69.1467 30.3733 68.9733 30.6533 68.76 30.92C68.5733 31.16 68.3733 31.28 68.16 31.28C67.7067 31.2533 67.28 31.04 66.88 30.64C66.5067 30.24 66.2133 29.92 66 29.68C66 29.44 66.04 29.28 66.12 29.2C66.2267 29.12 66.36 29.08 66.52 29.08L66.8 29.12L67.32 29.68ZM63.6 29.4L62.28 28.08H61.84C61.84 28.48 62.0267 28.88 62.4 29.28C62.8 29.6533 63.2 29.84 63.6 29.84V29.4ZM54.8 31.28C54.9067 31.12 55.0533 30.96 55.24 30.8C55.4267 30.6133 55.6133 30.44 55.8 30.28C55.9867 30.0933 56.1467 29.92 56.28 29.76C56.4133 29.5733 56.48 29.3867 56.48 29.2C56.1067 29.2 55.76 29.2933 55.44 29.48C55.12 29.64 54.8 29.8267 54.48 30.04C54.1867 30.2267 53.8667 30.4 53.52 30.56C53.1733 30.72 52.7733 30.8 52.32 30.8C52.32 30.8267 52.3467 30.8933 52.4 31C52.4267 31.0533 52.4667 31.12 52.52 31.2C52.6 31.2533 52.6533 31.28 52.68 31.28H54.8ZM59.08 29.4L58.8 29.68L59.08 29.92L59.32 29.68L59.08 29.4ZM56.4 33.12H56.12V33.4H56.4V33.12ZM113.48 15.68C113.48 15.8667 113.373 16 113.16 16.08C112.973 16.1333 112.813 16.16 112.68 16.16V15.28L110.52 13.12H110.4C110.24 13.12 110.12 13.1867 110.04 13.32C109.987 13.4267 109.96 13.5467 109.96 13.68C109.96 13.7867 110.053 13.9733 110.24 14.24C110.427 14.48 110.64 14.7467 110.88 15.04C111.12 15.3067 111.36 15.5733 111.6 15.84C111.84 16.08 112.013 16.24 112.12 16.32C112.04 16.3733 111.827 16.52 111.48 16.76C111.16 16.9733 110.813 17.2267 110.44 17.52C110.093 17.7867 109.787 18.04 109.52 18.28C109.253 18.52 109.147 18.6667 109.2 18.72L110 19.8L108.52 21.12V35C108.52 35.6667 108.32 36.2533 107.92 36.76C107.52 37.2667 107.027 37.68 106.44 38C105.853 38.3467 105.227 38.6 104.56 38.76C103.893 38.9467 103.293 39.04 102.76 39.04C102.707 39.04 102.533 39.04 102.24 39.04C101.947 39.0667 101.773 38.96 101.72 38.72C101.587 37.8133 101.453 37.12 101.32 36.64C101.187 36.16 101.04 35.8 100.88 35.56C100.72 35.32 100.533 35.16 100.32 35.08C100.133 35 99.92 34.9067 99.68 34.8C99.4667 34.6667 99.2133 34.4933 98.92 34.28C98.6533 34.04 98.3467 33.6533 98 33.12V32.88C98.0267 32.8267 98.0667 32.7733 98.12 32.72C98.2 32.64 98.2533 32.6 98.28 32.6H102C102.16 32.6 102.28 32.5467 102.36 32.44C102.44 32.3067 102.493 32.1733 102.52 32.04C102.547 31.88 102.56 31.7333 102.56 31.6C102.56 31.44 102.56 31.3333 102.56 31.28C102.56 31.2 102.56 31.0933 102.56 30.96C102.56 30.8 102.547 30.6533 102.52 30.52C102.493 30.36 102.44 30.2267 102.36 30.12C102.28 29.9867 102.16 29.92 102 29.92H94.92V37.12C94.92 37.4667 94.6933 37.76 94.24 38C93.7867 38.24 93.2667 38.4267 92.68 38.56C92.0933 38.72 91.52 38.8267 90.96 38.88C90.4 38.96 90.0267 39 89.84 39C89.84 39 89.7733 39 89.64 39C89.5333 39.0267 89.4133 39.0267 89.28 39C89.1733 39 89.0667 38.9733 88.96 38.92C88.8533 38.8933 88.8 38.8267 88.8 38.72V19.96C88.6933 19.96 88.4933 19.9733 88.2 20C87.9067 20 87.6 20.0133 87.28 20.04C86.96 20.04 86.64 20.0533 86.32 20.08C86.0267 20.08 85.8267 20.08 85.72 20.08C85.6933 20.08 85.56 20.04 85.32 19.96C85.1067 19.8533 84.9733 19.8 84.92 19.8H84.8C84.5867 19.8 84.36 20.1733 84.12 20.92C83.9067 21.6667 83.6933 22.52 83.48 23.48C83.2933 24.4133 83.1333 25.3067 83 26.16C82.8667 27.0133 82.8 27.56 82.8 27.8C82.8 28.3867 82.88 28.96 83.04 29.52C83.2267 30.08 83.4133 30.64 83.6 31.2C83.8133 31.7333 84 32.28 84.16 32.84C84.3467 33.4 84.44 33.9867 84.44 34.6L84.4 36.32C84.08 37.1467 83.5733 37.8 82.88 38.28C82.2133 38.76 81.4267 39 80.52 39C80.36 39 80.1333 38.9733 79.84 38.92C79.5733 38.8933 79.2933 38.8267 79 38.72C78.7333 38.64 78.4933 38.52 78.28 38.36C78.0933 38.2 78 38.0133 78 37.8C78 37.48 78.1067 37.24 78.32 37.08C78.56 36.9467 78.8267 36.8533 79.12 36.8C79.44 36.7467 79.7467 36.7333 80.04 36.76C80.3333 36.7867 80.5467 36.8267 80.68 36.88C80.6533 36.8 80.6 36.68 80.52 36.52C80.4667 36.3867 80.3867 36.2267 80.28 36.04C80.2 35.88 80.12 35.72 80.04 35.56C79.96 35.4267 79.9067 35.3333 79.88 35.28C79.8533 35.2267 79.8 35.16 79.72 35.08C79.6667 35.0267 79.6267 35 79.6 35H77.72C77.8533 34.2267 77.9333 33.6 77.96 33.12C77.9867 32.64 78 32.0533 78 31.36C78 30.5333 77.8533 29.8933 77.56 29.44C77.2933 28.96 76.9867 28.5733 76.64 28.28C76.32 27.9867 76.0133 27.7467 75.72 27.56C75.4533 27.3733 75.32 27.1467 75.32 26.88C75.32 26.6933 75.48 26.52 75.8 26.36C76.12 26.2 76.4933 26.0267 76.92 25.84C77.3467 25.6533 77.76 25.44 78.16 25.2C78.5867 24.96 78.8933 24.6667 79.08 24.32C79.2667 23.9733 79.5067 23.4933 79.8 22.88C80.0933 22.24 80.4 21.5467 80.72 20.8C81.0667 20.0533 81.4133 19.2933 81.76 18.52C82.1067 17.72 82.4267 17 82.72 16.36C83.0133 15.72 83.2667 15.2 83.48 14.8C83.6933 14.4 83.8267 14.2 83.88 14.2H84.4V12.88L86.52 8.6C86.6 8.46667 86.68 8.38667 86.76 8.36C86.84 8.33333 86.9467 8.32 87.08 8.32C87.3467 8.32 87.5067 8.4 87.56 8.56C87.6133 8.72 87.64 8.90667 87.64 9.12L87.6 9.68C87.5467 9.84 87.4533 10.12 87.32 10.52C87.1867 10.92 87.04 11.3467 86.88 11.8C86.7467 12.2533 86.6133 12.68 86.48 13.08C86.3733 13.48 86.3067 13.76 86.28 13.92C86.2533 13.9733 86.24 14.08 86.24 14.24C86.2667 14.3733 86.2933 14.52 86.32 14.68C86.3467 14.84 86.3733 15 86.4 15.16C86.4267 15.2933 86.44 15.3867 86.44 15.44C86.6 15.44 86.7333 15.4933 86.84 15.6C86.9467 15.68 87.04 15.7867 87.12 15.92C87.2 16.0267 87.28 16.1333 87.36 16.24C87.44 16.32 87.56 16.36 87.72 16.36C87.9067 16.36 88.0933 16.3067 88.28 16.2C88.4667 16.0667 88.6533 15.92 88.84 15.76C89.0533 15.6 89.28 15.4667 89.52 15.36C89.76 15.2267 90.0267 15.16 90.32 15.16L90.28 15.52C90.2533 15.5467 90.2 15.64 90.12 15.8C90.04 15.96 90 16.0533 90 16.08C90.08 16.4 90.28 16.6667 90.6 16.88C90.9467 17.0667 91.32 17.2267 91.72 17.36C92.12 17.4933 92.52 17.6267 92.92 17.76C93.3467 17.8933 93.7067 18.04 94 18.2C93.7867 18.2 93.6 18.28 93.44 18.44C93.28 18.5733 93.1333 18.7467 93 18.96C92.8933 19.1467 92.8 19.36 92.72 19.6C92.6667 19.8133 92.64 20.0133 92.64 20.2C92.64 20.3067 92.64 20.44 92.64 20.6C92.6667 20.7333 92.76 20.8267 92.92 20.88C93.16 20.88 93.48 20.8267 93.88 20.72C94.3067 20.5867 94.7333 20.4267 95.16 20.24C95.5867 20.0533 95.9867 19.8533 96.36 19.64C96.7333 19.4267 97.0133 19.2133 97.2 19C97.2533 18.9467 97.24 18.8667 97.16 18.76L97.04 18.6H95.32L102.28 18.2L104.4 16.08C104.4 16.0533 104.44 16.04 104.52 16.04C104.627 16.04 104.707 16.04 104.76 16.04C104.947 16.04 105.107 16.0933 105.24 16.2C105.4 16.28 105.547 16.3733 105.68 16.48C105.813 16.56 105.947 16.6533 106.08 16.76C106.213 16.84 106.36 16.88 106.52 16.88C106.707 16.88 106.8 16.7733 106.8 16.56C106.827 16.3467 106.84 16.2133 106.84 16.16C106.84 15.9467 106.8 15.76 106.72 15.6C106.64 15.44 106.4 15.4133 106 15.52C106.053 14.7733 106.053 14.0267 106 13.28C105.947 12.5067 105.853 11.7467 105.72 11H105.48C105 11.24 104.693 11.6667 104.56 12.28C104.453 12.8933 104.4 13.44 104.4 13.92C104.4 14.24 104.493 14.52 104.68 14.76C104.893 14.9733 105 15.2267 105 15.52H91.32L91.08 15.28C91.48 15.0133 91.8933 14.92 92.32 15C92.7467 15.0533 93.2 15.08 93.68 15.08C93.68 14.6 93.5867 14.0933 93.4 13.56C93.2133 13.0267 92.96 12.5333 92.64 12.08C92.32 11.6 91.9333 11.2133 91.48 10.92C91.0267 10.6267 90.5333 10.48 90 10.48V1.68C90 1.52 90.0667 1.42666 90.2 1.4C90.3333 1.37333 90.44 1.36 90.52 1.36C90.68 1.36 90.7733 1.37333 90.8 1.4L94.8 3H101.72L103.88 0.879998C103.88 0.853332 103.96 0.839999 104.12 0.839999C104.36 0.839999 104.773 0.973332 105.36 1.24C105.973 1.50666 106.573 1.82666 107.16 2.2C107.773 2.57333 108.307 2.97333 108.76 3.4C109.24 3.8 109.48 4.16 109.48 4.48V4.6L108.12 5.4C108.093 5.42667 108.04 5.48 107.96 5.56C107.907 5.61333 107.88 5.65333 107.88 5.68L107.6 12.32C107.6 12.5067 107.693 12.6 107.88 12.6C107.933 12.5733 108 12.5467 108.08 12.52C108.187 12.4933 108.293 12.4267 108.4 12.32C108.453 12.2933 108.587 12.2133 108.8 12.08C109.013 11.92 109.147 11.8267 109.2 11.8H109.48C109.533 11.8267 109.667 11.92 109.88 12.08C110.093 12.2133 110.227 12.2933 110.28 12.32C110.387 12.4533 110.587 12.68 110.88 13C111.173 13.2933 111.493 13.6133 111.84 13.96C112.187 14.3067 112.507 14.6267 112.8 14.92C113.12 15.2133 113.347 15.4133 113.48 15.52V15.68ZM86.04 5.84C86.04 6.66667 85.7867 7.38667 85.28 8C84.7733 8.58666 84.08 8.88 83.2 8.88C82.64 8.88 82.0133 8.58666 81.32 8C80.6267 7.38667 79.9733 6.69333 79.36 5.92C78.7467 5.12 78.2267 4.33333 77.8 3.56C77.4 2.76 77.2 2.17333 77.2 1.8C77.2 1.66667 77.2533 1.57333 77.36 1.52C77.4933 1.46667 77.6267 1.42666 77.76 1.4C77.92 1.37333 78.0667 1.37333 78.2 1.4C78.3333 1.4 78.4267 1.4 78.48 1.4C79.1733 1.4 79.96 1.46667 80.84 1.6C81.72 1.73333 82.5467 1.97333 83.32 2.32C84.0933 2.64 84.7333 3.09333 85.24 3.68C85.7733 4.24 86.04 4.96 86.04 5.84ZM82.48 5.68C82.48 5.28 82.5333 4.92 82.64 4.6C82.7733 4.28 82.84 3.92 82.84 3.52C82.84 2.98666 82.72 2.62667 82.48 2.44C82.2667 2.25333 81.88 2.16 81.32 2.16L80.68 2.2C80.8133 2.49333 80.9733 2.68 81.16 2.76C81.3467 2.84 81.52 2.92 81.68 3C81.84 3.08 81.9733 3.2 82.08 3.36C82.2133 3.49333 82.28 3.77333 82.28 4.2C82.28 4.49333 82.2267 4.74666 82.12 4.96C82.0133 5.17333 81.96 5.41333 81.96 5.68H82.48ZM97.8 3.48C97.56 3.48 97.3733 3.57333 97.24 3.76C97.1067 3.92 97 4.10667 96.92 4.32C96.9467 4.34667 97 4.36 97.08 4.36C97.1333 4.36 97.1733 4.34667 97.2 4.32C97.36 4.24 97.4933 4.13333 97.6 4C97.7333 3.84 97.8 3.66667 97.8 3.48ZM102.28 8.08C102.44 8.08 102.547 8.01333 102.6 7.88C102.68 7.72 102.747 7.56 102.8 7.4C102.88 7.24 102.96 7.09333 103.04 6.96C103.147 6.8 103.32 6.72 103.56 6.72C104.067 6.72 104.56 6.77333 105.04 6.88C105.547 6.96 106.053 7 106.56 7C106.667 7 106.76 7 106.84 7C106.947 6.97333 107.027 6.88 107.08 6.72C106.92 6.02667 106.68 5.62666 106.36 5.52C106.04 5.41333 105.653 5.36 105.2 5.36C104.8 5.36 104.467 5.42666 104.2 5.56C103.96 5.66666 103.72 5.8 103.48 5.96C103.24 6.12 103 6.28 102.76 6.44C102.52 6.57333 102.227 6.66667 101.88 6.72V4.88H95.32V13.76C95.3467 13.76 95.4133 13.76 95.52 13.76C95.6267 13.7333 95.7333 13.7067 95.84 13.68C95.9467 13.6533 96.04 13.6267 96.12 13.6C96.2267 13.5467 96.28 13.48 96.28 13.4V10.2C96.28 10.1733 96.4 10.0933 96.64 9.96C96.88 9.8 97.0667 9.70667 97.2 9.68C97.4933 9.57333 97.8267 9.42667 98.2 9.24C98.6 9.02667 99 8.81333 99.4 8.6C99.8 8.38667 100.2 8.2 100.6 8.04C101.027 7.88 101.4 7.8 101.72 7.8C101.747 7.8 101.787 7.84 101.84 7.92C101.92 8 101.973 8.05333 102 8.08H102.28ZM96.4 6.48C96.48 6.45333 96.6133 6.44 96.8 6.44C97.4133 6.44 97.9867 6.6 98.52 6.92C99.08 7.21333 99.6133 7.50667 100.12 7.8C99.96 7.93333 99.7067 8.08 99.36 8.24C99.04 8.4 98.6933 8.56 98.32 8.72C97.9467 8.85333 97.5733 8.97333 97.2 9.08C96.8533 9.16 96.5867 9.2 96.4 9.2V6.48ZM100.4 13.4C100.4 13.56 100.493 13.6533 100.68 13.68C100.893 13.68 101.027 13.68 101.08 13.68C101.32 13.68 101.48 13.6133 101.56 13.48C101.667 13.32 101.733 13.1467 101.76 12.96C101.787 12.7467 101.787 12.5333 101.76 12.32C101.76 12.1067 101.76 11.9333 101.76 11.8C101.76 11.72 101.76 11.5733 101.76 11.36C101.787 11.12 101.773 10.88 101.72 10.64C101.693 10.3733 101.627 10.1467 101.52 9.96C101.44 9.74667 101.293 9.64 101.08 9.64C101 9.64 100.947 9.65333 100.92 9.68C100.84 9.73333 100.733 9.82666 100.6 9.96C100.467 10.0933 100.4 10.1733 100.4 10.2V13.4ZM78 16.08C77.9467 16.1067 77.8133 16.16 77.6 16.24C77.3867 16.2933 77.2533 16.32 77.2 16.32C77.1733 16.3467 77.1333 16.36 77.08 16.36C77 16.36 76.9467 16.3467 76.92 16.32C76.84 16.0267 76.6533 15.6133 76.36 15.08C76.0667 14.52 75.76 13.96 75.44 13.4C75.1467 12.8133 74.8667 12.2667 74.6 11.76C74.36 11.2267 74.24 10.84 74.24 10.6C74.24 10.52 74.2533 10.48 74.28 10.48C74.3333 10.32 74.4133 10.2267 74.52 10.2L75.72 10.16C76.36 10.16 77.0667 10.24 77.84 10.4C78.64 10.56 79.3867 10.8267 80.08 11.2C80.7733 11.5467 81.36 12 81.84 12.56C82.32 13.12 82.56 13.8 82.56 14.6C82.56 15.4533 82.24 16.1467 81.6 16.68C80.9867 17.1867 80.28 17.44 79.48 17.44C79.4267 17.44 79.3067 17.44 79.12 17.44C78.9333 17.44 78.7333 17.44 78.52 17.44C78.3067 17.4133 78.12 17.3733 77.96 17.32C77.8 17.24 77.72 17.1333 77.72 17V16.88C77.7467 16.8533 77.8 16.76 77.88 16.6C77.96 16.44 78 16.3467 78 16.32V16.08ZM77.48 11.4C77.48 11.2933 77.4667 11.1733 77.44 11.04C77.44 10.88 77.36 10.7733 77.2 10.72C77.04 10.7733 76.9467 10.88 76.92 11.04C76.92 11.1733 76.92 11.2933 76.92 11.4C76.92 11.5067 76.92 11.64 76.92 11.8C76.9467 11.9333 77.04 12.0267 77.2 12.08C77.36 12.0267 77.44 11.9333 77.44 11.8C77.4667 11.64 77.48 11.5067 77.48 11.4ZM88.8 11.52C89.04 11.52 89.2267 11.5733 89.36 11.68C89.4933 11.7867 89.5867 11.92 89.64 12.08C89.72 12.24 89.76 12.4133 89.76 12.6C89.7867 12.7867 89.8 12.96 89.8 13.12C89.8 13.2 89.7867 13.3467 89.76 13.56C89.76 13.7467 89.7467 13.8667 89.72 13.92C89.5333 13.84 89.3867 13.7067 89.28 13.52C89.2 13.3333 89.1333 13.12 89.08 12.88C89.0267 12.64 88.9733 12.4 88.92 12.16C88.8667 11.92 88.7867 11.7067 88.68 11.52H88.8ZM107.32 17.68C107.453 17.68 107.52 17.5867 107.52 17.4C107.52 17.2133 107.453 17.12 107.32 17.12C107.187 17.12 107.12 17.2133 107.12 17.4C107.12 17.5867 107.187 17.68 107.32 17.68ZM104.48 20.92C104.48 20.7067 104.467 20.4667 104.44 20.2C104.413 19.9333 104.307 19.7067 104.12 19.52C103.96 19.5733 103.867 19.68 103.84 19.84C103.84 19.9733 103.84 20.0933 103.84 20.2C103.84 20.68 104.053 20.92 104.48 20.92ZM102.52 20.32H95.08V22.72C95.08 22.7733 95.12 22.84 95.2 22.92C95.28 22.9733 95.3733 23.0267 95.48 23.08C95.5867 23.16 95.72 23.2267 95.88 23.28C95.64 23.4133 95.3733 23.52 95.08 23.6C94.8133 23.68 94.56 23.7733 94.32 23.88C94.08 23.96 93.8533 24.08 93.64 24.24C93.4533 24.3733 93.3067 24.5867 93.2 24.88C93.28 24.9333 93.4533 25 93.72 25.08C93.9867 25.1333 94.1733 25.1467 94.28 25.12C94.36 25.12 94.4933 25.04 94.68 24.88C94.8933 24.6933 95.0267 24.56 95.08 24.48H98.52C98.7067 24.2133 98.8667 24.0267 99 23.92C99.16 23.8133 99.36 23.76 99.6 23.76L99.88 23.8C99.9067 23.8 99.9733 23.84 100.08 23.92C100.187 23.9733 100.293 24.0267 100.4 24.08C100.507 24.1333 100.613 24.1867 100.72 24.24C100.827 24.2933 100.893 24.32 100.92 24.32C100.947 24.3467 101 24.36 101.08 24.36C101.16 24.36 101.2 24.3467 101.2 24.32C101.307 24.2933 101.4 24.2133 101.48 24.08V23.8C101.427 23.7467 101.333 23.6533 101.2 23.52C101.067 23.3867 100.973 23.3067 100.92 23.28L102.28 23C102.307 22.9733 102.347 22.9333 102.4 22.88C102.48 22.8 102.52 22.7467 102.52 22.72V20.32ZM107.88 24.6H107.52C107.52 24.7333 107.533 24.8933 107.56 25.08C107.613 25.24 107.72 25.3467 107.88 25.4V24.6ZM92.2 24.96C91.88 24.96 91.5067 25.0267 91.08 25.16C90.6533 25.2933 90.44 25.5867 90.44 26.04C91.0533 26.04 91.4933 26.0133 91.76 25.96C92.0533 25.9067 92.2 25.5733 92.2 24.96ZM102.28 28.08C102.307 28.0533 102.347 28.0267 102.4 28C102.48 27.92 102.52 27.8533 102.52 27.8C102.573 27.72 102.627 27.5867 102.68 27.4C102.76 27.1867 102.8 27.0533 102.8 27C102.8 26.9467 102.787 26.8533 102.76 26.72C102.76 26.56 102.747 26.4 102.72 26.24C102.693 26.0533 102.653 25.8933 102.6 25.76C102.573 25.6 102.547 25.48 102.52 25.4C102.52 25.3467 102.48 25.2933 102.4 25.24C102.347 25.16 102.307 25.12 102.28 25.12H95.08V28.08H102.28ZM82 27.8H81.72V28.08H82V27.8ZM82.28 34.2C82.36 34.1733 82.4 34.1333 82.4 34.08C82.4 34 82.36 33.9467 82.28 33.92C82.2 33.92 82.16 33.9733 82.16 34.08C82.16 34.1867 82.2 34.2267 82.28 34.2ZM94 34.12C93.76 34.12 93.5867 34.24 93.48 34.48H94V34.12ZM91.6 36.48C91.6 36.64 91.6533 36.8 91.76 36.96C91.8667 37.1467 91.9867 37.2933 92.12 37.4L92.16 36.88C92.16 36.7733 92.16 36.6133 92.16 36.4C92.16 36.2133 92.0667 36.1067 91.88 36.08C91.72 36.1333 91.6267 36.2133 91.6 36.32V36.48ZM102.84 36.6C102.84 36.4933 102.827 36.4 102.8 36.32C102.533 36.32 102.347 36.4133 102.24 36.6C102.16 36.8133 102.12 37.0133 102.12 37.2C102.6 37.2 102.84 37 102.84 36.6ZM147.32 6.72C147.427 7.2 147.64 7.68 147.96 8.16C148.307 8.64 148.68 9.10666 149.08 9.56C149.507 9.98667 149.92 10.3733 150.32 10.72C150.747 11.0667 151.08 11.3333 151.32 11.52C151.08 11.76 150.747 12.1067 150.32 12.56C149.893 13.0133 149.427 13.4667 148.92 13.92C148.44 14.3467 147.947 14.7333 147.44 15.08C146.933 15.4 146.467 15.56 146.04 15.56C145.827 15.56 145.627 15.56 145.44 15.56C145.28 15.5333 145.107 15.44 144.92 15.28C144.76 15.2533 144.48 15.2267 144.08 15.2C143.68 15.1733 143.253 15.1467 142.8 15.12C142.347 15.0933 141.92 15.0667 141.52 15.04C141.12 15.0133 140.84 15 140.68 15C140.6 15 140.44 14.9867 140.2 14.96C139.987 14.9333 139.747 14.9067 139.48 14.88C139.213 14.8267 138.96 14.7867 138.72 14.76C138.48 14.7333 138.333 14.72 138.28 14.72C138.227 14.72 138.08 14.7733 137.84 14.88C137.627 14.96 137.507 15 137.48 15H137.2C137.147 15.0267 137.08 15.08 137 15.16C136.947 15.2133 136.92 15.2533 136.92 15.28V18.2L137.2 18.48L138.6 18.52C138.707 18.52 138.867 18.52 139.08 18.52C139.293 18.52 139.507 18.52 139.72 18.52C139.96 18.4933 140.16 18.48 140.32 18.48C140.507 18.48 140.627 18.48 140.68 18.48C140.787 18.4533 140.973 18.4133 141.24 18.36C141.533 18.28 141.693 18.2267 141.72 18.2L144.12 15.8C144.2 15.7467 144.467 15.8667 144.92 16.16C145.373 16.4533 145.853 16.8 146.36 17.2C146.893 17.6 147.373 18 147.8 18.4C148.227 18.8 148.44 19.0933 148.44 19.28C148.44 19.3867 148.427 19.4667 148.4 19.52C148.32 19.4933 148.08 19.3467 147.68 19.08C147.307 18.7867 146.893 18.48 146.44 18.16C146.013 17.84 145.613 17.5467 145.24 17.28C144.893 17.0133 144.707 16.88 144.68 16.88C144.653 16.88 144.6 16.92 144.52 17C144.467 17.0533 144.427 17.0933 144.4 17.12V17.4C144.4 17.4267 144.427 17.4933 144.48 17.6C144.56 17.7067 144.627 17.8267 144.68 17.96C144.733 18.0667 144.787 18.1733 144.84 18.28C144.893 18.3867 144.92 18.4533 144.92 18.48C144.947 18.5333 144.987 18.64 145.04 18.8C145.093 18.9333 145.147 19.0933 145.2 19.28C145.28 19.44 145.333 19.6 145.36 19.76C145.413 19.8933 145.453 20 145.48 20.08H137.48L137.2 19.8C137.067 19.8533 136.973 19.9467 136.92 20.08C136.867 20.1867 136.813 20.32 136.76 20.48C136.733 20.6133 136.707 20.7467 136.68 20.88C136.68 21.0133 136.68 21.0933 136.68 21.12C136.493 21.4667 136.16 21.7333 135.68 21.92C135.227 22.1067 134.72 22.24 134.16 22.32C133.627 22.4 133.093 22.4533 132.56 22.48C132.027 22.48 131.613 22.48 131.32 22.48H130.52C130.493 22 130.453 21.6267 130.4 21.36C130.373 21.0933 130.28 20.8933 130.12 20.76C129.987 20.6 129.787 20.4933 129.52 20.44C129.253 20.3867 128.88 20.3467 128.4 20.32C128.453 20.08 128.427 19.9333 128.32 19.88C128.24 19.8267 128.133 19.8133 128 19.84C127.867 19.84 127.733 19.8667 127.6 19.92C127.467 19.9733 127.373 20 127.32 20V20.32H120.12L120 20.2C119.92 20.1733 119.88 20.1333 119.88 20.08L119.6 19.28V19C119.627 18.9467 119.667 18.8667 119.72 18.76C119.8 18.6533 119.853 18.6 119.88 18.6H124.12C124.147 18.6 124.24 18.4933 124.4 18.28C124.587 18.0667 124.773 17.84 124.96 17.6C125.173 17.36 125.347 17.1333 125.48 16.92C125.64 16.7067 125.72 16.6 125.72 16.6C125.907 16.3867 126.027 16.24 126.08 16.16C126.16 16.08 126.307 16.04 126.52 16.04C126.893 16.04 127.213 16.1467 127.48 16.36C127.773 16.5733 128.053 16.8133 128.32 17.08C128.613 17.3467 128.907 17.5867 129.2 17.8C129.52 18.0133 129.88 18.12 130.28 18.12V15.4H121.48L120.92 15C120.867 15.0533 120.773 15.1467 120.64 15.28C120.507 15.3867 120.347 15.5067 120.16 15.64C120 15.7467 119.827 15.8533 119.64 15.96C119.48 16.04 119.333 16.08 119.2 16.08C118.96 16.08 118.827 15.9867 118.8 15.8C118.773 15.5867 118.76 15.4 118.76 15.24C118.76 14.8933 118.84 14.5867 119 14.32C119.187 14.0267 119.373 13.7467 119.56 13.48C119.773 13.1867 119.96 12.8933 120.12 12.6C120.307 12.28 120.4 11.92 120.4 11.52C120.4 11.3333 120.307 11.16 120.12 11C119.96 10.8133 119.787 10.72 119.6 10.72C119.44 10.72 119.213 10.8 118.92 10.96C118.653 11.12 118.387 11.3067 118.12 11.52C117.88 11.7333 117.653 11.96 117.44 12.2C117.253 12.44 117.16 12.6533 117.16 12.84C117.16 13.1867 117.253 13.5067 117.44 13.8C117.653 14.0667 117.76 14.3733 117.76 14.72C117.76 14.9333 117.707 15.12 117.6 15.28C117.493 15.44 117.44 15.6133 117.44 15.8C117.44 16.0133 117.467 16.1733 117.52 16.28C117.6 16.3867 117.76 16.4933 118 16.6C117.92 16.6267 117.787 16.64 117.6 16.64C117.227 16.64 116.867 16.56 116.52 16.4C116.173 16.2133 115.867 15.9867 115.6 15.72C115.36 15.4267 115.16 15.1067 115 14.76C114.867 14.4133 114.8 14.0533 114.8 13.68C114.8 13.12 114.933 12.64 115.2 12.24C115.493 11.84 115.827 11.48 116.2 11.16C116.6 10.8133 117.013 10.48 117.44 10.16C117.867 9.84 118.227 9.49333 118.52 9.12C118.733 8.90667 118.853 8.61333 118.88 8.24C118.933 7.84 118.973 7.45333 119 7.08C119.053 6.68 119.133 6.34666 119.24 6.08C119.347 5.78667 119.56 5.64 119.88 5.64C120.28 5.64 120.56 5.86667 120.72 6.32C120.907 6.74667 121 7.12 121 7.44C120.547 7.44 120.187 7.46667 119.92 7.52C119.68 7.57333 119.56 7.82666 119.56 8.28L119.6 8.6L121.2 9.4C121.227 9.4 121.267 9.37333 121.32 9.32C121.4 9.24 121.453 9.17333 121.48 9.12V8.88C121.453 8.82667 121.4 8.69333 121.32 8.48C121.24 8.24 121.2 8.10666 121.2 8.08V7.8L121.72 8.08H130.28V5.28H119.32C119.267 5.22666 119.227 5.17333 119.2 5.12C119.173 5.06667 119.147 5.02667 119.12 5C119.093 4.97333 119.08 4.93333 119.08 4.88L118.8 4.08V3.8C118.827 3.74666 118.867 3.66666 118.92 3.56C119 3.45333 119.053 3.4 119.08 3.4H141.2C141.52 3.4 141.8 3.24 142.04 2.92C142.307 2.6 142.547 2.25333 142.76 1.88C143 1.48 143.24 1.12 143.48 0.799999C143.747 0.479999 144.053 0.319998 144.4 0.319998C144.613 0.319998 145 0.479999 145.56 0.799999C146.12 1.12 146.693 1.50666 147.28 1.96C147.867 2.38666 148.387 2.82666 148.84 3.28C149.293 3.73333 149.52 4.08 149.52 4.32C149.52 4.48 149.48 4.61333 149.4 4.72C149.32 4.82667 149.16 4.88 148.92 4.88V4.44L148.68 4.32C148.6 4.4 148.453 4.56 148.24 4.8C148.053 5.04 147.933 5.2 147.88 5.28H136.92V8.08H145.72L147.32 6.72ZM134.36 4C133.96 4 133.733 4.16 133.68 4.48C133.653 4.8 133.64 5.13333 133.64 5.48C134.04 5.48 134.253 5.32 134.28 5C134.333 4.68 134.36 4.34667 134.36 4ZM136.68 4.48C136.68 4.24 136.56 4.10667 136.32 4.08C136.107 4.02666 135.933 4 135.8 4C135.8 4.13333 135.813 4.32 135.84 4.56C135.893 4.77333 136.04 4.88 136.28 4.88H136.4C136.507 4.8 136.6 4.70666 136.68 4.6V4.48ZM153.2 10.2C153.2 10.3067 153.187 10.4133 153.16 10.52C153.16 10.6267 153.08 10.6933 152.92 10.72L152.68 10.2L148.92 6.48C148.76 6.34666 148.573 6.25333 148.36 6.2C148.147 6.14666 147.947 6.12 147.76 6.12C147.76 5.98666 147.853 5.88 148.04 5.8C148.253 5.72 148.373 5.68 148.4 5.68C148.747 5.68 149.147 5.85333 149.6 6.2C150.053 6.54667 150.493 6.94667 150.92 7.4C151.373 7.85333 151.8 8.32 152.2 8.8C152.6 9.28 152.933 9.65333 153.2 9.92V10.2ZM134.08 9.48C134.08 9.42667 134.08 9.30667 134.08 9.12C134.107 8.90667 134.107 8.69333 134.08 8.48C134.08 8.24 134.053 8.01333 134 7.8C133.947 7.56 133.853 7.38667 133.72 7.28C133.48 7.38667 133.333 7.6 133.28 7.92C133.227 8.24 133.2 8.52 133.2 8.76C133.2 9.05333 133.267 9.25333 133.4 9.36C133.56 9.44 133.787 9.48 134.08 9.48ZM142.76 11.52C142.973 11.52 143.16 11.5733 143.32 11.68C143.507 11.76 143.68 11.8533 143.84 11.96C144.027 12.04 144.2 12.1333 144.36 12.24C144.547 12.32 144.747 12.36 144.96 12.36C145.253 12.36 145.413 12.2133 145.44 11.92C145.467 11.6 145.48 11.3333 145.48 11.12C145.48 11.04 145.48 10.88 145.48 10.64C145.507 10.3733 145.413 10.2267 145.2 10.2C145.04 10.1733 144.76 10.1467 144.36 10.12C143.96 10.0667 143.533 10.0267 143.08 10C142.627 9.97333 142.187 9.96 141.76 9.96C141.36 9.93333 141.08 9.92 140.92 9.92C140.787 9.92 140.52 9.93333 140.12 9.96C139.747 9.98667 139.347 10.0133 138.92 10.04C138.493 10.0667 138.093 10.0933 137.72 10.12C137.347 10.1467 137.08 10.1733 136.92 10.2V13.4H140.4L142.52 11.52H142.76ZM130.28 10.2H122.28L122 10.48C122 10.48 121.987 10.5733 121.96 10.76C121.933 10.9467 121.907 11.1733 121.88 11.44C121.853 11.68 121.827 11.9333 121.8 12.2C121.773 12.4667 121.747 12.6933 121.72 12.88V13.12C121.747 13.1733 121.787 13.24 121.84 13.32C121.92 13.3733 121.973 13.4 122 13.4H124.68L126.8 11.28C126.827 11.2533 126.867 11.24 126.92 11.24C127.24 11.24 127.52 11.3467 127.76 11.56C128.027 11.7733 128.293 12 128.56 12.24C128.827 12.48 129.093 12.7067 129.36 12.92C129.627 13.1333 129.933 13.24 130.28 13.24V10.2ZM125.6 15C125.707 15 125.827 14.88 125.96 14.64C126.093 14.3733 126.227 14.0667 126.36 13.72C126.493 13.3733 126.6 13.0533 126.68 12.76C126.787 12.44 126.84 12.2133 126.84 12.08C126.84 11.9467 126.827 11.8533 126.8 11.8C126.693 11.8533 126.533 12.0133 126.32 12.28C126.133 12.5467 125.933 12.84 125.72 13.16C125.507 13.48 125.32 13.7867 125.16 14.08C125 14.3467 124.92 14.52 124.92 14.6V14.72C124.947 14.7467 125.027 14.8 125.16 14.88C125.293 14.9333 125.4 14.9733 125.48 15H125.6ZM134.8 20.48C134.8 20.1867 134.667 19.84 134.4 19.44C134.16 19.0133 133.853 18.7733 133.48 18.72C133.453 18.7467 133.44 18.8 133.44 18.88C133.44 19.04 133.493 19.2133 133.6 19.4C133.733 19.56 133.867 19.72 134 19.88C134.16 20.04 134.307 20.1867 134.44 20.32C134.6 20.4533 134.72 20.5467 134.8 20.6V20.48ZM121.2 19.52C120.987 19.6533 120.88 19.84 120.88 20.08H121.2V19.52ZM143.2 21.12C143.573 21.12 144 21.2667 144.48 21.56C144.96 21.8533 145.44 22.2133 145.92 22.64C146.4 23.04 146.853 23.4533 147.28 23.88C147.733 24.3067 148.107 24.64 148.4 24.88C148.427 24.96 148.44 25.0933 148.44 25.28C148.44 25.6267 148.28 25.88 147.96 26.04C147.64 26.2 147.347 26.3467 147.08 26.48C146.787 25.6533 146.333 25.0267 145.72 24.6L145.48 24.88C145.453 24.88 145.44 25 145.44 25.24C145.44 25.4533 145.44 25.6133 145.44 25.72C145.44 25.88 145.44 26.1733 145.44 26.6C145.467 27.0267 145.493 27.4667 145.52 27.92C145.573 28.3733 145.64 28.7867 145.72 29.16C145.827 29.5067 145.96 29.68 146.12 29.68H146.28L146.8 29.12C146.907 29.0667 147 29.04 147.08 29.04V37.4C147.08 37.7733 146.867 38.08 146.44 38.32C146.013 38.56 145.507 38.7467 144.92 38.88C144.36 39.04 143.8 39.1467 143.24 39.2C142.68 39.2533 142.267 39.28 142 39.28H140.92C140.893 39.2533 140.84 39.2 140.76 39.12C140.707 39.0667 140.68 39.0267 140.68 39C140.653 38.9467 140.613 38.84 140.56 38.68C140.533 38.52 140.507 38.3333 140.48 38.12C140.453 37.9333 140.427 37.76 140.4 37.6C140.4 37.44 140.4 37.3333 140.4 37.28H125.2V36.12C124.907 36.12 124.707 36.2 124.6 36.36C124.52 36.52 124.453 36.7733 124.4 37.12H119.76C119.76 36.9333 119.72 36.8 119.64 36.72C119.56 36.64 119.48 36.5733 119.4 36.52C119.32 36.4933 119.24 36.4533 119.16 36.4C119.08 36.3467 119.04 36.24 119.04 36.08C119.04 36 119.053 35.88 119.08 35.72C119.107 35.5867 119.187 35.52 119.32 35.52H136.4L136.12 36.08V36.32C136.227 36.48 136.32 36.5733 136.4 36.6L137.6 36.64C138.107 36.64 138.533 36.5867 138.88 36.48C139.227 36.3733 139.64 36.32 140.12 36.32C140.6 36.32 140.947 36.4133 141.16 36.6C141.4 36.8133 141.6 37.04 141.76 37.28C141.947 37.52 142.133 37.7333 142.32 37.92C142.507 38.1333 142.8 38.24 143.2 38.24C143.653 38.24 144.04 38.1067 144.36 37.84C144.707 37.6 145.013 37.2933 145.28 36.92C145.547 36.5733 145.8 36.2 146.04 35.8C146.28 35.4 146.533 35.04 146.8 34.72C146.72 34.6133 146.547 34.4533 146.28 34.24C146.013 34 145.72 33.76 145.4 33.52C145.08 33.28 144.773 33.0533 144.48 32.84C144.187 32.6 143.987 32.4267 143.88 32.32L143.6 32.28C143.2 32.28 142.893 32.4533 142.68 32.8C142.493 33.1467 142.307 33.5333 142.12 33.96C141.96 34.36 141.76 34.7333 141.52 35.08C141.28 35.4267 140.907 35.6 140.4 35.6V31.4H122.28C122.28 31.32 122.253 31.2 122.2 31.04C122.173 30.8533 122.12 30.68 122.04 30.52C121.96 30.36 121.853 30.2267 121.72 30.12C121.613 29.9867 121.48 29.92 121.32 29.92C121.053 29.92 120.907 30.08 120.88 30.4C120.853 30.72 120.84 30.96 120.84 31.12C120.707 31.12 120.6 31.04 120.52 30.88C120.467 30.72 120.413 30.5467 120.36 30.36C120.333 30.1733 120.32 30 120.32 29.84C120.32 29.6533 120.32 29.5467 120.32 29.52H140.4V25.52H128.2C128.2 25.04 128.067 24.72 127.8 24.56C127.56 24.4 127.227 24.32 126.8 24.32C126.64 24.32 126.413 24.32 126.12 24.32C125.853 24.32 125.72 24.4533 125.72 24.72V24.88L126 25.4H121.2C121.12 25.08 120.947 24.8 120.68 24.56C120.44 24.32 120.147 24.2 119.8 24.2L119.88 24.08C119.88 24.0267 119.893 23.9867 119.92 23.96C119.947 23.9333 119.973 23.8933 120 23.84C120.027 23.7867 120.067 23.7333 120.12 23.68H140.68L143.08 21.12H143.2ZM144.4 22.72C144.293 22.48 144.16 22.3333 144 22.28C143.867 22.2 143.693 22.16 143.48 22.16C143.293 22.16 143.16 22.1733 143.08 22.2V22.72H144.4ZM136.12 24.6C135.907 24.7333 135.8 24.9067 135.8 25.12H136.12V24.6ZM120.12 25.4C120.013 25.3733 119.933 25.28 119.88 25.12C119.853 25.12 119.84 25.08 119.84 25C119.84 24.9467 119.853 24.9067 119.88 24.88L120.4 25.4H120.12ZM143.88 25.92C143.8 25.7867 143.707 25.7067 143.6 25.68C143.573 25.6533 143.533 25.64 143.48 25.64C143.4 25.64 143.347 25.6533 143.32 25.68L143.2 25.8C143.147 25.8533 143.12 25.88 143.12 25.88L143.08 25.92C143.027 26 142.96 26.1067 142.88 26.24C142.8 26.3733 142.72 26.5067 142.64 26.64C142.56 26.7733 142.48 26.9067 142.4 27.04C142.32 27.1733 142.28 27.2533 142.28 27.28C142.253 27.28 142.24 27.32 142.24 27.4C142.24 27.4533 142.253 27.4933 142.28 27.52C142.307 27.52 142.4 27.4667 142.56 27.36C142.72 27.2533 142.893 27.12 143.08 26.96C143.293 26.8 143.48 26.64 143.64 26.48C143.8 26.32 143.88 26.1867 143.88 26.08V25.92ZM137.48 29.92H137.2V30.2H137.48V29.92ZM128.72 30.8C128.72 30.4533 128.587 30.2533 128.32 30.2C128.053 30.1467 127.773 30.12 127.48 30.12C127.48 30.4133 127.627 30.6 127.92 30.68C128.24 30.76 128.507 30.8 128.72 30.8ZM132.92 36.08V36.32L133.2 36.08H132.92ZM193.48 19C193.4 19.1067 193.307 19.2 193.2 19.28C193.147 19.12 193.04 18.9333 192.88 18.72C192.747 18.48 192.587 18.2667 192.4 18.08C192.213 17.8933 192.013 17.7333 191.8 17.6C191.587 17.4667 191.387 17.4 191.2 17.4C190.933 17.4 190.493 17.48 189.88 17.64C189.293 17.7733 188.693 17.9467 188.08 18.16C187.493 18.3733 186.973 18.6267 186.52 18.92C186.067 19.1867 185.84 19.44 185.84 19.68H178C177.787 19.68 177.613 19.7867 177.48 20C177.373 20.1867 177.28 20.4133 177.2 20.68C177.147 20.92 177.107 21.16 177.08 21.4C177.08 21.64 177.08 21.8133 177.08 21.92H185.72C185.853 21.92 186.013 21.8267 186.2 21.64C186.387 21.4533 186.573 21.24 186.76 21C186.947 20.76 187.12 20.52 187.28 20.28C187.44 20.0133 187.547 19.8133 187.6 19.68H189.48C189.533 19.8133 189.573 19.9333 189.6 20.04C189.627 20.1467 189.64 20.2533 189.64 20.36C189.667 20.4667 189.693 20.5467 189.72 20.6C189.747 20.6267 189.76 20.6667 189.76 20.72L189.72 20.88C189.64 20.8267 189.467 20.7333 189.2 20.6C188.933 20.4667 188.76 20.3733 188.68 20.32H188.4C188.533 20.6933 188.707 21.04 188.92 21.36C189.133 21.68 189.347 21.9867 189.56 22.28C189.773 22.5733 189.947 22.88 190.08 23.2C190.24 23.52 190.32 23.88 190.32 24.28C190.32 24.5733 190.28 24.8267 190.2 25.04C190.147 25.2533 190.08 25.4667 190 25.68C189.92 25.8667 189.84 26.0667 189.76 26.28C189.707 26.4933 189.68 26.7333 189.68 27L189.72 27.8L190.52 28.08H190.8C190.853 28.0533 190.947 28.0133 191.08 27.96C191.213 27.88 191.293 27.8267 191.32 27.8L191.36 28.32C191.36 29.5733 191.2 30.84 190.88 32.12C190.587 33.4 190.107 34.5467 189.44 35.56C188.8 36.6 187.973 37.44 186.96 38.08C185.947 38.72 184.733 39.04 183.32 39.04L182.28 39C182.04 38.7067 181.867 38.2933 181.76 37.76C181.68 37.2533 181.573 36.7467 181.44 36.24C181.333 35.76 181.147 35.3333 180.88 34.96C180.613 34.5867 180.187 34.4 179.6 34.4C179.547 34.4 179.453 34.4133 179.32 34.44C179.187 34.44 179.107 34.4533 179.08 34.48C178.707 34.6933 178.16 35.0533 177.44 35.56C176.747 36.0667 176 36.5733 175.2 37.08C174.4 37.6133 173.6 38.0667 172.8 38.44C172.027 38.84 171.373 39.04 170.84 39.04C170.6 39.04 170.387 39.0133 170.2 38.96C170.04 38.9067 169.96 38.7467 169.96 38.48C169.96 38.3467 169.973 38.2533 170 38.2C170.24 38.04 170.573 37.7467 171 37.32C171.427 36.92 171.88 36.4533 172.36 35.92C172.867 35.3867 173.373 34.84 173.88 34.28C174.413 33.6933 174.893 33.1733 175.32 32.72C175.773 32.24 176.133 31.84 176.4 31.52C176.693 31.2 176.867 31.0267 176.92 31C177.267 30.92 177.48 30.9067 177.56 30.96C177.667 30.9867 177.747 31.0133 177.8 31.04C177.853 31.04 177.933 31.0133 178.04 30.96C178.173 30.9067 178.427 30.7467 178.8 30.48C178.827 30.4533 178.84 30.4 178.84 30.32C178.84 30.2667 178.827 30.2267 178.8 30.2C178.773 30.1733 178.693 30.1333 178.56 30.08C178.427 30 178.333 29.9467 178.28 29.92H178C177.947 29.9467 177.853 30 177.72 30.08C177.587 30.1333 177.507 30.1733 177.48 30.2L178.28 28.32C178.28 28.2933 178.267 28.2133 178.24 28.08C178.213 27.9467 178.2 27.8533 178.2 27.8H178C176.24 29.4267 174.48 30.92 172.72 32.28C170.96 33.6133 168.987 34.7867 166.8 35.8C166.747 35.8267 166.653 35.84 166.52 35.84C166.253 35.84 166.067 35.7733 165.96 35.64C165.88 35.5067 165.68 35.44 165.36 35.44C165.36 35.0667 165.56 34.6667 165.96 34.24C166.36 33.7867 166.853 33.32 167.44 32.84C168.053 32.3333 168.707 31.8133 169.4 31.28C170.12 30.72 170.773 30.16 171.36 29.6C171.973 29.04 172.48 28.48 172.88 27.92C173.28 27.3333 173.48 26.76 173.48 26.2V25.92C172.653 26.2667 171.84 26.76 171.04 27.4C170.24 28.0133 169.427 28.64 168.6 29.28C167.773 29.8933 166.92 30.4267 166.04 30.88C165.187 31.3333 164.28 31.56 163.32 31.56C163.187 31.56 163.013 31.5467 162.8 31.52C162.613 31.4933 162.52 31.36 162.52 31.12V31L166 27.52C166.32 27.2 166.72 26.76 167.2 26.2C167.68 25.6133 168.147 25 168.6 24.36C169.08 23.72 169.48 23.0933 169.8 22.48C170.12 21.84 170.28 21.3067 170.28 20.88V19.92H166.8C166.507 19.92 166.293 19.7467 166.16 19.4C166.053 19.0533 166 18.7867 166 18.6V18.48C166.027 18.4 166.067 18.32 166.12 18.24C166.2 18.1333 166.253 18.08 166.28 18.08H184.92C185.107 18.08 185.28 17.96 185.44 17.72C185.6 17.4533 185.693 17.2533 185.72 17.12C185.747 17.0933 185.747 17.0133 185.72 16.88C185.72 16.8 185.707 16.7467 185.68 16.72H183.32C183.267 16.6933 183.227 16.6533 183.2 16.6C183.173 16.5467 183.147 16.5067 183.12 16.48C183.093 16.4267 183.08 16.3733 183.08 16.32C183.053 16.2933 183 16.1733 182.92 15.96C182.867 15.72 182.827 15.5733 182.8 15.52C182.773 15.4667 182.72 15.3867 182.64 15.28C182.587 15.1733 182.547 15.12 182.52 15.12H177.48L176.68 14.2H176.56C176.427 14.2 176.32 14.2933 176.24 14.48C176.16 14.64 176.08 14.84 176 15.08C175.92 15.32 175.827 15.56 175.72 15.8C175.64 16.04 175.507 16.2133 175.32 16.32C174.68 16.72 173.987 17.0133 173.24 17.2C172.493 17.36 171.747 17.44 171 17.44L170.28 17.4L170 16.88V13.68C170 13.52 169.933 13.44 169.8 13.44C169.693 13.4133 169.6 13.4 169.52 13.4H169.2C169.04 13.4 168.76 13.4133 168.36 13.44C167.96 13.44 167.533 13.4533 167.08 13.48C166.627 13.5067 166.187 13.5467 165.76 13.6C165.36 13.6267 165.08 13.6533 164.92 13.68V21.56C165.693 21.56 166.36 21.4667 166.92 21.28C167.507 21.0667 168.173 20.84 168.92 20.6C169.08 20.6533 169.173 20.7333 169.2 20.84C169.227 20.92 169.24 21.0133 169.24 21.12C169.24 21.2533 169.227 21.3467 169.2 21.4C168.533 22.2533 167.853 23.0133 167.16 23.68C166.493 24.32 165.747 24.9867 164.92 25.68C165.027 25.3067 165.053 25.0667 165 24.96C164.947 24.8533 164.853 24.8133 164.72 24.84C164.587 24.8667 164.44 24.92 164.28 25C164.147 25.08 164.04 25.12 163.96 25.12C163.96 25.1733 163.947 25.2533 163.92 25.36C163.893 25.44 163.867 25.5467 163.84 25.68C163.84 25.7867 163.853 25.8933 163.88 26C163.907 26.1067 163.987 26.1733 164.12 26.2C163.667 26.76 163.173 27.28 162.64 27.76C162.107 28.24 161.56 28.7067 161 29.16C160.44 29.6133 159.88 30.08 159.32 30.56C158.76 31.0133 158.227 31.52 157.72 32.08H157.2L155.6 28.88C155.547 28.7733 155.453 28.5867 155.32 28.32C155.187 28.0267 155.04 27.72 154.88 27.4C154.747 27.08 154.613 26.7867 154.48 26.52C154.373 26.2267 154.307 26.0267 154.28 25.92C154.253 25.8933 154.24 25.8533 154.24 25.8C154.24 25.72 154.253 25.68 154.28 25.68C154.333 25.52 154.413 25.4267 154.52 25.4C154.653 25.3733 154.867 25.32 155.16 25.24C155.48 25.1333 155.8 25.0267 156.12 24.92C156.467 24.7867 156.787 24.6667 157.08 24.56C157.4 24.4533 157.613 24.3733 157.72 24.32C157.907 24.2667 158.08 24.1867 158.24 24.08C158.427 23.9467 158.52 23.76 158.52 23.52V14.2C158.467 14.1467 158.427 14.08 158.4 14C158.373 13.9467 158.347 13.8933 158.32 13.84C158.293 13.7867 158.28 13.7333 158.28 13.68L158 13.28H155.32C155.267 13.2267 155.227 13.1733 155.2 13.12C155.173 13.0667 155.147 13.0267 155.12 13C155.093 12.9733 155.08 12.9333 155.08 12.88C155.027 12.7733 154.96 12.6267 154.88 12.44C154.827 12.2267 154.8 12.1067 154.8 12.08C154.8 12 154.827 11.92 154.88 11.84C154.96 11.7333 155.027 11.68 155.08 11.68H158L158.4 11.28V4.8C158.64 4.8 158.8 4.86666 158.88 5C158.96 5.10666 159.107 5.16 159.32 5.16C159.56 5.16 159.707 5.10666 159.76 5C159.84 4.86666 159.88 4.69333 159.88 4.48C159.88 4.24 159.84 4.01333 159.76 3.8C159.68 3.58666 159.533 3.41333 159.32 3.28C159.267 3.36 159.16 3.48 159 3.64C158.867 3.8 158.707 3.88 158.52 3.88V1.4C158.52 1.24 158.587 1.16 158.72 1.16C158.853 1.13333 158.96 1.12 159.04 1.12H159.32C159.56 1.14667 159.973 1.18667 160.56 1.24C161.147 1.29333 161.76 1.34666 162.4 1.4C163.04 1.45333 163.653 1.50666 164.24 1.56C164.827 1.61333 165.24 1.65333 165.48 1.68C165.853 1.65333 166.04 1.82666 166.04 2.2C166.04 2.41333 165.96 2.6 165.8 2.76C165.667 2.89333 165.52 3.02666 165.36 3.16C165.2 3.26666 165.04 3.4 164.88 3.56C164.747 3.69333 164.68 3.86667 164.68 4.08V8.32L164.92 8.6C165.133 8.22667 165.413 8.04 165.76 8.04C166.133 8.04 166.453 8.22667 166.72 8.6C167.013 8.97333 167.293 9.38667 167.56 9.84C167.827 10.2667 168.093 10.6667 168.36 11.04C168.653 11.3867 168.973 11.56 169.32 11.56C169.4 11.56 169.453 11.5467 169.48 11.52C169.507 11.52 169.533 11.5067 169.56 11.48C169.613 11.4533 169.667 11.4267 169.72 11.4C169.773 11.3733 169.827 11.3333 169.88 11.28V1.4C169.88 1.24 170 1.16 170.24 1.16C170.48 1.13333 170.627 1.12 170.68 1.12C171 1.12 171.36 1.2 171.76 1.36C172.16 1.49333 172.56 1.66667 172.96 1.88C173.36 2.06666 173.747 2.26667 174.12 2.48C174.493 2.69333 174.813 2.86666 175.08 3L174.8 3.28H175.32C175.88 3.28 176.56 3.26667 177.36 3.24C178.187 3.21333 178.973 3.18667 179.72 3.16C180.493 3.13333 181.147 3.10666 181.68 3.08C182.24 3.02667 182.52 3 182.52 3L185.2 0.599999H185.32C185.72 0.599999 186.213 0.746666 186.8 1.04C187.387 1.33333 187.96 1.69333 188.52 2.12C189.08 2.54666 189.56 2.98666 189.96 3.44C190.36 3.89333 190.56 4.28 190.56 4.6C190.56 4.92 190.44 5.17333 190.2 5.36C189.987 5.54667 189.747 5.73333 189.48 5.92V15.28C189.48 15.6267 189.68 15.9467 190.08 16.24C190.507 16.5067 190.973 16.7733 191.48 17.04C191.987 17.28 192.44 17.5467 192.84 17.84C193.267 18.1333 193.48 18.4667 193.48 18.84V19ZM184.12 3.28C184.12 3.28 184.16 3.22666 184.24 3.12C184.32 3.01333 184.4 2.89333 184.48 2.76C184.56 2.62666 184.64 2.48 184.72 2.32C184.8 2.16 184.867 2.02667 184.92 1.92C184.947 1.92 184.96 1.88 184.96 1.8C184.96 1.74667 184.947 1.70667 184.92 1.68C184.12 1.92 183.72 2.45333 183.72 3.28H184.12ZM182.8 5.12L182.28 4.72H176.92C176.893 4.48 176.773 4.21333 176.56 3.92C176.373 3.6 176.12 3.44 175.8 3.44C175.8 3.65333 175.813 3.86667 175.84 4.08C175.893 4.26666 175.987 4.44 176.12 4.6V8.08H182.8V5.12ZM175.6 5.92L174.28 4.6H174C173.92 4.62666 173.827 4.72 173.72 4.88C174.013 5.78667 173.933 6.50666 173.48 7.04C173.053 7.54667 172.427 7.89333 171.6 8.08V8.68C172 8.68 172.36 8.62666 172.68 8.52C173 8.38666 173.347 8.32 173.72 8.32C174.067 8.32 174.373 8.37333 174.64 8.48C174.933 8.58666 175.253 8.64 175.6 8.64V5.92ZM185.48 6.04C185.48 5.88 185.413 5.77333 185.28 5.72C185.147 5.64 185 5.6 184.84 5.6C184.84 5.81333 184.853 6.05333 184.88 6.32C184.933 6.58667 185.04 6.81333 185.2 7L185.48 6.2V6.04ZM182.8 9.92H176.12V13.12H182.8V9.92ZM188.68 11C188.68 10.8933 188.56 10.8 188.32 10.72C188.107 10.6133 187.853 10.52 187.56 10.44C187.293 10.36 187.027 10.3067 186.76 10.28C186.493 10.2267 186.32 10.2 186.24 10.2C185.92 10.2 185.707 10.36 185.6 10.68C185.493 11 185.44 11.2933 185.44 11.56C185.44 11.8533 185.533 12.0133 185.72 12.04C185.933 12.0667 186.173 12.08 186.44 12.08C186.573 12.08 186.76 12.08 187 12.08C187.267 12.0533 187.52 12.0133 187.76 11.96C188 11.9067 188.213 11.8267 188.4 11.72C188.587 11.6133 188.68 11.4667 188.68 11.28V11ZM166.28 12.72C166.28 12.5067 165.973 12.3067 165.36 12.12C164.773 11.9067 164.107 11.72 163.36 11.56C162.613 11.4 161.893 11.2667 161.2 11.16C160.533 11.0533 160.133 11 160 11C159.893 11 159.72 11.04 159.48 11.12C159.267 11.2 159.04 11.3067 158.8 11.44C158.587 11.5467 158.387 11.68 158.2 11.84C158.04 11.9733 157.96 12.0933 157.96 12.2C157.96 12.28 157.973 12.32 158 12.32C158.107 12.4533 158.24 12.6133 158.4 12.8C158.587 12.9867 158.773 13.1733 158.96 13.36C159.173 13.52 159.387 13.6667 159.6 13.8C159.84 13.9067 160.067 13.96 160.28 13.96C160.333 13.96 160.373 13.9467 160.4 13.92C160.64 13.84 160.88 13.7067 161.12 13.52C161.36 13.3333 161.573 13.1333 161.76 12.92C161.973 12.7067 162.16 12.5067 162.32 12.32C162.507 12.1067 162.667 11.9333 162.8 11.8C163.147 12.0667 163.507 12.36 163.88 12.68C164.28 13 164.707 13.16 165.16 13.16C165.293 13.16 165.507 13.1467 165.8 13.12C166.12 13.0933 166.28 12.96 166.28 12.72ZM191.08 22.2C190.893 22.2 190.827 22.1067 190.88 21.92H190.8C190.667 21.92 190.6 21.84 190.6 21.68H190.52C190.387 21.68 190.32 21.5867 190.32 21.4C190.32 21.2133 190.387 21.12 190.52 21.12C190.653 21.12 190.72 21.2133 190.72 21.4H190.8C190.987 21.4 191.053 21.4933 191 21.68H191.08C191.213 21.68 191.28 21.7733 191.28 21.96C191.28 22.12 191.213 22.2 191.08 22.2ZM191.6 22.48C191.493 22.4 191.4 22.3067 191.32 22.2H191.6C191.68 22.2267 191.773 22.32 191.88 22.48H191.6ZM192.4 23.28C192.267 23.28 192.2 23.1867 192.2 23H192.12C191.987 23 191.92 22.92 191.92 22.76C191.92 22.5733 191.987 22.48 192.12 22.48C192.253 22.48 192.32 22.56 192.32 22.72H192.4C192.533 22.72 192.6 22.8133 192.6 23C192.6 23.1867 192.533 23.28 192.4 23.28ZM187.08 22.72C187.08 22.64 187.027 22.6 186.92 22.6C186.813 22.6 186.773 22.64 186.8 22.72C186.827 22.8 186.867 22.84 186.92 22.84C187 22.84 187.053 22.8 187.08 22.72ZM193.24 23.8C193.24 23.9067 193.227 24 193.2 24.08C193.067 23.9733 192.96 23.8533 192.88 23.72C192.8 23.56 192.733 23.4133 192.68 23.28C192.707 23.2533 192.747 23.24 192.8 23.24C192.96 23.24 193.067 23.3067 193.12 23.44C193.2 23.5467 193.24 23.6667 193.24 23.8ZM183.08 24.32C183 24.1867 182.907 24.1067 182.8 24.08C182.773 24.0533 182.733 24.04 182.68 24.04C182.6 24.04 182.547 24.0533 182.52 24.08V24.32H183.08ZM188.68 25.92C188.627 25.84 188.493 25.72 188.28 25.56C188.093 25.3733 187.893 25.2 187.68 25.04C187.467 24.8533 187.267 24.6933 187.08 24.56C186.92 24.4267 186.827 24.3467 186.8 24.32H186.68C186.387 24.32 186.24 24.48 186.24 24.8C186.24 25.12 186.24 25.36 186.24 25.52C186.24 25.6 186.24 25.7333 186.24 25.92C186.24 26.1067 186.253 26.2 186.28 26.2C186.387 26.4133 186.613 26.6267 186.96 26.84C187.307 27.0267 187.52 27.08 187.6 27L188.68 25.92ZM162.28 24.6H162L162.28 24.88V24.6ZM191.6 25.4V24.88H191.88L191.6 25.4ZM184.68 27.28C184.653 27.1733 184.613 27.0133 184.56 26.8C184.533 26.56 184.48 26.3333 184.4 26.12C184.32 25.9067 184.213 25.72 184.08 25.56C183.947 25.4 183.787 25.32 183.6 25.32V26.72H181.48C181.587 26.96 181.747 27.1333 181.96 27.24C182.2 27.32 182.44 27.4 182.68 27.48C182.92 27.5333 183.147 27.6267 183.36 27.76C183.573 27.8667 183.747 28.0533 183.88 28.32C183.987 28.6133 183.907 28.9467 183.64 29.32C183.373 29.6667 183.053 30.04 182.68 30.44C182.333 30.8133 181.987 31.2 181.64 31.6C181.32 31.9733 181.16 32.32 181.16 32.64C181.16 32.8533 181.213 32.9867 181.32 33.04C181.453 33.0933 181.68 33.12 182 33.12C182.72 33.12 183.28 32.92 183.68 32.52C184.107 32.0933 184.413 31.5867 184.6 31C184.787 30.3867 184.893 29.7467 184.92 29.08C184.973 28.4133 185 27.8133 185 27.28H184.68ZM158 28.32V29.4L159.08 28.32H158ZM190.28 32.6H190V32.88H190.28V32.6ZM172.12 37.68H171.8C171.8 37.8933 171.907 38.0667 172.12 38.2V37.68Z" fill="white"/>
</svg>
