<svg width="80" height="40" viewBox="0 0 80 40" fill="none" xmlns="http://www.w3.org/2000/svg">
<path d="M33.32 6.72C33.4267 7.2 33.64 7.68 33.96 8.16C34.3067 8.64 34.68 9.10666 35.08 9.56C35.5067 9.98667 35.92 10.3733 36.32 10.72C36.7467 11.0667 37.08 11.3333 37.32 11.52C37.08 11.76 36.7467 12.1067 36.32 12.56C35.8933 13.0133 35.4267 13.4667 34.92 13.92C34.44 14.3467 33.9467 14.7333 33.44 15.08C32.9333 15.4 32.4667 15.56 32.04 15.56C31.8267 15.56 31.6267 15.56 31.44 15.56C31.28 15.5333 31.1067 15.44 30.92 15.28C30.76 15.2533 30.48 15.2267 30.08 15.2C29.68 15.1733 29.2533 15.1467 28.8 15.12C28.3467 15.0933 27.92 15.0667 27.52 15.04C27.12 15.0133 26.84 15 26.68 15C26.6 15 26.44 14.9867 26.2 14.96C25.9867 14.9333 25.7467 14.9067 25.48 14.88C25.2133 14.8267 24.96 14.7867 24.72 14.76C24.48 14.7333 24.3333 14.72 24.28 14.72C24.2267 14.72 24.08 14.7733 23.84 14.88C23.6267 14.96 23.5067 15 23.48 15H23.2C23.1467 15.0267 23.08 15.08 23 15.16C22.9467 15.2133 22.92 15.2533 22.92 15.28V18.2L23.2 18.48L24.6 18.52C24.7067 18.52 24.8667 18.52 25.08 18.52C25.2933 18.52 25.5067 18.52 25.72 18.52C25.96 18.4933 26.16 18.48 26.32 18.48C26.5067 18.48 26.6267 18.48 26.68 18.48C26.7867 18.4533 26.9733 18.4133 27.24 18.36C27.5333 18.28 27.6933 18.2267 27.72 18.2L30.12 15.8C30.2 15.7467 30.4667 15.8667 30.92 16.16C31.3733 16.4533 31.8533 16.8 32.36 17.2C32.8933 17.6 33.3733 18 33.8 18.4C34.2267 18.8 34.44 19.0933 34.44 19.28C34.44 19.3867 34.4267 19.4667 34.4 19.52C34.32 19.4933 34.08 19.3467 33.68 19.08C33.3067 18.7867 32.8933 18.48 32.44 18.16C32.0133 17.84 31.6133 17.5467 31.24 17.28C30.8933 17.0133 30.7067 16.88 30.68 16.88C30.6533 16.88 30.6 16.92 30.52 17C30.4667 17.0533 30.4267 17.0933 30.4 17.12V17.4C30.4 17.4267 30.4267 17.4933 30.48 17.6C30.56 17.7067 30.6267 17.8267 30.68 17.96C30.7333 18.0667 30.7867 18.1733 30.84 18.28C30.8933 18.3867 30.92 18.4533 30.92 18.48C30.9467 18.5333 30.9867 18.64 31.04 18.8C31.0933 18.9333 31.1467 19.0933 31.2 19.28C31.28 19.44 31.3333 19.6 31.36 19.76C31.4133 19.8933 31.4533 20 31.48 20.08H23.48L23.2 19.8C23.0667 19.8533 22.9733 19.9467 22.92 20.08C22.8667 20.1867 22.8133 20.32 22.76 20.48C22.7333 20.6133 22.7067 20.7467 22.68 20.88C22.68 21.0133 22.68 21.0933 22.68 21.12C22.4933 21.4667 22.16 21.7333 21.68 21.92C21.2267 22.1067 20.72 22.24 20.16 22.32C19.6267 22.4 19.0933 22.4533 18.56 22.48C18.0267 22.48 17.6133 22.48 17.32 22.48H16.52C16.4933 22 16.4533 21.6267 16.4 21.36C16.3733 21.0933 16.28 20.8933 16.12 20.76C15.9867 20.6 15.7867 20.4933 15.52 20.44C15.2533 20.3867 14.88 20.3467 14.4 20.32C14.4533 20.08 14.4267 19.9333 14.32 19.88C14.24 19.8267 14.1333 19.8133 14 19.84C13.8667 19.84 13.7333 19.8667 13.6 19.92C13.4667 19.9733 13.3733 20 13.32 20V20.32H6.12L6 20.2C5.92 20.1733 5.88 20.1333 5.88 20.08L5.6 19.28V19C5.62667 18.9467 5.66667 18.8667 5.72 18.76C5.8 18.6533 5.85333 18.6 5.88 18.6H10.12C10.1467 18.6 10.24 18.4933 10.4 18.28C10.5867 18.0667 10.7733 17.84 10.96 17.6C11.1733 17.36 11.3467 17.1333 11.48 16.92C11.64 16.7067 11.72 16.6 11.72 16.6C11.9067 16.3867 12.0267 16.24 12.08 16.16C12.16 16.08 12.3067 16.04 12.52 16.04C12.8933 16.04 13.2133 16.1467 13.48 16.36C13.7733 16.5733 14.0533 16.8133 14.32 17.08C14.6133 17.3467 14.9067 17.5867 15.2 17.8C15.52 18.0133 15.88 18.12 16.28 18.12V15.4H7.48L6.92 15C6.86667 15.0533 6.77333 15.1467 6.64 15.28C6.50667 15.3867 6.34667 15.5067 6.16 15.64C6 15.7467 5.82667 15.8533 5.64 15.96C5.48 16.04 5.33333 16.08 5.2 16.08C4.96 16.08 4.82667 15.9867 4.8 15.8C4.77333 15.5867 4.76 15.4 4.76 15.24C4.76 14.8933 4.84 14.5867 5 14.32C5.18667 14.0267 5.37333 13.7467 5.56 13.48C5.77333 13.1867 5.96 12.8933 6.12 12.6C6.30667 12.28 6.4 11.92 6.4 11.52C6.4 11.3333 6.30667 11.16 6.12 11C5.96 10.8133 5.78667 10.72 5.6 10.72C5.44 10.72 5.21333 10.8 4.92 10.96C4.65333 11.12 4.38667 11.3067 4.12 11.52C3.88 11.7333 3.65333 11.96 3.44 12.2C3.25333 12.44 3.16 12.6533 3.16 12.84C3.16 13.1867 3.25333 13.5067 3.44 13.8C3.65333 14.0667 3.76 14.3733 3.76 14.72C3.76 14.9333 3.70667 15.12 3.6 15.28C3.49333 15.44 3.44 15.6133 3.44 15.8C3.44 16.0133 3.46667 16.1733 3.52 16.28C3.6 16.3867 3.76 16.4933 4 16.6C3.92 16.6267 3.78667 16.64 3.6 16.64C3.22667 16.64 2.86667 16.56 2.52 16.4C2.17333 16.2133 1.86667 15.9867 1.6 15.72C1.36 15.4267 1.16 15.1067 1 14.76C0.866667 14.4133 0.8 14.0533 0.8 13.68C0.8 13.12 0.933333 12.64 1.2 12.24C1.49333 11.84 1.82667 11.48 2.2 11.16C2.6 10.8133 3.01333 10.48 3.44 10.16C3.86667 9.84 4.22667 9.49333 4.52 9.12C4.73333 8.90667 4.85333 8.61333 4.88 8.24C4.93333 7.84 4.97333 7.45333 5 7.08C5.05333 6.68 5.13333 6.34666 5.24 6.08C5.34667 5.78667 5.56 5.64 5.88 5.64C6.28 5.64 6.56 5.86667 6.72 6.32C6.90667 6.74667 7 7.12 7 7.44C6.54667 7.44 6.18667 7.46667 5.92 7.52C5.68 7.57333 5.56 7.82666 5.56 8.28L5.6 8.6L7.2 9.4C7.22667 9.4 7.26667 9.37333 7.32 9.32C7.4 9.24 7.45333 9.17333 7.48 9.12V8.88C7.45333 8.82667 7.4 8.69333 7.32 8.48C7.24 8.24 7.2 8.10666 7.2 8.08V7.8L7.72 8.08H16.28V5.28H5.32C5.26667 5.22666 5.22667 5.17333 5.2 5.12C5.17333 5.06667 5.14667 5.02667 5.12 5C5.09333 4.97333 5.08 4.93333 5.08 4.88L4.8 4.08V3.8C4.82667 3.74666 4.86667 3.66666 4.92 3.56C5 3.45333 5.05333 3.4 5.08 3.4H27.2C27.52 3.4 27.8 3.24 28.04 2.92C28.3067 2.6 28.5467 2.25333 28.76 1.88C29 1.48 29.24 1.12 29.48 0.799999C29.7467 0.479999 30.0533 0.319998 30.4 0.319998C30.6133 0.319998 31 0.479999 31.56 0.799999C32.12 1.12 32.6933 1.50666 33.28 1.96C33.8667 2.38666 34.3867 2.82666 34.84 3.28C35.2933 3.73333 35.52 4.08 35.52 4.32C35.52 4.48 35.48 4.61333 35.4 4.72C35.32 4.82667 35.16 4.88 34.92 4.88V4.44L34.68 4.32C34.6 4.4 34.4533 4.56 34.24 4.8C34.0533 5.04 33.9333 5.2 33.88 5.28H22.92V8.08H31.72L33.32 6.72ZM20.36 4C19.96 4 19.7333 4.16 19.68 4.48C19.6533 4.8 19.64 5.13333 19.64 5.48C20.04 5.48 20.2533 5.32 20.28 5C20.3333 4.68 20.36 4.34667 20.36 4ZM22.68 4.48C22.68 4.24 22.56 4.10667 22.32 4.08C22.1067 4.02666 21.9333 4 21.8 4C21.8 4.13333 21.8133 4.32 21.84 4.56C21.8933 4.77333 22.04 4.88 22.28 4.88H22.4C22.5067 4.8 22.6 4.70666 22.68 4.6V4.48ZM39.2 10.2C39.2 10.3067 39.1867 10.4133 39.16 10.52C39.16 10.6267 39.08 10.6933 38.92 10.72L38.68 10.2L34.92 6.48C34.76 6.34666 34.5733 6.25333 34.36 6.2C34.1467 6.14666 33.9467 6.12 33.76 6.12C33.76 5.98666 33.8533 5.88 34.04 5.8C34.2533 5.72 34.3733 5.68 34.4 5.68C34.7467 5.68 35.1467 5.85333 35.6 6.2C36.0533 6.54667 36.4933 6.94667 36.92 7.4C37.3733 7.85333 37.8 8.32 38.2 8.8C38.6 9.28 38.9333 9.65333 39.2 9.92V10.2ZM20.08 9.48C20.08 9.42667 20.08 9.30667 20.08 9.12C20.1067 8.90667 20.1067 8.69333 20.08 8.48C20.08 8.24 20.0533 8.01333 20 7.8C19.9467 7.56 19.8533 7.38667 19.72 7.28C19.48 7.38667 19.3333 7.6 19.28 7.92C19.2267 8.24 19.2 8.52 19.2 8.76C19.2 9.05333 19.2667 9.25333 19.4 9.36C19.56 9.44 19.7867 9.48 20.08 9.48ZM28.76 11.52C28.9733 11.52 29.16 11.5733 29.32 11.68C29.5067 11.76 29.68 11.8533 29.84 11.96C30.0267 12.04 30.2 12.1333 30.36 12.24C30.5467 12.32 30.7467 12.36 30.96 12.36C31.2533 12.36 31.4133 12.2133 31.44 11.92C31.4667 11.6 31.48 11.3333 31.48 11.12C31.48 11.04 31.48 10.88 31.48 10.64C31.5067 10.3733 31.4133 10.2267 31.2 10.2C31.04 10.1733 30.76 10.1467 30.36 10.12C29.96 10.0667 29.5333 10.0267 29.08 10C28.6267 9.97333 28.1867 9.96 27.76 9.96C27.36 9.93333 27.08 9.92 26.92 9.92C26.7867 9.92 26.52 9.93333 26.12 9.96C25.7467 9.98667 25.3467 10.0133 24.92 10.04C24.4933 10.0667 24.0933 10.0933 23.72 10.12C23.3467 10.1467 23.08 10.1733 22.92 10.2V13.4H26.4L28.52 11.52H28.76ZM16.28 10.2H8.28L8 10.48C8 10.48 7.98667 10.5733 7.96 10.76C7.93333 10.9467 7.90667 11.1733 7.88 11.44C7.85333 11.68 7.82667 11.9333 7.8 12.2C7.77333 12.4667 7.74667 12.6933 7.72 12.88V13.12C7.74667 13.1733 7.78667 13.24 7.84 13.32C7.92 13.3733 7.97333 13.4 8 13.4H10.68L12.8 11.28C12.8267 11.2533 12.8667 11.24 12.92 11.24C13.24 11.24 13.52 11.3467 13.76 11.56C14.0267 11.7733 14.2933 12 14.56 12.24C14.8267 12.48 15.0933 12.7067 15.36 12.92C15.6267 13.1333 15.9333 13.24 16.28 13.24V10.2ZM11.6 15C11.7067 15 11.8267 14.88 11.96 14.64C12.0933 14.3733 12.2267 14.0667 12.36 13.72C12.4933 13.3733 12.6 13.0533 12.68 12.76C12.7867 12.44 12.84 12.2133 12.84 12.08C12.84 11.9467 12.8267 11.8533 12.8 11.8C12.6933 11.8533 12.5333 12.0133 12.32 12.28C12.1333 12.5467 11.9333 12.84 11.72 13.16C11.5067 13.48 11.32 13.7867 11.16 14.08C11 14.3467 10.92 14.52 10.92 14.6V14.72C10.9467 14.7467 11.0267 14.8 11.16 14.88C11.2933 14.9333 11.4 14.9733 11.48 15H11.6ZM20.8 20.48C20.8 20.1867 20.6667 19.84 20.4 19.44C20.16 19.0133 19.8533 18.7733 19.48 18.72C19.4533 18.7467 19.44 18.8 19.44 18.88C19.44 19.04 19.4933 19.2133 19.6 19.4C19.7333 19.56 19.8667 19.72 20 19.88C20.16 20.04 20.3067 20.1867 20.44 20.32C20.6 20.4533 20.72 20.5467 20.8 20.6V20.48ZM7.2 19.52C6.98667 19.6533 6.88 19.84 6.88 20.08H7.2V19.52ZM29.2 21.12C29.5733 21.12 30 21.2667 30.48 21.56C30.96 21.8533 31.44 22.2133 31.92 22.64C32.4 23.04 32.8533 23.4533 33.28 23.88C33.7333 24.3067 34.1067 24.64 34.4 24.88C34.4267 24.96 34.44 25.0933 34.44 25.28C34.44 25.6267 34.28 25.88 33.96 26.04C33.64 26.2 33.3467 26.3467 33.08 26.48C32.7867 25.6533 32.3333 25.0267 31.72 24.6L31.48 24.88C31.4533 24.88 31.44 25 31.44 25.24C31.44 25.4533 31.44 25.6133 31.44 25.72C31.44 25.88 31.44 26.1733 31.44 26.6C31.4667 27.0267 31.4933 27.4667 31.52 27.92C31.5733 28.3733 31.64 28.7867 31.72 29.16C31.8267 29.5067 31.96 29.68 32.12 29.68H32.28L32.8 29.12C32.9067 29.0667 33 29.04 33.08 29.04V37.4C33.08 37.7733 32.8667 38.08 32.44 38.32C32.0133 38.56 31.5067 38.7467 30.92 38.88C30.36 39.04 29.8 39.1467 29.24 39.2C28.68 39.2533 28.2667 39.28 28 39.28H26.92C26.8933 39.2533 26.84 39.2 26.76 39.12C26.7067 39.0667 26.68 39.0267 26.68 39C26.6533 38.9467 26.6133 38.84 26.56 38.68C26.5333 38.52 26.5067 38.3333 26.48 38.12C26.4533 37.9333 26.4267 37.76 26.4 37.6C26.4 37.44 26.4 37.3333 26.4 37.28H11.2V36.12C10.9067 36.12 10.7067 36.2 10.6 36.36C10.52 36.52 10.4533 36.7733 10.4 37.12H5.76C5.76 36.9333 5.72 36.8 5.64 36.72C5.56 36.64 5.48 36.5733 5.4 36.52C5.32 36.4933 5.24 36.4533 5.16 36.4C5.08 36.3467 5.04 36.24 5.04 36.08C5.04 36 5.05333 35.88 5.08 35.72C5.10667 35.5867 5.18667 35.52 5.32 35.52H22.4L22.12 36.08V36.32C22.2267 36.48 22.32 36.5733 22.4 36.6L23.6 36.64C24.1067 36.64 24.5333 36.5867 24.88 36.48C25.2267 36.3733 25.64 36.32 26.12 36.32C26.6 36.32 26.9467 36.4133 27.16 36.6C27.4 36.8133 27.6 37.04 27.76 37.28C27.9467 37.52 28.1333 37.7333 28.32 37.92C28.5067 38.1333 28.8 38.24 29.2 38.24C29.6533 38.24 30.04 38.1067 30.36 37.84C30.7067 37.6 31.0133 37.2933 31.28 36.92C31.5467 36.5733 31.8 36.2 32.04 35.8C32.28 35.4 32.5333 35.04 32.8 34.72C32.72 34.6133 32.5467 34.4533 32.28 34.24C32.0133 34 31.72 33.76 31.4 33.52C31.08 33.28 30.7733 33.0533 30.48 32.84C30.1867 32.6 29.9867 32.4267 29.88 32.32L29.6 32.28C29.2 32.28 28.8933 32.4533 28.68 32.8C28.4933 33.1467 28.3067 33.5333 28.12 33.96C27.96 34.36 27.76 34.7333 27.52 35.08C27.28 35.4267 26.9067 35.6 26.4 35.6V31.4H8.28C8.28 31.32 8.25333 31.2 8.2 31.04C8.17333 30.8533 8.12 30.68 8.04 30.52C7.96 30.36 7.85333 30.2267 7.72 30.12C7.61333 29.9867 7.48 29.92 7.32 29.92C7.05333 29.92 6.90667 30.08 6.88 30.4C6.85333 30.72 6.84 30.96 6.84 31.12C6.70667 31.12 6.6 31.04 6.52 30.88C6.46667 30.72 6.41333 30.5467 6.36 30.36C6.33333 30.1733 6.32 30 6.32 29.84C6.32 29.6533 6.32 29.5467 6.32 29.52H26.4V25.52H14.2C14.2 25.04 14.0667 24.72 13.8 24.56C13.56 24.4 13.2267 24.32 12.8 24.32C12.64 24.32 12.4133 24.32 12.12 24.32C11.8533 24.32 11.72 24.4533 11.72 24.72V24.88L12 25.4H7.2C7.12 25.08 6.94667 24.8 6.68 24.56C6.44 24.32 6.14667 24.2 5.8 24.2L5.88 24.08C5.88 24.0267 5.89333 23.9867 5.92 23.96C5.94667 23.9333 5.97333 23.8933 6 23.84C6.02667 23.7867 6.06667 23.7333 6.12 23.68H26.68L29.08 21.12H29.2ZM30.4 22.72C30.2933 22.48 30.16 22.3333 30 22.28C29.8667 22.2 29.6933 22.16 29.48 22.16C29.2933 22.16 29.16 22.1733 29.08 22.2V22.72H30.4ZM22.12 24.6C21.9067 24.7333 21.8 24.9067 21.8 25.12H22.12V24.6ZM6.12 25.4C6.01333 25.3733 5.93333 25.28 5.88 25.12C5.85333 25.12 5.84 25.08 5.84 25C5.84 24.9467 5.85333 24.9067 5.88 24.88L6.4 25.4H6.12ZM29.88 25.92C29.8 25.7867 29.7067 25.7067 29.6 25.68C29.5733 25.6533 29.5333 25.64 29.48 25.64C29.4 25.64 29.3467 25.6533 29.32 25.68L29.2 25.8C29.1467 25.8533 29.12 25.88 29.12 25.88L29.08 25.92C29.0267 26 28.96 26.1067 28.88 26.24C28.8 26.3733 28.72 26.5067 28.64 26.64C28.56 26.7733 28.48 26.9067 28.4 27.04C28.32 27.1733 28.28 27.2533 28.28 27.28C28.2533 27.28 28.24 27.32 28.24 27.4C28.24 27.4533 28.2533 27.4933 28.28 27.52C28.3067 27.52 28.4 27.4667 28.56 27.36C28.72 27.2533 28.8933 27.12 29.08 26.96C29.2933 26.8 29.48 26.64 29.64 26.48C29.8 26.32 29.88 26.1867 29.88 26.08V25.92ZM23.48 29.92H23.2V30.2H23.48V29.92ZM14.72 30.8C14.72 30.4533 14.5867 30.2533 14.32 30.2C14.0533 30.1467 13.7733 30.12 13.48 30.12C13.48 30.4133 13.6267 30.6 13.92 30.68C14.24 30.76 14.5067 30.8 14.72 30.8ZM18.92 36.08V36.32L19.2 36.08H18.92ZM79.2 34.48C78.9333 33.7333 78.44 33.36 77.72 33.36C77.56 33.36 77.36 33.4 77.12 33.48C76.9067 33.5333 76.6933 33.6267 76.48 33.76C76.2667 33.8667 76.08 34.0133 75.92 34.2C75.7867 34.36 75.72 34.5333 75.72 34.72C75.72 34.96 75.8 35.1333 75.96 35.24C76.1467 35.3733 76.3333 35.4667 76.52 35.52C76.4133 35.6267 76.2267 35.8533 75.96 36.2C75.72 36.5733 75.44 36.96 75.12 37.36C74.8267 37.76 74.5333 38.12 74.24 38.44C73.9733 38.76 73.76 38.9467 73.6 39C73.5733 39 73.4933 38.96 73.36 38.88C73.2267 38.8267 73.1333 38.7733 73.08 38.72C71.64 37.7067 70.2533 36.4267 68.92 34.88C67.6133 33.3333 66.4533 31.6667 65.44 29.88C64.4267 28.0667 63.6133 26.2 63 24.28C62.4133 22.3333 62.12 20.4533 62.12 18.64C62.12 18.5333 62.12 18.4133 62.12 18.28C62.1467 18.12 62.1867 18 62.24 17.92C62.2933 17.84 62.3867 17.8 62.52 17.8C62.68 17.7733 62.9067 17.8133 63.2 17.92C63.1467 17.4667 63.04 17.1333 62.88 16.92C62.7467 16.68 62.5733 16.4533 62.36 16.24C62.1733 16 61.9867 15.72 61.8 15.4C61.6133 15.08 61.4533 14.5867 61.32 13.92C61.32 13.84 61.28 13.7067 61.2 13.52C61.1467 13.3067 61.1067 13.1733 61.08 13.12C61.0533 13.0933 61 13.08 60.92 13.08C60.8667 13.08 60.8267 13.0933 60.8 13.12C60.7467 13.2 60.64 13.32 60.48 13.48C60.3467 13.6133 60.1867 13.7733 60 13.96C59.8133 14.12 59.64 14.28 59.48 14.44C59.3467 14.5733 59.2533 14.6667 59.2 14.72C58.9867 14.9333 58.7067 15.2267 58.36 15.6C58.04 15.9467 57.72 16.2933 57.4 16.64C57.1067 16.9867 56.84 17.2933 56.6 17.56C56.3867 17.8 56.28 17.92 56.28 17.92L56 18.48V29.4L56.28 29.92C56.28 29.9467 56.36 29.9733 56.52 30C56.7067 30 56.84 30 56.92 30C57.56 30 58.1867 29.9467 58.8 29.84C59.44 29.7067 60.08 29.56 60.72 29.4C61.36 29.24 61.9867 29.1067 62.6 29C63.24 28.8667 63.88 28.8 64.52 28.8V29.4C64.52 29.7733 64.2267 30.2 63.64 30.68C63.0533 31.16 62.2933 31.6667 61.36 32.2C60.4533 32.7333 59.4533 33.2667 58.36 33.8C57.2667 34.3333 56.2133 34.8133 55.2 35.24C54.1867 35.6933 53.2933 36.08 52.52 36.4C51.7467 36.7467 51.2133 36.9867 50.92 37.12C50.84 37.1733 50.6533 37.32 50.36 37.56C50.0933 37.8267 49.8 38.0933 49.48 38.36C49.1867 38.6533 48.92 38.9067 48.68 39.12C48.44 39.36 48.3067 39.4933 48.28 39.52C48.2 39.5467 48.1067 39.56 48 39.56C47.76 39.56 47.5867 39.4667 47.48 39.28C47.4 39.12 47.3067 38.9333 47.2 38.72L45.08 34.2C45.0533 34.1733 45.04 34.1333 45.04 34.08C45.04 34 45.0533 33.9467 45.08 33.92C45.16 33.8933 45.24 33.8533 45.32 33.8C45.3733 33.7733 45.4267 33.7467 45.48 33.72C45.5333 33.6933 45.5733 33.68 45.6 33.68L45.88 33.4C45.88 33.32 45.8667 33.24 45.84 33.16C45.84 33.08 45.8267 33.0267 45.8 33H44.28L44.36 32.76C44.3867 32.6533 44.4133 32.5733 44.44 32.52C44.4667 32.44 44.4933 32.3733 44.52 32.32C44.68 32.1333 45.0267 32.0133 45.56 31.96C46.0933 31.88 46.6533 31.8267 47.24 31.8C47.8267 31.7467 48.3467 31.6933 48.8 31.64C49.2533 31.5867 49.48 31.4667 49.48 31.28V24.6C49.6667 24.5733 49.7733 24.52 49.8 24.44C49.8533 24.3333 49.88 24.2133 49.88 24.08C49.88 23.84 49.7867 23.6533 49.6 23.52C49.4133 23.36 49.32 23.1467 49.32 22.88V22.72L49.6 22.2C49.2267 22.0667 48.9733 21.8533 48.84 21.56C48.7333 21.24 48.6667 20.92 48.64 20.6C48.6133 20.28 48.5867 19.9867 48.56 19.72C48.5333 19.4533 48.44 19.3067 48.28 19.28C48.2 19.3333 48.0667 19.4533 47.88 19.64C47.72 19.8 47.5333 19.9867 47.32 20.2C47.1333 20.3867 46.9467 20.5733 46.76 20.76C46.6 20.92 46.48 21.04 46.4 21.12C46.3467 21.2 46.28 21.3067 46.2 21.44C46.1467 21.5733 46.12 21.6533 46.12 21.68L47.72 23.28L44.52 24.88H44.28C44.2267 24.8533 44.1333 24.76 44 24.6C43.8667 24.44 43.7733 24.3467 43.72 24.32H43.6C43.5733 24.32 43.48 24.3733 43.32 24.48C43.1867 24.5867 43.0133 24.7067 42.8 24.84C42.5867 24.9467 42.3467 25.0667 42.08 25.2C41.84 25.3067 41.5867 25.3733 41.32 25.4C41.2667 25.4 41.1333 25.44 40.92 25.52C40.7067 25.5733 40.5733 25.6267 40.52 25.68V25.52C40.52 25.3867 40.84 25.04 41.48 24.48C42.12 23.8933 42.9067 23.2 43.84 22.4C44.8 21.5733 45.8267 20.6533 46.92 19.64C48.04 18.6267 49.0667 17.6133 50 16.6C50.96 15.56 51.76 14.56 52.4 13.6C53.04 12.6133 53.36 11.7333 53.36 10.96C53.36 10.8 53.2933 10.6667 53.16 10.56C53.0533 10.4533 52.92 10.3733 52.76 10.32C52.6 10.24 52.4267 10.2 52.24 10.2C52.0533 10.1733 51.8933 10.16 51.76 10.16C51.4667 10.16 51.1733 10.2133 50.88 10.32C50.6133 10.4 50.4533 10.6267 50.4 11H42.04C42.04 10.7867 41.9867 10.64 41.88 10.56C41.8 10.4533 41.7067 10.3733 41.6 10.32C41.4933 10.2667 41.3867 10.2 41.28 10.12C41.2 10.04 41.16 9.89333 41.16 9.68H56.32C56.32 9.89333 56.2667 10.04 56.16 10.12C56.0533 10.2 56 10.36 56 10.6C56 10.8933 56.1067 11.1733 56.32 11.44C56.5333 11.68 56.7867 11.9067 57.08 12.12C57.3733 12.3067 57.68 12.4667 58 12.6C58.32 12.7067 58.6 12.76 58.84 12.76C58.84 12.6533 58.7467 12.4133 58.56 12.04C58.3733 11.64 58.16 11.2267 57.92 10.8C57.68 10.3733 57.4267 9.97333 57.16 9.6C56.8933 9.22666 56.68 8.98666 56.52 8.88V1.4L56.8 1.12H57.84C58.9067 1.12 59.9867 1.13333 61.08 1.16C62.1733 1.18667 63.24 1.36 64.28 1.68C64.3067 1.73333 64.32 1.81333 64.32 1.92C64.32 1.97333 64.3067 2.01333 64.28 2.04C64.28 2.06667 64.28 2.09333 64.28 2.12V2.2C64.2267 2.25333 64.1467 2.34667 64.04 2.48C63.96 2.61333 63.8667 2.76 63.76 2.92C63.6533 3.05333 63.5467 3.18666 63.44 3.32C63.3333 3.42666 63.2533 3.49333 63.2 3.52V9.4H68.8C69.2267 9.4 69.5733 9.21333 69.84 8.84C70.1333 8.44 70.4 8 70.64 7.52C70.9067 7.04 71.1733 6.61333 71.44 6.24C71.7067 5.84 72.0267 5.64 72.4 5.64C72.7467 5.64 73.2533 5.82667 73.92 6.2C74.6133 6.57333 75.2933 7.01333 75.96 7.52C76.6267 8 77.2 8.50667 77.68 9.04C78.1867 9.54666 78.44 9.93333 78.44 10.2C78.44 10.3067 78.4267 10.4133 78.4 10.52C78.3733 10.6267 78.28 10.6933 78.12 10.72C77.9867 10.56 77.8 10.36 77.56 10.12C77.32 9.85333 77.0667 9.61333 76.8 9.4C76.5333 9.16 76.2533 8.96 75.96 8.8C75.6933 8.64 75.44 8.56 75.2 8.56C75.0933 8.56 75 8.57333 74.92 8.6C75.0533 8.76 75.2133 9.01333 75.4 9.36C75.6133 9.68 75.72 9.96 75.72 10.2C75.72 10.3333 75.68 10.52 75.6 10.76C75.5467 11 75.5067 11.12 75.48 11.12H62.92C62.84 11.12 62.7733 11.1733 62.72 11.28C62.6933 11.3867 62.6667 11.5067 62.64 11.64C62.6133 11.8 62.6133 11.9733 62.64 12.16C62.64 12.48 62.72 13.0667 62.88 13.92C63.04 14.7467 63.24 15.6 63.48 16.48C63.72 17.36 63.9733 18.1467 64.24 18.84C64.5333 19.5067 64.8133 19.84 65.08 19.84C65.2133 19.84 65.2933 19.8267 65.32 19.8L67.72 17.4C67.6667 17.48 67.56 17.6267 67.4 17.84C67.2667 18.0267 67.1067 18.24 66.92 18.48C66.7333 18.6933 66.56 18.9067 66.4 19.12C66.2667 19.3067 66.1733 19.44 66.12 19.52C66.0933 19.5733 66.04 19.6667 65.96 19.8C65.9067 19.9333 65.88 20.0267 65.88 20.08H66C66.24 20.08 66.4533 20.0267 66.64 19.92C66.8533 19.8133 67.1067 19.76 67.4 19.76C67.6933 19.76 68 19.8533 68.32 20.04C68.64 20.2267 68.8 20.5067 68.8 20.88C68.8 21.0933 68.6667 21.2667 68.4 21.4C68.16 21.5067 67.88 21.6133 67.56 21.72C67.2667 21.8267 66.9867 21.96 66.72 22.12C66.48 22.2533 66.36 22.4667 66.36 22.76C66.36 23.6133 66.6667 24.4267 67.28 25.2C67.8933 25.9733 68.6533 26.72 69.56 27.44C70.4933 28.1333 71.5067 28.8 72.6 29.44C73.72 30.08 74.7733 30.68 75.76 31.24C76.7467 31.7733 77.6 32.2667 78.32 32.72C79.0667 33.1733 79.5333 33.5733 79.72 33.92L79.2 34.48ZM61.88 5.92H58.92C58.8667 5.94667 58.8267 5.97333 58.8 6C58.72 6.05333 58.68 6.12 58.68 6.2C58.6533 6.2 58.64 6.24 58.64 6.32C58.64 6.61333 58.7067 6.81333 58.84 6.92C59 7.02667 59.16 7.10667 59.32 7.16C59.48 7.21333 59.6267 7.26667 59.76 7.32C59.92 7.37333 60 7.49333 60 7.68C60 7.86666 59.9467 7.98666 59.84 8.04C59.7333 8.06667 59.6 8.09333 59.44 8.12C59.3067 8.12 59.1867 8.14667 59.08 8.2C58.9733 8.25333 58.92 8.38667 58.92 8.6C58.92 8.81333 59 9.02667 59.16 9.24C59.32 9.42667 59.4933 9.62667 59.68 9.84C59.8667 10.0533 60.04 10.28 60.2 10.52C60.3867 10.76 60.4933 11.0133 60.52 11.28H61.08C61.08 10.9333 61.08 10.5467 61.08 10.12C61.1067 9.69333 61.1467 9.26667 61.2 8.84C61.2533 8.38667 61.3467 7.96 61.48 7.56C61.64 7.13333 61.8533 6.77333 62.12 6.48L61.88 5.92ZM71.2 7.92C71.2 8.10667 71.32 8.26667 71.56 8.4C71.8 8.53333 71.9867 8.6 72.12 8.6C72.5733 8.6 73 8.54667 73.4 8.44C73.8 8.30667 74.2533 8.24 74.76 8.24C74.76 8.05333 74.6933 7.89333 74.56 7.76C74.4267 7.6 74.2533 7.46667 74.04 7.36C73.8533 7.22667 73.6533 7.13333 73.44 7.08C73.2267 7 73.0533 6.96 72.92 6.96C72.5467 6.96 72.2533 7.02667 72.04 7.16C71.8533 7.26667 71.5733 7.48 71.2 7.8V7.92ZM77.32 17.4C77.1867 17.2133 77 17.04 76.76 16.88C76.5467 16.6933 76.3333 16.6 76.12 16.6C75.9333 16.6 75.7733 16.6533 75.64 16.76C75.5333 16.8667 75.4133 17 75.28 17.16C75.1733 17.2933 75.04 17.4133 74.88 17.52C74.7467 17.6267 74.5733 17.68 74.36 17.68C73.6667 17.68 73.2267 17.5067 73.04 17.16C72.8533 16.7867 72.7067 16.3867 72.6 15.96C72.52 15.5067 72.3733 15.1067 72.16 14.76C71.9733 14.3867 71.52 14.2 70.8 14.2H70.68C70.5733 14.7333 70.44 15.12 70.28 15.36C70.12 15.5733 69.9333 15.7467 69.72 15.88C69.5067 16.0133 69.2533 16.1467 68.96 16.28C68.6667 16.3867 68.3467 16.5867 68 16.88C68.1867 16.5867 68.4 16.2 68.64 15.72C68.88 15.24 69.1333 14.7733 69.4 14.32C69.6933 13.84 70 13.44 70.32 13.12C70.64 12.7733 70.9733 12.6 71.32 12.6C71.7733 12.6 72.3067 12.7867 72.92 13.16C73.56 13.5333 74.1867 13.9733 74.8 14.48C75.44 14.96 76.0133 15.4533 76.52 15.96C77.0267 16.4667 77.3867 16.8533 77.6 17.12L77.32 17.4ZM71.72 19.8C71.6667 19.9333 71.5467 20.0533 71.36 20.16C71.2 20.2667 71.0267 20.3467 70.84 20.4C70.6267 20.5067 70.3867 20.5733 70.12 20.6H70C69.7067 20.6 69.52 20.4533 69.44 20.16C69.36 19.8667 69.32 19.6267 69.32 19.44C69.32 19.2533 69.3333 19 69.36 18.68C69.3867 18.36 69.44 18.04 69.52 17.72C69.6 17.4 69.7067 17.1333 69.84 16.92C70 16.68 70.1867 16.56 70.4 16.56C70.72 16.56 70.96 16.6933 71.12 16.96C71.3067 17.2267 71.44 17.5467 71.52 17.92C71.6267 18.2667 71.68 18.6133 71.68 18.96C71.7067 19.3067 71.72 19.5467 71.72 19.68V19.8ZM50.68 17.4C50.7067 17.32 50.6133 17.28 50.4 17.28C50.1867 17.28 50.0933 17.32 50.12 17.4C50.1733 17.48 50.2667 17.52 50.4 17.52C50.5333 17.52 50.6267 17.48 50.68 17.4ZM72.52 17.92C72.7067 18 72.8133 18.1467 72.84 18.36C72.8667 18.5467 72.88 18.6933 72.88 18.8C72.7467 18.8 72.5733 18.7867 72.36 18.76C72.1733 18.7333 72.0533 18.64 72 18.48L72.52 17.92ZM71.2 31.52C71.3867 31.52 71.5333 31.6267 71.64 31.84C71.7467 32.0267 71.8133 32.24 71.84 32.48C71.8933 32.72 71.92 32.9467 71.92 33.16C71.92 33.3467 71.92 33.4533 71.92 33.48C72.16 33.48 72.28 33.3333 72.28 33.04C72.28 32.72 72.28 32.52 72.28 32.44C72.28 31.9333 72.1733 31.4667 71.96 31.04C71.7733 30.6133 71.6133 30.16 71.48 29.68L68.28 26.48C68.2533 26.4533 68.1733 26.44 68.04 26.44C67.88 26.44 67.68 26.48 67.44 26.56C67.2267 26.64 67.0133 26.7467 66.8 26.88C66.6133 26.9867 66.4533 27.1333 66.32 27.32C66.1867 27.48 66.12 27.64 66.12 27.8C66.12 28.04 66.1733 28.2667 66.28 28.48C66.3867 28.6667 66.52 28.8533 66.68 29.04C66.84 29.2267 66.9867 29.4133 67.12 29.6C67.28 29.7867 67.4 29.9867 67.48 30.2V30.48C67.4533 30.5067 67.4 30.64 67.32 30.88C67.24 31.0933 67.2 31.2267 67.2 31.28C67.1733 31.3333 67.16 31.4133 67.16 31.52H71.2ZM52 31.8C52.1067 31.6133 52.2667 31.44 52.48 31.28C52.6933 31.0933 52.9067 30.9067 53.12 30.72C53.3333 30.5333 53.52 30.3467 53.68 30.16C53.84 29.9733 53.92 29.7733 53.92 29.56C53.6267 29.56 53.3333 29.56 53.04 29.56C52.7467 29.56 52.48 29.6 52.24 29.68C52 29.76 51.8 29.8933 51.64 30.08C51.5067 30.2667 51.44 30.5333 51.44 30.88C51.44 31.04 51.44 31.24 51.44 31.48C51.4667 31.6933 51.6133 31.8 51.88 31.8H52Z" fill="#333E44"/>
</svg>
