<svg width="79" height="40" viewBox="0 0 79 40" fill="none" xmlns="http://www.w3.org/2000/svg">
<path d="M33.32 6.72C33.4267 7.2 33.64 7.68 33.96 8.16C34.3067 8.64 34.68 9.10666 35.08 9.56C35.5067 9.98667 35.92 10.3733 36.32 10.72C36.7467 11.0667 37.08 11.3333 37.32 11.52C37.08 11.76 36.7467 12.1067 36.32 12.56C35.8933 13.0133 35.4267 13.4667 34.92 13.92C34.44 14.3467 33.9467 14.7333 33.44 15.08C32.9333 15.4 32.4667 15.56 32.04 15.56C31.8267 15.56 31.6267 15.56 31.44 15.56C31.28 15.5333 31.1067 15.44 30.92 15.28C30.76 15.2533 30.48 15.2267 30.08 15.2C29.68 15.1733 29.2533 15.1467 28.8 15.12C28.3467 15.0933 27.92 15.0667 27.52 15.04C27.12 15.0133 26.84 15 26.68 15C26.6 15 26.44 14.9867 26.2 14.96C25.9867 14.9333 25.7467 14.9067 25.48 14.88C25.2133 14.8267 24.96 14.7867 24.72 14.76C24.48 14.7333 24.3333 14.72 24.28 14.72C24.2267 14.72 24.08 14.7733 23.84 14.88C23.6267 14.96 23.5067 15 23.48 15H23.2C23.1467 15.0267 23.08 15.08 23 15.16C22.9467 15.2133 22.92 15.2533 22.92 15.28V18.2L23.2 18.48L24.6 18.52C24.7067 18.52 24.8667 18.52 25.08 18.52C25.2933 18.52 25.5067 18.52 25.72 18.52C25.96 18.4933 26.16 18.48 26.32 18.48C26.5067 18.48 26.6267 18.48 26.68 18.48C26.7867 18.4533 26.9733 18.4133 27.24 18.36C27.5333 18.28 27.6933 18.2267 27.72 18.2L30.12 15.8C30.2 15.7467 30.4667 15.8667 30.92 16.16C31.3733 16.4533 31.8533 16.8 32.36 17.2C32.8933 17.6 33.3733 18 33.8 18.4C34.2267 18.8 34.44 19.0933 34.44 19.28C34.44 19.3867 34.4267 19.4667 34.4 19.52C34.32 19.4933 34.08 19.3467 33.68 19.08C33.3067 18.7867 32.8933 18.48 32.44 18.16C32.0133 17.84 31.6133 17.5467 31.24 17.28C30.8933 17.0133 30.7067 16.88 30.68 16.88C30.6533 16.88 30.6 16.92 30.52 17C30.4667 17.0533 30.4267 17.0933 30.4 17.12V17.4C30.4 17.4267 30.4267 17.4933 30.48 17.6C30.56 17.7067 30.6267 17.8267 30.68 17.96C30.7333 18.0667 30.7867 18.1733 30.84 18.28C30.8933 18.3867 30.92 18.4533 30.92 18.48C30.9467 18.5333 30.9867 18.64 31.04 18.8C31.0933 18.9333 31.1467 19.0933 31.2 19.28C31.28 19.44 31.3333 19.6 31.36 19.76C31.4133 19.8933 31.4533 20 31.48 20.08H23.48L23.2 19.8C23.0667 19.8533 22.9733 19.9467 22.92 20.08C22.8667 20.1867 22.8133 20.32 22.76 20.48C22.7333 20.6133 22.7067 20.7467 22.68 20.88C22.68 21.0133 22.68 21.0933 22.68 21.12C22.4933 21.4667 22.16 21.7333 21.68 21.92C21.2267 22.1067 20.72 22.24 20.16 22.32C19.6267 22.4 19.0933 22.4533 18.56 22.48C18.0267 22.48 17.6133 22.48 17.32 22.48H16.52C16.4933 22 16.4533 21.6267 16.4 21.36C16.3733 21.0933 16.28 20.8933 16.12 20.76C15.9867 20.6 15.7867 20.4933 15.52 20.44C15.2533 20.3867 14.88 20.3467 14.4 20.32C14.4533 20.08 14.4267 19.9333 14.32 19.88C14.24 19.8267 14.1333 19.8133 14 19.84C13.8667 19.84 13.7333 19.8667 13.6 19.92C13.4667 19.9733 13.3733 20 13.32 20V20.32H6.12L6 20.2C5.92 20.1733 5.88 20.1333 5.88 20.08L5.6 19.28V19C5.62667 18.9467 5.66667 18.8667 5.72 18.76C5.8 18.6533 5.85333 18.6 5.88 18.6H10.12C10.1467 18.6 10.24 18.4933 10.4 18.28C10.5867 18.0667 10.7733 17.84 10.96 17.6C11.1733 17.36 11.3467 17.1333 11.48 16.92C11.64 16.7067 11.72 16.6 11.72 16.6C11.9067 16.3867 12.0267 16.24 12.08 16.16C12.16 16.08 12.3067 16.04 12.52 16.04C12.8933 16.04 13.2133 16.1467 13.48 16.36C13.7733 16.5733 14.0533 16.8133 14.32 17.08C14.6133 17.3467 14.9067 17.5867 15.2 17.8C15.52 18.0133 15.88 18.12 16.28 18.12V15.4H7.48L6.92 15C6.86667 15.0533 6.77333 15.1467 6.64 15.28C6.50667 15.3867 6.34667 15.5067 6.16 15.64C6 15.7467 5.82667 15.8533 5.64 15.96C5.48 16.04 5.33333 16.08 5.2 16.08C4.96 16.08 4.82667 15.9867 4.8 15.8C4.77333 15.5867 4.76 15.4 4.76 15.24C4.76 14.8933 4.84 14.5867 5 14.32C5.18667 14.0267 5.37333 13.7467 5.56 13.48C5.77333 13.1867 5.96 12.8933 6.12 12.6C6.30667 12.28 6.4 11.92 6.4 11.52C6.4 11.3333 6.30667 11.16 6.12 11C5.96 10.8133 5.78667 10.72 5.6 10.72C5.44 10.72 5.21333 10.8 4.92 10.96C4.65333 11.12 4.38667 11.3067 4.12 11.52C3.88 11.7333 3.65333 11.96 3.44 12.2C3.25333 12.44 3.16 12.6533 3.16 12.84C3.16 13.1867 3.25333 13.5067 3.44 13.8C3.65333 14.0667 3.76 14.3733 3.76 14.72C3.76 14.9333 3.70667 15.12 3.6 15.28C3.49333 15.44 3.44 15.6133 3.44 15.8C3.44 16.0133 3.46667 16.1733 3.52 16.28C3.6 16.3867 3.76 16.4933 4 16.6C3.92 16.6267 3.78667 16.64 3.6 16.64C3.22667 16.64 2.86667 16.56 2.52 16.4C2.17333 16.2133 1.86667 15.9867 1.6 15.72C1.36 15.4267 1.16 15.1067 1 14.76C0.866667 14.4133 0.8 14.0533 0.8 13.68C0.8 13.12 0.933333 12.64 1.2 12.24C1.49333 11.84 1.82667 11.48 2.2 11.16C2.6 10.8133 3.01333 10.48 3.44 10.16C3.86667 9.84 4.22667 9.49333 4.52 9.12C4.73333 8.90667 4.85333 8.61333 4.88 8.24C4.93333 7.84 4.97333 7.45333 5 7.08C5.05333 6.68 5.13333 6.34666 5.24 6.08C5.34667 5.78667 5.56 5.64 5.88 5.64C6.28 5.64 6.56 5.86667 6.72 6.32C6.90667 6.74667 7 7.12 7 7.44C6.54667 7.44 6.18667 7.46667 5.92 7.52C5.68 7.57333 5.56 7.82666 5.56 8.28L5.6 8.6L7.2 9.4C7.22667 9.4 7.26667 9.37333 7.32 9.32C7.4 9.24 7.45333 9.17333 7.48 9.12V8.88C7.45333 8.82667 7.4 8.69333 7.32 8.48C7.24 8.24 7.2 8.10666 7.2 8.08V7.8L7.72 8.08H16.28V5.28H5.32C5.26667 5.22666 5.22667 5.17333 5.2 5.12C5.17333 5.06667 5.14667 5.02667 5.12 5C5.09333 4.97333 5.08 4.93333 5.08 4.88L4.8 4.08V3.8C4.82667 3.74666 4.86667 3.66666 4.92 3.56C5 3.45333 5.05333 3.4 5.08 3.4H27.2C27.52 3.4 27.8 3.24 28.04 2.92C28.3067 2.6 28.5467 2.25333 28.76 1.88C29 1.48 29.24 1.12 29.48 0.799999C29.7467 0.479999 30.0533 0.319998 30.4 0.319998C30.6133 0.319998 31 0.479999 31.56 0.799999C32.12 1.12 32.6933 1.50666 33.28 1.96C33.8667 2.38666 34.3867 2.82666 34.84 3.28C35.2933 3.73333 35.52 4.08 35.52 4.32C35.52 4.48 35.48 4.61333 35.4 4.72C35.32 4.82667 35.16 4.88 34.92 4.88V4.44L34.68 4.32C34.6 4.4 34.4533 4.56 34.24 4.8C34.0533 5.04 33.9333 5.2 33.88 5.28H22.92V8.08H31.72L33.32 6.72ZM20.36 4C19.96 4 19.7333 4.16 19.68 4.48C19.6533 4.8 19.64 5.13333 19.64 5.48C20.04 5.48 20.2533 5.32 20.28 5C20.3333 4.68 20.36 4.34667 20.36 4ZM22.68 4.48C22.68 4.24 22.56 4.10667 22.32 4.08C22.1067 4.02666 21.9333 4 21.8 4C21.8 4.13333 21.8133 4.32 21.84 4.56C21.8933 4.77333 22.04 4.88 22.28 4.88H22.4C22.5067 4.8 22.6 4.70666 22.68 4.6V4.48ZM39.2 10.2C39.2 10.3067 39.1867 10.4133 39.16 10.52C39.16 10.6267 39.08 10.6933 38.92 10.72L38.68 10.2L34.92 6.48C34.76 6.34666 34.5733 6.25333 34.36 6.2C34.1467 6.14666 33.9467 6.12 33.76 6.12C33.76 5.98666 33.8533 5.88 34.04 5.8C34.2533 5.72 34.3733 5.68 34.4 5.68C34.7467 5.68 35.1467 5.85333 35.6 6.2C36.0533 6.54667 36.4933 6.94667 36.92 7.4C37.3733 7.85333 37.8 8.32 38.2 8.8C38.6 9.28 38.9333 9.65333 39.2 9.92V10.2ZM20.08 9.48C20.08 9.42667 20.08 9.30667 20.08 9.12C20.1067 8.90667 20.1067 8.69333 20.08 8.48C20.08 8.24 20.0533 8.01333 20 7.8C19.9467 7.56 19.8533 7.38667 19.72 7.28C19.48 7.38667 19.3333 7.6 19.28 7.92C19.2267 8.24 19.2 8.52 19.2 8.76C19.2 9.05333 19.2667 9.25333 19.4 9.36C19.56 9.44 19.7867 9.48 20.08 9.48ZM28.76 11.52C28.9733 11.52 29.16 11.5733 29.32 11.68C29.5067 11.76 29.68 11.8533 29.84 11.96C30.0267 12.04 30.2 12.1333 30.36 12.24C30.5467 12.32 30.7467 12.36 30.96 12.36C31.2533 12.36 31.4133 12.2133 31.44 11.92C31.4667 11.6 31.48 11.3333 31.48 11.12C31.48 11.04 31.48 10.88 31.48 10.64C31.5067 10.3733 31.4133 10.2267 31.2 10.2C31.04 10.1733 30.76 10.1467 30.36 10.12C29.96 10.0667 29.5333 10.0267 29.08 10C28.6267 9.97333 28.1867 9.96 27.76 9.96C27.36 9.93333 27.08 9.92 26.92 9.92C26.7867 9.92 26.52 9.93333 26.12 9.96C25.7467 9.98667 25.3467 10.0133 24.92 10.04C24.4933 10.0667 24.0933 10.0933 23.72 10.12C23.3467 10.1467 23.08 10.1733 22.92 10.2V13.4H26.4L28.52 11.52H28.76ZM16.28 10.2H8.28L8 10.48C8 10.48 7.98667 10.5733 7.96 10.76C7.93333 10.9467 7.90667 11.1733 7.88 11.44C7.85333 11.68 7.82667 11.9333 7.8 12.2C7.77333 12.4667 7.74667 12.6933 7.72 12.88V13.12C7.74667 13.1733 7.78667 13.24 7.84 13.32C7.92 13.3733 7.97333 13.4 8 13.4H10.68L12.8 11.28C12.8267 11.2533 12.8667 11.24 12.92 11.24C13.24 11.24 13.52 11.3467 13.76 11.56C14.0267 11.7733 14.2933 12 14.56 12.24C14.8267 12.48 15.0933 12.7067 15.36 12.92C15.6267 13.1333 15.9333 13.24 16.28 13.24V10.2ZM11.6 15C11.7067 15 11.8267 14.88 11.96 14.64C12.0933 14.3733 12.2267 14.0667 12.36 13.72C12.4933 13.3733 12.6 13.0533 12.68 12.76C12.7867 12.44 12.84 12.2133 12.84 12.08C12.84 11.9467 12.8267 11.8533 12.8 11.8C12.6933 11.8533 12.5333 12.0133 12.32 12.28C12.1333 12.5467 11.9333 12.84 11.72 13.16C11.5067 13.48 11.32 13.7867 11.16 14.08C11 14.3467 10.92 14.52 10.92 14.6V14.72C10.9467 14.7467 11.0267 14.8 11.16 14.88C11.2933 14.9333 11.4 14.9733 11.48 15H11.6ZM20.8 20.48C20.8 20.1867 20.6667 19.84 20.4 19.44C20.16 19.0133 19.8533 18.7733 19.48 18.72C19.4533 18.7467 19.44 18.8 19.44 18.88C19.44 19.04 19.4933 19.2133 19.6 19.4C19.7333 19.56 19.8667 19.72 20 19.88C20.16 20.04 20.3067 20.1867 20.44 20.32C20.6 20.4533 20.72 20.5467 20.8 20.6V20.48ZM7.2 19.52C6.98667 19.6533 6.88 19.84 6.88 20.08H7.2V19.52ZM29.2 21.12C29.5733 21.12 30 21.2667 30.48 21.56C30.96 21.8533 31.44 22.2133 31.92 22.64C32.4 23.04 32.8533 23.4533 33.28 23.88C33.7333 24.3067 34.1067 24.64 34.4 24.88C34.4267 24.96 34.44 25.0933 34.44 25.28C34.44 25.6267 34.28 25.88 33.96 26.04C33.64 26.2 33.3467 26.3467 33.08 26.48C32.7867 25.6533 32.3333 25.0267 31.72 24.6L31.48 24.88C31.4533 24.88 31.44 25 31.44 25.24C31.44 25.4533 31.44 25.6133 31.44 25.72C31.44 25.88 31.44 26.1733 31.44 26.6C31.4667 27.0267 31.4933 27.4667 31.52 27.92C31.5733 28.3733 31.64 28.7867 31.72 29.16C31.8267 29.5067 31.96 29.68 32.12 29.68H32.28L32.8 29.12C32.9067 29.0667 33 29.04 33.08 29.04V37.4C33.08 37.7733 32.8667 38.08 32.44 38.32C32.0133 38.56 31.5067 38.7467 30.92 38.88C30.36 39.04 29.8 39.1467 29.24 39.2C28.68 39.2533 28.2667 39.28 28 39.28H26.92C26.8933 39.2533 26.84 39.2 26.76 39.12C26.7067 39.0667 26.68 39.0267 26.68 39C26.6533 38.9467 26.6133 38.84 26.56 38.68C26.5333 38.52 26.5067 38.3333 26.48 38.12C26.4533 37.9333 26.4267 37.76 26.4 37.6C26.4 37.44 26.4 37.3333 26.4 37.28H11.2V36.12C10.9067 36.12 10.7067 36.2 10.6 36.36C10.52 36.52 10.4533 36.7733 10.4 37.12H5.76C5.76 36.9333 5.72 36.8 5.64 36.72C5.56 36.64 5.48 36.5733 5.4 36.52C5.32 36.4933 5.24 36.4533 5.16 36.4C5.08 36.3467 5.04 36.24 5.04 36.08C5.04 36 5.05333 35.88 5.08 35.72C5.10667 35.5867 5.18667 35.52 5.32 35.52H22.4L22.12 36.08V36.32C22.2267 36.48 22.32 36.5733 22.4 36.6L23.6 36.64C24.1067 36.64 24.5333 36.5867 24.88 36.48C25.2267 36.3733 25.64 36.32 26.12 36.32C26.6 36.32 26.9467 36.4133 27.16 36.6C27.4 36.8133 27.6 37.04 27.76 37.28C27.9467 37.52 28.1333 37.7333 28.32 37.92C28.5067 38.1333 28.8 38.24 29.2 38.24C29.6533 38.24 30.04 38.1067 30.36 37.84C30.7067 37.6 31.0133 37.2933 31.28 36.92C31.5467 36.5733 31.8 36.2 32.04 35.8C32.28 35.4 32.5333 35.04 32.8 34.72C32.72 34.6133 32.5467 34.4533 32.28 34.24C32.0133 34 31.72 33.76 31.4 33.52C31.08 33.28 30.7733 33.0533 30.48 32.84C30.1867 32.6 29.9867 32.4267 29.88 32.32L29.6 32.28C29.2 32.28 28.8933 32.4533 28.68 32.8C28.4933 33.1467 28.3067 33.5333 28.12 33.96C27.96 34.36 27.76 34.7333 27.52 35.08C27.28 35.4267 26.9067 35.6 26.4 35.6V31.4H8.28C8.28 31.32 8.25333 31.2 8.2 31.04C8.17333 30.8533 8.12 30.68 8.04 30.52C7.96 30.36 7.85333 30.2267 7.72 30.12C7.61333 29.9867 7.48 29.92 7.32 29.92C7.05333 29.92 6.90667 30.08 6.88 30.4C6.85333 30.72 6.84 30.96 6.84 31.12C6.70667 31.12 6.6 31.04 6.52 30.88C6.46667 30.72 6.41333 30.5467 6.36 30.36C6.33333 30.1733 6.32 30 6.32 29.84C6.32 29.6533 6.32 29.5467 6.32 29.52H26.4V25.52H14.2C14.2 25.04 14.0667 24.72 13.8 24.56C13.56 24.4 13.2267 24.32 12.8 24.32C12.64 24.32 12.4133 24.32 12.12 24.32C11.8533 24.32 11.72 24.4533 11.72 24.72V24.88L12 25.4H7.2C7.12 25.08 6.94667 24.8 6.68 24.56C6.44 24.32 6.14667 24.2 5.8 24.2L5.88 24.08C5.88 24.0267 5.89333 23.9867 5.92 23.96C5.94667 23.9333 5.97333 23.8933 6 23.84C6.02667 23.7867 6.06667 23.7333 6.12 23.68H26.68L29.08 21.12H29.2ZM30.4 22.72C30.2933 22.48 30.16 22.3333 30 22.28C29.8667 22.2 29.6933 22.16 29.48 22.16C29.2933 22.16 29.16 22.1733 29.08 22.2V22.72H30.4ZM22.12 24.6C21.9067 24.7333 21.8 24.9067 21.8 25.12H22.12V24.6ZM6.12 25.4C6.01333 25.3733 5.93333 25.28 5.88 25.12C5.85333 25.12 5.84 25.08 5.84 25C5.84 24.9467 5.85333 24.9067 5.88 24.88L6.4 25.4H6.12ZM29.88 25.92C29.8 25.7867 29.7067 25.7067 29.6 25.68C29.5733 25.6533 29.5333 25.64 29.48 25.64C29.4 25.64 29.3467 25.6533 29.32 25.68L29.2 25.8C29.1467 25.8533 29.12 25.88 29.12 25.88L29.08 25.92C29.0267 26 28.96 26.1067 28.88 26.24C28.8 26.3733 28.72 26.5067 28.64 26.64C28.56 26.7733 28.48 26.9067 28.4 27.04C28.32 27.1733 28.28 27.2533 28.28 27.28C28.2533 27.28 28.24 27.32 28.24 27.4C28.24 27.4533 28.2533 27.4933 28.28 27.52C28.3067 27.52 28.4 27.4667 28.56 27.36C28.72 27.2533 28.8933 27.12 29.08 26.96C29.2933 26.8 29.48 26.64 29.64 26.48C29.8 26.32 29.88 26.1867 29.88 26.08V25.92ZM23.48 29.92H23.2V30.2H23.48V29.92ZM14.72 30.8C14.72 30.4533 14.5867 30.2533 14.32 30.2C14.0533 30.1467 13.7733 30.12 13.48 30.12C13.48 30.4133 13.6267 30.6 13.92 30.68C14.24 30.76 14.5067 30.8 14.72 30.8ZM18.92 36.08V36.32L19.2 36.08H18.92ZM73.32 23.52C73.88 23.7067 74.4133 24 74.92 24.4C75.4533 24.7733 75.9067 25.2 76.28 25.68C76.04 25.6 75.8 25.6133 75.56 25.72C75.3467 25.8 75.1467 25.9333 74.96 26.12C74.8 26.28 74.6667 26.48 74.56 26.72C74.4533 26.9333 74.4 27.16 74.4 27.4C74.4 27.5333 74.4933 27.6667 74.68 27.8C74.8933 27.9333 75.12 28.0667 75.36 28.2C75.6267 28.3067 75.88 28.4 76.12 28.48C76.3867 28.56 76.5733 28.6 76.68 28.6C77 28.6 77.3733 28.56 77.8 28.48C78.2267 28.4 78.52 28.1733 78.68 27.8C78.7867 27.8267 78.8667 27.92 78.92 28.08C78.9467 28.08 78.96 28.12 78.96 28.2C78.96 28.28 78.9467 28.32 78.92 28.32C78.92 28.3467 78.88 28.4 78.8 28.48C78.7467 28.5333 78.7067 28.5733 78.68 28.6C78.6 28.6533 78.4933 28.7333 78.36 28.84C78.2267 28.9467 78.1467 29 78.12 29H54.88C54.88 29.56 55.12 29.9733 55.6 30.24C56.08 30.5067 56.6 30.7467 57.16 30.96C57.7467 31.1733 58.28 31.4133 58.76 31.68C59.24 31.9467 59.48 32.3333 59.48 32.84C59.48 33.0267 59.08 33.3067 58.28 33.68C57.48 34.0533 56.4667 34.48 55.24 34.96C54.04 35.44 52.7067 35.9333 51.24 36.44C49.7733 36.9467 48.3733 37.4133 47.04 37.84C45.7067 38.2667 44.52 38.6133 43.48 38.88C42.4667 39.1467 41.7867 39.28 41.44 39.28H41.32C41.2933 39.2267 41.2 39.1333 41.04 39C40.9067 38.8667 40.8267 38.7733 40.8 38.72V38.6C40.8 38.3867 41.0667 38.08 41.6 37.68C42.1333 37.28 42.8 36.8267 43.6 36.32C44.4267 35.84 45.3067 35.32 46.24 34.76C47.2 34.1733 48.08 33.5733 48.88 32.96C49.7067 32.3467 50.3867 31.7467 50.92 31.16C51.4533 30.5467 51.72 29.96 51.72 29.4C51.72 29.3467 51.68 29.2667 51.6 29.16C51.5467 29.0533 51.5067 29 51.48 29H41.08C41.0533 29 41 28.92 40.92 28.76C40.8667 28.5733 40.8267 28.4267 40.8 28.32C40.8 28.24 40.7867 28.0667 40.76 27.8C40.7333 27.5333 40.72 27.36 40.72 27.28H41.2C41.2 27.5733 41.2667 27.8 41.4 27.96C41.56 28.12 41.7467 28.2533 41.96 28.36C42.1733 28.4667 42.4 28.5333 42.64 28.56C42.88 28.5867 43.1067 28.6 43.32 28.6C43.5867 28.6 43.8533 28.5867 44.12 28.56C44.4133 28.5333 44.68 28.48 44.92 28.4C45.16 28.2933 45.36 28.1467 45.52 27.96C45.68 27.7467 45.76 27.4667 45.76 27.12H48.28V1.6C48.8133 1.6 49.3333 1.72 49.84 1.96C50.3467 2.17333 50.84 2.42667 51.32 2.72C51.8267 2.98666 52.3333 3.24 52.84 3.48C53.3467 3.69333 53.8667 3.8 54.4 3.8H64.8C64.8267 3.8 64.9067 3.77333 65.04 3.72C65.2 3.64 65.2933 3.57333 65.32 3.52C65.4267 3.44 65.5867 3.29333 65.8 3.08C66.04 2.84 66.28 2.6 66.52 2.36C66.7867 2.09333 67.0267 1.85333 67.24 1.64C67.48 1.4 67.64 1.22666 67.72 1.12H67.88C68.3067 1.12 68.8 1.29333 69.36 1.64C69.92 1.98666 70.48 2.4 71.04 2.88C71.6 3.33333 72.1067 3.8 72.56 4.28C73.04 4.76 73.3867 5.13333 73.6 5.4L72.12 6.72V15C71.8533 14.8133 71.6 14.52 71.36 14.12C71.1467 13.6933 70.9333 13.2667 70.72 12.84C70.5067 12.4133 70.28 12.0267 70.04 11.68C69.8267 11.3333 69.5867 11.1067 69.32 11C69.2933 10.9733 69.2 10.9467 69.04 10.92C68.88 10.8933 68.7067 10.8667 68.52 10.84C68.36 10.8133 68.1867 10.8 68 10.8C67.84 10.7733 67.7467 10.7467 67.72 10.72C67.6667 10.72 67.5333 10.6933 67.32 10.64C67.1333 10.56 67 10.5067 66.92 10.48V10.72C66.9467 10.7733 67.0133 10.8667 67.12 11C67.2267 11.1067 67.3333 11.24 67.44 11.4C67.5733 11.56 67.6933 11.7067 67.8 11.84C67.9067 11.9733 67.9733 12.0533 68 12.08L68.04 12.32C68.04 12.9333 67.8 13.3467 67.32 13.56C66.84 13.7467 66.36 13.8667 65.88 13.92C65.8533 13.9467 65.7733 13.96 65.64 13.96H65.48V11.52H54.68V15.52H54.28V12.6C54.28 12.44 54.1867 12.3067 54 12.2C53.84 12.0667 53.6533 11.8933 53.44 11.68C53.2533 11.44 53.0667 11.1467 52.88 10.8C52.72 10.4267 52.64 9.92 52.64 9.28C52.6133 9.28 52.4933 9.34667 52.28 9.48C52.0933 9.61333 51.84 9.76 51.52 9.92C51.2 10.08 50.8267 10.24 50.4 10.4C49.9733 10.56 49.5333 10.6667 49.08 10.72C49 10.7467 48.88 10.8 48.72 10.88C48.5867 10.9333 48.52 10.9733 48.52 11V16.6C48.52 16.6267 48.7333 16.7067 49.16 16.84C49.6133 16.9733 50.0933 17.1867 50.6 17.48C51.1333 17.7467 51.6 18.0933 52 18.52C52.4267 18.9467 52.6 19.4667 52.52 20.08C52.92 20.0267 53.16 19.9067 53.24 19.72C53.3467 19.5333 53.3867 19.32 53.36 19.08C53.3333 18.84 53.2933 18.5867 53.24 18.32C53.1867 18.0533 53.2 17.8133 53.28 17.6C53.3867 17.36 53.6 17.1733 53.92 17.04C54.24 16.88 54.76 16.8 55.48 16.8V15.8H60C59.9467 15.8267 59.8533 15.9067 59.72 16.04C59.5867 16.1733 59.5067 16.2667 59.48 16.32C59.4533 16.3733 59.4667 16.4133 59.52 16.44C59.5733 16.44 59.6 16.4667 59.6 16.52C59.6533 16.52 59.76 16.6 59.92 16.76C60.08 16.8933 60.2 16.9333 60.28 16.88C60.3333 16.8 60.3867 16.6 60.44 16.28C60.52 15.96 60.5467 15.76 60.52 15.68H65.08C65.1333 15.4667 65.2667 15.28 65.48 15.12C65.6933 14.96 65.9333 14.84 66.2 14.76C66.4667 14.6533 66.7333 14.5733 67 14.52C67.2933 14.4667 67.5333 14.44 67.72 14.44C68.2 14.44 68.5867 14.56 68.88 14.8C69.2 15.0133 69.4667 15.2533 69.68 15.52C69.92 15.7867 70.12 16.04 70.28 16.28C70.4667 16.4933 70.68 16.6 70.92 16.6C71.16 16.6 71.36 16.5467 71.52 16.44C71.7067 16.3333 71.9067 16.28 72.12 16.28V23.76C72.3333 23.76 72.52 23.72 72.68 23.64C72.84 23.56 73.0133 23.52 73.2 23.52H73.32ZM66.92 3.52H66.12V3.8H66.92V3.52ZM71.24 5.36C71.24 4.98666 71.1333 4.76 70.92 4.68C70.7067 4.57333 70.4267 4.52 70.08 4.52C70.08 4.65333 70.08 4.81333 70.08 5C70.1067 5.18667 70.1467 5.37333 70.2 5.56C70.2533 5.72 70.32 5.86667 70.4 6C70.5067 6.13333 70.64 6.2 70.8 6.2C71.04 6.2 71.1733 6.10667 71.2 5.92C71.2267 5.70667 71.24 5.52 71.24 5.36ZM48.8 5.92C48.9333 5.92 49 5.84 49 5.68C49 5.49333 48.9333 5.4 48.8 5.4C48.6667 5.4 48.6 5.49333 48.6 5.68C48.6 5.84 48.6667 5.92 48.8 5.92ZM66.4 9.68C66.4533 9.6 66.5067 9.42667 66.56 9.16C66.64 8.86667 66.68 8.68 66.68 8.6C66.68 8.44 66.6133 8.36 66.48 8.36C66.3733 8.33333 66.24 8.32 66.08 8.32C65.92 8.32 65.7733 8.32 65.64 8.32C65.5333 8.29333 65.48 8.21333 65.48 8.08V5.68H54.68V9.4H65.32L65.6 9.12L66.4 9.68ZM53.08 13.28C53.08 13.7867 52.88 14.2133 52.48 14.56C52.1067 14.88 51.68 15.04 51.2 15.04C51.04 15.04 50.8133 15.0267 50.52 15C50.2267 14.9733 49.9333 14.92 49.64 14.84C49.3733 14.76 49.1467 14.6533 48.96 14.52C48.8 14.36 48.7467 14.16 48.8 13.92C48.8533 13.7067 48.96 13.4667 49.12 13.2C49.3067 12.9067 49.5067 12.64 49.72 12.4C49.96 12.16 50.2 11.96 50.44 11.8C50.7067 11.6133 50.9467 11.52 51.16 11.52C51.6667 11.52 52.1067 11.68 52.48 12C52.88 12.2933 53.08 12.72 53.08 13.28ZM53.28 15C53.28 14.7867 53.3867 14.6133 53.6 14.48C53.8133 14.6133 53.92 14.7867 53.92 15H53.28ZM69.36 16.84C69.36 16.6533 69.28 16.4667 69.12 16.28C68.96 16.0933 68.7867 16 68.6 16C68.6 16.0533 68.5867 16.2 68.56 16.44C68.56 16.6533 68.5467 16.8 68.52 16.88C68.52 16.9067 68.5067 16.9867 68.48 17.12C68.4533 17.2533 68.4267 17.4 68.4 17.56C68.3733 17.6933 68.3467 17.8267 68.32 17.96C68.2933 18.0933 68.28 18.1733 68.28 18.2C68.28 18.28 68.3067 18.4267 68.36 18.64C68.44 18.8267 68.4933 18.9467 68.52 19C68.6267 18.6267 68.7867 18.2667 69 17.92C69.24 17.5733 69.36 17.2133 69.36 16.84ZM65.32 17.4H55.2L54.68 17.92V21.92H65.32V17.4ZM68.8 20.6C68.5067 20.8133 68.28 21 68.12 21.16C67.9867 21.32 67.92 21.56 67.92 21.88C68.24 21.88 68.5333 21.8133 68.8 21.68C69.0933 21.52 69.2667 21.2533 69.32 20.88C69.2667 20.72 69.1867 20.6267 69.08 20.6H68.8ZM70.12 25.12C70.52 24.72 70.8133 24.4133 71 24.2C71.1867 23.9867 71.28 23.64 71.28 23.16C70.5867 23.16 70.1333 23.3067 69.92 23.6C69.7067 23.8933 69.52 24.2133 69.36 24.56C69.2 24.9067 68.9467 25.2267 68.6 25.52C68.2533 25.8133 67.6 25.96 66.64 25.96C66.2133 25.96 65.9333 25.8533 65.8 25.64C65.6667 25.4 65.5733 25.1467 65.52 24.88C65.4933 24.6133 65.4667 24.3733 65.44 24.16C65.4133 23.92 65.2933 23.8 65.08 23.8H54.92C54.8667 23.8267 54.8267 23.8533 54.8 23.88C54.72 23.96 54.68 24.0267 54.68 24.08C54.36 24.6133 54 25.0267 53.6 25.32C53.2267 25.6133 52.8133 25.8667 52.36 26.08C51.9333 26.2667 51.4667 26.44 50.96 26.6C50.4533 26.7333 49.9067 26.9067 49.32 27.12H57.48C57.48 27.52 57.4933 27.8267 57.52 28.04C57.5733 28.2533 57.8667 28.36 58.4 28.36C58.4533 28.36 58.5467 28.36 58.68 28.36C58.8133 28.36 58.8933 28.3467 58.92 28.32L58.4 27.12H69.88C70.0133 26.9333 70.1467 26.7733 70.28 26.64C70.4133 26.5067 70.5333 26.3867 70.64 26.28C70.7467 26.1467 70.84 26.0267 70.92 25.92C70.9733 25.8667 71.0267 25.7733 71.08 25.64C71.16 25.5067 71.2 25.4267 71.2 25.4C71.2 25.3733 71.16 25.3333 71.08 25.28C71.0267 25.2 70.9733 25.1467 70.92 25.12H70.12ZM48.8 23.8C48.7733 23.72 48.68 23.6267 48.52 23.52V23.8C48.6 23.9067 48.6933 24 48.8 24.08V23.8ZM76.8 26.48C76.6667 26.48 76.6 26.3867 76.6 26.2H76.52C76.3867 26.2 76.32 26.12 76.32 25.96C76.32 25.7733 76.3867 25.68 76.52 25.68C76.6533 25.68 76.72 25.76 76.72 25.92H76.8C76.9333 25.92 77 26.0133 77 26.2C77 26.3867 76.9333 26.48 76.8 26.48ZM63.48 27.8C63.4267 27.6133 63.3067 27.52 63.12 27.52C62.9333 27.52 62.7867 27.52 62.68 27.52H62.12L63.2 28.08L63.48 27.8ZM52.52 27.52C52.4933 27.5733 52.4 27.6667 52.24 27.8C52.1067 27.9333 52.0267 28.0267 52 28.08H52.28C52.3067 28.0267 52.3867 27.9333 52.52 27.8C52.68 27.6667 52.7733 27.5733 52.8 27.52H52.52ZM54.92 27.52H54.4C54.5067 27.76 54.68 27.88 54.92 27.88V27.52ZM68.52 27.52C68.3867 27.52 68.3067 27.6 68.28 27.76C68.2533 27.8933 68.24 28 68.24 28.08C68.24 28.24 68.2933 28.36 68.4 28.44C68.5333 28.52 68.68 28.5733 68.84 28.6C69 28.6267 69.16 28.64 69.32 28.64C69.5067 28.64 69.64 28.64 69.72 28.64L70.68 28.6C70.8133 28.5467 70.8933 28.48 70.92 28.4C70.9467 28.2933 70.96 28.1867 70.96 28.08C70.96 28 70.9467 27.8933 70.92 27.76C70.8933 27.6 70.8133 27.52 70.68 27.52H68.52ZM50.12 28.08V28.32H50.4L50.12 28.08ZM64 29.92C64.3467 29.92 64.8533 29.96 65.52 30.04C66.2133 30.0933 66.96 30.1867 67.76 30.32C68.56 30.4267 69.3867 30.5733 70.24 30.76C71.12 30.9467 71.9333 31.16 72.68 31.4C73.4267 31.64 74.0667 31.9067 74.6 32.2C75.16 32.4933 75.5333 32.8 75.72 33.12C75.5867 33.1733 75.5067 33.2533 75.48 33.36C75.4533 33.44 75.44 33.5333 75.44 33.64C75.44 33.8533 75.48 34.0533 75.56 34.24C75.6667 34.4 75.76 34.56 75.84 34.72C75.9467 34.8533 76.04 35 76.12 35.16C76.2267 35.3467 76.28 35.5467 76.28 35.76C76.28 36.0533 76.24 36.32 76.16 36.56C76.08 36.8 76.04 37.0533 76.04 37.32C76.4133 37.32 76.68 37.1467 76.84 36.8C77 36.48 77.08 36.1333 77.08 35.76C77.08 35.3333 77.0267 35 76.92 34.76C76.8133 34.4933 76.6 34.1333 76.28 33.68C76.3067 33.6533 76.3467 33.64 76.4 33.64C76.5867 33.64 76.76 33.7333 76.92 33.92C77.08 34.08 77.2133 34.2933 77.32 34.56C77.4267 34.8 77.5067 35.04 77.56 35.28C77.6133 35.5467 77.64 35.76 77.64 35.92C77.64 36.4 77.52 36.8133 77.28 37.16C77.0667 37.5333 76.7867 37.84 76.44 38.08C76.0933 38.32 75.7067 38.4933 75.28 38.6C74.8533 38.7067 74.4267 38.76 74 38.76C73.5733 38.76 73.16 38.7467 72.76 38.72C72.3867 38.72 72.04 38.5467 71.72 38.2C71.1867 37.64 70.4667 37.0133 69.56 36.32C68.68 35.6533 67.7733 34.9867 66.84 34.32C65.9067 33.6267 65.0267 32.9467 64.2 32.28C63.4 31.6133 62.8 31.0133 62.4 30.48V30.2C62.4267 30.12 62.52 30.0267 62.68 29.92H64ZM73.6 32.28C73.3867 32.28 73.2133 32.3867 73.08 32.6H73.6V32.28ZM76 33.68C75.8667 33.68 75.8 33.5867 75.8 33.4C75.8 33.2133 75.8667 33.12 76 33.12C76.1333 33.12 76.2 33.2133 76.2 33.4C76.2 33.5867 76.1333 33.68 76 33.68ZM50.68 35C50.6533 34.9733 50.6133 34.8933 50.56 34.76C50.5333 34.6 50.4933 34.44 50.44 34.28C50.3867 34.12 50.32 33.9733 50.24 33.84C50.16 33.7067 50.08 33.64 50 33.64C49.92 33.64 49.88 33.6533 49.88 33.68C49.8267 33.68 49.76 33.72 49.68 33.8C49.6533 33.8533 49.6267 33.8933 49.6 33.92V35.8C49.6 35.8267 49.6267 35.8667 49.68 35.92C49.76 36 49.8267 36.0533 49.88 36.08H50C50.1867 36.08 50.3467 35.96 50.48 35.72C50.6133 35.48 50.68 35.28 50.68 35.12V35ZM70.4 36.08C70.5333 36.08 70.6 35.9867 70.6 35.8C70.6 35.6133 70.5333 35.52 70.4 35.52C70.2667 35.52 70.2 35.6133 70.2 35.8C70.2 35.9867 70.2667 36.08 70.4 36.08ZM47.2 37.68C47.3333 37.68 47.4 37.5867 47.4 37.4C47.4 37.2133 47.3333 37.12 47.2 37.12C47.0667 37.12 47 37.2133 47 37.4C47 37.5867 47.0667 37.68 47.2 37.68Z" fill="#333E44"/>
</svg>
