<svg width="160" height="40" viewBox="0 0 160 40" fill="none" xmlns="http://www.w3.org/2000/svg">
<path d="M39.48 15.68C39.48 15.8667 39.3733 16 39.16 16.08C38.9733 16.1333 38.8133 16.16 38.68 16.16V15.28L36.52 13.12H36.4C36.24 13.12 36.12 13.1867 36.04 13.32C35.9867 13.4267 35.96 13.5467 35.96 13.68C35.96 13.7867 36.0533 13.9733 36.24 14.24C36.4267 14.48 36.64 14.7467 36.88 15.04C37.12 15.3067 37.36 15.5733 37.6 15.84C37.84 16.08 38.0133 16.24 38.12 16.32C38.04 16.3733 37.8267 16.52 37.48 16.76C37.16 16.9733 36.8133 17.2267 36.44 17.52C36.0933 17.7867 35.7867 18.04 35.52 18.28C35.2533 18.52 35.1467 18.6667 35.2 18.72L36 19.8L34.52 21.12V35C34.52 35.6667 34.32 36.2533 33.92 36.76C33.52 37.2667 33.0267 37.68 32.44 38C31.8533 38.3467 31.2267 38.6 30.56 38.76C29.8933 38.9467 29.2933 39.04 28.76 39.04C28.7067 39.04 28.5333 39.04 28.24 39.04C27.9467 39.0667 27.7733 38.96 27.72 38.72C27.5867 37.8133 27.4533 37.12 27.32 36.64C27.1867 36.16 27.04 35.8 26.88 35.56C26.72 35.32 26.5333 35.16 26.32 35.08C26.1333 35 25.92 34.9067 25.68 34.8C25.4667 34.6667 25.2133 34.4933 24.92 34.28C24.6533 34.04 24.3467 33.6533 24 33.12V32.88C24.0267 32.8267 24.0667 32.7733 24.12 32.72C24.2 32.64 24.2533 32.6 24.28 32.6H28C28.16 32.6 28.28 32.5467 28.36 32.44C28.44 32.3067 28.4933 32.1733 28.52 32.04C28.5467 31.88 28.56 31.7333 28.56 31.6C28.56 31.44 28.56 31.3333 28.56 31.28C28.56 31.2 28.56 31.0933 28.56 30.96C28.56 30.8 28.5467 30.6533 28.52 30.52C28.4933 30.36 28.44 30.2267 28.36 30.12C28.28 29.9867 28.16 29.92 28 29.92H20.92V37.12C20.92 37.4667 20.6933 37.76 20.24 38C19.7867 38.24 19.2667 38.4267 18.68 38.56C18.0933 38.72 17.52 38.8267 16.96 38.88C16.4 38.96 16.0267 39 15.84 39C15.84 39 15.7733 39 15.64 39C15.5333 39.0267 15.4133 39.0267 15.28 39C15.1733 39 15.0667 38.9733 14.96 38.92C14.8533 38.8933 14.8 38.8267 14.8 38.72V19.96C14.6933 19.96 14.4933 19.9733 14.2 20C13.9067 20 13.6 20.0133 13.28 20.04C12.96 20.04 12.64 20.0533 12.32 20.08C12.0267 20.08 11.8267 20.08 11.72 20.08C11.6933 20.08 11.56 20.04 11.32 19.96C11.1067 19.8533 10.9733 19.8 10.92 19.8H10.8C10.5867 19.8 10.36 20.1733 10.12 20.92C9.90667 21.6667 9.69333 22.52 9.48 23.48C9.29333 24.4133 9.13333 25.3067 9 26.16C8.86667 27.0133 8.8 27.56 8.8 27.8C8.8 28.3867 8.88 28.96 9.04 29.52C9.22667 30.08 9.41333 30.64 9.6 31.2C9.81333 31.7333 10 32.28 10.16 32.84C10.3467 33.4 10.44 33.9867 10.44 34.6L10.4 36.32C10.08 37.1467 9.57333 37.8 8.88 38.28C8.21333 38.76 7.42667 39 6.52 39C6.36 39 6.13333 38.9733 5.84 38.92C5.57333 38.8933 5.29333 38.8267 5 38.72C4.73333 38.64 4.49333 38.52 4.28 38.36C4.09333 38.2 4 38.0133 4 37.8C4 37.48 4.10667 37.24 4.32 37.08C4.56 36.9467 4.82667 36.8533 5.12 36.8C5.44 36.7467 5.74667 36.7333 6.04 36.76C6.33333 36.7867 6.54667 36.8267 6.68 36.88C6.65333 36.8 6.6 36.68 6.52 36.52C6.46667 36.3867 6.38667 36.2267 6.28 36.04C6.2 35.88 6.12 35.72 6.04 35.56C5.96 35.4267 5.90667 35.3333 5.88 35.28C5.85333 35.2267 5.8 35.16 5.72 35.08C5.66667 35.0267 5.62667 35 5.6 35H3.72C3.85333 34.2267 3.93333 33.6 3.96 33.12C3.98667 32.64 4 32.0533 4 31.36C4 30.5333 3.85333 29.8933 3.56 29.44C3.29333 28.96 2.98667 28.5733 2.64 28.28C2.32 27.9867 2.01333 27.7467 1.72 27.56C1.45333 27.3733 1.32 27.1467 1.32 26.88C1.32 26.6933 1.48 26.52 1.8 26.36C2.12 26.2 2.49333 26.0267 2.92 25.84C3.34667 25.6533 3.76 25.44 4.16 25.2C4.58667 24.96 4.89333 24.6667 5.08 24.32C5.26667 23.9733 5.50667 23.4933 5.8 22.88C6.09333 22.24 6.4 21.5467 6.72 20.8C7.06667 20.0533 7.41333 19.2933 7.76 18.52C8.10667 17.72 8.42667 17 8.72 16.36C9.01333 15.72 9.26667 15.2 9.48 14.8C9.69333 14.4 9.82667 14.2 9.88 14.2H10.4V12.88L12.52 8.6C12.6 8.46667 12.68 8.38667 12.76 8.36C12.84 8.33333 12.9467 8.32 13.08 8.32C13.3467 8.32 13.5067 8.4 13.56 8.56C13.6133 8.72 13.64 8.90667 13.64 9.12L13.6 9.68C13.5467 9.84 13.4533 10.12 13.32 10.52C13.1867 10.92 13.04 11.3467 12.88 11.8C12.7467 12.2533 12.6133 12.68 12.48 13.08C12.3733 13.48 12.3067 13.76 12.28 13.92C12.2533 13.9733 12.24 14.08 12.24 14.24C12.2667 14.3733 12.2933 14.52 12.32 14.68C12.3467 14.84 12.3733 15 12.4 15.16C12.4267 15.2933 12.44 15.3867 12.44 15.44C12.6 15.44 12.7333 15.4933 12.84 15.6C12.9467 15.68 13.04 15.7867 13.12 15.92C13.2 16.0267 13.28 16.1333 13.36 16.24C13.44 16.32 13.56 16.36 13.72 16.36C13.9067 16.36 14.0933 16.3067 14.28 16.2C14.4667 16.0667 14.6533 15.92 14.84 15.76C15.0533 15.6 15.28 15.4667 15.52 15.36C15.76 15.2267 16.0267 15.16 16.32 15.16L16.28 15.52C16.2533 15.5467 16.2 15.64 16.12 15.8C16.04 15.96 16 16.0533 16 16.08C16.08 16.4 16.28 16.6667 16.6 16.88C16.9467 17.0667 17.32 17.2267 17.72 17.36C18.12 17.4933 18.52 17.6267 18.92 17.76C19.3467 17.8933 19.7067 18.04 20 18.2C19.7867 18.2 19.6 18.28 19.44 18.44C19.28 18.5733 19.1333 18.7467 19 18.96C18.8933 19.1467 18.8 19.36 18.72 19.6C18.6667 19.8133 18.64 20.0133 18.64 20.2C18.64 20.3067 18.64 20.44 18.64 20.6C18.6667 20.7333 18.76 20.8267 18.92 20.88C19.16 20.88 19.48 20.8267 19.88 20.72C20.3067 20.5867 20.7333 20.4267 21.16 20.24C21.5867 20.0533 21.9867 19.8533 22.36 19.64C22.7333 19.4267 23.0133 19.2133 23.2 19C23.2533 18.9467 23.24 18.8667 23.16 18.76L23.04 18.6H21.32L28.28 18.2L30.4 16.08C30.4 16.0533 30.44 16.04 30.52 16.04C30.6267 16.04 30.7067 16.04 30.76 16.04C30.9467 16.04 31.1067 16.0933 31.24 16.2C31.4 16.28 31.5467 16.3733 31.68 16.48C31.8133 16.56 31.9467 16.6533 32.08 16.76C32.2133 16.84 32.36 16.88 32.52 16.88C32.7067 16.88 32.8 16.7733 32.8 16.56C32.8267 16.3467 32.84 16.2133 32.84 16.16C32.84 15.9467 32.8 15.76 32.72 15.6C32.64 15.44 32.4 15.4133 32 15.52C32.0533 14.7733 32.0533 14.0267 32 13.28C31.9467 12.5067 31.8533 11.7467 31.72 11H31.48C31 11.24 30.6933 11.6667 30.56 12.28C30.4533 12.8933 30.4 13.44 30.4 13.92C30.4 14.24 30.4933 14.52 30.68 14.76C30.8933 14.9733 31 15.2267 31 15.52H17.32L17.08 15.28C17.48 15.0133 17.8933 14.92 18.32 15C18.7467 15.0533 19.2 15.08 19.68 15.08C19.68 14.6 19.5867 14.0933 19.4 13.56C19.2133 13.0267 18.96 12.5333 18.64 12.08C18.32 11.6 17.9333 11.2133 17.48 10.92C17.0267 10.6267 16.5333 10.48 16 10.48V1.68C16 1.52 16.0667 1.42666 16.2 1.4C16.3333 1.37333 16.44 1.36 16.52 1.36C16.68 1.36 16.7733 1.37333 16.8 1.4L20.8 3H27.72L29.88 0.879998C29.88 0.853332 29.96 0.839999 30.12 0.839999C30.36 0.839999 30.7733 0.973332 31.36 1.24C31.9733 1.50666 32.5733 1.82666 33.16 2.2C33.7733 2.57333 34.3067 2.97333 34.76 3.4C35.24 3.8 35.48 4.16 35.48 4.48V4.6L34.12 5.4C34.0933 5.42667 34.04 5.48 33.96 5.56C33.9067 5.61333 33.88 5.65333 33.88 5.68L33.6 12.32C33.6 12.5067 33.6933 12.6 33.88 12.6C33.9333 12.5733 34 12.5467 34.08 12.52C34.1867 12.4933 34.2933 12.4267 34.4 12.32C34.4533 12.2933 34.5867 12.2133 34.8 12.08C35.0133 11.92 35.1467 11.8267 35.2 11.8H35.48C35.5333 11.8267 35.6667 11.92 35.88 12.08C36.0933 12.2133 36.2267 12.2933 36.28 12.32C36.3867 12.4533 36.5867 12.68 36.88 13C37.1733 13.2933 37.4933 13.6133 37.84 13.96C38.1867 14.3067 38.5067 14.6267 38.8 14.92C39.12 15.2133 39.3467 15.4133 39.48 15.52V15.68ZM12.04 5.84C12.04 6.66667 11.7867 7.38667 11.28 8C10.7733 8.58666 10.08 8.88 9.2 8.88C8.64 8.88 8.01333 8.58666 7.32 8C6.62667 7.38667 5.97333 6.69333 5.36 5.92C4.74667 5.12 4.22667 4.33333 3.8 3.56C3.4 2.76 3.2 2.17333 3.2 1.8C3.2 1.66667 3.25333 1.57333 3.36 1.52C3.49333 1.46667 3.62667 1.42666 3.76 1.4C3.92 1.37333 4.06667 1.37333 4.2 1.4C4.33333 1.4 4.42667 1.4 4.48 1.4C5.17333 1.4 5.96 1.46667 6.84 1.6C7.72 1.73333 8.54667 1.97333 9.32 2.32C10.0933 2.64 10.7333 3.09333 11.24 3.68C11.7733 4.24 12.04 4.96 12.04 5.84ZM8.48 5.68C8.48 5.28 8.53333 4.92 8.64 4.6C8.77333 4.28 8.84 3.92 8.84 3.52C8.84 2.98666 8.72 2.62667 8.48 2.44C8.26667 2.25333 7.88 2.16 7.32 2.16L6.68 2.2C6.81333 2.49333 6.97333 2.68 7.16 2.76C7.34667 2.84 7.52 2.92 7.68 3C7.84 3.08 7.97333 3.2 8.08 3.36C8.21333 3.49333 8.28 3.77333 8.28 4.2C8.28 4.49333 8.22667 4.74666 8.12 4.96C8.01333 5.17333 7.96 5.41333 7.96 5.68H8.48ZM23.8 3.48C23.56 3.48 23.3733 3.57333 23.24 3.76C23.1067 3.92 23 4.10667 22.92 4.32C22.9467 4.34667 23 4.36 23.08 4.36C23.1333 4.36 23.1733 4.34667 23.2 4.32C23.36 4.24 23.4933 4.13333 23.6 4C23.7333 3.84 23.8 3.66667 23.8 3.48ZM28.28 8.08C28.44 8.08 28.5467 8.01333 28.6 7.88C28.68 7.72 28.7467 7.56 28.8 7.4C28.88 7.24 28.96 7.09333 29.04 6.96C29.1467 6.8 29.32 6.72 29.56 6.72C30.0667 6.72 30.56 6.77333 31.04 6.88C31.5467 6.96 32.0533 7 32.56 7C32.6667 7 32.76 7 32.84 7C32.9467 6.97333 33.0267 6.88 33.08 6.72C32.92 6.02667 32.68 5.62666 32.36 5.52C32.04 5.41333 31.6533 5.36 31.2 5.36C30.8 5.36 30.4667 5.42666 30.2 5.56C29.96 5.66666 29.72 5.8 29.48 5.96C29.24 6.12 29 6.28 28.76 6.44C28.52 6.57333 28.2267 6.66667 27.88 6.72V4.88H21.32V13.76C21.3467 13.76 21.4133 13.76 21.52 13.76C21.6267 13.7333 21.7333 13.7067 21.84 13.68C21.9467 13.6533 22.04 13.6267 22.12 13.6C22.2267 13.5467 22.28 13.48 22.28 13.4V10.2C22.28 10.1733 22.4 10.0933 22.64 9.96C22.88 9.8 23.0667 9.70667 23.2 9.68C23.4933 9.57333 23.8267 9.42667 24.2 9.24C24.6 9.02667 25 8.81333 25.4 8.6C25.8 8.38667 26.2 8.2 26.6 8.04C27.0267 7.88 27.4 7.8 27.72 7.8C27.7467 7.8 27.7867 7.84 27.84 7.92C27.92 8 27.9733 8.05333 28 8.08H28.28ZM22.4 6.48C22.48 6.45333 22.6133 6.44 22.8 6.44C23.4133 6.44 23.9867 6.6 24.52 6.92C25.08 7.21333 25.6133 7.50667 26.12 7.8C25.96 7.93333 25.7067 8.08 25.36 8.24C25.04 8.4 24.6933 8.56 24.32 8.72C23.9467 8.85333 23.5733 8.97333 23.2 9.08C22.8533 9.16 22.5867 9.2 22.4 9.2V6.48ZM26.4 13.4C26.4 13.56 26.4933 13.6533 26.68 13.68C26.8933 13.68 27.0267 13.68 27.08 13.68C27.32 13.68 27.48 13.6133 27.56 13.48C27.6667 13.32 27.7333 13.1467 27.76 12.96C27.7867 12.7467 27.7867 12.5333 27.76 12.32C27.76 12.1067 27.76 11.9333 27.76 11.8C27.76 11.72 27.76 11.5733 27.76 11.36C27.7867 11.12 27.7733 10.88 27.72 10.64C27.6933 10.3733 27.6267 10.1467 27.52 9.96C27.44 9.74667 27.2933 9.64 27.08 9.64C27 9.64 26.9467 9.65333 26.92 9.68C26.84 9.73333 26.7333 9.82666 26.6 9.96C26.4667 10.0933 26.4 10.1733 26.4 10.2V13.4ZM4 16.08C3.94667 16.1067 3.81333 16.16 3.6 16.24C3.38667 16.2933 3.25333 16.32 3.2 16.32C3.17333 16.3467 3.13333 16.36 3.08 16.36C3 16.36 2.94667 16.3467 2.92 16.32C2.84 16.0267 2.65333 15.6133 2.36 15.08C2.06667 14.52 1.76 13.96 1.44 13.4C1.14667 12.8133 0.866667 12.2667 0.6 11.76C0.36 11.2267 0.24 10.84 0.24 10.6C0.24 10.52 0.253333 10.48 0.28 10.48C0.333333 10.32 0.413333 10.2267 0.52 10.2L1.72 10.16C2.36 10.16 3.06667 10.24 3.84 10.4C4.64 10.56 5.38667 10.8267 6.08 11.2C6.77333 11.5467 7.36 12 7.84 12.56C8.32 13.12 8.56 13.8 8.56 14.6C8.56 15.4533 8.24 16.1467 7.6 16.68C6.98667 17.1867 6.28 17.44 5.48 17.44C5.42667 17.44 5.30667 17.44 5.12 17.44C4.93333 17.44 4.73333 17.44 4.52 17.44C4.30667 17.4133 4.12 17.3733 3.96 17.32C3.8 17.24 3.72 17.1333 3.72 17V16.88C3.74667 16.8533 3.8 16.76 3.88 16.6C3.96 16.44 4 16.3467 4 16.32V16.08ZM3.48 11.4C3.48 11.2933 3.46667 11.1733 3.44 11.04C3.44 10.88 3.36 10.7733 3.2 10.72C3.04 10.7733 2.94667 10.88 2.92 11.04C2.92 11.1733 2.92 11.2933 2.92 11.4C2.92 11.5067 2.92 11.64 2.92 11.8C2.94667 11.9333 3.04 12.0267 3.2 12.08C3.36 12.0267 3.44 11.9333 3.44 11.8C3.46667 11.64 3.48 11.5067 3.48 11.4ZM14.8 11.52C15.04 11.52 15.2267 11.5733 15.36 11.68C15.4933 11.7867 15.5867 11.92 15.64 12.08C15.72 12.24 15.76 12.4133 15.76 12.6C15.7867 12.7867 15.8 12.96 15.8 13.12C15.8 13.2 15.7867 13.3467 15.76 13.56C15.76 13.7467 15.7467 13.8667 15.72 13.92C15.5333 13.84 15.3867 13.7067 15.28 13.52C15.2 13.3333 15.1333 13.12 15.08 12.88C15.0267 12.64 14.9733 12.4 14.92 12.16C14.8667 11.92 14.7867 11.7067 14.68 11.52H14.8ZM33.32 17.68C33.4533 17.68 33.52 17.5867 33.52 17.4C33.52 17.2133 33.4533 17.12 33.32 17.12C33.1867 17.12 33.12 17.2133 33.12 17.4C33.12 17.5867 33.1867 17.68 33.32 17.68ZM30.48 20.92C30.48 20.7067 30.4667 20.4667 30.44 20.2C30.4133 19.9333 30.3067 19.7067 30.12 19.52C29.96 19.5733 29.8667 19.68 29.84 19.84C29.84 19.9733 29.84 20.0933 29.84 20.2C29.84 20.68 30.0533 20.92 30.48 20.92ZM28.52 20.32H21.08V22.72C21.08 22.7733 21.12 22.84 21.2 22.92C21.28 22.9733 21.3733 23.0267 21.48 23.08C21.5867 23.16 21.72 23.2267 21.88 23.28C21.64 23.4133 21.3733 23.52 21.08 23.6C20.8133 23.68 20.56 23.7733 20.32 23.88C20.08 23.96 19.8533 24.08 19.64 24.24C19.4533 24.3733 19.3067 24.5867 19.2 24.88C19.28 24.9333 19.4533 25 19.72 25.08C19.9867 25.1333 20.1733 25.1467 20.28 25.12C20.36 25.12 20.4933 25.04 20.68 24.88C20.8933 24.6933 21.0267 24.56 21.08 24.48H24.52C24.7067 24.2133 24.8667 24.0267 25 23.92C25.16 23.8133 25.36 23.76 25.6 23.76L25.88 23.8C25.9067 23.8 25.9733 23.84 26.08 23.92C26.1867 23.9733 26.2933 24.0267 26.4 24.08C26.5067 24.1333 26.6133 24.1867 26.72 24.24C26.8267 24.2933 26.8933 24.32 26.92 24.32C26.9467 24.3467 27 24.36 27.08 24.36C27.16 24.36 27.2 24.3467 27.2 24.32C27.3067 24.2933 27.4 24.2133 27.48 24.08V23.8C27.4267 23.7467 27.3333 23.6533 27.2 23.52C27.0667 23.3867 26.9733 23.3067 26.92 23.28L28.28 23C28.3067 22.9733 28.3467 22.9333 28.4 22.88C28.48 22.8 28.52 22.7467 28.52 22.72V20.32ZM33.88 24.6H33.52C33.52 24.7333 33.5333 24.8933 33.56 25.08C33.6133 25.24 33.72 25.3467 33.88 25.4V24.6ZM18.2 24.96C17.88 24.96 17.5067 25.0267 17.08 25.16C16.6533 25.2933 16.44 25.5867 16.44 26.04C17.0533 26.04 17.4933 26.0133 17.76 25.96C18.0533 25.9067 18.2 25.5733 18.2 24.96ZM28.28 28.08C28.3067 28.0533 28.3467 28.0267 28.4 28C28.48 27.92 28.52 27.8533 28.52 27.8C28.5733 27.72 28.6267 27.5867 28.68 27.4C28.76 27.1867 28.8 27.0533 28.8 27C28.8 26.9467 28.7867 26.8533 28.76 26.72C28.76 26.56 28.7467 26.4 28.72 26.24C28.6933 26.0533 28.6533 25.8933 28.6 25.76C28.5733 25.6 28.5467 25.48 28.52 25.4C28.52 25.3467 28.48 25.2933 28.4 25.24C28.3467 25.16 28.3067 25.12 28.28 25.12H21.08V28.08H28.28ZM8 27.8H7.72V28.08H8V27.8ZM8.28 34.2C8.36 34.1733 8.4 34.1333 8.4 34.08C8.4 34 8.36 33.9467 8.28 33.92C8.2 33.92 8.16 33.9733 8.16 34.08C8.16 34.1867 8.2 34.2267 8.28 34.2ZM20 34.12C19.76 34.12 19.5867 34.24 19.48 34.48H20V34.12ZM17.6 36.48C17.6 36.64 17.6533 36.8 17.76 36.96C17.8667 37.1467 17.9867 37.2933 18.12 37.4L18.16 36.88C18.16 36.7733 18.16 36.6133 18.16 36.4C18.16 36.2133 18.0667 36.1067 17.88 36.08C17.72 36.1333 17.6267 36.2133 17.6 36.32V36.48ZM28.84 36.6C28.84 36.4933 28.8267 36.4 28.8 36.32C28.5333 36.32 28.3467 36.4133 28.24 36.6C28.16 36.8133 28.12 37.0133 28.12 37.2C28.6 37.2 28.84 37 28.84 36.6ZM73.32 6.72C73.4267 7.2 73.64 7.68 73.96 8.16C74.3067 8.64 74.68 9.10666 75.08 9.56C75.5067 9.98667 75.92 10.3733 76.32 10.72C76.7467 11.0667 77.08 11.3333 77.32 11.52C77.08 11.76 76.7467 12.1067 76.32 12.56C75.8933 13.0133 75.4267 13.4667 74.92 13.92C74.44 14.3467 73.9467 14.7333 73.44 15.08C72.9333 15.4 72.4667 15.56 72.04 15.56C71.8267 15.56 71.6267 15.56 71.44 15.56C71.28 15.5333 71.1067 15.44 70.92 15.28C70.76 15.2533 70.48 15.2267 70.08 15.2C69.68 15.1733 69.2533 15.1467 68.8 15.12C68.3467 15.0933 67.92 15.0667 67.52 15.04C67.12 15.0133 66.84 15 66.68 15C66.6 15 66.44 14.9867 66.2 14.96C65.9867 14.9333 65.7467 14.9067 65.48 14.88C65.2133 14.8267 64.96 14.7867 64.72 14.76C64.48 14.7333 64.3333 14.72 64.28 14.72C64.2267 14.72 64.08 14.7733 63.84 14.88C63.6267 14.96 63.5067 15 63.48 15H63.2C63.1467 15.0267 63.08 15.08 63 15.16C62.9467 15.2133 62.92 15.2533 62.92 15.28V18.2L63.2 18.48L64.6 18.52C64.7067 18.52 64.8667 18.52 65.08 18.52C65.2933 18.52 65.5067 18.52 65.72 18.52C65.96 18.4933 66.16 18.48 66.32 18.48C66.5067 18.48 66.6267 18.48 66.68 18.48C66.7867 18.4533 66.9733 18.4133 67.24 18.36C67.5333 18.28 67.6933 18.2267 67.72 18.2L70.12 15.8C70.2 15.7467 70.4667 15.8667 70.92 16.16C71.3733 16.4533 71.8533 16.8 72.36 17.2C72.8933 17.6 73.3733 18 73.8 18.4C74.2267 18.8 74.44 19.0933 74.44 19.28C74.44 19.3867 74.4267 19.4667 74.4 19.52C74.32 19.4933 74.08 19.3467 73.68 19.08C73.3067 18.7867 72.8933 18.48 72.44 18.16C72.0133 17.84 71.6133 17.5467 71.24 17.28C70.8933 17.0133 70.7067 16.88 70.68 16.88C70.6533 16.88 70.6 16.92 70.52 17C70.4667 17.0533 70.4267 17.0933 70.4 17.12V17.4C70.4 17.4267 70.4267 17.4933 70.48 17.6C70.56 17.7067 70.6267 17.8267 70.68 17.96C70.7333 18.0667 70.7867 18.1733 70.84 18.28C70.8933 18.3867 70.92 18.4533 70.92 18.48C70.9467 18.5333 70.9867 18.64 71.04 18.8C71.0933 18.9333 71.1467 19.0933 71.2 19.28C71.28 19.44 71.3333 19.6 71.36 19.76C71.4133 19.8933 71.4533 20 71.48 20.08H63.48L63.2 19.8C63.0667 19.8533 62.9733 19.9467 62.92 20.08C62.8667 20.1867 62.8133 20.32 62.76 20.48C62.7333 20.6133 62.7067 20.7467 62.68 20.88C62.68 21.0133 62.68 21.0933 62.68 21.12C62.4933 21.4667 62.16 21.7333 61.68 21.92C61.2267 22.1067 60.72 22.24 60.16 22.32C59.6267 22.4 59.0933 22.4533 58.56 22.48C58.0267 22.48 57.6133 22.48 57.32 22.48H56.52C56.4933 22 56.4533 21.6267 56.4 21.36C56.3733 21.0933 56.28 20.8933 56.12 20.76C55.9867 20.6 55.7867 20.4933 55.52 20.44C55.2533 20.3867 54.88 20.3467 54.4 20.32C54.4533 20.08 54.4267 19.9333 54.32 19.88C54.24 19.8267 54.1333 19.8133 54 19.84C53.8667 19.84 53.7333 19.8667 53.6 19.92C53.4667 19.9733 53.3733 20 53.32 20V20.32H46.12L46 20.2C45.92 20.1733 45.88 20.1333 45.88 20.08L45.6 19.28V19C45.6267 18.9467 45.6667 18.8667 45.72 18.76C45.8 18.6533 45.8533 18.6 45.88 18.6H50.12C50.1467 18.6 50.24 18.4933 50.4 18.28C50.5867 18.0667 50.7733 17.84 50.96 17.6C51.1733 17.36 51.3467 17.1333 51.48 16.92C51.64 16.7067 51.72 16.6 51.72 16.6C51.9067 16.3867 52.0267 16.24 52.08 16.16C52.16 16.08 52.3067 16.04 52.52 16.04C52.8933 16.04 53.2133 16.1467 53.48 16.36C53.7733 16.5733 54.0533 16.8133 54.32 17.08C54.6133 17.3467 54.9067 17.5867 55.2 17.8C55.52 18.0133 55.88 18.12 56.28 18.12V15.4H47.48L46.92 15C46.8667 15.0533 46.7733 15.1467 46.64 15.28C46.5067 15.3867 46.3467 15.5067 46.16 15.64C46 15.7467 45.8267 15.8533 45.64 15.96C45.48 16.04 45.3333 16.08 45.2 16.08C44.96 16.08 44.8267 15.9867 44.8 15.8C44.7733 15.5867 44.76 15.4 44.76 15.24C44.76 14.8933 44.84 14.5867 45 14.32C45.1867 14.0267 45.3733 13.7467 45.56 13.48C45.7733 13.1867 45.96 12.8933 46.12 12.6C46.3067 12.28 46.4 11.92 46.4 11.52C46.4 11.3333 46.3067 11.16 46.12 11C45.96 10.8133 45.7867 10.72 45.6 10.72C45.44 10.72 45.2133 10.8 44.92 10.96C44.6533 11.12 44.3867 11.3067 44.12 11.52C43.88 11.7333 43.6533 11.96 43.44 12.2C43.2533 12.44 43.16 12.6533 43.16 12.84C43.16 13.1867 43.2533 13.5067 43.44 13.8C43.6533 14.0667 43.76 14.3733 43.76 14.72C43.76 14.9333 43.7067 15.12 43.6 15.28C43.4933 15.44 43.44 15.6133 43.44 15.8C43.44 16.0133 43.4667 16.1733 43.52 16.28C43.6 16.3867 43.76 16.4933 44 16.6C43.92 16.6267 43.7867 16.64 43.6 16.64C43.2267 16.64 42.8667 16.56 42.52 16.4C42.1733 16.2133 41.8667 15.9867 41.6 15.72C41.36 15.4267 41.16 15.1067 41 14.76C40.8667 14.4133 40.8 14.0533 40.8 13.68C40.8 13.12 40.9333 12.64 41.2 12.24C41.4933 11.84 41.8267 11.48 42.2 11.16C42.6 10.8133 43.0133 10.48 43.44 10.16C43.8667 9.84 44.2267 9.49333 44.52 9.12C44.7333 8.90667 44.8533 8.61333 44.88 8.24C44.9333 7.84 44.9733 7.45333 45 7.08C45.0533 6.68 45.1333 6.34666 45.24 6.08C45.3467 5.78667 45.56 5.64 45.88 5.64C46.28 5.64 46.56 5.86667 46.72 6.32C46.9067 6.74667 47 7.12 47 7.44C46.5467 7.44 46.1867 7.46667 45.92 7.52C45.68 7.57333 45.56 7.82666 45.56 8.28L45.6 8.6L47.2 9.4C47.2267 9.4 47.2667 9.37333 47.32 9.32C47.4 9.24 47.4533 9.17333 47.48 9.12V8.88C47.4533 8.82667 47.4 8.69333 47.32 8.48C47.24 8.24 47.2 8.10666 47.2 8.08V7.8L47.72 8.08H56.28V5.28H45.32C45.2667 5.22666 45.2267 5.17333 45.2 5.12C45.1733 5.06667 45.1467 5.02667 45.12 5C45.0933 4.97333 45.08 4.93333 45.08 4.88L44.8 4.08V3.8C44.8267 3.74666 44.8667 3.66666 44.92 3.56C45 3.45333 45.0533 3.4 45.08 3.4H67.2C67.52 3.4 67.8 3.24 68.04 2.92C68.3067 2.6 68.5467 2.25333 68.76 1.88C69 1.48 69.24 1.12 69.48 0.799999C69.7467 0.479999 70.0533 0.319998 70.4 0.319998C70.6133 0.319998 71 0.479999 71.56 0.799999C72.12 1.12 72.6933 1.50666 73.28 1.96C73.8667 2.38666 74.3867 2.82666 74.84 3.28C75.2933 3.73333 75.52 4.08 75.52 4.32C75.52 4.48 75.48 4.61333 75.4 4.72C75.32 4.82667 75.16 4.88 74.92 4.88V4.44L74.68 4.32C74.6 4.4 74.4533 4.56 74.24 4.8C74.0533 5.04 73.9333 5.2 73.88 5.28H62.92V8.08H71.72L73.32 6.72ZM60.36 4C59.96 4 59.7333 4.16 59.68 4.48C59.6533 4.8 59.64 5.13333 59.64 5.48C60.04 5.48 60.2533 5.32 60.28 5C60.3333 4.68 60.36 4.34667 60.36 4ZM62.68 4.48C62.68 4.24 62.56 4.10667 62.32 4.08C62.1067 4.02666 61.9333 4 61.8 4C61.8 4.13333 61.8133 4.32 61.84 4.56C61.8933 4.77333 62.04 4.88 62.28 4.88H62.4C62.5067 4.8 62.6 4.70666 62.68 4.6V4.48ZM79.2 10.2C79.2 10.3067 79.1867 10.4133 79.16 10.52C79.16 10.6267 79.08 10.6933 78.92 10.72L78.68 10.2L74.92 6.48C74.76 6.34666 74.5733 6.25333 74.36 6.2C74.1467 6.14666 73.9467 6.12 73.76 6.12C73.76 5.98666 73.8533 5.88 74.04 5.8C74.2533 5.72 74.3733 5.68 74.4 5.68C74.7467 5.68 75.1467 5.85333 75.6 6.2C76.0533 6.54667 76.4933 6.94667 76.92 7.4C77.3733 7.85333 77.8 8.32 78.2 8.8C78.6 9.28 78.9333 9.65333 79.2 9.92V10.2ZM60.08 9.48C60.08 9.42667 60.08 9.30667 60.08 9.12C60.1067 8.90667 60.1067 8.69333 60.08 8.48C60.08 8.24 60.0533 8.01333 60 7.8C59.9467 7.56 59.8533 7.38667 59.72 7.28C59.48 7.38667 59.3333 7.6 59.28 7.92C59.2267 8.24 59.2 8.52 59.2 8.76C59.2 9.05333 59.2667 9.25333 59.4 9.36C59.56 9.44 59.7867 9.48 60.08 9.48ZM68.76 11.52C68.9733 11.52 69.16 11.5733 69.32 11.68C69.5067 11.76 69.68 11.8533 69.84 11.96C70.0267 12.04 70.2 12.1333 70.36 12.24C70.5467 12.32 70.7467 12.36 70.96 12.36C71.2533 12.36 71.4133 12.2133 71.44 11.92C71.4667 11.6 71.48 11.3333 71.48 11.12C71.48 11.04 71.48 10.88 71.48 10.64C71.5067 10.3733 71.4133 10.2267 71.2 10.2C71.04 10.1733 70.76 10.1467 70.36 10.12C69.96 10.0667 69.5333 10.0267 69.08 10C68.6267 9.97333 68.1867 9.96 67.76 9.96C67.36 9.93333 67.08 9.92 66.92 9.92C66.7867 9.92 66.52 9.93333 66.12 9.96C65.7467 9.98667 65.3467 10.0133 64.92 10.04C64.4933 10.0667 64.0933 10.0933 63.72 10.12C63.3467 10.1467 63.08 10.1733 62.92 10.2V13.4H66.4L68.52 11.52H68.76ZM56.28 10.2H48.28L48 10.48C48 10.48 47.9867 10.5733 47.96 10.76C47.9333 10.9467 47.9067 11.1733 47.88 11.44C47.8533 11.68 47.8267 11.9333 47.8 12.2C47.7733 12.4667 47.7467 12.6933 47.72 12.88V13.12C47.7467 13.1733 47.7867 13.24 47.84 13.32C47.92 13.3733 47.9733 13.4 48 13.4H50.68L52.8 11.28C52.8267 11.2533 52.8667 11.24 52.92 11.24C53.24 11.24 53.52 11.3467 53.76 11.56C54.0267 11.7733 54.2933 12 54.56 12.24C54.8267 12.48 55.0933 12.7067 55.36 12.92C55.6267 13.1333 55.9333 13.24 56.28 13.24V10.2ZM51.6 15C51.7067 15 51.8267 14.88 51.96 14.64C52.0933 14.3733 52.2267 14.0667 52.36 13.72C52.4933 13.3733 52.6 13.0533 52.68 12.76C52.7867 12.44 52.84 12.2133 52.84 12.08C52.84 11.9467 52.8267 11.8533 52.8 11.8C52.6933 11.8533 52.5333 12.0133 52.32 12.28C52.1333 12.5467 51.9333 12.84 51.72 13.16C51.5067 13.48 51.32 13.7867 51.16 14.08C51 14.3467 50.92 14.52 50.92 14.6V14.72C50.9467 14.7467 51.0267 14.8 51.16 14.88C51.2933 14.9333 51.4 14.9733 51.48 15H51.6ZM60.8 20.48C60.8 20.1867 60.6667 19.84 60.4 19.44C60.16 19.0133 59.8533 18.7733 59.48 18.72C59.4533 18.7467 59.44 18.8 59.44 18.88C59.44 19.04 59.4933 19.2133 59.6 19.4C59.7333 19.56 59.8667 19.72 60 19.88C60.16 20.04 60.3067 20.1867 60.44 20.32C60.6 20.4533 60.72 20.5467 60.8 20.6V20.48ZM47.2 19.52C46.9867 19.6533 46.88 19.84 46.88 20.08H47.2V19.52ZM69.2 21.12C69.5733 21.12 70 21.2667 70.48 21.56C70.96 21.8533 71.44 22.2133 71.92 22.64C72.4 23.04 72.8533 23.4533 73.28 23.88C73.7333 24.3067 74.1067 24.64 74.4 24.88C74.4267 24.96 74.44 25.0933 74.44 25.28C74.44 25.6267 74.28 25.88 73.96 26.04C73.64 26.2 73.3467 26.3467 73.08 26.48C72.7867 25.6533 72.3333 25.0267 71.72 24.6L71.48 24.88C71.4533 24.88 71.44 25 71.44 25.24C71.44 25.4533 71.44 25.6133 71.44 25.72C71.44 25.88 71.44 26.1733 71.44 26.6C71.4667 27.0267 71.4933 27.4667 71.52 27.92C71.5733 28.3733 71.64 28.7867 71.72 29.16C71.8267 29.5067 71.96 29.68 72.12 29.68H72.28L72.8 29.12C72.9067 29.0667 73 29.04 73.08 29.04V37.4C73.08 37.7733 72.8667 38.08 72.44 38.32C72.0133 38.56 71.5067 38.7467 70.92 38.88C70.36 39.04 69.8 39.1467 69.24 39.2C68.68 39.2533 68.2667 39.28 68 39.28H66.92C66.8933 39.2533 66.84 39.2 66.76 39.12C66.7067 39.0667 66.68 39.0267 66.68 39C66.6533 38.9467 66.6133 38.84 66.56 38.68C66.5333 38.52 66.5067 38.3333 66.48 38.12C66.4533 37.9333 66.4267 37.76 66.4 37.6C66.4 37.44 66.4 37.3333 66.4 37.28H51.2V36.12C50.9067 36.12 50.7067 36.2 50.6 36.36C50.52 36.52 50.4533 36.7733 50.4 37.12H45.76C45.76 36.9333 45.72 36.8 45.64 36.72C45.56 36.64 45.48 36.5733 45.4 36.52C45.32 36.4933 45.24 36.4533 45.16 36.4C45.08 36.3467 45.04 36.24 45.04 36.08C45.04 36 45.0533 35.88 45.08 35.72C45.1067 35.5867 45.1867 35.52 45.32 35.52H62.4L62.12 36.08V36.32C62.2267 36.48 62.32 36.5733 62.4 36.6L63.6 36.64C64.1067 36.64 64.5333 36.5867 64.88 36.48C65.2267 36.3733 65.64 36.32 66.12 36.32C66.6 36.32 66.9467 36.4133 67.16 36.6C67.4 36.8133 67.6 37.04 67.76 37.28C67.9467 37.52 68.1333 37.7333 68.32 37.92C68.5067 38.1333 68.8 38.24 69.2 38.24C69.6533 38.24 70.04 38.1067 70.36 37.84C70.7067 37.6 71.0133 37.2933 71.28 36.92C71.5467 36.5733 71.8 36.2 72.04 35.8C72.28 35.4 72.5333 35.04 72.8 34.72C72.72 34.6133 72.5467 34.4533 72.28 34.24C72.0133 34 71.72 33.76 71.4 33.52C71.08 33.28 70.7733 33.0533 70.48 32.84C70.1867 32.6 69.9867 32.4267 69.88 32.32L69.6 32.28C69.2 32.28 68.8933 32.4533 68.68 32.8C68.4933 33.1467 68.3067 33.5333 68.12 33.96C67.96 34.36 67.76 34.7333 67.52 35.08C67.28 35.4267 66.9067 35.6 66.4 35.6V31.4H48.28C48.28 31.32 48.2533 31.2 48.2 31.04C48.1733 30.8533 48.12 30.68 48.04 30.52C47.96 30.36 47.8533 30.2267 47.72 30.12C47.6133 29.9867 47.48 29.92 47.32 29.92C47.0533 29.92 46.9067 30.08 46.88 30.4C46.8533 30.72 46.84 30.96 46.84 31.12C46.7067 31.12 46.6 31.04 46.52 30.88C46.4667 30.72 46.4133 30.5467 46.36 30.36C46.3333 30.1733 46.32 30 46.32 29.84C46.32 29.6533 46.32 29.5467 46.32 29.52H66.4V25.52H54.2C54.2 25.04 54.0667 24.72 53.8 24.56C53.56 24.4 53.2267 24.32 52.8 24.32C52.64 24.32 52.4133 24.32 52.12 24.32C51.8533 24.32 51.72 24.4533 51.72 24.72V24.88L52 25.4H47.2C47.12 25.08 46.9467 24.8 46.68 24.56C46.44 24.32 46.1467 24.2 45.8 24.2L45.88 24.08C45.88 24.0267 45.8933 23.9867 45.92 23.96C45.9467 23.9333 45.9733 23.8933 46 23.84C46.0267 23.7867 46.0667 23.7333 46.12 23.68H66.68L69.08 21.12H69.2ZM70.4 22.72C70.2933 22.48 70.16 22.3333 70 22.28C69.8667 22.2 69.6933 22.16 69.48 22.16C69.2933 22.16 69.16 22.1733 69.08 22.2V22.72H70.4ZM62.12 24.6C61.9067 24.7333 61.8 24.9067 61.8 25.12H62.12V24.6ZM46.12 25.4C46.0133 25.3733 45.9333 25.28 45.88 25.12C45.8533 25.12 45.84 25.08 45.84 25C45.84 24.9467 45.8533 24.9067 45.88 24.88L46.4 25.4H46.12ZM69.88 25.92C69.8 25.7867 69.7067 25.7067 69.6 25.68C69.5733 25.6533 69.5333 25.64 69.48 25.64C69.4 25.64 69.3467 25.6533 69.32 25.68L69.2 25.8C69.1467 25.8533 69.12 25.88 69.12 25.88L69.08 25.92C69.0267 26 68.96 26.1067 68.88 26.24C68.8 26.3733 68.72 26.5067 68.64 26.64C68.56 26.7733 68.48 26.9067 68.4 27.04C68.32 27.1733 68.28 27.2533 68.28 27.28C68.2533 27.28 68.24 27.32 68.24 27.4C68.24 27.4533 68.2533 27.4933 68.28 27.52C68.3067 27.52 68.4 27.4667 68.56 27.36C68.72 27.2533 68.8933 27.12 69.08 26.96C69.2933 26.8 69.48 26.64 69.64 26.48C69.8 26.32 69.88 26.1867 69.88 26.08V25.92ZM63.48 29.92H63.2V30.2H63.48V29.92ZM54.72 30.8C54.72 30.4533 54.5867 30.2533 54.32 30.2C54.0533 30.1467 53.7733 30.12 53.48 30.12C53.48 30.4133 53.6267 30.6 53.92 30.68C54.24 30.76 54.5067 30.8 54.72 30.8ZM58.92 36.08V36.32L59.2 36.08H58.92ZM119.48 13.4C119.587 13.4267 119.667 13.52 119.72 13.68C119.747 13.68 119.76 13.72 119.76 13.8C119.76 14.0667 119.627 14.3067 119.36 14.52C119.12 14.7333 118.84 14.9467 118.52 15.16C118.2 15.3467 117.867 15.5333 117.52 15.72C117.2 15.9067 116.96 16.1067 116.8 16.32C116.693 16.48 116.56 16.72 116.4 17.04C116.24 17.36 116.08 17.7067 115.92 18.08C115.76 18.4267 115.613 18.76 115.48 19.08C115.347 19.4 115.253 19.64 115.2 19.8C115.12 19.8267 114.987 19.84 114.8 19.84C114.453 19.84 114.027 19.72 113.52 19.48C113.04 19.24 112.547 18.96 112.04 18.64C111.56 18.32 111.12 18.0133 110.72 17.72C110.32 17.4267 110.04 17.2267 109.88 17.12H109.6C109.44 17.12 109.24 17.16 109 17.24C108.787 17.32 108.68 17.4667 108.68 17.68V37.12C108.68 37.4667 108.427 37.76 107.92 38C107.44 38.24 106.88 38.44 106.24 38.6C105.6 38.76 104.973 38.8667 104.36 38.92C103.773 39 103.373 39.04 103.16 39.04L102.4 39C102.213 39 102.12 38.9067 102.12 38.72V24.28C102.253 24.28 102.347 24.2933 102.4 24.32C102.427 24.3467 102.507 24.4 102.64 24.48C102.8 24.56 102.893 24.6 102.92 24.6H103.08C103.267 24.6 103.373 24.52 103.4 24.36C103.453 24.2 103.48 24.0533 103.48 23.92C103.48 23.5467 103.333 23.2667 103.04 23.08C102.773 22.8933 102.467 22.7733 102.12 22.72V15.28H102.68L102.4 15.8C102.853 16.12 103.147 16.4267 103.28 16.72C103.44 16.9867 103.52 17.3467 103.52 17.8C103.52 18.2533 103.44 18.6267 103.28 18.92C103.147 19.1867 102.853 19.48 102.4 19.8H102.52C102.893 19.8 103.147 19.7733 103.28 19.72C103.44 19.6667 103.573 19.6267 103.68 19.6C103.813 19.5467 103.987 19.5067 104.2 19.48C104.413 19.4533 104.787 19.4667 105.32 19.52C105.64 19.4133 105.827 19.2533 105.88 19.04C105.96 18.8 106.027 18.5733 106.08 18.36C106.133 18.12 106.24 17.9067 106.4 17.72C106.587 17.5333 106.947 17.4267 107.48 17.4V17.28C107.48 17.2 107.413 17.1067 107.28 17C107.173 16.8933 107.04 16.7733 106.88 16.64C106.72 16.5067 106.56 16.3733 106.4 16.24C106.267 16.08 106.173 15.9333 106.12 15.8C106.12 15.72 106.107 15.64 106.08 15.56V15.4H107.12C107.147 15.3733 107.16 15.32 107.16 15.24C107.213 15.1067 107.227 15.0267 107.2 15C106.853 14.2 106.44 13.44 105.96 12.72C105.48 12 104.987 11.28 104.48 10.56C104 9.84 103.52 9.10667 103.04 8.36C102.587 7.58667 102.2 6.77333 101.88 5.92H101.6C100.907 6.45333 100.187 7.12 99.44 7.92C98.72 8.69333 98 9.52 97.28 10.4C96.56 11.2533 95.8667 12.0933 95.2 12.92C94.5333 13.72 93.9067 14.4133 93.32 15V15.68H92.28V15.96C92.3333 15.96 92.4267 15.9733 92.56 16C92.72 16 92.88 16.0133 93.04 16.04C93.2267 16.04 93.3867 16.0533 93.52 16.08C93.68 16.08 93.8 16.08 93.88 16.08C93.9067 16.0533 93.9467 16.0133 94 15.96C94.08 15.88 94.12 15.8267 94.12 15.8H96C95.92 15.8267 95.8267 15.92 95.72 16.08V16.32C95.8533 16.6133 95.9467 16.88 96 17.12C96.0533 17.3333 96.2267 17.44 96.52 17.44C96.7333 17.44 96.8933 17.3733 97 17.24C97.1067 17.08 97.2 16.92 97.28 16.76C97.3867 16.5733 97.4933 16.4133 97.6 16.28C97.7333 16.12 97.9067 16.04 98.12 16.04C98.2533 16.04 98.3733 16.0667 98.48 16.12C98.6133 16.1733 98.68 16.2933 98.68 16.48C98.68 16.7467 98.5333 17.0267 98.24 17.32C97.9733 17.5867 97.76 17.7867 97.6 17.92C97.5467 19.36 97.4533 20.76 97.32 22.12C97.2133 23.4533 96.96 24.76 96.56 26.04C96.5067 26.3867 96.44 26.72 96.36 27.04C96.28 27.3333 96.1467 27.6267 95.96 27.92C95.1333 30.16 93.92 32.16 92.32 33.92C90.72 35.6533 88.5733 36.9867 85.88 37.92C85.7467 37.9733 85.52 38.0533 85.2 38.16C84.9067 38.2667 84.5867 38.3733 84.24 38.48C83.92 38.6133 83.6 38.72 83.28 38.8C82.9867 38.9067 82.7867 38.9733 82.68 39L81.6 39.28C81.52 39.2533 81.4133 39.1733 81.28 39.04C81.1467 38.9067 81.08 38.8 81.08 38.72C81.32 38.4 81.6 38.12 81.92 37.88C82.2667 37.64 82.6133 37.4 82.96 37.16C83.3333 36.9467 83.6933 36.7333 84.04 36.52C84.4133 36.3067 84.76 36.0667 85.08 35.8C86.3067 34.68 87.3067 33.52 88.08 32.32C88.8533 31.12 89.4533 29.8533 89.88 28.52C90.3067 27.1867 90.5867 25.8 90.72 24.36C90.88 22.8933 90.96 21.36 90.96 19.76L90.92 17.12L90.68 16.88C90.68 16.88 90.6133 16.9067 90.48 16.96C90.3467 17.0133 90.2 17.08 90.04 17.16C89.88 17.24 89.7067 17.3333 89.52 17.44C89.3333 17.52 89.1867 17.6 89.08 17.68C88.4667 18 87.8267 18.3733 87.16 18.8C86.52 19.2267 85.8667 19.64 85.2 20.04C84.5333 20.4133 83.8533 20.7333 83.16 21C82.4667 21.2667 81.7733 21.4 81.08 21.4H80.52C80.7867 21 81.28 20.68 82 20.44C82.72 20.1733 83.4667 19.9333 84.24 19.72C85.0133 19.48 85.6933 19.2533 86.28 19.04C86.8933 18.8 87.2 18.52 87.2 18.2V16.12C86.9333 16.12 86.7467 16.2667 86.64 16.56C86.56 16.8267 86.4267 17.12 86.24 17.44C86.08 17.76 85.8133 18.0667 85.44 18.36C85.0933 18.6267 84.52 18.76 83.72 18.76L83.2 18.72C84.5333 17.44 85.84 16.1333 87.12 14.8C88.4 13.4667 89.5867 12.08 90.68 10.64C91.7733 9.17333 92.7467 7.64 93.6 6.04C94.48 4.44 95.1867 2.72 95.72 0.879998C95.7733 0.666664 95.92 0.559998 96.16 0.559998C96.4267 0.559998 96.6 0.559998 96.68 0.559998C97.0267 0.559998 97.3067 0.586665 97.52 0.639999C97.76 0.666665 98.0533 0.786665 98.4 0.999999H97.48L97.36 1.16C97.3067 1.29333 97.2933 1.37333 97.32 1.4C97.6133 1.77333 97.9467 2.24 98.32 2.8C98.72 3.36 99.1067 3.78666 99.48 4.08C99.6133 4.18666 99.7867 4.26666 100 4.32C100.24 4.37333 100.48 4.42667 100.72 4.48C100.96 4.50667 101.173 4.56 101.36 4.64C101.573 4.69333 101.747 4.77333 101.88 4.88C102.147 5.14667 102.307 5.41333 102.36 5.68C102.44 5.92 102.507 6.14667 102.56 6.36C102.64 6.54667 102.76 6.70666 102.92 6.84C103.107 6.94666 103.427 7 103.88 7C104.04 7 104.187 6.98666 104.32 6.96C104.48 6.90667 104.56 6.78667 104.56 6.6C104.56 6.52 104.547 6.48 104.52 6.48L102.92 4.88V4.32C102.92 4 102.96 3.70667 103.04 3.44C103.147 3.17333 103.2 2.88 103.2 2.56V2.48L102.12 1.92H102.52C102.627 1.92 102.813 1.93333 103.08 1.96C103.347 1.98666 103.6 2.04 103.84 2.12C104.107 2.17333 104.333 2.26666 104.52 2.4C104.733 2.53333 104.84 2.69333 104.84 2.88C104.84 2.93333 104.827 2.97333 104.8 3L103.48 4.32C103.453 4.34667 103.467 4.42667 103.52 4.56C103.6 4.69333 103.667 4.8 103.72 4.88C104.627 5.86667 105.573 6.69333 106.56 7.36C107.547 8 108.56 8.58666 109.6 9.12C110.64 9.62667 111.693 10.12 112.76 10.6C113.827 11.08 114.907 11.6533 116 12.32C115.76 12.64 115.6 12.9067 115.52 13.12C115.467 13.3333 115.44 13.6133 115.44 13.96C115.44 14.0933 115.44 14.2667 115.44 14.48C115.467 14.6667 115.507 14.8667 115.56 15.08C115.64 15.2667 115.733 15.44 115.84 15.6C115.947 15.7333 116.093 15.8 116.28 15.8H116.52L119.2 13.92L119.48 13.4ZM99.48 1.12C99.4267 1.2 99.3333 1.24 99.2 1.24C99.0667 1.24 98.9733 1.2 98.92 1.12C98.8933 1.04 98.9867 0.999999 99.2 0.999999C99.4133 0.999999 99.5067 1.04 99.48 1.12ZM100.52 1.4C100.493 1.48 100.413 1.52 100.28 1.52C100.147 1.52 100.053 1.48 100 1.4C99.9467 1.32 100.027 1.28 100.24 1.28C100.48 1.28 100.573 1.32 100.52 1.4ZM101.88 1.68C101.8 1.76 101.653 1.8 101.44 1.8C101.253 1.8 101.133 1.76 101.08 1.68C101.053 1.62666 101.08 1.6 101.16 1.6C101.24 1.57333 101.333 1.56 101.44 1.56C101.573 1.56 101.68 1.57333 101.76 1.6C101.867 1.62666 101.907 1.65333 101.88 1.68ZM96.28 3H96V3.52H96.28V3ZM94.4 12.72C94.4 12.48 94.32 12.28 94.16 12.12C94.0267 11.9333 93.84 11.7867 93.6 11.68C93.3867 11.5467 93.16 11.4533 92.92 11.4C92.68 11.32 92.4667 11.28 92.28 11.28C91.96 11.28 91.7867 11.3467 91.76 11.48C91.7333 11.6133 91.72 11.7867 91.72 12C91.72 12.16 91.72 12.3867 91.72 12.68C91.72 12.9467 91.7467 13.2267 91.8 13.52C91.8533 13.7867 91.9333 14.0267 92.04 14.24C92.1467 14.4267 92.3067 14.52 92.52 14.52C92.68 14.52 92.8667 14.4667 93.08 14.36C93.2933 14.2267 93.4933 14.08 93.68 13.92C93.8933 13.7333 94.0667 13.5333 94.2 13.32C94.3333 13.1067 94.4 12.9067 94.4 12.72ZM106.84 12.08C106.84 12.1067 106.827 12.2133 106.8 12.4C106.8 12.56 106.8 12.7333 106.8 12.92C106.827 13.1067 106.88 13.28 106.96 13.44C107.04 13.6 107.16 13.68 107.32 13.68H107.48C107.507 13.5733 107.547 13.3467 107.6 13C107.68 12.6533 107.72 12.4267 107.72 12.32C107.747 12.2667 107.76 12.1867 107.76 12.08H106.84ZM109.08 12.08H108.28C108.307 12.1067 108.387 12.16 108.52 12.24C108.653 12.2933 108.747 12.32 108.8 12.32C108.853 12.3467 108.947 12.36 109.08 12.36V12.08ZM117.32 12.88C117.187 12.88 117.12 12.7867 117.12 12.6C117.12 12.4133 117.187 12.32 117.32 12.32C117.453 12.32 117.52 12.4133 117.52 12.6C117.52 12.7867 117.453 12.88 117.32 12.88ZM118.4 12.88C118.373 12.96 118.32 13 118.24 13C118.187 13 118.147 12.96 118.12 12.88C118.12 12.8 118.173 12.76 118.28 12.76C118.387 12.76 118.427 12.8 118.4 12.88ZM110.12 13.68C110.12 13.6267 110.08 13.5333 110 13.4C109.947 13.2667 109.907 13.1733 109.88 13.12H109.72C109.667 13.12 109.587 13.1867 109.48 13.32C109.4 13.4533 109.307 13.6 109.2 13.76C109.093 13.92 109 14.08 108.92 14.24C108.84 14.3733 108.8 14.4533 108.8 14.48C108.853 14.48 108.987 14.52 109.2 14.6C109.413 14.6533 109.547 14.6933 109.6 14.72C109.627 14.7467 109.64 14.7867 109.64 14.84C109.64 15.08 109.533 15.2533 109.32 15.36C109.107 15.4667 109 15.6667 109 15.96C109 16.28 109.12 16.48 109.36 16.56C109.6 16.6133 109.853 16.64 110.12 16.64V13.68ZM97.6 15.8C97.5467 15.88 97.4133 15.92 97.2 15.92C96.9867 15.92 96.8533 15.88 96.8 15.8C96.7733 15.7733 96.8 15.7467 96.88 15.72C96.9867 15.6933 97.0933 15.68 97.2 15.68C97.3067 15.68 97.4 15.6933 97.48 15.72C97.5867 15.7467 97.6267 15.7733 97.6 15.8ZM107 22.48C107 22.16 106.973 21.9733 106.92 21.92C106.893 21.84 106.987 21.6667 107.2 21.4C107.12 21.3733 106.987 21.36 106.8 21.36C106.16 21.36 105.84 21.68 105.84 22.32C105.84 22.6667 105.88 23.1467 105.96 23.76C106.04 24.3467 106.173 24.9333 106.36 25.52C106.547 26.1067 106.8 26.6133 107.12 27.04C107.467 27.4667 107.88 27.68 108.36 27.68C108.36 27.36 108.293 27.0933 108.16 26.88C108.053 26.64 107.92 26.4267 107.76 26.24C107.627 26.0267 107.493 25.8133 107.36 25.6C107.253 25.3867 107.2 25.1467 107.2 24.88C107.2 24.64 107.24 24.4267 107.32 24.24C107.427 24.0533 107.533 23.8667 107.64 23.68C107.773 23.4933 107.88 23.3067 107.96 23.12C108.067 22.9333 108.12 22.72 108.12 22.48H107ZM92.92 29.68C93.5867 29.68 94.1733 29.52 94.68 29.2C95.2133 28.88 95.64 28.4533 95.96 27.92C96.2 27.3333 96.4 26.7067 96.56 26.04V25.8C96.56 25.5867 96.44 25.4 96.2 25.24C95.9867 25.08 95.72 24.96 95.4 24.88C95.08 24.7733 94.76 24.6933 94.44 24.64C94.1467 24.5867 93.92 24.56 93.76 24.56C93.5467 24.56 93.3733 24.6 93.24 24.68C93.1067 24.7333 93.04 24.88 93.04 25.12C93.04 25.3867 93.0933 25.64 93.2 25.88C93.3333 26.12 93.4667 26.36 93.6 26.6C93.7333 26.84 93.8533 27.0667 93.96 27.28C94.0933 27.4933 94.16 27.7067 94.16 27.92C94.16 28.1867 94.08 28.3867 93.92 28.52C93.7867 28.6533 93.6133 28.76 93.4 28.84C93.2133 28.8933 93 28.9333 92.76 28.96C92.5467 28.96 92.36 28.96 92.2 28.96C92.2 28.96 92.2267 29.0133 92.28 29.12C92.3067 29.1733 92.3867 29.2667 92.52 29.4C92.6533 29.5333 92.7467 29.6267 92.8 29.68H92.92ZM91.76 33.24C91.76 33 91.68 32.7867 91.52 32.6C91.3867 32.3867 91.1867 32.28 90.92 32.28C90.6533 32.28 90.4933 32.4133 90.44 32.68C90.4133 32.9467 90.4 33.1867 90.4 33.4C90.4 33.5333 90.4133 33.7067 90.44 33.92C90.4933 34.1067 90.6133 34.2 90.8 34.2C91.0933 34.2 91.32 34.1067 91.48 33.92C91.6667 33.7333 91.76 33.5067 91.76 33.24ZM107.32 36.24C106.627 36.24 106.067 36.24 105.64 36.24C105.213 36.24 104.867 36.3067 104.6 36.44C104.36 36.6 104.187 36.8533 104.08 37.2C104 37.5467 103.96 38.0533 103.96 38.72C104.28 38.72 104.627 38.6533 105 38.52C105.4 38.4133 105.773 38.24 106.12 38C106.467 37.7867 106.747 37.5333 106.96 37.24C107.2 36.9467 107.32 36.6133 107.32 36.24ZM158.4 4.32C158.48 4.37333 158.613 4.50667 158.8 4.72C159.013 4.93333 159.147 5.06667 159.2 5.12C159.227 5.14666 159.24 5.2 159.24 5.28C159.24 5.33333 159.173 5.41333 159.04 5.52C158.933 5.62666 158.8 5.74667 158.64 5.88C158.48 5.98667 158.32 6.09333 158.16 6.2C158.027 6.30667 157.933 6.4 157.88 6.48C157.827 6.88 157.773 7.45333 157.72 8.2C157.693 8.94667 157.64 9.77333 157.56 10.68C157.48 11.5867 157.36 12.5333 157.2 13.52C157.04 14.48 156.827 15.3867 156.56 16.24C156.32 17.0933 156 17.84 155.6 18.48C155.2 19.12 154.707 19.56 154.12 19.8C154.093 19.8 154.027 19.8 153.92 19.8C153.813 19.8 153.693 19.8 153.56 19.8C153.453 19.8 153.347 19.8 153.24 19.8C153.133 19.8 153.08 19.8 153.08 19.8C153 19.8267 152.893 19.8933 152.76 20C152.627 20.08 152.493 20.1867 152.36 20.32C152.227 20.4267 152.093 20.5333 151.96 20.64C151.853 20.7467 151.773 20.8267 151.72 20.88C151.773 20.7733 151.76 20.6667 151.68 20.56C151.627 20.4267 151.56 20.3467 151.48 20.32C151.4 20.32 151.267 20.3067 151.08 20.28C150.92 20.2533 150.733 20.2267 150.52 20.2C150.333 20.1733 150.147 20.1467 149.96 20.12C149.8 20.0933 149.68 20.08 149.6 20.08C149.28 19.36 149.08 18.7733 149 18.32C148.92 17.84 148.813 17.4267 148.68 17.08C148.547 16.7067 148.32 16.3733 148 16.08C147.707 15.76 147.173 15.4 146.4 15V14.08H150.4L150.48 13.92C150.507 13.8667 150.573 13.7867 150.68 13.68C151 13.12 151.213 12.5067 151.32 11.84C151.427 11.1467 151.48 10.44 151.48 9.72C151.507 9 151.493 8.29333 151.44 7.6C151.413 6.90667 151.4 6.26667 151.4 5.68H148.52C148.44 5.68 148.36 5.8 148.28 6.04C148.2 6.28 148.12 6.56 148.04 6.88C147.987 7.17333 147.933 7.46667 147.88 7.76C147.827 8.02667 147.773 8.21333 147.72 8.32L146.4 7C146.347 7.42667 146.24 7.85333 146.08 8.28C145.92 8.70667 145.84 9.13333 145.84 9.56C145.84 9.77333 145.88 10.0267 145.96 10.32C146.067 10.6133 146.253 10.76 146.52 10.76C146.6 10.76 146.653 10.7467 146.68 10.72C146.707 10.6933 146.787 10.6133 146.92 10.48C147.08 10.3467 147.173 10.2533 147.2 10.2V10.32C147.2 11.2533 146.92 12.1733 146.36 13.08C145.8 13.9867 145.107 14.84 144.28 15.64C143.48 16.44 142.64 17.1733 141.76 17.84C140.88 18.5067 140.12 19.0667 139.48 19.52C139.453 19.6 139.44 19.6933 139.44 19.8C139.44 20.12 139.68 20.4267 140.16 20.72C140.667 20.9867 141.227 21.2267 141.84 21.44C142.453 21.6533 143.053 21.8267 143.64 21.96C144.227 22.0933 144.613 22.1733 144.8 22.2C144.987 22.2267 145.307 22.2667 145.76 22.32C146.213 22.3467 146.693 22.3733 147.2 22.4C147.707 22.4267 148.187 22.4533 148.64 22.48C149.093 22.48 149.413 22.48 149.6 22.48C149.627 22.5867 149.68 22.8 149.76 23.12C149.867 23.4133 150.04 23.56 150.28 23.56C150.493 23.56 150.707 23.5067 150.92 23.4C151.133 23.2667 151.36 23.1333 151.6 23C151.84 22.8667 152.08 22.7467 152.32 22.64C152.56 22.5067 152.813 22.44 153.08 22.44C153.267 22.44 153.413 22.5067 153.52 22.64C153.627 22.7467 153.693 22.8933 153.72 23.08C153.773 23.24 153.8 23.4133 153.8 23.6C153.827 23.7867 153.853 23.9467 153.88 24.08C154.307 24 154.72 24.0267 155.12 24.16C155.547 24.2933 155.76 24.6267 155.76 25.16C155.76 25.4267 155.653 25.64 155.44 25.8C155.253 25.96 155.16 26.1867 155.16 26.48C155.16 26.9333 155.293 27.44 155.56 28C155.853 28.56 156 29.12 156 29.68C156 30.0267 155.973 30.3333 155.92 30.6C155.893 30.8667 155.853 31.1333 155.8 31.4C155.773 31.6667 155.747 31.96 155.72 32.28C155.693 32.6 155.693 32.9733 155.72 33.4L155.2 33.92H153.08C152.92 33.9467 152.693 34 152.4 34.08C152.133 34.1333 152 34.1733 152 34.2V34.48C152 34.56 152.227 34.6667 152.68 34.8C153.133 34.9333 153.64 35.0667 154.2 35.2C154.787 35.3333 155.32 35.44 155.8 35.52C156.307 35.6267 156.6 35.68 156.68 35.68V24.32C157.027 24.2133 157.307 24.0933 157.52 23.96C157.76 23.8267 157.88 23.6 157.88 23.28C157.88 23.0667 157.827 22.88 157.72 22.72C157.64 22.56 157.507 22.3867 157.32 22.2C157.347 22.1733 157.4 22.16 157.48 22.16C157.533 22.16 157.573 22.1733 157.6 22.2C157.893 22.4133 158.107 22.5733 158.24 22.68C158.373 22.7867 158.44 22.9733 158.44 23.24C158.44 23.56 158.28 23.8 157.96 23.96C157.667 24.0933 157.413 24.2133 157.2 24.32V36.88C157.2 37.28 156.947 37.6 156.44 37.84C155.96 38.08 155.4 38.2667 154.76 38.4C154.147 38.5333 153.547 38.6267 152.96 38.68C152.4 38.7333 152.027 38.76 151.84 38.76C151.333 38.76 151.027 38.6 150.92 38.28C150.813 37.9867 150.747 37.6533 150.72 37.28C150.72 36.9067 150.707 36.56 150.68 36.24C150.653 35.9467 150.467 35.8 150.12 35.8H145.32C145.08 35.8 144.853 35.9733 144.64 36.32C144.427 36.6667 144.107 37.04 143.68 37.44C143.253 37.84 142.653 38.2133 141.88 38.56C141.107 38.9067 140.04 39.08 138.68 39.08V26.48C138.893 26.4533 139.133 26.4133 139.4 26.36C139.693 26.28 139.96 26.1867 140.2 26.08C140.44 25.9733 140.64 25.8267 140.8 25.64C140.987 25.4533 141.08 25.2267 141.08 24.96C141.08 24.7733 140.96 24.5867 140.72 24.4C140.507 24.1867 140.253 24.0133 139.96 23.88C139.667 23.72 139.373 23.5867 139.08 23.48C138.813 23.3733 138.627 23.3067 138.52 23.28V20.68C138.147 20.68 137.867 20.8133 137.68 21.08C137.493 21.3467 137.307 21.6533 137.12 22C136.933 22.32 136.707 22.6133 136.44 22.88C136.173 23.1467 135.773 23.28 135.24 23.28C134.147 23.28 133.24 22.8267 132.52 21.92L132.48 22.6C132.48 23.1333 132.76 23.6267 133.32 24.08C133.88 24.5067 134.493 24.9733 135.16 25.48C135.853 25.9867 136.48 26.5733 137.04 27.24C137.6 27.9067 137.88 28.7333 137.88 29.72C137.88 30.4667 137.653 31.1333 137.2 31.72C136.747 32.3067 136.12 32.6 135.32 32.6C135.08 32.6 134.907 32.5333 134.8 32.4C134.693 32.2667 134.6 32.1067 134.52 31.92C134.44 31.7067 134.36 31.4933 134.28 31.28C134.2 31.0667 134.067 30.88 133.88 30.72V32.16C133.533 32.16 133.28 32.04 133.12 31.8C132.987 31.5333 132.893 31.2267 132.84 30.88C132.787 30.5067 132.747 30.1333 132.72 29.76C132.693 29.3867 132.627 29.0933 132.52 28.88C132.333 30.24 132.227 31.7067 132.2 33.28C132.2 34.8533 132.227 36.32 132.28 37.68C132.013 38.0533 131.613 38.36 131.08 38.6C130.547 38.8667 130.053 39 129.6 39H129.32C129.613 38.8933 129.907 38.7867 130.2 38.68C130.52 38.5733 130.8 38.44 131.04 38.28C131.28 38.1467 131.48 37.9733 131.64 37.76C131.8 37.5733 131.88 37.3333 131.88 37.04C131.693 37.04 131.547 37.0667 131.44 37.12C131.333 37.2 131.213 37.28 131.08 37.36C130.973 37.44 130.84 37.5067 130.68 37.56C130.52 37.64 130.293 37.68 130 37.68H129.88L128.52 37.12H128.4C128.267 37.12 128.147 37.1867 128.04 37.32C127.933 37.4533 127.84 37.6133 127.76 37.8C127.68 37.9867 127.613 38.16 127.56 38.32C127.507 38.5067 127.48 38.64 127.48 38.72C127.48 38.7733 127.52 38.8267 127.6 38.88C127.68 38.96 127.773 39.0267 127.88 39.08C127.987 39.16 128.12 39.2267 128.28 39.28H126.52V31C126.52 30.9733 126.467 30.8933 126.36 30.76C126.28 30.6 126.2 30.5067 126.12 30.48C126.12 30.4533 126.08 30.44 126 30.44C125.68 30.44 125.4 30.6267 125.16 31C124.92 31.3467 124.68 31.76 124.44 32.24C124.2 32.72 123.96 33.2 123.72 33.68C123.48 34.16 123.213 34.5067 122.92 34.72C122.84 34.4533 122.68 34.1733 122.44 33.88C122.227 33.56 122.04 33.3067 121.88 33.12H121.6C121.547 33.1733 121.48 33.2667 121.4 33.4C121.347 33.5333 121.32 33.6267 121.32 33.68C121.373 33.92 121.507 34.2133 121.72 34.56C121.933 34.88 122.16 35.12 122.4 35.28C122.213 35.6267 122.04 35.84 121.88 35.92C121.747 36.0267 121.533 36.08 121.24 36.08C120.76 36.08 120.52 35.8533 120.52 35.4C120.52 34.4933 120.6 33.5733 120.76 32.64C120.947 31.68 121.133 30.72 121.32 29.76C121.533 28.8 121.72 27.84 121.88 26.88C122.067 25.92 122.16 24.96 122.16 24C122.16 23.52 122.067 23.0667 121.88 22.64C121.72 22.2133 121.533 21.7867 121.32 21.36C121.133 20.9333 120.947 20.5067 120.76 20.08C120.6 19.6533 120.52 19.2 120.52 18.72V18.48C121.107 18.4533 121.733 18.44 122.4 18.44C123.093 18.44 123.733 18.36 124.32 18.2C124.907 18.04 125.4 17.76 125.8 17.36C126.2 16.96 126.4 16.3467 126.4 15.52V15.28C126.213 15.2533 125.96 15.2267 125.64 15.2C125.32 15.1733 125 15.1333 124.68 15.08C124.36 15 124.053 14.8933 123.76 14.76C123.493 14.6267 123.307 14.44 123.2 14.2C122.56 12.0933 121.667 10.0533 120.52 8.08C120.573 7.86666 120.72 7.76 120.96 7.76C121.2 7.76 121.36 7.76 121.44 7.76C121.813 7.76 122.173 7.81333 122.52 7.92C122.867 8.02667 123.24 8.08 123.64 8.08C123.96 8.08 124.16 7.98667 124.24 7.8C124.347 7.58667 124.44 7.32 124.52 7C124.547 6.81333 124.613 6.46667 124.72 5.96C124.827 5.45333 124.933 4.92 125.04 4.36C125.173 3.77333 125.293 3.22666 125.4 2.72C125.507 2.21333 125.573 1.86666 125.6 1.68C125.68 1.46667 125.773 1.28 125.88 1.12C125.987 0.933332 126.16 0.839999 126.4 0.839999L126.68 0.879998C126.707 0.879998 126.84 0.919998 127.08 0.999999C127.32 1.05333 127.573 1.13333 127.84 1.24C128.133 1.32 128.413 1.41333 128.68 1.52C128.973 1.6 129.187 1.65333 129.32 1.68C129.56 1.76 129.853 1.86666 130.2 2C130.573 2.10666 130.933 2.21333 131.28 2.32C131.627 2.42667 131.92 2.52 132.16 2.6C132.4 2.68 132.52 2.72 132.52 2.72L132.8 3C132.533 3 132.333 3.12 132.2 3.36C132.067 3.6 132 3.84 132 4.08L126.92 9.12V9.48C126.92 9.93333 127.013 10.4 127.2 10.88H125.96L125.88 11.04C125.827 11.1733 125.827 11.2533 125.88 11.28C125.96 11.4667 126.08 11.56 126.24 11.56C126.4 11.56 126.56 11.56 126.72 11.56C126.853 11.56 127.027 11.5467 127.24 11.52C127.48 11.4933 127.56 11.32 127.48 11C127.507 11.0533 127.587 11.12 127.72 11.2C127.853 11.2533 127.947 11.28 128 11.28C128.373 11.1733 128.68 10.8933 128.92 10.44C129.187 9.98667 129.4 9.48 129.56 8.92C129.72 8.36 129.867 7.8 130 7.24C130.133 6.68 130.267 6.24 130.4 5.92H130.8C131.093 5.92 131.32 5.93333 131.48 5.96C131.64 5.98667 131.907 6.06667 132.28 6.2C132.44 6.25333 132.747 6.36 133.2 6.52C133.653 6.65333 134.133 6.81333 134.64 7C135.173 7.18667 135.667 7.36 136.12 7.52C136.573 7.65333 136.893 7.74667 137.08 7.8C137.187 7.82667 137.267 7.92 137.32 8.08C137.347 8.08 137.36 8.12 137.36 8.2C137.36 8.25333 137.347 8.29333 137.32 8.32C136.787 8 136.2 7.84 135.56 7.84C135.56 8.8 135.387 9.57333 135.04 10.16C134.693 10.7467 134.12 11.3867 133.32 12.08C133.32 12 133.28 11.8667 133.2 11.68C133.147 11.4667 133.107 11.3333 133.08 11.28C133.053 11.2533 133.013 11.24 132.96 11.24C132.88 11.24 132.827 11.2533 132.8 11.28C132.8 11.28 132.72 11.3067 132.56 11.36C132.427 11.4133 132.267 11.48 132.08 11.56C131.92 11.64 131.773 11.7467 131.64 11.88C131.507 11.9867 131.44 12.0933 131.44 12.2C131.44 12.3067 131.453 12.4533 131.48 12.64C131.533 12.8 131.6 12.9467 131.68 13.08C131.76 13.2133 131.867 13.2933 132 13.32C132.133 13.3467 132.307 13.28 132.52 13.12C132.493 13.2 132.4 13.3867 132.24 13.68C132.107 13.9467 132.027 14.12 132 14.2V14.48C132.107 14.5333 132.333 14.6667 132.68 14.88C133.027 15.0667 133.24 15.2 133.32 15.28C133.427 15.3067 133.52 15.3867 133.6 15.52L132 16.32C131.973 16.3467 131.96 16.4267 131.96 16.56C131.96 16.6933 132 16.88 132.08 17.12C132.187 17.3333 132.32 17.5467 132.48 17.76C132.64 17.9733 132.8 18.16 132.96 18.32C133.147 18.4533 133.32 18.52 133.48 18.52C133.64 18.52 133.813 18.4933 134 18.44C134.187 18.36 134.28 18.1867 134.28 17.92V15.76C134.493 15.76 134.747 15.8667 135.04 16.08C135.36 16.2667 135.667 16.48 135.96 16.72C136.28 16.96 136.56 17.2 136.8 17.44C137.067 17.68 137.24 17.84 137.32 17.92C137.8 17.8667 138.24 17.56 138.64 17C139.067 16.44 139.44 15.76 139.76 14.96C140.08 14.1333 140.36 13.2267 140.6 12.24C140.84 11.2533 141.04 10.3067 141.2 9.4C141.36 8.49333 141.467 7.68 141.52 6.96C141.6 6.24 141.627 5.72 141.6 5.4C141.707 5.32 141.867 5.17333 142.08 4.96C142.293 4.72 142.4 4.50667 142.4 4.32C142.4 4.29333 142.36 4.25333 142.28 4.2C142.227 4.12 142.173 4.08 142.12 4.08C141.853 4.08 141.56 4.13333 141.24 4.24C140.947 4.34666 140.64 4.48 140.32 4.64C140 4.77333 139.667 4.89333 139.32 5C138.973 5.10666 138.627 5.16 138.28 5.16L137.08 5.12C136.84 4.96 136.68 4.74667 136.6 4.48C136.52 4.21333 136.48 3.94666 136.48 3.68H151.2C151.253 3.62667 151.32 3.57333 151.4 3.52C151.56 3.41333 151.667 3.33333 151.72 3.28C151.8 3.2 151.933 3.08 152.12 2.92C152.333 2.73333 152.56 2.54667 152.8 2.36C153.04 2.14666 153.253 1.96 153.44 1.8C153.653 1.61333 153.8 1.48 153.88 1.4C153.96 1.37333 154.093 1.36 154.28 1.36C154.52 1.36 154.773 1.42667 155.04 1.56C155.307 1.69333 155.56 1.86667 155.8 2.08C156.067 2.26667 156.307 2.46667 156.52 2.68C156.76 2.89333 156.947 3.09333 157.08 3.28H156.32C156.32 3.6 156.4 3.88 156.56 4.12C156.72 4.36 156.8 4.64 156.8 4.96C156.8 5.25333 156.747 5.52 156.64 5.76C156.56 5.97333 156.52 6.21333 156.52 6.48C156.52 6.66667 156.547 6.81333 156.6 6.92C156.68 7.02667 156.84 7.14667 157.08 7.28C157.08 7.01333 157.147 6.8 157.28 6.64C157.44 6.45333 157.6 6.29333 157.76 6.16C157.92 6.02667 158.067 5.89333 158.2 5.76C158.36 5.6 158.44 5.4 158.44 5.16C158.44 4.86667 158.333 4.58667 158.12 4.32H158.4ZM157.88 4.32C157.747 4.32 157.68 4.24 157.68 4.08H157.6C157.467 4.08 157.4 3.98666 157.4 3.8H157.32C157.187 3.8 157.12 3.72 157.12 3.56C157.12 3.37333 157.187 3.28 157.32 3.28C157.453 3.28 157.52 3.36 157.52 3.52H157.6C157.733 3.52 157.8 3.61333 157.8 3.8H157.88C158.013 3.8 158.08 3.89333 158.08 4.08C158.08 4.24 158.013 4.32 157.88 4.32ZM147.48 4.08V4.6H150.92C151.027 4.6 151.107 4.53333 151.16 4.4C151.24 4.24 151.28 4.13333 151.28 4.08H147.48ZM153.88 11.12C153.88 10.5333 153.787 10.0267 153.6 9.6C153.413 9.17333 153.24 8.66667 153.08 8.08C153.053 8.05333 153 8.04 152.92 8.04C152.733 8.04 152.587 8.12 152.48 8.28C152.4 8.44 152.333 8.62666 152.28 8.84C152.253 9.02667 152.24 9.22667 152.24 9.44C152.24 9.62667 152.24 9.76 152.24 9.84C152.24 10 152.253 10.2267 152.28 10.52C152.333 10.7867 152.4 11.0667 152.48 11.36C152.587 11.6267 152.72 11.8667 152.88 12.08C153.04 12.2667 153.24 12.36 153.48 12.36C153.533 12.36 153.573 12.3467 153.6 12.32C153.707 12.2933 153.8 12.2133 153.88 12.08V11.12ZM157.08 8.88L156.28 9.68V14.72C156.28 14.96 156.213 15.1733 156.08 15.36C155.947 15.5467 155.8 15.7333 155.64 15.92C155.507 16.1067 155.373 16.3067 155.24 16.52C155.107 16.7067 155.04 16.9333 155.04 17.2C155.6 17.2 156.013 16.9067 156.28 16.32C156.573 15.7067 156.773 15 156.88 14.2C157.013 13.4 157.08 12.6133 157.08 11.84C157.08 11.04 157.08 10.4533 157.08 10.08V8.88ZM129.32 11.28H129.08L129.32 11.52V11.28ZM131.24 13.2C130.68 13.2 130.187 13.36 129.76 13.68C129.36 13.9733 129.16 14.4267 129.16 15.04C129.827 15.04 130.333 14.9067 130.68 14.64C131.053 14.3733 131.24 13.8933 131.24 13.2ZM144.12 13.4C143.96 13.4 143.84 13.4667 143.76 13.6C143.707 13.7333 143.68 13.8667 143.68 14C143.787 14 143.933 13.9867 144.12 13.96C144.333 13.9333 144.467 13.84 144.52 13.68C144.467 13.52 144.387 13.4267 144.28 13.4H144.12ZM147.48 14.72V15H147.72L147.48 14.72ZM131.2 17.92C131.387 17.92 131.48 17.8133 131.48 17.6C131.48 17.36 131.48 17.2133 131.48 17.16C131.48 16.9467 131.44 16.6667 131.36 16.32C131.28 15.9733 131.093 15.8 130.8 15.8C130.56 15.8 130.333 15.8667 130.12 16C129.907 16.1333 129.707 16.3067 129.52 16.52C129.36 16.7333 129.227 16.9733 129.12 17.24C129.04 17.48 129 17.7067 129 17.92H131.2ZM151.72 17.92V19.68C152.333 19.68 152.96 19.5467 153.6 19.28C154.267 18.9867 154.707 18.5333 154.92 17.92H151.72ZM122.4 19.28C122.587 19.3333 122.76 19.3733 122.92 19.4C123.053 19.4267 123.187 19.4533 123.32 19.48C123.48 19.5067 123.613 19.52 123.72 19.52C123.747 19.5467 123.8 19.56 123.88 19.56C123.96 19.56 124 19.5467 124 19.52C124.107 19.4933 124.2 19.4133 124.28 19.28C124.067 18.96 123.773 18.7733 123.4 18.72C123.053 18.6667 122.72 18.64 122.4 18.64V19.28ZM128.28 21.12C128.413 21.12 128.48 21.04 128.48 20.88C128.48 20.6933 128.413 20.6 128.28 20.6C128.147 20.6 128.08 20.6933 128.08 20.88C128.08 21.04 128.147 21.12 128.28 21.12ZM156.28 21.68C156.147 21.68 156.08 21.5867 156.08 21.4C156.08 21.2133 156.147 21.12 156.28 21.12C156.413 21.12 156.48 21.2133 156.48 21.4C156.48 21.5867 156.413 21.68 156.28 21.68ZM156.8 21.68C156.773 21.76 156.72 21.8 156.64 21.8C156.587 21.8 156.547 21.76 156.52 21.68C156.52 21.6 156.573 21.56 156.68 21.56C156.787 21.56 156.827 21.6 156.8 21.68ZM157.08 22.2C156.947 22.2 156.88 22.12 156.88 21.96C156.88 21.7733 156.947 21.68 157.08 21.68C157.213 21.68 157.28 21.7733 157.28 21.96C157.28 22.12 157.213 22.2 157.08 22.2ZM128 21.92H127.72V22.2H128V21.92ZM150.92 21.92C150.867 22.08 150.787 22.1733 150.68 22.2H150.4L150.92 21.92ZM150.4 23.92H146.68C146.787 23.52 146.72 23.16 146.48 22.84C146.267 22.52 145.96 22.36 145.56 22.36C145.56 22.68 145.573 22.92 145.6 23.08C145.653 23.24 145.747 23.48 145.88 23.8C145.8 23.8 145.613 23.84 145.32 23.92C145.053 24 144.88 24.0533 144.8 24.08C144.747 24.08 144.68 24.12 144.6 24.2C144.547 24.2533 144.52 24.2933 144.52 24.32V33.92H150.4V23.92ZM126.12 22.72C126.067 22.6933 126.027 22.6533 126 22.6L125.88 22.48C125.853 22.4533 125.813 22.44 125.76 22.44C125.68 22.44 125.627 22.4533 125.6 22.48C125.493 22.5067 125.307 22.56 125.04 22.64C124.773 22.6933 124.507 22.7867 124.24 22.92C123.973 23.0267 123.733 23.16 123.52 23.32C123.307 23.48 123.2 23.68 123.2 23.92C123.2 24.16 123.32 24.3333 123.56 24.44C123.827 24.5467 124.12 24.6267 124.44 24.68C124.787 24.7067 125.12 24.72 125.44 24.72C125.76 24.6933 125.987 24.68 126.12 24.68V22.72ZM130.8 23.8C131.12 23.8 131.36 23.68 131.52 23.44C131.68 23.2 131.76 22.9333 131.76 22.64C131.36 22.64 131 22.7067 130.68 22.84C130.387 22.9733 130.12 23.2 129.88 23.52L130.68 23.8H130.8ZM132.12 27.28C132.12 27.2 132.107 27.0267 132.08 26.76C132.053 26.4667 132.027 26.28 132 26.2C132 26.1733 131.96 26.1333 131.88 26.08C131.827 26 131.773 25.9467 131.72 25.92C131.693 25.9467 131.64 26 131.56 26.08C131.507 26.1333 131.48 26.1733 131.48 26.2C131.453 26.28 131.427 26.4667 131.4 26.76C131.373 27.0267 131.36 27.2 131.36 27.28H132.12ZM137.36 28.6C137.36 28.3867 137.293 28.1467 137.16 27.88C137.053 27.5867 136.907 27.3067 136.72 27.04C136.533 26.7733 136.32 26.56 136.08 26.4C135.84 26.2133 135.613 26.12 135.4 26.12C135.4 26.2267 135.453 26.44 135.56 26.76C135.667 27.08 135.787 27.4267 135.92 27.8C136.08 28.1467 136.24 28.4667 136.4 28.76C136.56 29.0267 136.693 29.16 136.8 29.16C137.173 29.16 137.36 28.9733 137.36 28.6ZM133.32 27.28C133.267 27.12 133.187 27.0267 133.08 27H132.8V27.28H133.32ZM129.64 33.92C129.64 33.7067 129.507 33.48 129.24 33.24C129 33 128.76 32.88 128.52 32.88L128.4 33C128.347 33.0533 128.32 33.08 128.32 33.08L128.28 33.12C128.253 33.1467 128.24 33.2 128.24 33.28C128.24 33.3333 128.253 33.3733 128.28 33.4C128.307 33.4533 128.36 33.56 128.44 33.72C128.52 33.88 128.6 34.0533 128.68 34.24C128.76 34.4 128.827 34.56 128.88 34.72C128.96 34.88 129.027 34.9733 129.08 35C129.453 34.76 129.64 34.4 129.64 33.92ZM143.48 34.48C143.16 33.8933 142.88 33.52 142.64 33.36C142.427 33.1733 142.093 33.08 141.64 33.08C141.507 33.08 141.333 33.0933 141.12 33.12C140.907 33.1467 140.8 33.28 140.8 33.52V33.68C141.093 33.68 141.347 33.72 141.56 33.8C141.773 33.88 141.973 33.9733 142.16 34.08C142.373 34.1867 142.56 34.28 142.72 34.36C142.907 34.44 143.107 34.48 143.32 34.48H143.48ZM151.48 36.32H151.2V36.6H151.48V36.32Z" fill="white"/>
</svg>
