<svg width="160" height="40" viewBox="0 0 160 40" fill="none" xmlns="http://www.w3.org/2000/svg">
<path d="M31.72 34.2C31.72 34.3333 31.7467 34.4667 31.8 34.6C31.8533 34.7067 31.96 34.76 32.12 34.76C32.8667 34.76 33.4933 34.6933 34 34.56C34.5067 34.4267 34.96 34.2533 35.36 34.04C35.7867 33.8267 36.2 33.6 36.6 33.36C37.0267 33.0933 37.5333 32.84 38.12 32.6C38.36 32.4933 38.52 32.5333 38.6 32.72C38.68 32.88 38.72 33.0133 38.72 33.12C38.72 33.3067 38.5467 33.5733 38.2 33.92C37.8533 34.24 37.4533 34.5867 37 34.96C36.5733 35.3333 36.1467 35.7067 35.72 36.08C35.32 36.48 35.0533 36.8267 34.92 37.12C34.8667 37.2267 34.8133 37.3733 34.76 37.56C34.7333 37.7467 34.68 37.92 34.6 38.08C34.5467 38.2667 34.4533 38.4267 34.32 38.56C34.2133 38.6933 34.0667 38.76 33.88 38.76C33.6667 38.76 33.48 38.7333 33.32 38.68C33.1867 38.6533 33.0133 38.5867 32.8 38.48C32.64 38.4 32.36 38.2533 31.96 38.04C31.56 37.8533 31.1333 37.64 30.68 37.4C30.2267 37.16 29.7867 36.9333 29.36 36.72C28.96 36.5333 28.68 36.4 28.52 36.32C28.3867 36.2133 28.2533 36.0533 28.12 35.84C28.0133 35.6533 27.88 35.4667 27.72 35.28C27.5867 35.12 27.4267 35 27.24 34.92C27.08 34.84 26.8933 34.8667 26.68 35L24.8 33.12C25.68 33.28 26.3867 33.0133 26.92 32.32C26.5733 32 26.12 31.84 25.56 31.84C25 31.8133 24.5067 31.8 24.08 31.8L24 32.08C24.0267 32.1333 24.1067 32.2667 24.24 32.48C24.4 32.6933 24.4933 32.8267 24.52 32.88C22.0133 33.8933 19.4933 34.8133 16.96 35.64C14.4533 36.4933 11.9067 37.3467 9.32 38.2C8.97333 38.3333 8.66667 38.5467 8.4 38.84C8.16 39.1333 7.85333 39.28 7.48 39.28H7.2C7.14667 39.1467 7.04 38.92 6.88 38.6C6.74667 38.3067 6.58667 37.9867 6.4 37.64C6.24 37.32 6.08 37 5.92 36.68C5.76 36.3867 5.65333 36.1867 5.6 36.08C5.49333 35.8667 5.36 35.5867 5.2 35.24C5.06667 34.92 4.92 34.6 4.76 34.28C4.62667 33.96 4.50667 33.6933 4.4 33.48C4.32 33.24 4.28 33.12 4.28 33.12L4.52 32.72H9.6C9.70667 32.72 9.78667 32.6533 9.84 32.52C9.92 32.3867 9.97333 32.24 10 32.08C10.0533 31.92 10.0933 31.76 10.12 31.6C10.1467 31.44 10.16 31.3333 10.16 31.28C10.16 30.9333 10.12 30.6667 10.04 30.48C9.98667 30.2667 9.77333 30.16 9.4 30.16C8.62667 30.16 7.86667 30.2267 7.12 30.36C6.37333 30.4933 5.61333 30.64 4.84 30.8C4.09333 30.9333 3.33333 31.0667 2.56 31.2C1.78667 31.3333 1.01333 31.4 0.24 31.4C0.24 30.92 0.466667 30.52 0.92 30.2C1.37333 29.88 1.89333 29.6267 2.48 29.44C3.06667 29.2267 3.64 29.08 4.2 29C4.76 28.8933 5.14667 28.84 5.36 28.84C5.52 28.84 5.64 28.8933 5.72 29C5.8 29.08 5.88 29.1733 5.96 29.28C6.04 29.36 6.13333 29.4533 6.24 29.56C6.37333 29.64 6.56 29.68 6.8 29.68C7.01333 29.68 7.22667 29.68 7.44 29.68C7.65333 29.6533 7.84 29.56 8 29.4C7.70667 29.24 7.49333 29.0933 7.36 28.96C7.22667 28.8 7.16 28.6 7.16 28.36C7.16 28.1733 7.24 28 7.4 27.84C7.56 27.6533 7.74667 27.5067 7.96 27.4C8.2 27.2667 8.42667 27.1733 8.64 27.12C8.88 27.04 9.06667 27 9.2 27H9.32C9.37333 27.0533 9.44 27.1867 9.52 27.4C9.6 27.6133 9.68 27.8267 9.76 28.04C9.86667 28.2533 9.96 28.4533 10.04 28.64C10.1467 28.8 10.2533 28.88 10.36 28.88C10.8667 28.88 11.2533 28.8 11.52 28.64C11.7867 28.4533 12 28.2267 12.16 27.96C12.32 27.6667 12.4667 27.3467 12.6 27C12.7333 26.6533 12.9333 26.32 13.2 26C13.4667 25.6533 13.84 25.3333 14.32 25.04C14.8 24.7467 15.4533 24.5067 16.28 24.32C16.4933 24.2933 16.5733 24.2133 16.52 24.08C16.4933 23.9467 16.48 23.8267 16.48 23.72C16.08 23.72 15.6933 23.7467 15.32 23.8C14.9733 23.8267 14.6667 23.6533 14.4 23.28L16 23C16.0533 23 16.1067 22.96 16.16 22.88C16.24 22.8 16.28 22.7467 16.28 22.72V20.68C15.4 20.68 14.5467 20.8 13.72 21.04C12.92 21.28 12.08 21.4 11.2 21.4H10.92C10.84 21.3733 10.7067 21.3333 10.52 21.28C10.36 21.2 10.28 21.1467 10.28 21.12V14.2C10.28 14.0667 10.1867 13.9867 10 13.96C9.81333 13.9333 9.68 13.92 9.6 13.92C9.49333 13.92 9.32 14.1333 9.08 14.56C8.86667 14.96 8.57333 15.4667 8.2 16.08C7.85333 16.6933 7.45333 17.36 7 18.08C6.54667 18.7733 6.04 19.4267 5.48 20.04C4.92 20.6533 4.30667 21.1733 3.64 21.6C3 22 2.30667 22.2 1.56 22.2C1.37333 22.2 1.2 22.1467 1.04 22.04C0.88 21.9067 0.8 21.7333 0.8 21.52C0.8 21.3333 0.866667 21.12 1 20.88C1.13333 20.64 1.29333 20.4 1.48 20.16C1.69333 19.92 1.90667 19.6933 2.12 19.48C2.33333 19.2667 2.52 19.1067 2.68 19C2.94667 18.2267 3.10667 17.6 3.16 17.12C3.21333 16.6133 3.24 16 3.24 15.28L3.2 13.92C3.12 13.92 2.97333 13.92 2.76 13.92C2.54667 13.8933 2.33333 13.8533 2.12 13.8C1.90667 13.72 1.72 13.6267 1.56 13.52C1.4 13.3867 1.32 13.2133 1.32 13C1.32 12.84 1.37333 12.7333 1.48 12.68C1.61333 12.6 1.74667 12.56 1.88 12.56C2.17333 12.56 2.42667 12.6667 2.64 12.88C2.88 13.0667 3.16 13.16 3.48 13.16C3.77333 13.16 3.96 13.0267 4.04 12.76C4.14667 12.4667 4.22667 12.1867 4.28 11.92H10.12V9.4C10.12 9.21333 10 9.12 9.76 9.12C9.52 9.12 9.37333 9.12 9.32 9.12C9.08 9.12 8.8 9.24 8.48 9.48C8.16 9.69333 7.77333 9.93333 7.32 10.2C6.89333 10.4667 6.4 10.72 5.84 10.96C5.28 11.1733 4.64 11.28 3.92 11.28C3.78667 11.28 3.65333 11.28 3.52 11.28C3.38667 11.2533 3.26667 11.2133 3.16 11.16C3.08 11.1067 3.02667 11.0133 3 10.88C3 10.72 3.06667 10.4933 3.2 10.2H2.92V1.6C3 1.6 3.37333 1.6 4.04 1.6C4.73333 1.6 5.46667 1.62666 6.24 1.68C7.04 1.70667 7.76 1.77333 8.4 1.88C9.04 1.98666 9.36 2.13333 9.36 2.32C9.36 2.4 9.34667 2.45333 9.32 2.48C9.26667 2.56 9.13333 2.74666 8.92 3.04C8.73333 3.30667 8.6 3.46666 8.52 3.52V7C8.52 7.18667 8.64 7.28 8.88 7.28C9.12 7.28 9.26667 7.28 9.32 7.28C9.34667 7.28 9.41333 7.28 9.52 7.28C9.62667 7.28 9.73333 7.28 9.84 7.28C9.94667 7.25333 10.04 7.22667 10.12 7.2C10.2267 7.14667 10.28 7.08 10.28 7V0.879998H13.6C13.84 0.879998 13.9867 0.893331 14.04 0.919998C14.12 0.946666 14.1467 0.999999 14.12 1.08C14.12 1.13333 14.0933 1.2 14.04 1.28C13.9867 1.36 13.96 1.45333 13.96 1.56C14.2 1.56 14.3867 1.54667 14.52 1.52C14.6533 1.46667 14.7733 1.41333 14.88 1.36C15.0133 1.28 15.1467 1.22667 15.28 1.2C15.4133 1.14666 15.5867 1.12 15.8 1.12C15.9333 1.12 16.1067 1.12 16.32 1.12C16.5333 1.09333 16.7333 1.09333 16.92 1.12C17.1333 1.14667 17.3067 1.21333 17.44 1.32C17.6 1.4 17.68 1.54667 17.68 1.76C17.68 2.13333 17.5733 2.42667 17.36 2.64C17.1467 2.85333 16.8667 3.06666 16.52 3.28C16.52 3.41333 16.5067 3.68 16.48 4.08C16.4533 4.45333 16.4267 4.85333 16.4 5.28C16.3733 5.70666 16.3467 6.10666 16.32 6.48C16.2933 6.85333 16.28 7.12 16.28 7.28V7.52C16.3067 7.57333 16.3867 7.64 16.52 7.72C16.6533 7.77333 16.7467 7.8 16.8 7.8H22.68C22.7333 7.85333 22.8533 7.94667 23.04 8.08C23.2533 8.21333 23.4 8.29333 23.48 8.32C23.48 8.34667 23.52 8.36 23.6 8.36C23.84 8.36 24.08 8.25333 24.32 8.04C24.5867 7.8 24.84 7.54667 25.08 7.28C25.3467 6.98666 25.6133 6.73333 25.88 6.52C26.1467 6.28 26.44 6.16 26.76 6.16C27 6.16 27.2267 6.21333 27.44 6.32C27.6533 6.4 27.8667 6.44 28.08 6.44C28.08 6.28 28.1067 6.12 28.16 5.96C28.2133 5.8 28.24 5.66666 28.24 5.56C28.24 5.42666 28.2 5.32 28.12 5.24C28.04 5.16 27.8667 5.12 27.6 5.12C27.3067 5.12 26.92 5.16 26.44 5.24C25.96 5.32 25.48 5.44 25 5.6C24.52 5.73333 24.08 5.92 23.68 6.16C23.3067 6.4 23.0533 6.68 22.92 7V0.799999C23.5067 0.799999 24.12 0.799999 24.76 0.799999C25.4 0.773331 26.04 0.773331 26.68 0.799999C27.3467 0.799999 27.9867 0.853333 28.6 0.96C29.24 1.04 29.84 1.18666 30.4 1.4C30.4267 1.45333 30.44 1.54666 30.44 1.68L30.4 1.92C30.3733 1.97333 30.3067 2.06666 30.2 2.2C30.12 2.33333 30.0133 2.48 29.88 2.64C29.7733 2.77333 29.6667 2.90667 29.56 3.04C29.4533 3.14667 29.3733 3.22667 29.32 3.28V7.28C29.32 7.30667 29.3867 7.38667 29.52 7.52C29.68 7.65333 29.8 7.74667 29.88 7.8C29.88 7.82667 29.92 7.84 30 7.84C30.32 7.84 30.6133 7.69333 30.88 7.4C31.1467 7.10666 31.4 6.76 31.64 6.36C31.88 5.96 32.1067 5.57333 32.32 5.2C32.56 4.8 32.8133 4.50667 33.08 4.32H33.2C33.6 4.32 34.04 4.49333 34.52 4.84C35.0267 5.18667 35.52 5.6 36 6.08C36.5067 6.53333 36.9733 7 37.4 7.48C37.8267 7.96 38.16 8.33333 38.4 8.6V8.88C38.3467 8.96 38.2533 9.09333 38.12 9.28C37.9867 9.44 37.9067 9.52 37.88 9.52H29.88L29.32 10.2V16.08C29.32 16.32 29.36 16.48 29.44 16.56C29.5467 16.6133 29.68 16.64 29.84 16.64C30.2667 16.64 30.6267 16.5733 30.92 16.44C31.24 16.3067 31.6533 16.24 32.16 16.24C32.16 16.4533 32.12 16.6267 32.04 16.76C31.96 16.8667 31.8533 16.9733 31.72 17.08C31.6133 17.16 31.48 17.24 31.32 17.32C31.1867 17.4 31.0533 17.52 30.92 17.68H31.2C31.4933 17.68 31.76 17.6267 32 17.52C32.2667 17.4133 32.5467 17.36 32.84 17.36C33.32 17.36 33.7333 17.4667 34.08 17.68C34.4533 17.8667 34.8933 17.96 35.4 17.96C35.48 17.96 35.6267 17.96 35.84 17.96C36.0533 17.96 36.2667 17.9467 36.48 17.92C36.72 17.8667 36.92 17.8 37.08 17.72C37.2667 17.6133 37.36 17.4667 37.36 17.28C37.36 17.12 37.2933 16.9733 37.16 16.84C37.0533 16.68 36.92 16.5467 36.76 16.44C36.6 16.3067 36.4267 16.2133 36.24 16.16C36.0533 16.08 35.88 16.04 35.72 16.04L35.48 16.08C35.4533 16.08 35.3867 16.1067 35.28 16.16C35.1733 16.2133 35.0533 16.2667 34.92 16.32C34.8133 16.3733 34.7067 16.44 34.6 16.52C34.4933 16.5733 34.4267 16.6 34.4 16.6H34.28C34.12 16.6 33.88 16.5733 33.56 16.52C33.24 16.44 32.92 16.3333 32.6 16.2C32.3067 16.0667 32.04 15.9067 31.8 15.72C31.56 15.5333 31.44 15.3333 31.44 15.12C31.44 14.9867 31.5067 14.8133 31.64 14.6C31.8 14.3867 31.9733 14.1867 32.16 14C32.3467 13.7867 32.52 13.6 32.68 13.44C32.8667 13.28 33 13.1733 33.08 13.12H33.2C33.5467 13.12 33.96 13.3067 34.44 13.68C34.92 14.0267 35.4 14.44 35.88 14.92C36.36 15.4 36.8 15.88 37.2 16.36C37.6267 16.84 37.9333 17.1867 38.12 17.4C38.1467 17.4533 38.16 17.5467 38.16 17.68C38.16 17.9467 38.04 18.1467 37.8 18.28C37.56 18.4133 37.32 18.48 37.08 18.48H17.08L16.28 17.68V19L23.48 19.52C23.64 19.5467 23.72 19.6533 23.72 19.84C23.7467 20.0267 23.76 20.16 23.76 20.24C23.76 20.4267 23.7067 20.5867 23.6 20.72C23.52 20.8533 23.4267 20.9867 23.32 21.12C23.2133 21.2267 23.1067 21.3467 23 21.48C22.92 21.6133 22.88 21.7867 22.88 22C22.88 22 22.88 22.0533 22.88 22.16C22.88 22.2667 22.88 22.3867 22.88 22.52C22.9067 22.6267 22.9333 22.7333 22.96 22.84C23.0133 22.9467 23.0933 23 23.2 23H30.12C30.4133 23 30.6 22.9067 30.68 22.72C30.7867 22.5333 30.96 22.44 31.2 22.44C31.44 22.44 31.5867 22.5067 31.64 22.64C31.72 22.7467 31.76 22.88 31.76 23.04C31.76 23.2 31.7333 23.3733 31.68 23.56C31.6533 23.7467 31.64 23.92 31.64 24.08H32.24C32.24 24 32.2533 23.88 32.28 23.72C32.3333 23.5333 32.3733 23.3467 32.4 23.16C32.4533 22.9467 32.4933 22.76 32.52 22.6C32.5467 22.4133 32.5467 22.28 32.52 22.2C32.52 22.1733 32.48 22.12 32.4 22.04C32.32 21.96 32.2267 21.88 32.12 21.8C32.04 21.72 31.9467 21.64 31.84 21.56C31.76 21.48 31.72 21.4267 31.72 21.4C31.72 21.3733 31.7467 21.2933 31.8 21.16C31.88 21.0267 31.9467 20.9333 32 20.88L33.32 19.52H33.48C33.8 19.52 34.2 19.72 34.68 20.12C35.1867 20.4933 35.68 20.9333 36.16 21.44C36.6667 21.92 37.12 22.4 37.52 22.88C37.9467 23.3333 38.24 23.64 38.4 23.8V24.08C38.3467 24.16 38.2533 24.2933 38.12 24.48C37.9867 24.64 37.9067 24.72 37.88 24.72H33.76C33.76 25.12 33.8933 25.4533 34.16 25.72C34.4267 25.9867 34.7067 26.2267 35 26.44C35.32 26.6533 35.6133 26.88 35.88 27.12C36.1467 27.3333 36.28 27.6 36.28 27.92V28.08C36.2533 28.1067 36.2 28.16 36.12 28.24C36.0667 28.2933 36.0267 28.32 36 28.32L29.6 29.68C29.5467 29.68 29.4533 29.72 29.32 29.8C29.1867 29.8533 29.1067 29.8933 29.08 29.92C29.0533 29.9467 29.04 30 29.04 30.08C29.04 30.1333 29.0533 30.1733 29.08 30.2C29.2667 30.3333 29.6933 30.52 30.36 30.76C31.0533 31 31.7733 31.24 32.52 31.48C33.2933 31.72 33.9733 31.9333 34.56 32.12C35.1733 32.3067 35.48 32.4133 35.48 32.44C35.48 32.6533 35.3067 32.8533 34.96 33.04C34.6133 33.2267 34.2133 33.3867 33.76 33.52C33.3333 33.6533 32.9067 33.76 32.48 33.84C32.08 33.8933 31.8267 33.92 31.72 33.92V34.2ZM7.2 4.08C7.14667 3.89333 7.05333 3.8 6.92 3.8C6.78667 3.77333 6.65333 3.76 6.52 3.76C6.33333 3.76 6.2 3.77333 6.12 3.8L6.92 4.08H7.2ZM13.88 6.08C13.88 5.73333 13.7733 5.50666 13.56 5.4C13.3467 5.26666 13.08 5.2 12.76 5.2C12.76 5.41333 12.8133 5.68 12.92 6C13.0267 6.32 13.2133 6.48 13.48 6.48H13.6C13.7067 6.4 13.8 6.30667 13.88 6.2V6.08ZM33.08 6.72C33.4267 6.88 33.6933 7.09333 33.88 7.36C34.0667 7.62666 34.24 7.89333 34.4 8.16C34.56 8.42667 34.7333 8.65333 34.92 8.84C35.1067 9.02667 35.3733 9.12 35.72 9.12C35.7467 9.12 35.84 9.12 36 9.12C36.1867 9.12 36.3733 9.10667 36.56 9.08C36.7733 9.02667 36.96 8.96 37.12 8.88C37.28 8.77333 37.36 8.64 37.36 8.48C37.36 8.4 37.3467 8.34667 37.32 8.32C36.92 7.84 36.5867 7.46666 36.32 7.2C36.0533 6.93333 35.7733 6.74666 35.48 6.64C35.2133 6.50666 34.8933 6.42666 34.52 6.4C34.1467 6.37333 33.6667 6.36 33.08 6.36V6.72ZM29.08 9.08C28.84 9.08 28.6533 9.18667 28.52 9.4H29.08V9.08ZM22.68 9.68L16.28 9.4V16.88L22.68 16.6V9.68ZM12.28 15.52C12.2533 15.4933 12.2267 15.4133 12.2 15.28C12.1733 15.1467 12.1467 15.0133 12.12 14.88C12.0933 14.72 12.0667 14.5733 12.04 14.44C12.0133 14.3067 12 14.2267 12 14.2C12 13.5067 12.1733 13.04 12.52 12.8C12.8667 12.5333 13.24 12.32 13.64 12.16C14.0667 11.9733 14.4533 11.7467 14.8 11.48C15.1467 11.1867 15.32 10.6533 15.32 9.88C14.9467 9.88 14.5867 10.0133 14.24 10.28C13.8933 10.52 13.56 10.8 13.24 11.12C12.92 11.44 12.6 11.7333 12.28 12C11.9867 12.24 11.68 12.36 11.36 12.36C11.28 12.36 11.2267 12.3467 11.2 12.32C11.1733 12.32 11.08 12.28 10.92 12.2C10.7867 12.0933 10.7067 12.0533 10.68 12.08C10.6267 12.08 10.4933 12.1867 10.28 12.4C10.0933 12.6133 9.96 12.7733 9.88 12.88C9.85333 12.88 9.84 12.92 9.84 13C9.84 13.16 9.93333 13.4 10.12 13.72C10.3333 14.0133 10.5733 14.32 10.84 14.64C11.1333 14.96 11.4133 15.2533 11.68 15.52C11.9467 15.7867 12.1467 15.9733 12.28 16.08V15.52ZM10.92 9.92C10.8933 9.94666 10.84 10 10.76 10.08C10.7067 10.1333 10.68 10.1733 10.68 10.2C10.68 10.6533 10.8 10.9467 11.04 11.08C11.3067 11.2133 11.6533 11.28 12.08 11.28C12.08 10.9333 12.0133 10.68 11.88 10.52C11.7467 10.36 11.52 10.16 11.2 9.92H10.92ZM24.4 13.92C24.2667 13.92 24.12 13.9467 23.96 14C23.8 14.0267 23.72 14.1333 23.72 14.32C23.72 14.5067 23.7867 14.7733 23.92 15.12C24.08 15.4667 24.2667 15.8133 24.48 16.16C24.6933 16.48 24.9067 16.7733 25.12 17.04C25.36 17.28 25.56 17.4 25.72 17.4C25.9067 17.4 26.0667 17.2933 26.2 17.08C26.3333 16.84 26.4 16.64 26.4 16.48C26.4 15.8933 26.2533 15.4133 25.96 15.04C25.6933 14.64 25.3067 14.2667 24.8 13.92H24.4ZM7.28 16C7.28 15.36 7.2 14.9733 7.04 14.84C6.88 14.7067 6.46667 14.64 5.8 14.64C5.8 15.1733 5.89333 15.5333 6.08 15.72C6.29333 15.9067 6.69333 16 7.28 16ZM3.48 20.32C3.24 20.4533 3.12 20.64 3.12 20.88H3.48V20.32ZM22.4 20.88C22.5333 20.88 22.6 20.7867 22.6 20.6C22.6 20.4133 22.5333 20.32 22.4 20.32C22.2667 20.32 22.2 20.4133 22.2 20.6C22.2 20.7867 22.2667 20.88 22.4 20.88ZM19.2 23.28C19.3067 23.2 19.4933 23.0267 19.76 22.76C20.0267 22.4933 20.2 22.3067 20.28 22.2C20.2267 22.0133 20.1067 21.92 19.92 21.92C19.7333 21.92 19.5867 21.92 19.48 21.92C19.1867 21.92 18.9333 22 18.72 22.16C18.5067 22.2933 18.4 22.5333 18.4 22.88C18.4 23.04 18.4533 23.1467 18.56 23.2C18.6933 23.2533 18.8267 23.28 18.96 23.28H19.2ZM12.52 23.28C12.5467 23.68 12.48 24.0933 12.32 24.52C12.16 24.92 11.88 25.2133 11.48 25.4C11.4 25.2933 11.3067 25.2 11.2 25.12L10.68 24.72H1.32C1.26667 24.6933 1.22667 24.6533 1.2 24.6C1.17333 24.5467 1.14667 24.5067 1.12 24.48C1.09333 24.4267 1.08 24.3733 1.08 24.32C1.02667 24.2667 0.96 24.1733 0.88 24.04C0.826667 23.9067 0.8 23.8267 0.8 23.8V23.52C0.826667 23.4933 0.866667 23.4533 0.92 23.4C1 23.32 1.05333 23.28 1.08 23.28H3.48C3.56 23.5467 3.66667 23.76 3.8 23.92C3.93333 24.0533 4.14667 24.12 4.44 24.12C4.65333 24.12 4.84 24.08 5 24C5.16 23.8933 5.18667 23.6533 5.08 23.28H12.52ZM37.32 23.8V24.32C37.56 24.2133 37.68 24.04 37.68 23.8H37.32ZM30.92 24.6C30.6267 24.6 30.08 24.6133 29.28 24.64C28.5067 24.64 27.68 24.6533 26.8 24.68C25.92 24.7067 25.08 24.7467 24.28 24.8C23.5067 24.8267 22.9733 24.8533 22.68 24.88V25.68C22.68 25.68 22.76 25.7867 22.92 26C23.1067 26.1867 23.32 26.4133 23.56 26.68C23.8267 26.92 24.0933 27.1733 24.36 27.44C24.6533 27.7067 24.8933 27.92 25.08 28.08C25.1067 28.1067 25.1867 28.16 25.32 28.24C25.48 28.2933 25.5733 28.32 25.6 28.32C26.0267 28.32 26.4267 28.2133 26.8 28C27.1733 27.76 27.5467 27.52 27.92 27.28C28.32 27.0133 28.7333 26.7733 29.16 26.56C29.6133 26.32 30.12 26.2 30.68 26.2C30.92 26.04 31.12 25.8 31.28 25.48C31.44 25.16 31.52 24.8667 31.52 24.6H30.92ZM16.28 26.48C16.28 26.24 16.2533 25.9867 16.2 25.72C16.1467 25.4267 15.9467 25.28 15.6 25.28C15.6 25.6267 15.64 25.9467 15.72 26.24C15.8267 26.5067 16.0133 26.76 16.28 27V26.48ZM21.08 32.2C21.2133 32.36 21.4133 32.52 21.68 32.68C21.9467 32.8133 22.1867 32.88 22.4 32.88C22.5067 32.88 22.7067 32.8267 23 32.72C23.32 32.5867 23.48 32.4133 23.48 32.2C23.48 32.0933 23.3333 31.7067 23.04 31.04C22.7467 30.3733 22.4133 29.6667 22.04 28.92C21.6933 28.1467 21.36 27.4533 21.04 26.84C20.7467 26.2267 20.5733 25.92 20.52 25.92C20.4933 25.92 20.3733 25.96 20.16 26.04C19.9733 26.0933 19.8267 26.1467 19.72 26.2C19.5867 26.2533 19.36 26.36 19.04 26.52C18.7467 26.68 18.4267 26.8533 18.08 27.04C17.76 27.2 17.44 27.36 17.12 27.52C16.8267 27.6533 16.6267 27.7467 16.52 27.8C16.4933 27.8267 16.44 27.88 16.36 27.96C16.3067 28.0133 16.28 28.0533 16.28 28.08V32.2H21.08ZM30.4 31.92C30.4 32.2133 30.5467 32.3733 30.84 32.4C31.16 32.4267 31.4 32.44 31.56 32.44C31.56 32.28 31.5333 32.0933 31.48 31.88C31.4267 31.64 31.2933 31.52 31.08 31.52H30.92C30.8667 31.5467 30.7733 31.6 30.64 31.68C30.5067 31.7333 30.4267 31.7733 30.4 31.8V31.92ZM28 32.6C28.0267 32.52 27.9867 32.48 27.88 32.48C27.7733 32.48 27.72 32.52 27.72 32.6C27.7467 32.68 27.7867 32.72 27.84 32.72C27.92 32.72 27.9733 32.68 28 32.6ZM75.48 12.88C75.3733 12.9333 75.3067 12.9733 75.28 13C75.2533 13.0267 75.2267 13.0667 75.2 13.12L75.72 14.08H74.76L74.68 14.24C74.6267 14.3733 74.6267 14.4533 74.68 14.48C74.68 14.5333 74.72 14.6133 74.8 14.72C74.88 14.8 74.96 14.9067 75.04 15.04C75.12 15.1467 75.2 15.2533 75.28 15.36C75.36 15.44 75.4267 15.4933 75.48 15.52C75.24 15.7067 74.92 16 74.52 16.4C74.12 16.7733 73.6933 17.1733 73.24 17.6C72.8133 18 72.4 18.3733 72 18.72C71.6267 19.04 71.36 19.2267 71.2 19.28C71.1467 18.96 71.0267 18.6533 70.84 18.36C70.6533 18.0667 70.3733 17.92 70 17.92H69.88C69.8 17.9467 69.68 18 69.52 18.08C69.3867 18.1333 69.32 18.1733 69.32 18.2V21.84C69.8267 21.84 70.2 21.88 70.44 21.96C70.7067 22.0133 71.0533 21.92 71.48 21.68C71.5067 21.3333 71.5467 20.9867 71.6 20.64C71.68 20.2667 71.7867 19.9467 71.92 19.68C72.08 19.3867 72.2933 19.16 72.56 19C72.8267 18.8133 73.16 18.72 73.56 18.72C73.7467 18.72 73.9733 18.72 74.24 18.72C74.5067 18.72 74.7467 18.7467 74.96 18.8C75.1733 18.8533 75.36 18.9467 75.52 19.08C75.68 19.1867 75.76 19.3733 75.76 19.64C75.76 19.96 75.7067 20.28 75.6 20.6C75.52 20.8933 75.48 21.2 75.48 21.52C75.48 21.8933 75.56 22.2 75.72 22.44C75.88 22.68 76.1467 22.8 76.52 22.8V30.72C76.3333 30.8533 76.1867 31.0533 76.08 31.32C75.9733 31.5867 75.8533 31.8667 75.72 32.16C75.5867 32.4267 75.4267 32.6667 75.24 32.88C75.08 33.0667 74.8533 33.16 74.56 33.16C74.3733 33.16 74.2533 33.1067 74.2 33C74.1467 32.8667 74.12 32.7333 74.12 32.6C74.12 32.3867 74.1733 32.2133 74.28 32.08C74.3867 31.92 74.44 31.7333 74.44 31.52C74.44 31.4133 74.4 31.2667 74.32 31.08C74.2667 30.8933 74.12 30.8667 73.88 31L72.28 31.8C72.44 31.96 72.52 32.1333 72.52 32.32C72.5467 32.48 72.56 32.6667 72.56 32.88C72.56 33.12 72.5067 33.3333 72.4 33.52C72.2933 33.68 72.24 33.8667 72.24 34.08C72.24 34.16 72.2533 34.2 72.28 34.2C72.3067 34.2533 72.3867 34.32 72.52 34.4C72.6533 34.4533 72.7467 34.48 72.8 34.48H76.6C76.6 35.1733 76.44 35.7733 76.12 36.28C75.8 36.8133 75.3867 37.2667 74.88 37.64C74.3733 38.0133 73.8 38.2933 73.16 38.48C72.5467 38.6667 71.9333 38.76 71.32 38.76C70.8933 38.76 70.6133 38.56 70.48 38.16C70.3733 37.76 70.2933 37.2933 70.24 36.76C70.1867 36.2533 70.1067 35.7467 70 35.24C69.92 34.76 69.6933 34.4133 69.32 34.2C69.16 34.3067 68.9467 34.4267 68.68 34.56C68.44 34.6667 68.2 34.7867 67.96 34.92C67.7467 35.0533 67.56 35.2133 67.4 35.4C67.24 35.5867 67.16 35.8 67.16 36.04C67.16 36.8667 67.5333 37.4133 68.28 37.68C68.12 37.8933 67.88 38.0667 67.56 38.2C67.2667 38.3333 66.9467 38.44 66.6 38.52C66.2533 38.6 65.9067 38.6533 65.56 38.68C65.24 38.7333 64.9867 38.76 64.8 38.76C64.7467 38.76 64.6933 38.7467 64.64 38.72C64.5867 38.72 64.5467 38.72 64.52 38.72C64.4667 38.72 64.4 38.7067 64.32 38.68C64.24 38.6533 64.1733 38.6267 64.12 38.6C64.0133 38.5733 63.9333 38.5333 63.88 38.48V30.48C63.88 30.32 63.76 30.2267 63.52 30.2C63.28 30.1733 63.12 30.16 63.04 30.16C62.7467 30.16 62.5067 30.2 62.32 30.28C62.1333 30.36 61.8933 30.5067 61.6 30.72C61.5733 30.7467 61.56 30.8 61.56 30.88C61.56 30.9333 61.5733 30.9733 61.6 31L62.12 31.28V37.12C62.12 37.3333 61.96 37.5333 61.64 37.72C61.32 37.9333 60.9467 38.1067 60.52 38.24C60.12 38.4 59.72 38.52 59.32 38.6C58.9467 38.7067 58.68 38.76 58.52 38.76C58.44 38.76 58.4 38.7467 58.4 38.72C58.2933 38.6133 58.2 38.4533 58.12 38.24C58.0667 38.0267 57.9333 37.92 57.72 37.92H57.6C57.4933 38.1067 57.4267 38.32 57.4 38.56C57.4 38.8 57.24 38.92 56.92 38.92V29.4L56.52 28.32C56.52 28.2933 56.48 28.28 56.4 28.28C55.7333 29.6933 55.12 30.9867 54.56 32.16C54.08 33.1733 53.5867 34.1333 53.08 35.04C52.6 35.9733 52.24 36.5867 52 36.88C51.9467 36.9333 51.8267 37.0533 51.64 37.24C51.4533 37.4267 51.2533 37.6133 51.04 37.8C50.8533 38.0133 50.6667 38.2 50.48 38.36C50.32 38.5467 50.2 38.6667 50.12 38.72C50.0667 38.7467 49.9867 38.76 49.88 38.76H49.68C49.6533 38.76 49.6267 38.7467 49.6 38.72C49.5467 38.72 49.4133 38.64 49.2 38.48C48.9867 38.32 48.8533 38.2267 48.8 38.2H48.68C48.2267 38.2 47.8 38.2533 47.4 38.36C47.0267 38.4667 46.64 38.5733 46.24 38.68C45.8667 38.8133 45.4667 38.9333 45.04 39.04C44.64 39.1467 44.2 39.2 43.72 39.2V31.08C43.8 31.08 43.9333 31.08 44.12 31.08C44.3333 31.0533 44.4667 31.0267 44.52 31C44.5733 31 44.6267 30.96 44.68 30.88C44.76 30.8 44.8 30.7467 44.8 30.72V28.4C44.48 28.4 44.24 28.3733 44.08 28.32C43.92 28.2667 43.72 28.36 43.48 28.6V20.88C43.48 20.8533 43.44 20.8133 43.36 20.76C43.3067 20.68 43.2533 20.6267 43.2 20.6H42.92L41.08 22.2C41.0267 22.2533 40.92 22.32 40.76 22.4C40.6267 22.4533 40.5467 22.48 40.52 22.48C40.28 22.48 40.1333 22.44 40.08 22.36C40.0267 22.2533 40 22.12 40 21.96C40 21.6667 40.0667 21.32 40.2 20.92C40.3333 20.52 40.5333 20.24 40.8 20.08C40.8267 20.16 40.84 20.2933 40.84 20.48C40.84 20.7733 40.7467 21.0133 40.56 21.2C40.4 21.3867 40.32 21.6267 40.32 21.92H40.8C41.1467 21.92 41.48 21.7467 41.8 21.4C42.1467 21.0267 42.44 20.5867 42.68 20.08C42.9467 19.5733 43.1733 19.08 43.36 18.6C43.5467 18.0933 43.6667 17.6933 43.72 17.4H41.8C41.8 17.1867 41.8933 16.6267 42.08 15.72C42.2933 14.8133 42.5467 13.7467 42.84 12.52C43.1333 11.2933 43.4533 10 43.8 8.64C44.1733 7.25333 44.52 5.98667 44.84 4.84C45.16 3.69333 45.4267 2.74666 45.64 2C45.8533 1.22667 45.9867 0.839999 46.04 0.839999C47.24 0.839999 48.4267 1.05333 49.6 1.48C50.8 1.90667 51.96 2.32 53.08 2.72V3.12C53.08 3.41333 53 3.65333 52.84 3.84C52.7067 4 52.5467 4.16 52.36 4.32C52.1733 4.48 52 4.66667 51.84 4.88C51.7067 5.06667 51.64 5.33333 51.64 5.68H57.08V1.4L57.32 0.879998C57.3467 0.853332 57.5067 0.839999 57.8 0.839999C58.0933 0.839999 58.32 0.839999 58.48 0.839999C59.2 0.839999 59.8533 0.853332 60.44 0.879998C61.0267 0.906665 61.68 0.986664 62.4 1.12V1.28C62.4 1.54666 62.3467 1.78666 62.24 2C62.16 2.21333 62.0667 2.42667 61.96 2.64C61.88 2.82667 61.7867 3.02667 61.68 3.24C61.6 3.45333 61.56 3.69333 61.56 3.96C61.56 4.30667 61.6533 4.6 61.84 4.84C62.0533 5.08 62.3067 5.28 62.6 5.44C62.8933 5.6 63.2133 5.72 63.56 5.8C63.9067 5.88 64.2267 5.92 64.52 5.92C64.4933 5.94667 64.44 6.04 64.36 6.2C64.3067 6.33333 64.28 6.42666 64.28 6.48C64.28 6.74667 64.4133 6.97333 64.68 7.16C64.9733 7.32 65.3067 7.45333 65.68 7.56C66.0533 7.66666 66.4267 7.74667 66.8 7.8C67.1733 7.82667 67.4533 7.84 67.64 7.84C67.9867 7.84 68.2667 7.72 68.48 7.48C68.6933 7.21333 68.8667 6.92 69 6.6C69.1333 6.25333 69.2267 5.90666 69.28 5.56C69.3333 5.21333 69.36 4.93333 69.36 4.72C69.36 4.64 69.3467 4.6 69.32 4.6C69.2667 4.52 69.1733 4.41333 69.04 4.28C68.9067 4.14666 68.8267 4.08 68.8 4.08H66.92L66.68 4.32C66.7867 4.53333 66.92 4.68 67.08 4.76C67.2667 4.81333 67.44 4.88 67.6 4.96C67.7867 5.04 67.9467 5.14667 68.08 5.28C68.2133 5.38667 68.28 5.6 68.28 5.92C68.28 6.32 68.16 6.61333 67.92 6.8C67.68 6.96 67.3867 7.04 67.04 7.04C66.6667 7.04 66.3867 6.97333 66.2 6.84C66.04 6.68 65.84 6.37333 65.6 5.92L66 5.68V1.12L66.4 0.879998C66.4267 0.853332 66.5867 0.839999 66.88 0.839999C67.2 0.839999 67.44 0.839999 67.6 0.839999C67.76 0.839999 68.1333 0.839999 68.72 0.839999C69.3333 0.839999 69.96 0.866665 70.6 0.919998C71.24 0.946666 71.8133 1.02667 72.32 1.16C72.8267 1.26666 73.08 1.44 73.08 1.68C73.08 1.78666 73.0267 1.90666 72.92 2.04C72.8133 2.17333 72.6933 2.30666 72.56 2.44C72.4533 2.57333 72.3333 2.69333 72.2 2.8C72.0933 2.90666 72.0267 2.97333 72 3V5.6C72.24 5.6 72.48 5.49333 72.72 5.28C72.96 5.06667 73.1867 4.82666 73.4 4.56C73.6133 4.26667 73.8267 3.97333 74.04 3.68C74.2533 3.38667 74.4667 3.16 74.68 3H74.8C75.04 3 75.3067 3.13333 75.6 3.4C75.8933 3.66667 76.12 3.89333 76.28 4.08C76.0667 4.08 75.7867 4.17333 75.44 4.36C75.0933 4.52 74.92 4.73333 74.92 5V5.12C74.9733 5.17333 75.1067 5.26666 75.32 5.4C75.56 5.53333 75.6933 5.62667 75.72 5.68C75.8 5.73333 75.9333 5.85333 76.12 6.04C76.3067 6.22667 76.4933 6.42667 76.68 6.64C76.8933 6.85333 77.08 7.06667 77.24 7.28C77.4267 7.46667 77.5467 7.6 77.6 7.68H72C72 7.73333 71.96 7.89333 71.88 8.16C71.8267 8.4 71.7733 8.54666 71.72 8.6H71.6C71.3067 8.6 71.04 8.53333 70.8 8.4C70.56 8.24 70.28 8.16 69.96 8.16C69.96 8.4 70.0133 8.64 70.12 8.88C70.2267 9.09333 70.3333 9.30667 70.44 9.52C70.5733 9.70666 70.6933 9.89333 70.8 10.08C70.9067 10.2667 70.96 10.44 70.96 10.6C70.96 10.68 70.9467 10.72 70.92 10.72C70.6533 10.9067 70.3067 11.0533 69.88 11.16C69.4533 11.24 69.0133 11.2933 68.56 11.32C68.1333 11.3467 67.7067 11.36 67.28 11.36C66.88 11.36 66.5467 11.36 66.28 11.36V7.8H62.8V10.48C62.8 10.7733 62.52 11 61.96 11.16C61.4 11.2933 60.7733 11.4 60.08 11.48C59.3867 11.5333 58.7467 11.5733 58.16 11.6C57.5733 11.6 57.2533 11.6 57.2 11.6V8.08C57.2 8.05333 57.1467 8.01333 57.04 7.96C56.9333 7.88 56.8533 7.82667 56.8 7.8C56.72 7.77333 56.5867 7.74666 56.4 7.72C56.24 7.69333 56.0533 7.66667 55.84 7.64C55.6533 7.61333 55.4667 7.58666 55.28 7.56C55.12 7.53333 55 7.52 54.92 7.52C55.0267 7.09333 55.0133 6.81333 54.88 6.68C54.7467 6.52 54.4933 6.44 54.12 6.44L53.6 6.48L54.12 7.52H51.72C51.6933 7.46667 51.6133 7.33333 51.48 7.12C51.3467 6.90667 51.2533 6.77333 51.2 6.72H51.08C50.92 6.72 50.7867 6.82667 50.68 7.04C50.6 7.22667 50.52 7.44 50.44 7.68C50.3867 7.92 50.32 8.16 50.24 8.4C50.16 8.64 50.04 8.8 49.88 8.88C49.8 8.48 49.64 8.12 49.4 7.8C49.16 7.48 48.88 7.2 48.56 6.96C48.24 6.72 47.88 6.53333 47.48 6.4C47.1067 6.26667 46.7333 6.2 46.36 6.2C46.0667 6.2 45.8533 6.24 45.72 6.32C45.6133 6.37333 45.56 6.56 45.56 6.88C45.56 7.25333 45.7067 7.54667 46 7.76C46.32 7.94667 46.6667 8.13333 47.04 8.32C47.44 8.48 47.7867 8.69333 48.08 8.96C48.4 9.2 48.56 9.56 48.56 10.04C48.56 10.5467 48.44 10.9733 48.2 11.32C47.96 11.6667 47.84 12.0533 47.84 12.48C47.8667 12.48 47.8933 12.5067 47.92 12.56C47.9467 12.6133 47.9733 12.6267 48 12.6C48.0533 12.5467 48.1467 12.4267 48.28 12.24C48.4133 12.0267 48.4933 11.88 48.52 11.8C48.6267 12.04 48.7867 12.2267 49 12.36C49.2133 12.4933 49.4267 12.6267 49.64 12.76C49.8533 12.8667 50.04 12.9867 50.2 13.12C50.36 13.2533 50.44 13.44 50.44 13.68C50.44 13.9467 50.3733 14.1467 50.24 14.28C50.1067 14.4133 49.8933 14.56 49.6 14.72V35.68C49.7867 35.68 49.96 35.48 50.12 35.08C50.3067 34.7067 50.4667 34.2267 50.6 33.64C50.7333 33.0533 50.8533 32.4133 50.96 31.72C51.0933 31.0267 51.2 30.3733 51.28 29.76C51.3867 29.12 51.4667 28.5733 51.52 28.12C51.6 27.6667 51.6667 27.3867 51.72 27.28C51.9067 27.28 52.16 27.3067 52.48 27.36C52.8267 27.4133 53.1867 27.48 53.56 27.56C53.96 27.6133 54.3467 27.6667 54.72 27.72C55.0933 27.7733 55.4 27.8 55.64 27.8C55.8 27.8 55.9067 27.7067 55.96 27.52C56.0133 27.3067 56.04 27.12 56.04 26.96C56.04 26.8267 56.0267 26.7467 56 26.72L54.68 24.08C54.6533 24.0533 54.5733 24.04 54.44 24.04C54.12 24.04 53.8533 24.1733 53.64 24.44C53.4533 24.7067 53.2667 25 53.08 25.32C52.8933 25.6133 52.6933 25.8933 52.48 26.16C52.2933 26.4267 52.04 26.56 51.72 26.56V24.32C51.72 23.6533 51.72 22.8533 51.72 21.92C51.7467 20.9867 51.76 20.0133 51.76 19C51.7867 17.9867 51.8133 17 51.84 16.04C51.8667 15.0533 51.8933 14.1733 51.92 13.4C51.9467 12.6 51.96 11.96 51.96 11.48C51.9867 10.9733 52 10.72 52 10.72L52.28 10.48C52.3067 10.4533 52.56 10.5333 53.04 10.72C53.5467 10.88 54.1067 11.08 54.72 11.32C55.36 11.5333 55.9733 11.7467 56.56 11.96C57.1733 12.1733 57.6133 12.2933 57.88 12.32H59.2C59.6533 12.32 60.44 12.3067 61.56 12.28C62.7067 12.2533 63.92 12.2267 65.2 12.2C66.48 12.1733 67.68 12.1467 68.8 12.12C69.9467 12.0933 70.7467 12.08 71.2 12.08C71.4133 11.8933 71.6267 11.64 71.84 11.32C72.08 10.9733 72.3333 10.64 72.6 10.32C72.8667 9.97333 73.1333 9.68 73.4 9.44C73.6933 9.2 73.9867 9.08 74.28 9.08C74.4667 9.08 74.6 9.09333 74.68 9.12C74.8667 9.25333 75.0933 9.41333 75.36 9.6C75.6267 9.78667 75.8933 9.98667 76.16 10.2C76.4533 10.4133 76.72 10.64 76.96 10.88C77.2267 11.0933 77.44 11.3067 77.6 11.52L75.48 12.88ZM64 1.92C63.8667 1.92 63.8 1.84 63.8 1.68H63.72C63.5867 1.68 63.52 1.58666 63.52 1.4C63.52 1.21333 63.5867 1.12 63.72 1.12C63.8533 1.12 63.92 1.21333 63.92 1.4H64C64.1333 1.4 64.2 1.49333 64.2 1.68C64.2 1.84 64.1333 1.92 64 1.92ZM63.48 2.48C63.4 2.61333 63.3067 2.69333 63.2 2.72C63.1733 2.74666 63.1333 2.76 63.08 2.76C63 2.76 62.9467 2.74666 62.92 2.72L63.48 2.48ZM76.8 4.88C76.6667 4.88 76.6 4.78667 76.6 4.6H76.52C76.3867 4.6 76.32 4.52 76.32 4.36C76.32 4.17333 76.3867 4.08 76.52 4.08C76.6533 4.08 76.72 4.16 76.72 4.32H76.8C76.9333 4.32 77 4.41333 77 4.6C77 4.78667 76.9333 4.88 76.8 4.88ZM78.92 7C78.84 7.02666 78.8 6.98666 78.8 6.88C78.8 6.77333 78.84 6.72 78.92 6.72C79 6.74667 79.04 6.8 79.04 6.88C79.04 6.93333 79 6.97333 78.92 7ZM60.28 7.28C59.88 7.54667 59.44 7.74667 58.96 7.88C58.5067 7.98667 58.0533 8.05333 57.6 8.08V10.72C57.6 10.7467 57.6267 10.8 57.68 10.88C57.76 10.9333 57.8267 10.9733 57.88 11H58.12C58.1733 10.5467 58.24 10.1733 58.32 9.88C58.4267 9.58666 58.56 9.32 58.72 9.08C58.88 8.84 59.08 8.6 59.32 8.36C59.5867 8.12 59.9067 7.84 60.28 7.52V7.28ZM73 11.48C72.6 11.48 72.32 11.6267 72.16 11.92C72 12.2133 71.92 12.5467 71.92 12.92C72.3733 12.92 72.6667 12.8 72.8 12.56C72.9333 12.2933 73 11.9333 73 11.48ZM77.88 12.08C77.7467 12.08 77.68 11.9867 77.68 11.8C77.68 11.6133 77.7467 11.52 77.88 11.52C78.0133 11.52 78.08 11.6133 78.08 11.8C78.08 11.9867 78.0133 12.08 77.88 12.08ZM79.2 13.28C79.2 13.4933 79.0667 13.6667 78.8 13.8C78.5333 13.9067 78.3067 13.96 78.12 13.96C78.0133 13.96 77.9333 13.9467 77.88 13.92C78.36 13.76 78.8 13.4933 79.2 13.12V13.28ZM56.32 13.28C56.1333 13.28 55.9867 13.3467 55.88 13.48C55.8 13.6133 55.7467 13.76 55.72 13.92C55.7467 13.9467 55.8 13.96 55.88 13.96C56.04 13.96 56.1467 13.8933 56.2 13.76C56.28 13.6 56.32 13.44 56.32 13.28ZM58.92 14.2L58.68 14.48C58.92 14.8 59.2267 15.08 59.6 15.32C60 15.56 60.4133 15.76 60.84 15.92C61.2933 16.0533 61.7467 16.16 62.2 16.24C62.6533 16.2933 63.08 16.32 63.48 16.32C63.2933 16.3733 63.1867 16.48 63.16 16.64C63.16 16.7733 63.16 16.9067 63.16 17.04C63.16 17.2267 63.2133 17.3733 63.32 17.48C63.4533 17.5867 63.5867 17.6933 63.72 17.8C63.8533 17.88 63.9733 17.9867 64.08 18.12C64.2133 18.2533 64.28 18.4533 64.28 18.72C64.28 18.8 64.28 18.9467 64.28 19.16C64.28 19.3733 64.1867 19.4933 64 19.52C64 19.4133 64 19.2667 64 19.08C64 18.8933 63.9733 18.72 63.92 18.56C63.8667 18.3733 63.7867 18.2267 63.68 18.12C63.5733 17.9867 63.4133 17.92 63.2 17.92C63.0667 17.92 62.8933 17.96 62.68 18.04C62.4933 18.0933 62.4 18.1467 62.4 18.2V21.68C62.4 21.7067 62.4267 21.76 62.48 21.84C62.56 21.8933 62.6267 21.92 62.68 21.92C62.7067 21.92 62.7867 21.92 62.92 21.92C63.08 21.92 63.24 21.92 63.4 21.92C63.56 21.8933 63.7067 21.88 63.84 21.88C63.9733 21.8533 64.0667 21.84 64.12 21.84C64.12 21.8933 64.0933 22 64.04 22.16C64.0133 22.2933 63.9867 22.4533 63.96 22.64C63.96 22.8 63.9867 22.9467 64.04 23.08C64.0933 23.2133 64.2133 23.28 64.4 23.28C64.8 23.28 65.04 23.2133 65.12 23.08C65.2267 22.9467 65.2933 22.8 65.32 22.64C65.3467 22.48 65.3867 22.3333 65.44 22.2C65.52 22.0667 65.72 22 66.04 22C66.04 22.1333 66.0667 22.32 66.12 22.56C66.2 22.8 66.12 22.9467 65.88 23C66.3067 23.5867 66.8533 23.88 67.52 23.88C67.52 23.5867 67.4667 23.32 67.36 23.08C67.2533 22.84 67.2 22.5867 67.2 22.32C67.2 21.9733 67.2667 21.6667 67.4 21.4C67.56 21.1067 67.72 20.8267 67.88 20.56C68.04 20.2933 68.1867 20.0133 68.32 19.72C68.48 19.4267 68.56 19.0933 68.56 18.72C68.56 18.64 68.56 18.4667 68.56 18.2C68.56 17.9333 68.5467 17.76 68.52 17.68C68.4933 17.52 68.4267 17.4267 68.32 17.4C68.2133 17.3733 68.1067 17.36 68 17.36C67.76 17.36 67.5733 17.4267 67.44 17.56C67.3067 17.6667 67.1733 17.8 67.04 17.96C66.9333 18.0933 66.8 18.2267 66.64 18.36C66.5067 18.4667 66.32 18.52 66.08 18.52C65.7067 18.52 65.44 18.48 65.28 18.4C65.12 18.2933 65 18.1467 64.92 17.96C64.8667 17.7733 64.84 17.5333 64.84 17.24C64.84 16.9467 64.8267 16.6 64.8 16.2H70.4C70.5867 16.2 70.76 16.1333 70.92 16C71.08 15.84 71.2267 15.6533 71.36 15.44C71.4933 15.2267 71.6 15.0133 71.68 14.8C71.76 14.56 71.8 14.36 71.8 14.2H58.92ZM48.12 19C48.3067 19 48.4533 18.9067 48.56 18.72C48.6667 18.5333 48.7333 18.32 48.76 18.08C48.8133 17.84 48.84 17.6 48.84 17.36C48.84 17.12 48.84 16.96 48.84 16.88L48.8 15.8C48.6933 15.5067 48.5333 15.3333 48.32 15.28C48.1333 15.2267 47.9333 15.2 47.72 15.2C47.56 15.2 47.32 15.28 47 15.44C46.7067 15.6 46.3867 15.7867 46.04 16C45.6933 16.2133 45.3467 16.4267 45 16.64C44.68 16.8533 44.44 17.0133 44.28 17.12C44.7867 17.1733 45.2 17.2267 45.52 17.28C45.8667 17.3333 46.16 17.4267 46.4 17.56C46.6667 17.6667 46.92 17.84 47.16 18.08C47.4 18.2933 47.68 18.6 48 19H48.12ZM53.2 18.28C53.2 17.96 53.1067 17.68 52.92 17.44C52.7333 17.2 52.52 17.0133 52.28 16.88C52.2533 16.9333 52.24 17.0133 52.24 17.12C52.24 17.4133 52.32 17.68 52.48 17.92C52.6667 18.16 52.9067 18.28 53.2 18.28ZM75.2 17.76C75.0667 17.76 74.9067 17.7467 74.72 17.72C74.56 17.6667 74.4533 17.56 74.4 17.4C74.4533 17.24 74.56 17.1467 74.72 17.12C74.9067 17.0667 75.0667 17.04 75.2 17.04V17.76ZM76.52 19C76.5733 18.7867 76.6667 18.6133 76.8 18.48C76.96 18.32 77.12 18.1867 77.28 18.08C77.44 17.9467 77.6 17.8133 77.76 17.68C77.92 17.5467 78.04 17.36 78.12 17.12C78.1467 17.2 78.16 17.3333 78.16 17.52C78.16 17.8667 77.9867 18.2 77.64 18.52C77.32 18.84 77 19 76.68 19H76.52ZM56.84 21.12C56.84 20.56 56.7467 20.0267 56.56 19.52C56.3733 19.0133 56.0133 18.6667 55.48 18.48C55.5333 18.8 55.52 19.08 55.44 19.32C55.36 19.5333 55.2533 19.7467 55.12 19.96C55.0133 20.1467 54.9067 20.3467 54.8 20.56C54.6933 20.7467 54.64 20.9867 54.64 21.28C54.64 21.4133 54.6667 21.5867 54.72 21.8C54.8 21.9867 54.8933 22.1733 55 22.36C55.1333 22.5467 55.2667 22.7067 55.4 22.84C55.56 22.9467 55.72 23 55.88 23C56.0933 23 56.2533 22.9333 56.36 22.8C56.4933 22.64 56.5867 22.4667 56.64 22.28C56.6933 22.0667 56.7333 21.8533 56.76 21.64C56.7867 21.4267 56.8133 21.2533 56.84 21.12ZM61.88 19.72C61.64 19.72 61.44 19.76 61.28 19.84C61.12 19.92 61.04 20.0933 61.04 20.36C61.04 20.5467 61.12 20.7333 61.28 20.92C61.4667 21.1067 61.6667 21.2 61.88 21.2V19.72ZM63.72 23.96C63.64 23.96 63.4667 23.9733 63.2 24C62.9333 24.0267 62.76 24.0533 62.68 24.08C62.6267 24.08 62.56 24.12 62.48 24.2C62.4267 24.2533 62.4 24.2933 62.4 24.32V27.8C62.4 27.8267 62.4267 27.88 62.48 27.96C62.56 28.0133 62.6267 28.0533 62.68 28.08C62.76 28.08 62.9333 28.0933 63.2 28.12C63.4667 28.1467 63.64 28.16 63.72 28.16V23.96ZM70.92 24.32C70.92 24.24 70.8667 24.1733 70.76 24.12C70.68 24.0667 70.5867 24.04 70.48 24.04C70.3733 24.0133 70.2667 24.0133 70.16 24.04C70.0533 24.04 70 24.04 70 24.04L69.32 24.08V28.16L70.68 28.08C70.7067 28.0533 70.7467 28.0133 70.8 27.96C70.88 27.88 70.92 27.8267 70.92 27.8V24.32ZM59.48 26.2C59.4267 26.1467 59.3333 26.0133 59.2 25.8C59.0667 25.5867 58.9733 25.4533 58.92 25.4C58.6267 25.5867 58.36 25.8933 58.12 26.32C57.88 26.72 57.6133 27.04 57.32 27.28V29.8C57.6667 29.8 57.9733 29.6667 58.24 29.4C58.5067 29.1333 58.7333 28.8133 58.92 28.44C59.1067 28.0667 59.24 27.6933 59.32 27.32C59.4267 26.92 59.48 26.5867 59.48 26.32V26.2ZM71.72 26.28C71.8533 26.28 72 26.2667 72.16 26.24C72.3467 26.1867 72.4667 26.08 72.52 25.92C72.4933 25.7867 72.4267 25.7067 72.32 25.68C72.2133 25.6533 72.1067 25.64 72 25.64C71.8933 25.64 71.8 25.6533 71.72 25.68V26.28ZM68 29.4C68.08 29.3733 68.1733 29.28 68.28 29.12C68.2 28.9867 68.1067 28.9067 68 28.88C67.9733 28.8533 67.9333 28.84 67.88 28.84C67.8 28.84 67.7467 28.8533 67.72 28.88C67.5867 28.9333 67.5067 29.0133 67.48 29.12C67.5333 29.28 67.6133 29.3733 67.72 29.4H68ZM66.92 29.12H66.68V29.68H66.92V29.12ZM70.68 30.48C70.68 30.2933 70.56 30.2 70.32 30.2C70.08 30.1733 69.9333 30.16 69.88 30.16C69.4267 30.16 69.1733 30.24 69.12 30.4C69.0667 30.56 69.04 30.8533 69.04 31.28C69.04 31.8933 69.1333 32.24 69.32 32.32C69.5067 32.4 69.96 32.44 70.68 32.44V30.48ZM48.84 32.32C48.84 32.08 48.76 31.9333 48.6 31.88C48.4667 31.8 48.2933 31.76 48.08 31.76C47.7333 31.76 47.4933 31.92 47.36 32.24C47.2267 32.56 47.16 32.8667 47.16 33.16H47.32C47.4 33.16 47.4533 33.1467 47.48 33.12C47.5867 33.0933 47.8 33.0133 48.12 32.88C48.4667 32.7467 48.6933 32.6533 48.8 32.6C48.8267 32.5467 48.84 32.4533 48.84 32.32ZM61.88 33.12C61.8 32.9867 61.7067 32.9067 61.6 32.88C61.5733 32.8533 61.5333 32.84 61.48 32.84C61.4 32.84 61.3467 32.8533 61.32 32.88C61.1867 32.9333 61.1067 33.0133 61.08 33.12H61.88ZM53.16 34.8C53.16 34.6933 53.0933 34.5733 52.96 34.44C52.8267 34.3067 52.68 34.1733 52.52 34.04C52.36 33.9067 52.2 33.7867 52.04 33.68C51.88 33.5467 51.7733 33.4533 51.72 33.4C51.3467 33.6133 51.16 33.8933 51.16 34.24C51.16 34.4 51.2533 34.52 51.44 34.6C51.6267 34.68 51.8267 34.7333 52.04 34.76C52.28 34.7867 52.5067 34.8 52.72 34.8C52.9333 34.8 53.08 34.8 53.16 34.8ZM71.2 34.2C71.1467 34.0667 71.0667 33.9867 70.96 33.96C70.88 33.9333 70.7867 33.92 70.68 33.92C70.5467 33.92 70.4267 33.9333 70.32 33.96C70.24 33.9867 70.1733 34.0667 70.12 34.2C70.1733 34.3333 70.24 34.4133 70.32 34.44C70.4267 34.4667 70.5467 34.48 70.68 34.48C70.7867 34.48 70.88 34.4667 70.96 34.44C71.0667 34.4133 71.1467 34.3333 71.2 34.2ZM48.8 37.12C48.8267 37.0933 48.84 37.0533 48.84 37C48.84 36.92 48.8267 36.88 48.8 36.88C48.7467 36.8 48.6133 36.6533 48.4 36.44C48.2133 36.2533 48.08 36.1333 48 36.08C47.92 36 47.8267 35.96 47.72 35.96V36.32L48.8 37.12ZM50.68 36.6C50.68 36.52 50.6267 36.48 50.52 36.48C50.4133 36.48 50.3733 36.52 50.4 36.6C50.4267 36.68 50.4667 36.72 50.52 36.72C50.6 36.72 50.6533 36.68 50.68 36.6ZM119.48 13.4C119.587 13.4267 119.667 13.52 119.72 13.68C119.747 13.68 119.76 13.72 119.76 13.8C119.76 14.0667 119.627 14.3067 119.36 14.52C119.12 14.7333 118.84 14.9467 118.52 15.16C118.2 15.3467 117.867 15.5333 117.52 15.72C117.2 15.9067 116.96 16.1067 116.8 16.32C116.693 16.48 116.56 16.72 116.4 17.04C116.24 17.36 116.08 17.7067 115.92 18.08C115.76 18.4267 115.613 18.76 115.48 19.08C115.347 19.4 115.253 19.64 115.2 19.8C115.12 19.8267 114.987 19.84 114.8 19.84C114.453 19.84 114.027 19.72 113.52 19.48C113.04 19.24 112.547 18.96 112.04 18.64C111.56 18.32 111.12 18.0133 110.72 17.72C110.32 17.4267 110.04 17.2267 109.88 17.12H109.6C109.44 17.12 109.24 17.16 109 17.24C108.787 17.32 108.68 17.4667 108.68 17.68V37.12C108.68 37.4667 108.427 37.76 107.92 38C107.44 38.24 106.88 38.44 106.24 38.6C105.6 38.76 104.973 38.8667 104.36 38.92C103.773 39 103.373 39.04 103.16 39.04L102.4 39C102.213 39 102.12 38.9067 102.12 38.72V24.28C102.253 24.28 102.347 24.2933 102.4 24.32C102.427 24.3467 102.507 24.4 102.64 24.48C102.8 24.56 102.893 24.6 102.92 24.6H103.08C103.267 24.6 103.373 24.52 103.4 24.36C103.453 24.2 103.48 24.0533 103.48 23.92C103.48 23.5467 103.333 23.2667 103.04 23.08C102.773 22.8933 102.467 22.7733 102.12 22.72V15.28H102.68L102.4 15.8C102.853 16.12 103.147 16.4267 103.28 16.72C103.44 16.9867 103.52 17.3467 103.52 17.8C103.52 18.2533 103.44 18.6267 103.28 18.92C103.147 19.1867 102.853 19.48 102.4 19.8H102.52C102.893 19.8 103.147 19.7733 103.28 19.72C103.44 19.6667 103.573 19.6267 103.68 19.6C103.813 19.5467 103.987 19.5067 104.2 19.48C104.413 19.4533 104.787 19.4667 105.32 19.52C105.64 19.4133 105.827 19.2533 105.88 19.04C105.96 18.8 106.027 18.5733 106.08 18.36C106.133 18.12 106.24 17.9067 106.4 17.72C106.587 17.5333 106.947 17.4267 107.48 17.4V17.28C107.48 17.2 107.413 17.1067 107.28 17C107.173 16.8933 107.04 16.7733 106.88 16.64C106.72 16.5067 106.56 16.3733 106.4 16.24C106.267 16.08 106.173 15.9333 106.12 15.8C106.12 15.72 106.107 15.64 106.08 15.56V15.4H107.12C107.147 15.3733 107.16 15.32 107.16 15.24C107.213 15.1067 107.227 15.0267 107.2 15C106.853 14.2 106.44 13.44 105.96 12.72C105.48 12 104.987 11.28 104.48 10.56C104 9.84 103.52 9.10667 103.04 8.36C102.587 7.58667 102.2 6.77333 101.88 5.92H101.6C100.907 6.45333 100.187 7.12 99.44 7.92C98.72 8.69333 98 9.52 97.28 10.4C96.56 11.2533 95.8667 12.0933 95.2 12.92C94.5333 13.72 93.9067 14.4133 93.32 15V15.68H92.28V15.96C92.3333 15.96 92.4267 15.9733 92.56 16C92.72 16 92.88 16.0133 93.04 16.04C93.2267 16.04 93.3867 16.0533 93.52 16.08C93.68 16.08 93.8 16.08 93.88 16.08C93.9067 16.0533 93.9467 16.0133 94 15.96C94.08 15.88 94.12 15.8267 94.12 15.8H96C95.92 15.8267 95.8267 15.92 95.72 16.08V16.32C95.8533 16.6133 95.9467 16.88 96 17.12C96.0533 17.3333 96.2267 17.44 96.52 17.44C96.7333 17.44 96.8933 17.3733 97 17.24C97.1067 17.08 97.2 16.92 97.28 16.76C97.3867 16.5733 97.4933 16.4133 97.6 16.28C97.7333 16.12 97.9067 16.04 98.12 16.04C98.2533 16.04 98.3733 16.0667 98.48 16.12C98.6133 16.1733 98.68 16.2933 98.68 16.48C98.68 16.7467 98.5333 17.0267 98.24 17.32C97.9733 17.5867 97.76 17.7867 97.6 17.92C97.5467 19.36 97.4533 20.76 97.32 22.12C97.2133 23.4533 96.96 24.76 96.56 26.04C96.5067 26.3867 96.44 26.72 96.36 27.04C96.28 27.3333 96.1467 27.6267 95.96 27.92C95.1333 30.16 93.92 32.16 92.32 33.92C90.72 35.6533 88.5733 36.9867 85.88 37.92C85.7467 37.9733 85.52 38.0533 85.2 38.16C84.9067 38.2667 84.5867 38.3733 84.24 38.48C83.92 38.6133 83.6 38.72 83.28 38.8C82.9867 38.9067 82.7867 38.9733 82.68 39L81.6 39.28C81.52 39.2533 81.4133 39.1733 81.28 39.04C81.1467 38.9067 81.08 38.8 81.08 38.72C81.32 38.4 81.6 38.12 81.92 37.88C82.2667 37.64 82.6133 37.4 82.96 37.16C83.3333 36.9467 83.6933 36.7333 84.04 36.52C84.4133 36.3067 84.76 36.0667 85.08 35.8C86.3067 34.68 87.3067 33.52 88.08 32.32C88.8533 31.12 89.4533 29.8533 89.88 28.52C90.3067 27.1867 90.5867 25.8 90.72 24.36C90.88 22.8933 90.96 21.36 90.96 19.76L90.92 17.12L90.68 16.88C90.68 16.88 90.6133 16.9067 90.48 16.96C90.3467 17.0133 90.2 17.08 90.04 17.16C89.88 17.24 89.7067 17.3333 89.52 17.44C89.3333 17.52 89.1867 17.6 89.08 17.68C88.4667 18 87.8267 18.3733 87.16 18.8C86.52 19.2267 85.8667 19.64 85.2 20.04C84.5333 20.4133 83.8533 20.7333 83.16 21C82.4667 21.2667 81.7733 21.4 81.08 21.4H80.52C80.7867 21 81.28 20.68 82 20.44C82.72 20.1733 83.4667 19.9333 84.24 19.72C85.0133 19.48 85.6933 19.2533 86.28 19.04C86.8933 18.8 87.2 18.52 87.2 18.2V16.12C86.9333 16.12 86.7467 16.2667 86.64 16.56C86.56 16.8267 86.4267 17.12 86.24 17.44C86.08 17.76 85.8133 18.0667 85.44 18.36C85.0933 18.6267 84.52 18.76 83.72 18.76L83.2 18.72C84.5333 17.44 85.84 16.1333 87.12 14.8C88.4 13.4667 89.5867 12.08 90.68 10.64C91.7733 9.17333 92.7467 7.64 93.6 6.04C94.48 4.44 95.1867 2.72 95.72 0.879998C95.7733 0.666664 95.92 0.559998 96.16 0.559998C96.4267 0.559998 96.6 0.559998 96.68 0.559998C97.0267 0.559998 97.3067 0.586665 97.52 0.639999C97.76 0.666665 98.0533 0.786665 98.4 0.999999H97.48L97.36 1.16C97.3067 1.29333 97.2933 1.37333 97.32 1.4C97.6133 1.77333 97.9467 2.24 98.32 2.8C98.72 3.36 99.1067 3.78666 99.48 4.08C99.6133 4.18666 99.7867 4.26666 100 4.32C100.24 4.37333 100.48 4.42667 100.72 4.48C100.96 4.50667 101.173 4.56 101.36 4.64C101.573 4.69333 101.747 4.77333 101.88 4.88C102.147 5.14667 102.307 5.41333 102.36 5.68C102.44 5.92 102.507 6.14667 102.56 6.36C102.64 6.54667 102.76 6.70666 102.92 6.84C103.107 6.94666 103.427 7 103.88 7C104.04 7 104.187 6.98666 104.32 6.96C104.48 6.90667 104.56 6.78667 104.56 6.6C104.56 6.52 104.547 6.48 104.52 6.48L102.92 4.88V4.32C102.92 4 102.96 3.70667 103.04 3.44C103.147 3.17333 103.2 2.88 103.2 2.56V2.48L102.12 1.92H102.52C102.627 1.92 102.813 1.93333 103.08 1.96C103.347 1.98666 103.6 2.04 103.84 2.12C104.107 2.17333 104.333 2.26666 104.52 2.4C104.733 2.53333 104.84 2.69333 104.84 2.88C104.84 2.93333 104.827 2.97333 104.8 3L103.48 4.32C103.453 4.34667 103.467 4.42667 103.52 4.56C103.6 4.69333 103.667 4.8 103.72 4.88C104.627 5.86667 105.573 6.69333 106.56 7.36C107.547 8 108.56 8.58666 109.6 9.12C110.64 9.62667 111.693 10.12 112.76 10.6C113.827 11.08 114.907 11.6533 116 12.32C115.76 12.64 115.6 12.9067 115.52 13.12C115.467 13.3333 115.44 13.6133 115.44 13.96C115.44 14.0933 115.44 14.2667 115.44 14.48C115.467 14.6667 115.507 14.8667 115.56 15.08C115.64 15.2667 115.733 15.44 115.84 15.6C115.947 15.7333 116.093 15.8 116.28 15.8H116.52L119.2 13.92L119.48 13.4ZM99.48 1.12C99.4267 1.2 99.3333 1.24 99.2 1.24C99.0667 1.24 98.9733 1.2 98.92 1.12C98.8933 1.04 98.9867 0.999999 99.2 0.999999C99.4133 0.999999 99.5067 1.04 99.48 1.12ZM100.52 1.4C100.493 1.48 100.413 1.52 100.28 1.52C100.147 1.52 100.053 1.48 100 1.4C99.9467 1.32 100.027 1.28 100.24 1.28C100.48 1.28 100.573 1.32 100.52 1.4ZM101.88 1.68C101.8 1.76 101.653 1.8 101.44 1.8C101.253 1.8 101.133 1.76 101.08 1.68C101.053 1.62666 101.08 1.6 101.16 1.6C101.24 1.57333 101.333 1.56 101.44 1.56C101.573 1.56 101.68 1.57333 101.76 1.6C101.867 1.62666 101.907 1.65333 101.88 1.68ZM96.28 3H96V3.52H96.28V3ZM94.4 12.72C94.4 12.48 94.32 12.28 94.16 12.12C94.0267 11.9333 93.84 11.7867 93.6 11.68C93.3867 11.5467 93.16 11.4533 92.92 11.4C92.68 11.32 92.4667 11.28 92.28 11.28C91.96 11.28 91.7867 11.3467 91.76 11.48C91.7333 11.6133 91.72 11.7867 91.72 12C91.72 12.16 91.72 12.3867 91.72 12.68C91.72 12.9467 91.7467 13.2267 91.8 13.52C91.8533 13.7867 91.9333 14.0267 92.04 14.24C92.1467 14.4267 92.3067 14.52 92.52 14.52C92.68 14.52 92.8667 14.4667 93.08 14.36C93.2933 14.2267 93.4933 14.08 93.68 13.92C93.8933 13.7333 94.0667 13.5333 94.2 13.32C94.3333 13.1067 94.4 12.9067 94.4 12.72ZM106.84 12.08C106.84 12.1067 106.827 12.2133 106.8 12.4C106.8 12.56 106.8 12.7333 106.8 12.92C106.827 13.1067 106.88 13.28 106.96 13.44C107.04 13.6 107.16 13.68 107.32 13.68H107.48C107.507 13.5733 107.547 13.3467 107.6 13C107.68 12.6533 107.72 12.4267 107.72 12.32C107.747 12.2667 107.76 12.1867 107.76 12.08H106.84ZM109.08 12.08H108.28C108.307 12.1067 108.387 12.16 108.52 12.24C108.653 12.2933 108.747 12.32 108.8 12.32C108.853 12.3467 108.947 12.36 109.08 12.36V12.08ZM117.32 12.88C117.187 12.88 117.12 12.7867 117.12 12.6C117.12 12.4133 117.187 12.32 117.32 12.32C117.453 12.32 117.52 12.4133 117.52 12.6C117.52 12.7867 117.453 12.88 117.32 12.88ZM118.4 12.88C118.373 12.96 118.32 13 118.24 13C118.187 13 118.147 12.96 118.12 12.88C118.12 12.8 118.173 12.76 118.28 12.76C118.387 12.76 118.427 12.8 118.4 12.88ZM110.12 13.68C110.12 13.6267 110.08 13.5333 110 13.4C109.947 13.2667 109.907 13.1733 109.88 13.12H109.72C109.667 13.12 109.587 13.1867 109.48 13.32C109.4 13.4533 109.307 13.6 109.2 13.76C109.093 13.92 109 14.08 108.92 14.24C108.84 14.3733 108.8 14.4533 108.8 14.48C108.853 14.48 108.987 14.52 109.2 14.6C109.413 14.6533 109.547 14.6933 109.6 14.72C109.627 14.7467 109.64 14.7867 109.64 14.84C109.64 15.08 109.533 15.2533 109.32 15.36C109.107 15.4667 109 15.6667 109 15.96C109 16.28 109.12 16.48 109.36 16.56C109.6 16.6133 109.853 16.64 110.12 16.64V13.68ZM97.6 15.8C97.5467 15.88 97.4133 15.92 97.2 15.92C96.9867 15.92 96.8533 15.88 96.8 15.8C96.7733 15.7733 96.8 15.7467 96.88 15.72C96.9867 15.6933 97.0933 15.68 97.2 15.68C97.3067 15.68 97.4 15.6933 97.48 15.72C97.5867 15.7467 97.6267 15.7733 97.6 15.8ZM107 22.48C107 22.16 106.973 21.9733 106.92 21.92C106.893 21.84 106.987 21.6667 107.2 21.4C107.12 21.3733 106.987 21.36 106.8 21.36C106.16 21.36 105.84 21.68 105.84 22.32C105.84 22.6667 105.88 23.1467 105.96 23.76C106.04 24.3467 106.173 24.9333 106.36 25.52C106.547 26.1067 106.8 26.6133 107.12 27.04C107.467 27.4667 107.88 27.68 108.36 27.68C108.36 27.36 108.293 27.0933 108.16 26.88C108.053 26.64 107.92 26.4267 107.76 26.24C107.627 26.0267 107.493 25.8133 107.36 25.6C107.253 25.3867 107.2 25.1467 107.2 24.88C107.2 24.64 107.24 24.4267 107.32 24.24C107.427 24.0533 107.533 23.8667 107.64 23.68C107.773 23.4933 107.88 23.3067 107.96 23.12C108.067 22.9333 108.12 22.72 108.12 22.48H107ZM92.92 29.68C93.5867 29.68 94.1733 29.52 94.68 29.2C95.2133 28.88 95.64 28.4533 95.96 27.92C96.2 27.3333 96.4 26.7067 96.56 26.04V25.8C96.56 25.5867 96.44 25.4 96.2 25.24C95.9867 25.08 95.72 24.96 95.4 24.88C95.08 24.7733 94.76 24.6933 94.44 24.64C94.1467 24.5867 93.92 24.56 93.76 24.56C93.5467 24.56 93.3733 24.6 93.24 24.68C93.1067 24.7333 93.04 24.88 93.04 25.12C93.04 25.3867 93.0933 25.64 93.2 25.88C93.3333 26.12 93.4667 26.36 93.6 26.6C93.7333 26.84 93.8533 27.0667 93.96 27.28C94.0933 27.4933 94.16 27.7067 94.16 27.92C94.16 28.1867 94.08 28.3867 93.92 28.52C93.7867 28.6533 93.6133 28.76 93.4 28.84C93.2133 28.8933 93 28.9333 92.76 28.96C92.5467 28.96 92.36 28.96 92.2 28.96C92.2 28.96 92.2267 29.0133 92.28 29.12C92.3067 29.1733 92.3867 29.2667 92.52 29.4C92.6533 29.5333 92.7467 29.6267 92.8 29.68H92.92ZM91.76 33.24C91.76 33 91.68 32.7867 91.52 32.6C91.3867 32.3867 91.1867 32.28 90.92 32.28C90.6533 32.28 90.4933 32.4133 90.44 32.68C90.4133 32.9467 90.4 33.1867 90.4 33.4C90.4 33.5333 90.4133 33.7067 90.44 33.92C90.4933 34.1067 90.6133 34.2 90.8 34.2C91.0933 34.2 91.32 34.1067 91.48 33.92C91.6667 33.7333 91.76 33.5067 91.76 33.24ZM107.32 36.24C106.627 36.24 106.067 36.24 105.64 36.24C105.213 36.24 104.867 36.3067 104.6 36.44C104.36 36.6 104.187 36.8533 104.08 37.2C104 37.5467 103.96 38.0533 103.96 38.72C104.28 38.72 104.627 38.6533 105 38.52C105.4 38.4133 105.773 38.24 106.12 38C106.467 37.7867 106.747 37.5333 106.96 37.24C107.2 36.9467 107.32 36.6133 107.32 36.24ZM158.4 4.32C158.48 4.37333 158.613 4.50667 158.8 4.72C159.013 4.93333 159.147 5.06667 159.2 5.12C159.227 5.14666 159.24 5.2 159.24 5.28C159.24 5.33333 159.173 5.41333 159.04 5.52C158.933 5.62666 158.8 5.74667 158.64 5.88C158.48 5.98667 158.32 6.09333 158.16 6.2C158.027 6.30667 157.933 6.4 157.88 6.48C157.827 6.88 157.773 7.45333 157.72 8.2C157.693 8.94667 157.64 9.77333 157.56 10.68C157.48 11.5867 157.36 12.5333 157.2 13.52C157.04 14.48 156.827 15.3867 156.56 16.24C156.32 17.0933 156 17.84 155.6 18.48C155.2 19.12 154.707 19.56 154.12 19.8C154.093 19.8 154.027 19.8 153.92 19.8C153.813 19.8 153.693 19.8 153.56 19.8C153.453 19.8 153.347 19.8 153.24 19.8C153.133 19.8 153.08 19.8 153.08 19.8C153 19.8267 152.893 19.8933 152.76 20C152.627 20.08 152.493 20.1867 152.36 20.32C152.227 20.4267 152.093 20.5333 151.96 20.64C151.853 20.7467 151.773 20.8267 151.72 20.88C151.773 20.7733 151.76 20.6667 151.68 20.56C151.627 20.4267 151.56 20.3467 151.48 20.32C151.4 20.32 151.267 20.3067 151.08 20.28C150.92 20.2533 150.733 20.2267 150.52 20.2C150.333 20.1733 150.147 20.1467 149.96 20.12C149.8 20.0933 149.68 20.08 149.6 20.08C149.28 19.36 149.08 18.7733 149 18.32C148.92 17.84 148.813 17.4267 148.68 17.08C148.547 16.7067 148.32 16.3733 148 16.08C147.707 15.76 147.173 15.4 146.4 15V14.08H150.4L150.48 13.92C150.507 13.8667 150.573 13.7867 150.68 13.68C151 13.12 151.213 12.5067 151.32 11.84C151.427 11.1467 151.48 10.44 151.48 9.72C151.507 9 151.493 8.29333 151.44 7.6C151.413 6.90667 151.4 6.26667 151.4 5.68H148.52C148.44 5.68 148.36 5.8 148.28 6.04C148.2 6.28 148.12 6.56 148.04 6.88C147.987 7.17333 147.933 7.46667 147.88 7.76C147.827 8.02667 147.773 8.21333 147.72 8.32L146.4 7C146.347 7.42667 146.24 7.85333 146.08 8.28C145.92 8.70667 145.84 9.13333 145.84 9.56C145.84 9.77333 145.88 10.0267 145.96 10.32C146.067 10.6133 146.253 10.76 146.52 10.76C146.6 10.76 146.653 10.7467 146.68 10.72C146.707 10.6933 146.787 10.6133 146.92 10.48C147.08 10.3467 147.173 10.2533 147.2 10.2V10.32C147.2 11.2533 146.92 12.1733 146.36 13.08C145.8 13.9867 145.107 14.84 144.28 15.64C143.48 16.44 142.64 17.1733 141.76 17.84C140.88 18.5067 140.12 19.0667 139.48 19.52C139.453 19.6 139.44 19.6933 139.44 19.8C139.44 20.12 139.68 20.4267 140.16 20.72C140.667 20.9867 141.227 21.2267 141.84 21.44C142.453 21.6533 143.053 21.8267 143.64 21.96C144.227 22.0933 144.613 22.1733 144.8 22.2C144.987 22.2267 145.307 22.2667 145.76 22.32C146.213 22.3467 146.693 22.3733 147.2 22.4C147.707 22.4267 148.187 22.4533 148.64 22.48C149.093 22.48 149.413 22.48 149.6 22.48C149.627 22.5867 149.68 22.8 149.76 23.12C149.867 23.4133 150.04 23.56 150.28 23.56C150.493 23.56 150.707 23.5067 150.92 23.4C151.133 23.2667 151.36 23.1333 151.6 23C151.84 22.8667 152.08 22.7467 152.32 22.64C152.56 22.5067 152.813 22.44 153.08 22.44C153.267 22.44 153.413 22.5067 153.52 22.64C153.627 22.7467 153.693 22.8933 153.72 23.08C153.773 23.24 153.8 23.4133 153.8 23.6C153.827 23.7867 153.853 23.9467 153.88 24.08C154.307 24 154.72 24.0267 155.12 24.16C155.547 24.2933 155.76 24.6267 155.76 25.16C155.76 25.4267 155.653 25.64 155.44 25.8C155.253 25.96 155.16 26.1867 155.16 26.48C155.16 26.9333 155.293 27.44 155.56 28C155.853 28.56 156 29.12 156 29.68C156 30.0267 155.973 30.3333 155.92 30.6C155.893 30.8667 155.853 31.1333 155.8 31.4C155.773 31.6667 155.747 31.96 155.72 32.28C155.693 32.6 155.693 32.9733 155.72 33.4L155.2 33.92H153.08C152.92 33.9467 152.693 34 152.4 34.08C152.133 34.1333 152 34.1733 152 34.2V34.48C152 34.56 152.227 34.6667 152.68 34.8C153.133 34.9333 153.64 35.0667 154.2 35.2C154.787 35.3333 155.32 35.44 155.8 35.52C156.307 35.6267 156.6 35.68 156.68 35.68V24.32C157.027 24.2133 157.307 24.0933 157.52 23.96C157.76 23.8267 157.88 23.6 157.88 23.28C157.88 23.0667 157.827 22.88 157.72 22.72C157.64 22.56 157.507 22.3867 157.32 22.2C157.347 22.1733 157.4 22.16 157.48 22.16C157.533 22.16 157.573 22.1733 157.6 22.2C157.893 22.4133 158.107 22.5733 158.24 22.68C158.373 22.7867 158.44 22.9733 158.44 23.24C158.44 23.56 158.28 23.8 157.96 23.96C157.667 24.0933 157.413 24.2133 157.2 24.32V36.88C157.2 37.28 156.947 37.6 156.44 37.84C155.96 38.08 155.4 38.2667 154.76 38.4C154.147 38.5333 153.547 38.6267 152.96 38.68C152.4 38.7333 152.027 38.76 151.84 38.76C151.333 38.76 151.027 38.6 150.92 38.28C150.813 37.9867 150.747 37.6533 150.72 37.28C150.72 36.9067 150.707 36.56 150.68 36.24C150.653 35.9467 150.467 35.8 150.12 35.8H145.32C145.08 35.8 144.853 35.9733 144.64 36.32C144.427 36.6667 144.107 37.04 143.68 37.44C143.253 37.84 142.653 38.2133 141.88 38.56C141.107 38.9067 140.04 39.08 138.68 39.08V26.48C138.893 26.4533 139.133 26.4133 139.4 26.36C139.693 26.28 139.96 26.1867 140.2 26.08C140.44 25.9733 140.64 25.8267 140.8 25.64C140.987 25.4533 141.08 25.2267 141.08 24.96C141.08 24.7733 140.96 24.5867 140.72 24.4C140.507 24.1867 140.253 24.0133 139.96 23.88C139.667 23.72 139.373 23.5867 139.08 23.48C138.813 23.3733 138.627 23.3067 138.52 23.28V20.68C138.147 20.68 137.867 20.8133 137.68 21.08C137.493 21.3467 137.307 21.6533 137.12 22C136.933 22.32 136.707 22.6133 136.44 22.88C136.173 23.1467 135.773 23.28 135.24 23.28C134.147 23.28 133.24 22.8267 132.52 21.92L132.48 22.6C132.48 23.1333 132.76 23.6267 133.32 24.08C133.88 24.5067 134.493 24.9733 135.16 25.48C135.853 25.9867 136.48 26.5733 137.04 27.24C137.6 27.9067 137.88 28.7333 137.88 29.72C137.88 30.4667 137.653 31.1333 137.2 31.72C136.747 32.3067 136.12 32.6 135.32 32.6C135.08 32.6 134.907 32.5333 134.8 32.4C134.693 32.2667 134.6 32.1067 134.52 31.92C134.44 31.7067 134.36 31.4933 134.28 31.28C134.2 31.0667 134.067 30.88 133.88 30.72V32.16C133.533 32.16 133.28 32.04 133.12 31.8C132.987 31.5333 132.893 31.2267 132.84 30.88C132.787 30.5067 132.747 30.1333 132.72 29.76C132.693 29.3867 132.627 29.0933 132.52 28.88C132.333 30.24 132.227 31.7067 132.2 33.28C132.2 34.8533 132.227 36.32 132.28 37.68C132.013 38.0533 131.613 38.36 131.08 38.6C130.547 38.8667 130.053 39 129.6 39H129.32C129.613 38.8933 129.907 38.7867 130.2 38.68C130.52 38.5733 130.8 38.44 131.04 38.28C131.28 38.1467 131.48 37.9733 131.64 37.76C131.8 37.5733 131.88 37.3333 131.88 37.04C131.693 37.04 131.547 37.0667 131.44 37.12C131.333 37.2 131.213 37.28 131.08 37.36C130.973 37.44 130.84 37.5067 130.68 37.56C130.52 37.64 130.293 37.68 130 37.68H129.88L128.52 37.12H128.4C128.267 37.12 128.147 37.1867 128.04 37.32C127.933 37.4533 127.84 37.6133 127.76 37.8C127.68 37.9867 127.613 38.16 127.56 38.32C127.507 38.5067 127.48 38.64 127.48 38.72C127.48 38.7733 127.52 38.8267 127.6 38.88C127.68 38.96 127.773 39.0267 127.88 39.08C127.987 39.16 128.12 39.2267 128.28 39.28H126.52V31C126.52 30.9733 126.467 30.8933 126.36 30.76C126.28 30.6 126.2 30.5067 126.12 30.48C126.12 30.4533 126.08 30.44 126 30.44C125.68 30.44 125.4 30.6267 125.16 31C124.92 31.3467 124.68 31.76 124.44 32.24C124.2 32.72 123.96 33.2 123.72 33.68C123.48 34.16 123.213 34.5067 122.92 34.72C122.84 34.4533 122.68 34.1733 122.44 33.88C122.227 33.56 122.04 33.3067 121.88 33.12H121.6C121.547 33.1733 121.48 33.2667 121.4 33.4C121.347 33.5333 121.32 33.6267 121.32 33.68C121.373 33.92 121.507 34.2133 121.72 34.56C121.933 34.88 122.16 35.12 122.4 35.28C122.213 35.6267 122.04 35.84 121.88 35.92C121.747 36.0267 121.533 36.08 121.24 36.08C120.76 36.08 120.52 35.8533 120.52 35.4C120.52 34.4933 120.6 33.5733 120.76 32.64C120.947 31.68 121.133 30.72 121.32 29.76C121.533 28.8 121.72 27.84 121.88 26.88C122.067 25.92 122.16 24.96 122.16 24C122.16 23.52 122.067 23.0667 121.88 22.64C121.72 22.2133 121.533 21.7867 121.32 21.36C121.133 20.9333 120.947 20.5067 120.76 20.08C120.6 19.6533 120.52 19.2 120.52 18.72V18.48C121.107 18.4533 121.733 18.44 122.4 18.44C123.093 18.44 123.733 18.36 124.32 18.2C124.907 18.04 125.4 17.76 125.8 17.36C126.2 16.96 126.4 16.3467 126.4 15.52V15.28C126.213 15.2533 125.96 15.2267 125.64 15.2C125.32 15.1733 125 15.1333 124.68 15.08C124.36 15 124.053 14.8933 123.76 14.76C123.493 14.6267 123.307 14.44 123.2 14.2C122.56 12.0933 121.667 10.0533 120.52 8.08C120.573 7.86666 120.72 7.76 120.96 7.76C121.2 7.76 121.36 7.76 121.44 7.76C121.813 7.76 122.173 7.81333 122.52 7.92C122.867 8.02667 123.24 8.08 123.64 8.08C123.96 8.08 124.16 7.98667 124.24 7.8C124.347 7.58667 124.44 7.32 124.52 7C124.547 6.81333 124.613 6.46667 124.72 5.96C124.827 5.45333 124.933 4.92 125.04 4.36C125.173 3.77333 125.293 3.22666 125.4 2.72C125.507 2.21333 125.573 1.86666 125.6 1.68C125.68 1.46667 125.773 1.28 125.88 1.12C125.987 0.933332 126.16 0.839999 126.4 0.839999L126.68 0.879998C126.707 0.879998 126.84 0.919998 127.08 0.999999C127.32 1.05333 127.573 1.13333 127.84 1.24C128.133 1.32 128.413 1.41333 128.68 1.52C128.973 1.6 129.187 1.65333 129.32 1.68C129.56 1.76 129.853 1.86666 130.2 2C130.573 2.10666 130.933 2.21333 131.28 2.32C131.627 2.42667 131.92 2.52 132.16 2.6C132.4 2.68 132.52 2.72 132.52 2.72L132.8 3C132.533 3 132.333 3.12 132.2 3.36C132.067 3.6 132 3.84 132 4.08L126.92 9.12V9.48C126.92 9.93333 127.013 10.4 127.2 10.88H125.96L125.88 11.04C125.827 11.1733 125.827 11.2533 125.88 11.28C125.96 11.4667 126.08 11.56 126.24 11.56C126.4 11.56 126.56 11.56 126.72 11.56C126.853 11.56 127.027 11.5467 127.24 11.52C127.48 11.4933 127.56 11.32 127.48 11C127.507 11.0533 127.587 11.12 127.72 11.2C127.853 11.2533 127.947 11.28 128 11.28C128.373 11.1733 128.68 10.8933 128.92 10.44C129.187 9.98667 129.4 9.48 129.56 8.92C129.72 8.36 129.867 7.8 130 7.24C130.133 6.68 130.267 6.24 130.4 5.92H130.8C131.093 5.92 131.32 5.93333 131.48 5.96C131.64 5.98667 131.907 6.06667 132.28 6.2C132.44 6.25333 132.747 6.36 133.2 6.52C133.653 6.65333 134.133 6.81333 134.64 7C135.173 7.18667 135.667 7.36 136.12 7.52C136.573 7.65333 136.893 7.74667 137.08 7.8C137.187 7.82667 137.267 7.92 137.32 8.08C137.347 8.08 137.36 8.12 137.36 8.2C137.36 8.25333 137.347 8.29333 137.32 8.32C136.787 8 136.2 7.84 135.56 7.84C135.56 8.8 135.387 9.57333 135.04 10.16C134.693 10.7467 134.12 11.3867 133.32 12.08C133.32 12 133.28 11.8667 133.2 11.68C133.147 11.4667 133.107 11.3333 133.08 11.28C133.053 11.2533 133.013 11.24 132.96 11.24C132.88 11.24 132.827 11.2533 132.8 11.28C132.8 11.28 132.72 11.3067 132.56 11.36C132.427 11.4133 132.267 11.48 132.08 11.56C131.92 11.64 131.773 11.7467 131.64 11.88C131.507 11.9867 131.44 12.0933 131.44 12.2C131.44 12.3067 131.453 12.4533 131.48 12.64C131.533 12.8 131.6 12.9467 131.68 13.08C131.76 13.2133 131.867 13.2933 132 13.32C132.133 13.3467 132.307 13.28 132.52 13.12C132.493 13.2 132.4 13.3867 132.24 13.68C132.107 13.9467 132.027 14.12 132 14.2V14.48C132.107 14.5333 132.333 14.6667 132.68 14.88C133.027 15.0667 133.24 15.2 133.32 15.28C133.427 15.3067 133.52 15.3867 133.6 15.52L132 16.32C131.973 16.3467 131.96 16.4267 131.96 16.56C131.96 16.6933 132 16.88 132.08 17.12C132.187 17.3333 132.32 17.5467 132.48 17.76C132.64 17.9733 132.8 18.16 132.96 18.32C133.147 18.4533 133.32 18.52 133.48 18.52C133.64 18.52 133.813 18.4933 134 18.44C134.187 18.36 134.28 18.1867 134.28 17.92V15.76C134.493 15.76 134.747 15.8667 135.04 16.08C135.36 16.2667 135.667 16.48 135.96 16.72C136.28 16.96 136.56 17.2 136.8 17.44C137.067 17.68 137.24 17.84 137.32 17.92C137.8 17.8667 138.24 17.56 138.64 17C139.067 16.44 139.44 15.76 139.76 14.96C140.08 14.1333 140.36 13.2267 140.6 12.24C140.84 11.2533 141.04 10.3067 141.2 9.4C141.36 8.49333 141.467 7.68 141.52 6.96C141.6 6.24 141.627 5.72 141.6 5.4C141.707 5.32 141.867 5.17333 142.08 4.96C142.293 4.72 142.4 4.50667 142.4 4.32C142.4 4.29333 142.36 4.25333 142.28 4.2C142.227 4.12 142.173 4.08 142.12 4.08C141.853 4.08 141.56 4.13333 141.24 4.24C140.947 4.34666 140.64 4.48 140.32 4.64C140 4.77333 139.667 4.89333 139.32 5C138.973 5.10666 138.627 5.16 138.28 5.16L137.08 5.12C136.84 4.96 136.68 4.74667 136.6 4.48C136.52 4.21333 136.48 3.94666 136.48 3.68H151.2C151.253 3.62667 151.32 3.57333 151.4 3.52C151.56 3.41333 151.667 3.33333 151.72 3.28C151.8 3.2 151.933 3.08 152.12 2.92C152.333 2.73333 152.56 2.54667 152.8 2.36C153.04 2.14666 153.253 1.96 153.44 1.8C153.653 1.61333 153.8 1.48 153.88 1.4C153.96 1.37333 154.093 1.36 154.28 1.36C154.52 1.36 154.773 1.42667 155.04 1.56C155.307 1.69333 155.56 1.86667 155.8 2.08C156.067 2.26667 156.307 2.46667 156.52 2.68C156.76 2.89333 156.947 3.09333 157.08 3.28H156.32C156.32 3.6 156.4 3.88 156.56 4.12C156.72 4.36 156.8 4.64 156.8 4.96C156.8 5.25333 156.747 5.52 156.64 5.76C156.56 5.97333 156.52 6.21333 156.52 6.48C156.52 6.66667 156.547 6.81333 156.6 6.92C156.68 7.02667 156.84 7.14667 157.08 7.28C157.08 7.01333 157.147 6.8 157.28 6.64C157.44 6.45333 157.6 6.29333 157.76 6.16C157.92 6.02667 158.067 5.89333 158.2 5.76C158.36 5.6 158.44 5.4 158.44 5.16C158.44 4.86667 158.333 4.58667 158.12 4.32H158.4ZM157.88 4.32C157.747 4.32 157.68 4.24 157.68 4.08H157.6C157.467 4.08 157.4 3.98666 157.4 3.8H157.32C157.187 3.8 157.12 3.72 157.12 3.56C157.12 3.37333 157.187 3.28 157.32 3.28C157.453 3.28 157.52 3.36 157.52 3.52H157.6C157.733 3.52 157.8 3.61333 157.8 3.8H157.88C158.013 3.8 158.08 3.89333 158.08 4.08C158.08 4.24 158.013 4.32 157.88 4.32ZM147.48 4.08V4.6H150.92C151.027 4.6 151.107 4.53333 151.16 4.4C151.24 4.24 151.28 4.13333 151.28 4.08H147.48ZM153.88 11.12C153.88 10.5333 153.787 10.0267 153.6 9.6C153.413 9.17333 153.24 8.66667 153.08 8.08C153.053 8.05333 153 8.04 152.92 8.04C152.733 8.04 152.587 8.12 152.48 8.28C152.4 8.44 152.333 8.62666 152.28 8.84C152.253 9.02667 152.24 9.22667 152.24 9.44C152.24 9.62667 152.24 9.76 152.24 9.84C152.24 10 152.253 10.2267 152.28 10.52C152.333 10.7867 152.4 11.0667 152.48 11.36C152.587 11.6267 152.72 11.8667 152.88 12.08C153.04 12.2667 153.24 12.36 153.48 12.36C153.533 12.36 153.573 12.3467 153.6 12.32C153.707 12.2933 153.8 12.2133 153.88 12.08V11.12ZM157.08 8.88L156.28 9.68V14.72C156.28 14.96 156.213 15.1733 156.08 15.36C155.947 15.5467 155.8 15.7333 155.64 15.92C155.507 16.1067 155.373 16.3067 155.24 16.52C155.107 16.7067 155.04 16.9333 155.04 17.2C155.6 17.2 156.013 16.9067 156.28 16.32C156.573 15.7067 156.773 15 156.88 14.2C157.013 13.4 157.08 12.6133 157.08 11.84C157.08 11.04 157.08 10.4533 157.08 10.08V8.88ZM129.32 11.28H129.08L129.32 11.52V11.28ZM131.24 13.2C130.68 13.2 130.187 13.36 129.76 13.68C129.36 13.9733 129.16 14.4267 129.16 15.04C129.827 15.04 130.333 14.9067 130.68 14.64C131.053 14.3733 131.24 13.8933 131.24 13.2ZM144.12 13.4C143.96 13.4 143.84 13.4667 143.76 13.6C143.707 13.7333 143.68 13.8667 143.68 14C143.787 14 143.933 13.9867 144.12 13.96C144.333 13.9333 144.467 13.84 144.52 13.68C144.467 13.52 144.387 13.4267 144.28 13.4H144.12ZM147.48 14.72V15H147.72L147.48 14.72ZM131.2 17.92C131.387 17.92 131.48 17.8133 131.48 17.6C131.48 17.36 131.48 17.2133 131.48 17.16C131.48 16.9467 131.44 16.6667 131.36 16.32C131.28 15.9733 131.093 15.8 130.8 15.8C130.56 15.8 130.333 15.8667 130.12 16C129.907 16.1333 129.707 16.3067 129.52 16.52C129.36 16.7333 129.227 16.9733 129.12 17.24C129.04 17.48 129 17.7067 129 17.92H131.2ZM151.72 17.92V19.68C152.333 19.68 152.96 19.5467 153.6 19.28C154.267 18.9867 154.707 18.5333 154.92 17.92H151.72ZM122.4 19.28C122.587 19.3333 122.76 19.3733 122.92 19.4C123.053 19.4267 123.187 19.4533 123.32 19.48C123.48 19.5067 123.613 19.52 123.72 19.52C123.747 19.5467 123.8 19.56 123.88 19.56C123.96 19.56 124 19.5467 124 19.52C124.107 19.4933 124.2 19.4133 124.28 19.28C124.067 18.96 123.773 18.7733 123.4 18.72C123.053 18.6667 122.72 18.64 122.4 18.64V19.28ZM128.28 21.12C128.413 21.12 128.48 21.04 128.48 20.88C128.48 20.6933 128.413 20.6 128.28 20.6C128.147 20.6 128.08 20.6933 128.08 20.88C128.08 21.04 128.147 21.12 128.28 21.12ZM156.28 21.68C156.147 21.68 156.08 21.5867 156.08 21.4C156.08 21.2133 156.147 21.12 156.28 21.12C156.413 21.12 156.48 21.2133 156.48 21.4C156.48 21.5867 156.413 21.68 156.28 21.68ZM156.8 21.68C156.773 21.76 156.72 21.8 156.64 21.8C156.587 21.8 156.547 21.76 156.52 21.68C156.52 21.6 156.573 21.56 156.68 21.56C156.787 21.56 156.827 21.6 156.8 21.68ZM157.08 22.2C156.947 22.2 156.88 22.12 156.88 21.96C156.88 21.7733 156.947 21.68 157.08 21.68C157.213 21.68 157.28 21.7733 157.28 21.96C157.28 22.12 157.213 22.2 157.08 22.2ZM128 21.92H127.72V22.2H128V21.92ZM150.92 21.92C150.867 22.08 150.787 22.1733 150.68 22.2H150.4L150.92 21.92ZM150.4 23.92H146.68C146.787 23.52 146.72 23.16 146.48 22.84C146.267 22.52 145.96 22.36 145.56 22.36C145.56 22.68 145.573 22.92 145.6 23.08C145.653 23.24 145.747 23.48 145.88 23.8C145.8 23.8 145.613 23.84 145.32 23.92C145.053 24 144.88 24.0533 144.8 24.08C144.747 24.08 144.68 24.12 144.6 24.2C144.547 24.2533 144.52 24.2933 144.52 24.32V33.92H150.4V23.92ZM126.12 22.72C126.067 22.6933 126.027 22.6533 126 22.6L125.88 22.48C125.853 22.4533 125.813 22.44 125.76 22.44C125.68 22.44 125.627 22.4533 125.6 22.48C125.493 22.5067 125.307 22.56 125.04 22.64C124.773 22.6933 124.507 22.7867 124.24 22.92C123.973 23.0267 123.733 23.16 123.52 23.32C123.307 23.48 123.2 23.68 123.2 23.92C123.2 24.16 123.32 24.3333 123.56 24.44C123.827 24.5467 124.12 24.6267 124.44 24.68C124.787 24.7067 125.12 24.72 125.44 24.72C125.76 24.6933 125.987 24.68 126.12 24.68V22.72ZM130.8 23.8C131.12 23.8 131.36 23.68 131.52 23.44C131.68 23.2 131.76 22.9333 131.76 22.64C131.36 22.64 131 22.7067 130.68 22.84C130.387 22.9733 130.12 23.2 129.88 23.52L130.68 23.8H130.8ZM132.12 27.28C132.12 27.2 132.107 27.0267 132.08 26.76C132.053 26.4667 132.027 26.28 132 26.2C132 26.1733 131.96 26.1333 131.88 26.08C131.827 26 131.773 25.9467 131.72 25.92C131.693 25.9467 131.64 26 131.56 26.08C131.507 26.1333 131.48 26.1733 131.48 26.2C131.453 26.28 131.427 26.4667 131.4 26.76C131.373 27.0267 131.36 27.2 131.36 27.28H132.12ZM137.36 28.6C137.36 28.3867 137.293 28.1467 137.16 27.88C137.053 27.5867 136.907 27.3067 136.72 27.04C136.533 26.7733 136.32 26.56 136.08 26.4C135.84 26.2133 135.613 26.12 135.4 26.12C135.4 26.2267 135.453 26.44 135.56 26.76C135.667 27.08 135.787 27.4267 135.92 27.8C136.08 28.1467 136.24 28.4667 136.4 28.76C136.56 29.0267 136.693 29.16 136.8 29.16C137.173 29.16 137.36 28.9733 137.36 28.6ZM133.32 27.28C133.267 27.12 133.187 27.0267 133.08 27H132.8V27.28H133.32ZM129.64 33.92C129.64 33.7067 129.507 33.48 129.24 33.24C129 33 128.76 32.88 128.52 32.88L128.4 33C128.347 33.0533 128.32 33.08 128.32 33.08L128.28 33.12C128.253 33.1467 128.24 33.2 128.24 33.28C128.24 33.3333 128.253 33.3733 128.28 33.4C128.307 33.4533 128.36 33.56 128.44 33.72C128.52 33.88 128.6 34.0533 128.68 34.24C128.76 34.4 128.827 34.56 128.88 34.72C128.96 34.88 129.027 34.9733 129.08 35C129.453 34.76 129.64 34.4 129.64 33.92ZM143.48 34.48C143.16 33.8933 142.88 33.52 142.64 33.36C142.427 33.1733 142.093 33.08 141.64 33.08C141.507 33.08 141.333 33.0933 141.12 33.12C140.907 33.1467 140.8 33.28 140.8 33.52V33.68C141.093 33.68 141.347 33.72 141.56 33.8C141.773 33.88 141.973 33.9733 142.16 34.08C142.373 34.1867 142.56 34.28 142.72 34.36C142.907 34.44 143.107 34.48 143.32 34.48H143.48ZM151.48 36.32H151.2V36.6H151.48V36.32Z" fill="white"/>
</svg>
