<svg width="384" height="507" viewBox="0 0 384 507" fill="none" xmlns="http://www.w3.org/2000/svg">
<path fill-rule="evenodd" clip-rule="evenodd" d="M0 10C0 4.47715 4.47716 0 10 0H374C379.523 0 384 4.47714 384 9.99999V308.732C384 311.132 383.137 313.452 381.568 315.269L379.672 317.463C376.429 321.218 376.429 326.782 379.672 330.537L381.568 332.731C383.137 334.548 384 336.868 384 339.268V497C384 502.523 379.523 507 374 507H10C4.47715 507 0 502.523 0 497V341.577C0 339.177 0.863312 336.857 2.43229 335.04L6.32248 330.537C9.56553 326.782 9.56553 321.218 6.32248 317.463L2.43229 312.959C0.863311 311.143 0 308.823 0 306.423V10Z" fill="#ECF3F9"/>
</svg>
