<svg width="155" height="32" viewBox="0 0 155 32" fill="none" xmlns="http://www.w3.org/2000/svg">
<path d="M23.16 5.184C23.1813 5.184 23.192 5.216 23.192 5.28C23.192 5.344 23.1813 5.376 23.16 5.376C23.096 5.46133 22.9573 5.61067 22.744 5.824C22.5307 6.03733 22.3813 6.176 22.296 6.24C22.2747 7.17867 22.2427 8.192 22.2 9.28C22.1787 10.368 22.1573 11.488 22.136 12.64C22.1147 13.7707 22.0933 14.9013 22.072 16.032C22.072 17.1627 22.0827 18.24 22.104 19.264C22.0187 19.392 21.88 19.4773 21.688 19.52C21.5173 19.5413 21.368 19.5947 21.24 19.68C21.3893 20.1067 21.432 20.384 21.368 20.512C21.3253 20.64 21.24 20.736 21.112 20.8C21.0053 20.8427 20.888 20.9173 20.76 21.024C20.6533 21.1307 20.6 21.3547 20.6 21.696C20.6 21.8453 20.664 21.9627 20.792 22.048C20.92 22.1333 21.0693 22.1973 21.24 22.24C21.4107 22.2613 21.5707 22.2827 21.72 22.304C21.8907 22.304 22.0187 22.304 22.104 22.304V29.056C22.104 29.4187 21.9013 29.7067 21.496 29.92C21.0907 30.1547 20.6213 30.336 20.088 30.464C19.5547 30.592 19.032 30.6773 18.52 30.72C18.0293 30.784 17.688 30.816 17.496 30.816L16.76 30.784L16.44 30.56V28H5.88C5.816 28 5.752 28.096 5.688 28.288C5.624 28.48 5.54933 28.6933 5.464 28.928C5.37867 29.1627 5.28267 29.3973 5.176 29.632C5.06933 29.888 4.952 30.0587 4.824 30.144C4.312 30.528 3.69333 30.7947 2.968 30.944C2.24267 31.1147 1.57067 31.2 0.952 31.2C0.888 31.2 0.770667 31.2 0.6 31.2C0.429334 31.2 0.344 31.1253 0.344 30.976V18.464C0.706667 18.464 0.930667 18.3467 1.016 18.112C1.10133 17.8773 1.144 17.6107 1.144 17.312C1.12267 17.312 1.05867 17.2693 0.952 17.184C0.866667 17.0987 0.802667 17.0773 0.76 17.12C0.696 17.184 0.610667 17.3227 0.504 17.536C0.397334 17.7493 0.344 17.8987 0.344 17.984V2.176H1.176C1.19733 2.176 1.336 2.22933 1.592 2.336C1.86933 2.44267 2.18933 2.58133 2.552 2.752C2.91467 2.90133 3.27733 3.06133 3.64 3.232C4.024 3.40267 4.344 3.552 4.6 3.68L5.24 4H9.144C9.144 4.23467 9.21867 4.46933 9.368 4.704C9.53867 4.93867 9.73067 5.09867 9.944 5.184C9.98667 5.20533 10.0613 5.184 10.168 5.12C10.2747 5.056 10.3387 5.00267 10.36 4.96C10.296 4.91733 10.1787 4.82133 10.008 4.672C9.85867 4.50133 9.76267 4.384 9.72 4.32C9.67733 4.23467 9.656 4.16 9.656 4.096H13.72C13.72 4.39467 13.88 4.544 14.2 4.544C14.328 4.544 14.424 4.52267 14.488 4.48C14.5733 4.43733 14.648 4.384 14.712 4.32C14.776 4.256 14.8507 4.20267 14.936 4.16C15.0213 4.11733 15.128 4.096 15.256 4.096C15.5333 4.096 15.736 4.17067 15.864 4.32C15.992 4.46933 16.184 4.544 16.44 4.544C16.6533 4.544 16.9093 4.448 17.208 4.256C17.528 4.064 17.8053 3.94667 18.04 3.904C17.976 3.81867 17.9013 3.744 17.816 3.68C17.7947 3.65867 17.688 3.59467 17.496 3.488C17.3253 3.36 17.2187 3.28533 17.176 3.264V3.04L18.456 1.76C18.4773 1.73867 18.5413 1.728 18.648 1.728C19.032 1.728 19.3947 1.87733 19.736 2.176C20.0987 2.47467 20.3867 2.76267 20.6 3.04C20.3227 3.296 20.024 3.54133 19.704 3.776C19.384 4.01067 19.0427 4.192 18.68 4.32C18.7227 4.448 18.776 4.52267 18.84 4.544C18.9253 4.544 19.0107 4.544 19.096 4.544C19.288 4.544 19.5227 4.544 19.8 4.544C20.0987 4.544 20.3973 4.53333 20.696 4.512C20.9947 4.49067 21.272 4.448 21.528 4.384C21.784 4.32 21.976 4.224 22.104 4.096L23.16 5.184ZM16.536 15.2C16.536 14.8373 16.5253 14.208 16.504 13.312C16.4827 12.3947 16.4613 11.424 16.44 10.4C16.4187 9.376 16.3973 8.416 16.376 7.52C16.3547 6.60267 16.344 5.96267 16.344 5.6H5.56V8.16C5.15467 7.98933 4.888 7.75467 4.76 7.456C4.65333 7.15733 4.58933 6.83733 4.568 6.496C4.54667 6.13333 4.52533 5.77067 4.504 5.408C4.48267 5.024 4.376 4.69333 4.184 4.416C3.992 4.11733 3.66133 3.872 3.192 3.68C2.72267 3.488 2.02933 3.392 1.112 3.392C1.112 3.73333 1.21867 3.936 1.432 4C1.64533 4.064 1.86933 4.096 2.104 4.096C2.36 4.096 2.59467 4.11733 2.808 4.16C3.02133 4.20267 3.128 4.36267 3.128 4.64C3.128 4.74667 3.07467 4.91733 2.968 5.152C2.88267 5.36533 2.776 5.6 2.648 5.856C2.52 6.112 2.392 6.35733 2.264 6.592C2.15733 6.82667 2.08267 6.99733 2.04 7.104C1.99733 7.168 1.912 7.24267 1.784 7.328C1.67733 7.392 1.56 7.46667 1.432 7.552C1.304 7.616 1.18667 7.68 1.08 7.744C0.994667 7.78667 0.952 7.81867 0.952 7.84C0.952 7.94667 1.00533 8.04267 1.112 8.128C1.21867 8.21333 1.336 8.288 1.464 8.352C1.592 8.416 1.70933 8.46933 1.816 8.512C1.944 8.55467 2.01867 8.576 2.04 8.576L2.488 8.672H2.776V7.168L3.064 7.104C3.14933 7.104 3.23467 7.104 3.32 7.104C3.40533 7.08267 3.48 7.08267 3.544 7.104C3.56533 7.104 3.62933 7.136 3.736 7.2C3.864 7.24267 3.93867 7.27467 3.96 7.296L4.184 8.576V8.832C4.184 9.04533 4.10933 9.216 3.96 9.344C3.81067 9.472 3.736 9.64267 3.736 9.856C3.736 10.112 3.81067 10.2507 3.96 10.272C4.10933 10.2933 4.28 10.304 4.472 10.304C4.68533 10.304 4.87733 10.304 5.048 10.304C5.21867 10.2827 5.38933 10.208 5.56 10.08V14.784L6.104 15.104H15.704C15.7467 15.1253 15.8427 15.1787 15.992 15.264C16.1627 15.3493 16.28 15.4027 16.344 15.424C16.3867 15.4453 16.4507 15.456 16.536 15.456V15.2ZM18.68 9.44C18.552 9.46133 18.392 9.48267 18.2 9.504C18.008 9.52533 17.816 9.54667 17.624 9.568C17.4533 9.58933 17.304 9.61067 17.176 9.632C17.048 9.65333 16.984 9.664 16.984 9.664V9.856C16.984 9.94133 17.0267 10.016 17.112 10.08C17.1973 10.144 17.304 10.1973 17.432 10.24C17.56 10.2613 17.688 10.2827 17.816 10.304C17.9653 10.304 18.0827 10.304 18.168 10.304C18.4027 10.304 18.5947 10.2187 18.744 10.048C18.9147 9.87733 19 9.67467 19 9.44H18.68ZM5.4 13.312C5.10133 13.312 4.888 13.4187 4.76 13.632C4.632 13.824 4.504 14.0373 4.376 14.272C4.26933 14.5067 4.12 14.7307 3.928 14.944C3.75733 15.136 3.48 15.232 3.096 15.232C2.75467 15.232 2.44533 15.1893 2.168 15.104C1.912 15.0187 1.63467 14.976 1.336 14.976C1.336 15.04 1.37867 15.1467 1.464 15.296C1.54933 15.424 1.656 15.5627 1.784 15.712C1.912 15.8613 2.04 16 2.168 16.128C2.296 16.2347 2.392 16.288 2.456 16.288C3.30933 16.288 4.01333 16 4.568 15.424C5.12267 14.848 5.4 14.144 5.4 13.312ZM21.656 15.424C21.72 15.36 21.752 15.2533 21.752 15.104C21.752 14.9333 21.72 14.8267 21.656 14.784C21.6133 14.7627 21.5813 14.784 21.56 14.848C21.56 14.912 21.56 14.9973 21.56 15.104C21.56 15.1893 21.5707 15.2747 21.592 15.36C21.6133 15.424 21.6347 15.4453 21.656 15.424ZM18.328 16.48C18.328 16.352 18.264 16.256 18.136 16.192C18.0293 16.128 17.9227 16.0853 17.816 16.064C17.816 16.0427 17.784 16.032 17.72 16.032C17.6773 16.032 17.6453 16.0427 17.624 16.064V16.48H18.328ZM21.656 16.704C21.72 16.6613 21.752 16.5867 21.752 16.48C21.752 16.3733 21.72 16.2987 21.656 16.256C21.592 16.2347 21.56 16.3093 21.56 16.48C21.56 16.6507 21.592 16.7253 21.656 16.704ZM16.44 23.68C16.5253 23.68 16.632 23.68 16.76 23.68C16.888 23.68 17.016 23.6693 17.144 23.648C17.272 23.6267 17.3787 23.584 17.464 23.52C17.5707 23.456 17.624 23.3493 17.624 23.2C17.624 22.9867 17.5813 22.848 17.496 22.784C17.4107 22.72 17.304 22.688 17.176 22.688C17.048 22.688 16.9093 22.7093 16.76 22.752C16.632 22.7733 16.5253 22.784 16.44 22.784V16.48H5.656V26.304H16.44V23.68ZM5.304 20.192C5.304 19.936 5.26133 19.7547 5.176 19.648C5.112 19.52 4.96267 19.456 4.728 19.456C4.536 19.456 4.344 19.488 4.152 19.552C3.98133 19.616 3.84267 19.7333 3.736 19.904C3.75733 19.9253 3.78933 19.968 3.832 20.032C3.896 20.0747 3.93867 20.096 3.96 20.096C4.00267 20.1173 4.088 20.1387 4.216 20.16C4.344 20.16 4.48267 20.1707 4.632 20.192C4.78133 20.192 4.92 20.192 5.048 20.192C5.176 20.192 5.26133 20.192 5.304 20.192ZM21.88 20.096C22.0507 20.1387 22.136 20.288 22.136 20.544C22.1573 20.8 22.168 20.96 22.168 21.024C22.0613 21.024 21.944 21.0027 21.816 20.96C21.7093 20.896 21.656 20.7893 21.656 20.64V20.544L21.88 20.096ZM5.112 23.296C5.112 23.1253 5.02667 23.0187 4.856 22.976C4.68533 22.912 4.52533 22.88 4.376 22.88C4.01333 22.88 3.736 23.0187 3.544 23.296H5.112ZM21.752 26.208C21.752 25.9307 21.6987 25.664 21.592 25.408C21.5067 25.1307 21.2827 24.992 20.92 24.992C20.792 24.992 20.696 25.0453 20.632 25.152C20.5893 25.2373 20.568 25.3333 20.568 25.44C20.568 25.7387 20.7067 25.9413 20.984 26.048C21.2613 26.1547 21.5173 26.208 21.752 26.208ZM3.416 25.44C3.288 25.44 3.17067 25.504 3.064 25.632C2.97867 25.7387 2.904 25.8773 2.84 26.048C2.776 26.1973 2.73333 26.3573 2.712 26.528C2.69067 26.6987 2.68 26.8267 2.68 26.912C2.68 27.232 2.70133 27.5627 2.744 27.904C2.808 28.224 2.904 28.5227 3.032 28.8C3.18133 29.0773 3.37333 29.3013 3.608 29.472C3.864 29.6427 4.19467 29.728 4.6 29.728C4.792 29.728 4.952 29.664 5.08 29.536C5.208 29.408 5.272 29.248 5.272 29.056C5.272 28.8427 5.18667 28.6507 5.016 28.48C4.86667 28.3307 4.696 28.1493 4.504 27.936C4.312 27.7013 4.13067 27.4133 3.96 27.072C3.81067 26.7093 3.736 26.24 3.736 25.664C3.69333 25.536 3.62933 25.4613 3.544 25.44H3.416ZM16.12 27.584C16.2267 27.584 16.28 27.5093 16.28 27.36C16.28 27.2107 16.2267 27.136 16.12 27.136C16.0133 27.136 15.96 27.2107 15.96 27.36C15.96 27.5093 16.0133 27.584 16.12 27.584ZM17.4 29.28C17.464 29.2373 17.496 29.1627 17.496 29.056C17.496 28.9493 17.464 28.8853 17.4 28.864C17.336 28.8213 17.304 28.8853 17.304 29.056C17.304 29.248 17.336 29.3227 17.4 29.28ZM57.496 9.216C57.5387 9.216 57.5813 9.184 57.624 9.12C57.688 9.056 57.7413 8.98133 57.784 8.896C57.848 8.81067 57.9013 8.704 57.944 8.576C58.0507 8.61867 58.1147 8.68267 58.136 8.768C58.1573 8.85333 58.168 8.93867 58.168 9.024C58.168 9.19467 58.1147 9.32267 58.008 9.408C57.9227 9.49333 57.752 9.536 57.496 9.536H46.616C46.5733 9.57867 46.5413 9.62133 46.52 9.664C46.4987 9.70667 46.4773 9.74933 46.456 9.792C46.4347 9.81333 46.424 9.83467 46.424 9.856C46.4027 9.87733 46.392 9.92 46.392 9.984C46.392 10.0267 46.4027 10.0587 46.424 10.08C46.424 10.1013 46.456 10.176 46.52 10.304C46.584 10.4107 46.616 10.4747 46.616 10.496C46.6373 10.5173 46.648 10.56 46.648 10.624C46.648 10.6667 46.6373 10.6987 46.616 10.72C46.4027 10.6987 46.2107 10.624 46.04 10.496C45.8907 10.3467 45.7413 10.1973 45.592 10.048C45.4427 9.89867 45.2933 9.76 45.144 9.632C44.9947 9.504 44.8133 9.44 44.6 9.44C44.5147 9.44 44.3547 9.504 44.12 9.632C43.9067 9.76 43.672 9.90933 43.416 10.08C43.16 10.2293 42.9253 10.368 42.712 10.496C42.4987 10.624 42.3813 10.6987 42.36 10.72C42.488 11.0827 42.712 11.392 43.032 11.648C43.3733 11.904 43.7147 12.096 44.056 12.224C44.0773 12.0107 44.1307 11.84 44.216 11.712C44.3227 11.5627 44.4293 11.4347 44.536 11.328C44.6427 11.2 44.7493 11.0827 44.856 10.976C44.984 10.848 45.08 10.688 45.144 10.496C45.336 10.6027 45.5493 10.8373 45.784 11.2C46.04 11.5413 46.3067 11.904 46.584 12.288C46.8827 12.672 47.192 13.024 47.512 13.344C47.832 13.6427 48.1733 13.792 48.536 13.792V13.28C49.9013 14.5813 51.2667 15.776 52.632 16.864C54.0187 17.952 55.576 18.8907 57.304 19.68C56.792 19.808 56.2053 19.904 55.544 19.968C54.904 20.032 54.264 20.1173 53.624 20.224C53.0053 20.3093 52.4293 20.4587 51.896 20.672C51.3627 20.8853 50.9573 21.1947 50.68 21.6C50.68 21.6213 50.648 21.632 50.584 21.632C50.392 21.632 50.1787 21.504 49.944 21.248C49.7307 20.9707 49.5067 20.6613 49.272 20.32C49.0587 19.9787 48.8667 19.648 48.696 19.328C48.5253 18.9867 48.408 18.752 48.344 18.624C47.8533 17.7067 47.4267 16.864 47.064 16.096C46.7013 15.328 46.3387 14.464 45.976 13.504C45.8907 13.312 45.8267 13.2373 45.784 13.28C45.7627 13.3227 45.688 13.344 45.56 13.344V21.184L45.784 21.376C45.8907 21.2907 45.9973 21.1627 46.104 20.992C46.2107 20.8213 46.3173 20.6613 46.424 20.512C46.5307 20.3413 46.648 20.192 46.776 20.064C46.904 19.936 47.032 19.872 47.16 19.872C47.3093 19.872 47.5973 20.0213 48.024 20.32C48.472 20.6187 48.92 20.9707 49.368 21.376C49.8373 21.7813 50.2427 22.208 50.584 22.656C50.9467 23.104 51.128 23.4667 51.128 23.744C51.128 23.8507 51.096 23.968 51.032 24.096C50.9893 24.2027 50.872 24.256 50.68 24.256H45.976L45.464 24.576V29.92C45.464 30.1547 45.2613 30.3467 44.856 30.496C44.472 30.6667 44.0347 30.8053 43.544 30.912C43.0533 31.0187 42.5733 31.0933 42.104 31.136C41.6347 31.2 41.3253 31.232 41.176 31.232L40.44 31.2L40.12 30.976V24.576L39.576 24.256H34.904C34.8827 24.256 34.84 24.224 34.776 24.16C34.7333 24.0747 34.7013 24 34.68 23.936C34.6587 23.8933 34.616 23.8187 34.552 23.712C34.5093 23.6053 34.4773 23.5413 34.456 23.52V23.296C34.52 23.1893 34.5947 23.1253 34.68 23.104C34.872 23.0827 35.224 23.0613 35.736 23.04C36.248 22.9973 36.7813 22.9653 37.336 22.944C37.912 22.9227 38.456 22.912 38.968 22.912C39.48 22.8907 39.832 22.88 40.024 22.88H40.216V23.264C40.5147 23.264 40.7707 23.2533 40.984 23.232C41.2187 23.1893 41.496 23.168 41.816 23.168C41.816 23.0613 41.752 22.9547 41.624 22.848C41.5173 22.72 41.3787 22.6027 41.208 22.496C41.0373 22.3893 40.8453 22.304 40.632 22.24C40.44 22.176 40.2693 22.144 40.12 22.144V17.344L39.8 17.12C39.0107 17.8453 38.136 18.6987 37.176 19.68C36.216 20.64 35.2027 21.5573 34.136 22.432C33.0693 23.2853 31.9707 24.0107 30.84 24.608C29.7093 25.2053 28.568 25.504 27.416 25.504V25.024C27.7787 24.6827 28.1627 24.2773 28.568 23.808C28.9947 23.3173 29.4213 22.8267 29.848 22.336C30.296 21.824 30.744 21.3333 31.192 20.864C31.6613 20.3947 32.1093 20 32.536 19.68C32.5573 19.6587 32.6 19.648 32.664 19.648C32.856 19.648 32.9947 19.7333 33.08 19.904C33.1653 20.0533 33.336 20.128 33.592 20.128C33.784 20.128 33.944 20.1173 34.072 20.096C34.2 20.0533 34.264 19.9147 34.264 19.68C34.264 19.36 34.1573 19.1147 33.944 18.944C33.7307 18.7733 33.4747 18.6667 33.176 18.624C33.5387 18.0693 33.944 17.4613 34.392 16.8C34.84 16.1173 35.256 15.4133 35.64 14.688C36.0453 13.9413 36.376 13.1947 36.632 12.448C36.9093 11.7013 37.048 10.976 37.048 10.272C37.048 10.272 37.048 10.2293 37.048 10.144C37.048 10.0587 37.0373 9.97333 37.016 9.888C37.016 9.80267 36.9947 9.728 36.952 9.664C36.9307 9.57867 36.888 9.536 36.824 9.536H28.504C28.4827 9.472 28.408 9.344 28.28 9.152C28.1733 8.96 28.0987 8.84267 28.056 8.8H27.864L27.416 9.024V8.8C27.416 8.736 27.4267 8.65067 27.448 8.544C27.4693 8.43733 27.5333 8.384 27.64 8.384H37.24C37.112 8.40533 37.0373 8.48 37.016 8.608C37.016 8.736 37.016 8.84267 37.016 8.928C37.016 9.16267 37.0907 9.312 37.24 9.376C37.3893 9.41867 37.56 9.44 37.752 9.44C38.0933 9.44 38.4347 9.41867 38.776 9.376C39.1387 9.312 39.4053 9.12 39.576 8.8C39.5973 8.77867 39.5973 8.71467 39.576 8.608L39.512 8.48H38.296C38.36 8.48 38.456 8.46933 38.584 8.448C38.7333 8.40533 38.8827 8.37333 39.032 8.352C39.2027 8.30933 39.352 8.27733 39.48 8.256C39.6293 8.21333 39.736 8.18133 39.8 8.16C39.8427 8.13867 39.9067 8.10667 39.992 8.064C40.0773 8 40.12 7.95733 40.12 7.936V0.607998C41.144 0.607998 42.1893 0.661332 43.256 0.768C44.344 0.853332 45.4 0.970665 46.424 1.12C46.552 1.16267 46.616 1.23733 46.616 1.344C46.6373 1.45066 46.648 1.55733 46.648 1.664C46.648 1.83467 46.584 1.97333 46.456 2.08C46.3493 2.16533 46.232 2.25067 46.104 2.336C45.976 2.4 45.848 2.47467 45.72 2.56C45.6133 2.624 45.56 2.70933 45.56 2.816V8.16H50.68C51.0213 8.16 51.2987 7.98933 51.512 7.648C51.7467 7.28533 51.96 6.89067 52.152 6.464C52.344 6.016 52.5467 5.62133 52.76 5.28C52.9733 4.91733 53.24 4.736 53.56 4.736C53.7947 4.736 54.0613 4.84267 54.36 5.056C54.6587 5.26933 54.9467 5.51467 55.224 5.792C55.5227 6.06933 55.8 6.35733 56.056 6.656C56.312 6.93333 56.5147 7.14667 56.664 7.296C56.6427 7.31733 56.6 7.328 56.536 7.328C56.4933 7.328 56.4613 7.31733 56.44 7.296C56.2907 7.232 56.1093 7.11467 55.896 6.944C55.6827 6.752 55.4693 6.656 55.256 6.656C55.1707 6.656 55.0213 6.69866 54.808 6.784C54.616 6.86933 54.4133 6.976 54.2 7.104C54.008 7.232 53.8267 7.37067 53.656 7.52C53.5067 7.66933 53.432 7.808 53.432 7.936C53.432 8.04267 53.4427 8.13867 53.464 8.224C53.4853 8.288 53.5493 8.34133 53.656 8.384C53.72 8.34133 53.8587 8.26667 54.072 8.16C54.3067 8.032 54.456 7.95733 54.52 7.936H54.712C55.096 7.936 55.3733 8.07467 55.544 8.352C55.736 8.62933 55.896 8.91733 56.024 9.216H57.496ZM57.496 7.936C57.6027 7.936 57.656 8.01067 57.656 8.16H57.72C57.8267 8.16 57.88 8.23467 57.88 8.384C57.88 8.512 57.8267 8.576 57.72 8.576C57.6133 8.576 57.56 8.512 57.56 8.384H57.496C57.3893 8.384 57.336 8.30933 57.336 8.16H57.304C57.1547 8.16 57.1013 8.08533 57.144 7.936H57.08C56.9733 7.936 56.92 7.872 56.92 7.744H56.856C56.7493 7.744 56.696 7.66933 56.696 7.52C56.696 7.37067 56.7493 7.296 56.856 7.296C56.9627 7.296 57.016 7.37067 57.016 7.52H57.08C57.2293 7.52 57.2827 7.59467 57.24 7.744H57.304C57.4107 7.744 57.464 7.808 57.464 7.936H57.496ZM44.696 8.8C44.8027 8.8 44.856 8.736 44.856 8.608C44.856 8.45867 44.8027 8.384 44.696 8.384C44.5893 8.384 44.536 8.45867 44.536 8.608C44.536 8.736 44.5893 8.8 44.696 8.8ZM46.84 11.136C46.776 11.1573 46.744 11.1253 46.744 11.04C46.744 10.9547 46.776 10.9227 46.84 10.944C46.904 10.944 46.936 10.976 46.936 11.04C46.936 11.104 46.904 11.136 46.84 11.136ZM40.12 11.136C39.9707 11.136 39.8533 11.2213 39.768 11.392C39.6827 11.5627 39.6187 11.6907 39.576 11.776C39.64 11.7973 39.7147 11.808 39.8 11.808C39.928 11.808 40.1093 11.7973 40.344 11.776C40.5787 11.7547 40.696 11.648 40.696 11.456C40.696 11.4133 40.6853 11.3813 40.664 11.36C40.6427 11.3387 40.5787 11.3067 40.472 11.264C40.3653 11.2 40.28 11.1573 40.216 11.136H40.12ZM47.256 11.36C47.3627 11.36 47.416 11.4347 47.416 11.584C47.416 11.712 47.3627 11.776 47.256 11.776C47.1493 11.776 47.096 11.712 47.096 11.584H47.064C46.9573 11.584 46.904 11.5093 46.904 11.36C46.904 11.2107 46.9573 11.136 47.064 11.136C47.1707 11.136 47.224 11.2107 47.224 11.36H47.256ZM47.704 12.416C47.5973 12.416 47.544 12.352 47.544 12.224H47.48C47.3733 12.224 47.32 12.1493 47.32 12C47.32 11.8507 47.3733 11.776 47.48 11.776C47.5867 11.776 47.64 11.8507 47.64 12H47.704C47.8107 12 47.864 12.0747 47.864 12.224C47.864 12.352 47.8107 12.416 47.704 12.416ZM47.896 12.64C47.832 12.6613 47.8 12.6293 47.8 12.544C47.8 12.4587 47.832 12.416 47.896 12.416C47.96 12.4373 47.992 12.48 47.992 12.544C47.992 12.5867 47.96 12.6187 47.896 12.64ZM48.344 13.28C48.1947 13.28 48.1413 13.2053 48.184 13.056H48.12C48.0133 13.056 47.96 12.992 47.96 12.864C47.96 12.7147 48.0133 12.64 48.12 12.64C48.2693 12.64 48.3227 12.7147 48.28 12.864H48.344C48.4507 12.864 48.504 12.9387 48.504 13.088C48.504 13.216 48.4507 13.28 48.344 13.28ZM41.528 14.88C41.528 14.7093 41.5173 14.5067 41.496 14.272C41.4747 14.016 41.336 13.888 41.08 13.888C40.9307 13.888 40.7813 13.9413 40.632 14.048C40.4827 14.1547 40.408 14.2933 40.408 14.464C40.408 14.5067 40.4507 14.5707 40.536 14.656C40.6427 14.7413 40.76 14.8373 40.888 14.944C41.016 15.0293 41.1333 15.1147 41.24 15.2C41.368 15.2853 41.4533 15.36 41.496 15.424L41.528 14.88ZM44.92 15.744C44.92 15.488 44.856 15.2533 44.728 15.04C44.6213 14.8267 44.4293 14.72 44.152 14.72C44.152 14.976 44.2267 15.2 44.376 15.392C44.5253 15.5627 44.7067 15.712 44.92 15.84V15.744ZM36.184 16.064H35.96V16.256H36.184V16.064ZM53.656 23.744C53.7413 23.744 53.9227 23.7227 54.2 23.68C54.4773 23.616 54.6587 23.5627 54.744 23.52C54.8507 23.3707 55.0747 23.168 55.416 22.912C55.7787 22.6347 56.152 22.3573 56.536 22.08C56.9413 21.7813 57.3147 21.4933 57.656 21.216C58.0187 20.9387 58.2533 20.7147 58.36 20.544C58.2747 20.416 58.136 20.288 57.944 20.16C57.752 20.032 57.6027 19.9467 57.496 19.904C57.56 19.8827 57.6347 19.872 57.72 19.872C57.976 19.872 58.1787 19.9467 58.328 20.096C58.4987 20.224 58.584 20.4053 58.584 20.64C58.584 20.8747 58.456 21.0987 58.2 21.312C57.944 21.504 57.6453 21.696 57.304 21.888C56.9627 22.08 56.6213 22.272 56.28 22.464C55.96 22.656 55.7253 22.8693 55.576 23.104C55.4693 23.4667 55.352 23.7867 55.224 24.064C55.1173 24.2987 54.9787 24.5227 54.808 24.736C54.6587 24.928 54.4987 25.024 54.328 25.024C53.9653 25.0027 53.624 24.832 53.304 24.512C53.0053 24.192 52.7707 23.936 52.6 23.744C52.6 23.552 52.632 23.424 52.696 23.36C52.7813 23.296 52.888 23.264 53.016 23.264L53.24 23.296L53.656 23.744ZM50.68 23.52L49.624 22.464H49.272C49.272 22.784 49.4213 23.104 49.72 23.424C50.04 23.7227 50.36 23.872 50.68 23.872V23.52ZM43.64 25.024C43.7253 24.896 43.8427 24.768 43.992 24.64C44.1413 24.4907 44.2907 24.352 44.44 24.224C44.5893 24.0747 44.7173 23.936 44.824 23.808C44.9307 23.6587 44.984 23.5093 44.984 23.36C44.6853 23.36 44.408 23.4347 44.152 23.584C43.896 23.712 43.64 23.8613 43.384 24.032C43.1493 24.1813 42.8933 24.32 42.616 24.448C42.3387 24.576 42.0187 24.64 41.656 24.64C41.656 24.6613 41.6773 24.7147 41.72 24.8C41.7413 24.8427 41.7733 24.896 41.816 24.96C41.88 25.0027 41.9227 25.024 41.944 25.024H43.64ZM47.064 23.52L46.84 23.744L47.064 23.936L47.256 23.744L47.064 23.52ZM44.92 26.496H44.696V26.72H44.92V26.496ZM90.584 12.544C90.584 12.6933 90.4987 12.8 90.328 12.864C90.1787 12.9067 90.0507 12.928 89.944 12.928V12.224L88.216 10.496H88.12C87.992 10.496 87.896 10.5493 87.832 10.656C87.7893 10.7413 87.768 10.8373 87.768 10.944C87.768 11.0293 87.8427 11.1787 87.992 11.392C88.1413 11.584 88.312 11.7973 88.504 12.032C88.696 12.2453 88.888 12.4587 89.08 12.672C89.272 12.864 89.4107 12.992 89.496 13.056C89.432 13.0987 89.2613 13.216 88.984 13.408C88.728 13.5787 88.4507 13.7813 88.152 14.016C87.8747 14.2293 87.6293 14.432 87.416 14.624C87.2027 14.816 87.1173 14.9333 87.16 14.976L87.8 15.84L86.616 16.896V28C86.616 28.5333 86.456 29.0027 86.136 29.408C85.816 29.8133 85.4213 30.144 84.952 30.4C84.4827 30.6773 83.9813 30.88 83.448 31.008C82.9147 31.1573 82.4347 31.232 82.008 31.232C81.9653 31.232 81.8267 31.232 81.592 31.232C81.3573 31.2533 81.2187 31.168 81.176 30.976C81.0693 30.2507 80.9627 29.696 80.856 29.312C80.7493 28.928 80.632 28.64 80.504 28.448C80.376 28.256 80.2267 28.128 80.056 28.064C79.9067 28 79.736 27.9253 79.544 27.84C79.3733 27.7333 79.1707 27.5947 78.936 27.424C78.7227 27.232 78.4773 26.9227 78.2 26.496V26.304C78.2213 26.2613 78.2533 26.2187 78.296 26.176C78.36 26.112 78.4027 26.08 78.424 26.08H81.4C81.528 26.08 81.624 26.0373 81.688 25.952C81.752 25.8453 81.7947 25.7387 81.816 25.632C81.8373 25.504 81.848 25.3867 81.848 25.28C81.848 25.152 81.848 25.0667 81.848 25.024C81.848 24.96 81.848 24.8747 81.848 24.768C81.848 24.64 81.8373 24.5227 81.816 24.416C81.7947 24.288 81.752 24.1813 81.688 24.096C81.624 23.9893 81.528 23.936 81.4 23.936H75.736V29.696C75.736 29.9733 75.5547 30.208 75.192 30.4C74.8293 30.592 74.4133 30.7413 73.944 30.848C73.4747 30.976 73.016 31.0613 72.568 31.104C72.12 31.168 71.8213 31.2 71.672 31.2C71.672 31.2 71.6187 31.2 71.512 31.2C71.4267 31.2213 71.3307 31.2213 71.224 31.2C71.1387 31.2 71.0533 31.1787 70.968 31.136C70.8827 31.1147 70.84 31.0613 70.84 30.976V15.968C70.7547 15.968 70.5947 15.9787 70.36 16C70.1253 16 69.88 16.0107 69.624 16.032C69.368 16.032 69.112 16.0427 68.856 16.064C68.6213 16.064 68.4613 16.064 68.376 16.064C68.3547 16.064 68.248 16.032 68.056 15.968C67.8853 15.8827 67.7787 15.84 67.736 15.84H67.64C67.4693 15.84 67.288 16.1387 67.096 16.736C66.9253 17.3333 66.7547 18.016 66.584 18.784C66.4347 19.5307 66.3067 20.2453 66.2 20.928C66.0933 21.6107 66.04 22.048 66.04 22.24C66.04 22.7093 66.104 23.168 66.232 23.616C66.3813 24.064 66.5307 24.512 66.68 24.96C66.8507 25.3867 67 25.824 67.128 26.272C67.2773 26.72 67.352 27.1893 67.352 27.68L67.32 29.056C67.064 29.7173 66.6587 30.24 66.104 30.624C65.5707 31.008 64.9413 31.2 64.216 31.2C64.088 31.2 63.9067 31.1787 63.672 31.136C63.4587 31.1147 63.2347 31.0613 63 30.976C62.7867 30.912 62.5947 30.816 62.424 30.688C62.2747 30.56 62.2 30.4107 62.2 30.24C62.2 29.984 62.2853 29.792 62.456 29.664C62.648 29.5573 62.8613 29.4827 63.096 29.44C63.352 29.3973 63.5973 29.3867 63.832 29.408C64.0667 29.4293 64.2373 29.4613 64.344 29.504C64.3227 29.44 64.28 29.344 64.216 29.216C64.1733 29.1093 64.1093 28.9813 64.024 28.832C63.96 28.704 63.896 28.576 63.832 28.448C63.768 28.3413 63.7253 28.2667 63.704 28.224C63.6827 28.1813 63.64 28.128 63.576 28.064C63.5333 28.0213 63.5013 28 63.48 28H61.976C62.0827 27.3813 62.1467 26.88 62.168 26.496C62.1893 26.112 62.2 25.6427 62.2 25.088C62.2 24.4267 62.0827 23.9147 61.848 23.552C61.6347 23.168 61.3893 22.8587 61.112 22.624C60.856 22.3893 60.6107 22.1973 60.376 22.048C60.1627 21.8987 60.056 21.7173 60.056 21.504C60.056 21.3547 60.184 21.216 60.44 21.088C60.696 20.96 60.9947 20.8213 61.336 20.672C61.6773 20.5227 62.008 20.352 62.328 20.16C62.6693 19.968 62.9147 19.7333 63.064 19.456C63.2133 19.1787 63.4053 18.7947 63.64 18.304C63.8747 17.792 64.12 17.2373 64.376 16.64C64.6533 16.0427 64.9307 15.4347 65.208 14.816C65.4853 14.176 65.7413 13.6 65.976 13.088C66.2107 12.576 66.4133 12.16 66.584 11.84C66.7547 11.52 66.8613 11.36 66.904 11.36H67.32V10.304L69.016 6.88C69.08 6.77333 69.144 6.70933 69.208 6.688C69.272 6.66667 69.3573 6.656 69.464 6.656C69.6773 6.656 69.8053 6.72 69.848 6.848C69.8907 6.976 69.912 7.12533 69.912 7.296L69.88 7.744C69.8373 7.872 69.7627 8.096 69.656 8.416C69.5493 8.736 69.432 9.07733 69.304 9.44C69.1973 9.80267 69.0907 10.144 68.984 10.464C68.8987 10.784 68.8453 11.008 68.824 11.136C68.8027 11.1787 68.792 11.264 68.792 11.392C68.8133 11.4987 68.8347 11.616 68.856 11.744C68.8773 11.872 68.8987 12 68.92 12.128C68.9413 12.2347 68.952 12.3093 68.952 12.352C69.08 12.352 69.1867 12.3947 69.272 12.48C69.3573 12.544 69.432 12.6293 69.496 12.736C69.56 12.8213 69.624 12.9067 69.688 12.992C69.752 13.056 69.848 13.088 69.976 13.088C70.1253 13.088 70.2747 13.0453 70.424 12.96C70.5733 12.8533 70.7227 12.736 70.872 12.608C71.0427 12.48 71.224 12.3733 71.416 12.288C71.608 12.1813 71.8213 12.128 72.056 12.128L72.024 12.416C72.0027 12.4373 71.96 12.512 71.896 12.64C71.832 12.768 71.8 12.8427 71.8 12.864C71.864 13.12 72.024 13.3333 72.28 13.504C72.5573 13.6533 72.856 13.7813 73.176 13.888C73.496 13.9947 73.816 14.1013 74.136 14.208C74.4773 14.3147 74.7653 14.432 75 14.56C74.8293 14.56 74.68 14.624 74.552 14.752C74.424 14.8587 74.3067 14.9973 74.2 15.168C74.1147 15.3173 74.04 15.488 73.976 15.68C73.9333 15.8507 73.912 16.0107 73.912 16.16C73.912 16.2453 73.912 16.352 73.912 16.48C73.9333 16.5867 74.008 16.6613 74.136 16.704C74.328 16.704 74.584 16.6613 74.904 16.576C75.2453 16.4693 75.5867 16.3413 75.928 16.192C76.2693 16.0427 76.5893 15.8827 76.888 15.712C77.1867 15.5413 77.4107 15.3707 77.56 15.2C77.6027 15.1573 77.592 15.0933 77.528 15.008L77.432 14.88H76.056L81.624 14.56L83.32 12.864C83.32 12.8427 83.352 12.832 83.416 12.832C83.5013 12.832 83.5653 12.832 83.608 12.832C83.7573 12.832 83.8853 12.8747 83.992 12.96C84.12 13.024 84.2373 13.0987 84.344 13.184C84.4507 13.248 84.5573 13.3227 84.664 13.408C84.7707 13.472 84.888 13.504 85.016 13.504C85.1653 13.504 85.24 13.4187 85.24 13.248C85.2613 13.0773 85.272 12.9707 85.272 12.928C85.272 12.7573 85.24 12.608 85.176 12.48C85.112 12.352 84.92 12.3307 84.6 12.416C84.6427 11.8187 84.6427 11.2213 84.6 10.624C84.5573 10.0053 84.4827 9.39733 84.376 8.8H84.184C83.8 8.992 83.5547 9.33333 83.448 9.824C83.3627 10.3147 83.32 10.752 83.32 11.136C83.32 11.392 83.3947 11.616 83.544 11.808C83.7147 11.9787 83.8 12.1813 83.8 12.416H72.856L72.664 12.224C72.984 12.0107 73.3147 11.936 73.656 12C73.9973 12.0427 74.36 12.064 74.744 12.064C74.744 11.68 74.6693 11.2747 74.52 10.848C74.3707 10.4213 74.168 10.0267 73.912 9.664C73.656 9.28 73.3467 8.97067 72.984 8.736C72.6213 8.50133 72.2267 8.384 71.8 8.384V1.344C71.8 1.216 71.8533 1.14133 71.96 1.12C72.0667 1.09867 72.152 1.088 72.216 1.088C72.344 1.088 72.4187 1.09867 72.44 1.12L75.64 2.4H81.176L82.904 0.703999C82.904 0.682666 82.968 0.671999 83.096 0.671999C83.288 0.671999 83.6187 0.778666 84.088 0.991999C84.5787 1.20533 85.0587 1.46133 85.528 1.76C86.0187 2.05866 86.4453 2.37867 86.808 2.72C87.192 3.04 87.384 3.328 87.384 3.584V3.68L86.296 4.32C86.2747 4.34133 86.232 4.384 86.168 4.448C86.1253 4.49067 86.104 4.52267 86.104 4.544L85.88 9.856C85.88 10.0053 85.9547 10.08 86.104 10.08C86.1467 10.0587 86.2 10.0373 86.264 10.016C86.3493 9.99467 86.4347 9.94133 86.52 9.856C86.5627 9.83467 86.6693 9.77067 86.84 9.664C87.0107 9.536 87.1173 9.46133 87.16 9.44H87.384C87.4267 9.46133 87.5333 9.536 87.704 9.664C87.8747 9.77067 87.9813 9.83467 88.024 9.856C88.1093 9.96267 88.2693 10.144 88.504 10.4C88.7387 10.6347 88.9947 10.8907 89.272 11.168C89.5493 11.4453 89.8053 11.7013 90.04 11.936C90.296 12.1707 90.4773 12.3307 90.584 12.416V12.544ZM68.632 4.672C68.632 5.33333 68.4293 5.90933 68.024 6.4C67.6187 6.86933 67.064 7.104 66.36 7.104C65.912 7.104 65.4107 6.86933 64.856 6.4C64.3013 5.90933 63.7787 5.35467 63.288 4.736C62.7973 4.096 62.3813 3.46667 62.04 2.848C61.72 2.208 61.56 1.73867 61.56 1.44C61.56 1.33333 61.6027 1.25867 61.688 1.216C61.7947 1.17333 61.9013 1.14133 62.008 1.12C62.136 1.09867 62.2533 1.09867 62.36 1.12C62.4667 1.12 62.5413 1.12 62.584 1.12C63.1387 1.12 63.768 1.17333 64.472 1.28C65.176 1.38667 65.8373 1.57867 66.456 1.856C67.0747 2.112 67.5867 2.47466 67.992 2.944C68.4187 3.392 68.632 3.968 68.632 4.672ZM65.784 4.544C65.784 4.224 65.8267 3.936 65.912 3.68C66.0187 3.424 66.072 3.136 66.072 2.816C66.072 2.38933 65.976 2.10133 65.784 1.952C65.6133 1.80267 65.304 1.728 64.856 1.728L64.344 1.76C64.4507 1.99467 64.5787 2.144 64.728 2.208C64.8773 2.272 65.016 2.336 65.144 2.4C65.272 2.464 65.3787 2.56 65.464 2.688C65.5707 2.79467 65.624 3.01867 65.624 3.36C65.624 3.59466 65.5813 3.79733 65.496 3.968C65.4107 4.13867 65.368 4.33067 65.368 4.544H65.784ZM78.04 2.784C77.848 2.784 77.6987 2.85867 77.592 3.008C77.4853 3.136 77.4 3.28533 77.336 3.456C77.3573 3.47733 77.4 3.488 77.464 3.488C77.5067 3.488 77.5387 3.47733 77.56 3.456C77.688 3.392 77.7947 3.30667 77.88 3.2C77.9867 3.072 78.04 2.93333 78.04 2.784ZM81.624 6.464C81.752 6.464 81.8373 6.41067 81.88 6.304C81.944 6.176 81.9973 6.048 82.04 5.92C82.104 5.792 82.168 5.67467 82.232 5.568C82.3173 5.44 82.456 5.376 82.648 5.376C83.0533 5.376 83.448 5.41867 83.832 5.504C84.2373 5.568 84.6427 5.6 85.048 5.6C85.1333 5.6 85.208 5.6 85.272 5.6C85.3573 5.57867 85.4213 5.504 85.464 5.376C85.336 4.82133 85.144 4.50133 84.888 4.416C84.632 4.33066 84.3227 4.288 83.96 4.288C83.64 4.288 83.3733 4.34133 83.16 4.448C82.968 4.53333 82.776 4.64 82.584 4.768C82.392 4.896 82.2 5.024 82.008 5.152C81.816 5.25867 81.5813 5.33333 81.304 5.376V3.904H76.056V11.008C76.0773 11.008 76.1307 11.008 76.216 11.008C76.3013 10.9867 76.3867 10.9653 76.472 10.944C76.5573 10.9227 76.632 10.9013 76.696 10.88C76.7813 10.8373 76.824 10.784 76.824 10.72V8.16C76.824 8.13867 76.92 8.07467 77.112 7.968C77.304 7.84 77.4533 7.76533 77.56 7.744C77.7947 7.65867 78.0613 7.54133 78.36 7.392C78.68 7.22133 79 7.05067 79.32 6.88C79.64 6.70933 79.96 6.56 80.28 6.432C80.6213 6.304 80.92 6.24 81.176 6.24C81.1973 6.24 81.2293 6.272 81.272 6.336C81.336 6.4 81.3787 6.44267 81.4 6.464H81.624ZM76.92 5.184C76.984 5.16267 77.0907 5.152 77.24 5.152C77.7307 5.152 78.1893 5.28 78.616 5.536C79.064 5.77067 79.4907 6.00533 79.896 6.24C79.768 6.34667 79.5653 6.464 79.288 6.592C79.032 6.72 78.7547 6.848 78.456 6.976C78.1573 7.08267 77.8587 7.17867 77.56 7.264C77.2827 7.328 77.0693 7.36 76.92 7.36V5.184ZM80.12 10.72C80.12 10.848 80.1947 10.9227 80.344 10.944C80.5147 10.944 80.6213 10.944 80.664 10.944C80.856 10.944 80.984 10.8907 81.048 10.784C81.1333 10.656 81.1867 10.5173 81.208 10.368C81.2293 10.1973 81.2293 10.0267 81.208 9.856C81.208 9.68533 81.208 9.54667 81.208 9.44C81.208 9.376 81.208 9.25867 81.208 9.088C81.2293 8.896 81.2187 8.704 81.176 8.512C81.1547 8.29867 81.1013 8.11733 81.016 7.968C80.952 7.79733 80.8347 7.712 80.664 7.712C80.6 7.712 80.5573 7.72267 80.536 7.744C80.472 7.78667 80.3867 7.86133 80.28 7.968C80.1733 8.07467 80.12 8.13867 80.12 8.16V10.72ZM62.2 12.864C62.1573 12.8853 62.0507 12.928 61.88 12.992C61.7093 13.0347 61.6027 13.056 61.56 13.056C61.5387 13.0773 61.5067 13.088 61.464 13.088C61.4 13.088 61.3573 13.0773 61.336 13.056C61.272 12.8213 61.1227 12.4907 60.888 12.064C60.6533 11.616 60.408 11.168 60.152 10.72C59.9173 10.2507 59.6933 9.81333 59.48 9.408C59.288 8.98133 59.192 8.672 59.192 8.48C59.192 8.416 59.2027 8.384 59.224 8.384C59.2667 8.256 59.3307 8.18133 59.416 8.16L60.376 8.128C60.888 8.128 61.4533 8.192 62.072 8.32C62.712 8.448 63.3093 8.66133 63.864 8.96C64.4187 9.23733 64.888 9.6 65.272 10.048C65.656 10.496 65.848 11.04 65.848 11.68C65.848 12.3627 65.592 12.9173 65.08 13.344C64.5893 13.7493 64.024 13.952 63.384 13.952C63.3413 13.952 63.2453 13.952 63.096 13.952C62.9467 13.952 62.7867 13.952 62.616 13.952C62.4453 13.9307 62.296 13.8987 62.168 13.856C62.04 13.792 61.976 13.7067 61.976 13.6V13.504C61.9973 13.4827 62.04 13.408 62.104 13.28C62.168 13.152 62.2 13.0773 62.2 13.056V12.864ZM61.784 9.12C61.784 9.03467 61.7733 8.93867 61.752 8.832C61.752 8.704 61.688 8.61867 61.56 8.576C61.432 8.61867 61.3573 8.704 61.336 8.832C61.336 8.93867 61.336 9.03467 61.336 9.12C61.336 9.20533 61.336 9.312 61.336 9.44C61.3573 9.54667 61.432 9.62133 61.56 9.664C61.688 9.62133 61.752 9.54667 61.752 9.44C61.7733 9.312 61.784 9.20533 61.784 9.12ZM70.84 9.216C71.032 9.216 71.1813 9.25867 71.288 9.344C71.3947 9.42933 71.4693 9.536 71.512 9.664C71.576 9.792 71.608 9.93067 71.608 10.08C71.6293 10.2293 71.64 10.368 71.64 10.496C71.64 10.56 71.6293 10.6773 71.608 10.848C71.608 10.9973 71.5973 11.0933 71.576 11.136C71.4267 11.072 71.3093 10.9653 71.224 10.816C71.16 10.6667 71.1067 10.496 71.064 10.304C71.0213 10.112 70.9787 9.92 70.936 9.728C70.8933 9.536 70.8293 9.36533 70.744 9.216H70.84ZM85.656 14.144C85.7627 14.144 85.816 14.0693 85.816 13.92C85.816 13.7707 85.7627 13.696 85.656 13.696C85.5493 13.696 85.496 13.7707 85.496 13.92C85.496 14.0693 85.5493 14.144 85.656 14.144ZM83.384 16.736C83.384 16.5653 83.3733 16.3733 83.352 16.16C83.3307 15.9467 83.2453 15.7653 83.096 15.616C82.968 15.6587 82.8933 15.744 82.872 15.872C82.872 15.9787 82.872 16.0747 82.872 16.16C82.872 16.544 83.0427 16.736 83.384 16.736ZM81.816 16.256H75.864V18.176C75.864 18.2187 75.896 18.272 75.96 18.336C76.024 18.3787 76.0987 18.4213 76.184 18.464C76.2693 18.528 76.376 18.5813 76.504 18.624C76.312 18.7307 76.0987 18.816 75.864 18.88C75.6507 18.944 75.448 19.0187 75.256 19.104C75.064 19.168 74.8827 19.264 74.712 19.392C74.5627 19.4987 74.4453 19.6693 74.36 19.904C74.424 19.9467 74.5627 20 74.776 20.064C74.9893 20.1067 75.1387 20.1173 75.224 20.096C75.288 20.096 75.3947 20.032 75.544 19.904C75.7147 19.7547 75.8213 19.648 75.864 19.584H78.616C78.7653 19.3707 78.8933 19.2213 79 19.136C79.128 19.0507 79.288 19.008 79.48 19.008L79.704 19.04C79.7253 19.04 79.7787 19.072 79.864 19.136C79.9493 19.1787 80.0347 19.2213 80.12 19.264C80.2053 19.3067 80.2907 19.3493 80.376 19.392C80.4613 19.4347 80.5147 19.456 80.536 19.456C80.5573 19.4773 80.6 19.488 80.664 19.488C80.728 19.488 80.76 19.4773 80.76 19.456C80.8453 19.4347 80.92 19.3707 80.984 19.264V19.04C80.9413 18.9973 80.8667 18.9227 80.76 18.816C80.6533 18.7093 80.5787 18.6453 80.536 18.624L81.624 18.4C81.6453 18.3787 81.6773 18.3467 81.72 18.304C81.784 18.24 81.816 18.1973 81.816 18.176V16.256ZM86.104 19.68H85.816C85.816 19.7867 85.8267 19.9147 85.848 20.064C85.8907 20.192 85.976 20.2773 86.104 20.32V19.68ZM73.56 19.968C73.304 19.968 73.0053 20.0213 72.664 20.128C72.3227 20.2347 72.152 20.4693 72.152 20.832C72.6427 20.832 72.9947 20.8107 73.208 20.768C73.4427 20.7253 73.56 20.4587 73.56 19.968ZM81.624 22.464C81.6453 22.4427 81.6773 22.4213 81.72 22.4C81.784 22.336 81.816 22.2827 81.816 22.24C81.8587 22.176 81.9013 22.0693 81.944 21.92C82.008 21.7493 82.04 21.6427 82.04 21.6C82.04 21.5573 82.0293 21.4827 82.008 21.376C82.008 21.248 81.9973 21.12 81.976 20.992C81.9547 20.8427 81.9227 20.7147 81.88 20.608C81.8587 20.48 81.8373 20.384 81.816 20.32C81.816 20.2773 81.784 20.2347 81.72 20.192C81.6773 20.128 81.6453 20.096 81.624 20.096H75.864V22.464H81.624ZM65.4 22.24H65.176V22.464H65.4V22.24ZM65.624 27.36C65.688 27.3387 65.72 27.3067 65.72 27.264C65.72 27.2 65.688 27.1573 65.624 27.136C65.56 27.136 65.528 27.1787 65.528 27.264C65.528 27.3493 65.56 27.3813 65.624 27.36ZM75 27.296C74.808 27.296 74.6693 27.392 74.584 27.584H75V27.296ZM73.08 29.184C73.08 29.312 73.1227 29.44 73.208 29.568C73.2933 29.7173 73.3893 29.8347 73.496 29.92L73.528 29.504C73.528 29.4187 73.528 29.2907 73.528 29.12C73.528 28.9707 73.4533 28.8853 73.304 28.864C73.176 28.9067 73.1013 28.9707 73.08 29.056V29.184ZM82.072 29.28C82.072 29.1947 82.0613 29.12 82.04 29.056C81.8267 29.056 81.6773 29.1307 81.592 29.28C81.528 29.4507 81.496 29.6107 81.496 29.76C81.88 29.76 82.072 29.6 82.072 29.28ZM117.656 5.376C117.741 5.76 117.912 6.144 118.168 6.528C118.445 6.912 118.744 7.28533 119.064 7.648C119.405 7.98933 119.736 8.29867 120.056 8.576C120.397 8.85333 120.664 9.06667 120.856 9.216C120.664 9.408 120.397 9.68533 120.056 10.048C119.715 10.4107 119.341 10.7733 118.936 11.136C118.552 11.4773 118.157 11.7867 117.752 12.064C117.347 12.32 116.973 12.448 116.632 12.448C116.461 12.448 116.301 12.448 116.152 12.448C116.024 12.4267 115.885 12.352 115.736 12.224C115.608 12.2027 115.384 12.1813 115.064 12.16C114.744 12.1387 114.403 12.1173 114.04 12.096C113.677 12.0747 113.336 12.0533 113.016 12.032C112.696 12.0107 112.472 12 112.344 12C112.28 12 112.152 11.9893 111.96 11.968C111.789 11.9467 111.597 11.9253 111.384 11.904C111.171 11.8613 110.968 11.8293 110.776 11.808C110.584 11.7867 110.467 11.776 110.424 11.776C110.381 11.776 110.264 11.8187 110.072 11.904C109.901 11.968 109.805 12 109.784 12H109.56C109.517 12.0213 109.464 12.064 109.4 12.128C109.357 12.1707 109.336 12.2027 109.336 12.224V14.56L109.56 14.784L110.68 14.816C110.765 14.816 110.893 14.816 111.064 14.816C111.235 14.816 111.405 14.816 111.576 14.816C111.768 14.7947 111.928 14.784 112.056 14.784C112.205 14.784 112.301 14.784 112.344 14.784C112.429 14.7627 112.579 14.7307 112.792 14.688C113.027 14.624 113.155 14.5813 113.176 14.56L115.096 12.64C115.16 12.5973 115.373 12.6933 115.736 12.928C116.099 13.1627 116.483 13.44 116.888 13.76C117.315 14.08 117.699 14.4 118.04 14.72C118.381 15.04 118.552 15.2747 118.552 15.424C118.552 15.5093 118.541 15.5733 118.52 15.616C118.456 15.5947 118.264 15.4773 117.944 15.264C117.645 15.0293 117.315 14.784 116.952 14.528C116.611 14.272 116.291 14.0373 115.992 13.824C115.715 13.6107 115.565 13.504 115.544 13.504C115.523 13.504 115.48 13.536 115.416 13.6C115.373 13.6427 115.341 13.6747 115.32 13.696V13.92C115.32 13.9413 115.341 13.9947 115.384 14.08C115.448 14.1653 115.501 14.2613 115.544 14.368C115.587 14.4533 115.629 14.5387 115.672 14.624C115.715 14.7093 115.736 14.7627 115.736 14.784C115.757 14.8267 115.789 14.912 115.832 15.04C115.875 15.1467 115.917 15.2747 115.96 15.424C116.024 15.552 116.067 15.68 116.088 15.808C116.131 15.9147 116.163 16 116.184 16.064H109.784L109.56 15.84C109.453 15.8827 109.379 15.9573 109.336 16.064C109.293 16.1493 109.251 16.256 109.208 16.384C109.187 16.4907 109.165 16.5973 109.144 16.704C109.144 16.8107 109.144 16.8747 109.144 16.896C108.995 17.1733 108.728 17.3867 108.344 17.536C107.981 17.6853 107.576 17.792 107.128 17.856C106.701 17.92 106.275 17.9627 105.848 17.984C105.421 17.984 105.091 17.984 104.856 17.984H104.216C104.195 17.6 104.163 17.3013 104.12 17.088C104.099 16.8747 104.024 16.7147 103.896 16.608C103.789 16.48 103.629 16.3947 103.416 16.352C103.203 16.3093 102.904 16.2773 102.52 16.256C102.563 16.064 102.541 15.9467 102.456 15.904C102.392 15.8613 102.307 15.8507 102.2 15.872C102.093 15.872 101.987 15.8933 101.88 15.936C101.773 15.9787 101.699 16 101.656 16V16.256H95.896L95.8 16.16C95.736 16.1387 95.704 16.1067 95.704 16.064L95.48 15.424V15.2C95.5013 15.1573 95.5333 15.0933 95.576 15.008C95.64 14.9227 95.6827 14.88 95.704 14.88H99.096C99.1173 14.88 99.192 14.7947 99.32 14.624C99.4693 14.4533 99.6187 14.272 99.768 14.08C99.9387 13.888 100.077 13.7067 100.184 13.536C100.312 13.3653 100.376 13.28 100.376 13.28C100.525 13.1093 100.621 12.992 100.664 12.928C100.728 12.864 100.845 12.832 101.016 12.832C101.315 12.832 101.571 12.9173 101.784 13.088C102.019 13.2587 102.243 13.4507 102.456 13.664C102.691 13.8773 102.925 14.0693 103.16 14.24C103.416 14.4107 103.704 14.496 104.024 14.496V12.32H96.984L96.536 12C96.4933 12.0427 96.4187 12.1173 96.312 12.224C96.2053 12.3093 96.0773 12.4053 95.928 12.512C95.8 12.5973 95.6613 12.6827 95.512 12.768C95.384 12.832 95.2667 12.864 95.16 12.864C94.968 12.864 94.8613 12.7893 94.84 12.64C94.8187 12.4693 94.808 12.32 94.808 12.192C94.808 11.9147 94.872 11.6693 95 11.456C95.1493 11.2213 95.2987 10.9973 95.448 10.784C95.6187 10.5493 95.768 10.3147 95.896 10.08C96.0453 9.824 96.12 9.536 96.12 9.216C96.12 9.06667 96.0453 8.928 95.896 8.8C95.768 8.65067 95.6293 8.576 95.48 8.576C95.352 8.576 95.1707 8.64 94.936 8.768C94.7227 8.896 94.5093 9.04533 94.296 9.216C94.104 9.38667 93.9227 9.568 93.752 9.76C93.6027 9.952 93.528 10.1227 93.528 10.272C93.528 10.5493 93.6027 10.8053 93.752 11.04C93.9227 11.2533 94.008 11.4987 94.008 11.776C94.008 11.9467 93.9653 12.096 93.88 12.224C93.7947 12.352 93.752 12.4907 93.752 12.64C93.752 12.8107 93.7733 12.9387 93.816 13.024C93.88 13.1093 94.008 13.1947 94.2 13.28C94.136 13.3013 94.0293 13.312 93.88 13.312C93.5813 13.312 93.2933 13.248 93.016 13.12C92.7387 12.9707 92.4933 12.7893 92.28 12.576C92.088 12.3413 91.928 12.0853 91.8 11.808C91.6933 11.5307 91.64 11.2427 91.64 10.944C91.64 10.496 91.7467 10.112 91.96 9.792C92.1947 9.472 92.4613 9.184 92.76 8.928C93.08 8.65067 93.4107 8.384 93.752 8.128C94.0933 7.872 94.3813 7.59467 94.616 7.296C94.7867 7.12533 94.8827 6.89067 94.904 6.592C94.9467 6.272 94.9787 5.96267 95 5.664C95.0427 5.344 95.1067 5.07733 95.192 4.864C95.2773 4.62933 95.448 4.512 95.704 4.512C96.024 4.512 96.248 4.69333 96.376 5.056C96.5253 5.39733 96.6 5.696 96.6 5.952C96.2373 5.952 95.9493 5.97333 95.736 6.016C95.544 6.05866 95.448 6.26133 95.448 6.624L95.48 6.88L96.76 7.52C96.7813 7.52 96.8133 7.49867 96.856 7.456C96.92 7.392 96.9627 7.33867 96.984 7.296V7.104C96.9627 7.06133 96.92 6.95467 96.856 6.784C96.792 6.592 96.76 6.48533 96.76 6.464V6.24L97.176 6.464H104.024V4.224H95.256C95.2133 4.18133 95.1813 4.13866 95.16 4.096C95.1387 4.05333 95.1173 4.02133 95.096 4C95.0747 3.97867 95.064 3.94667 95.064 3.904L94.84 3.264V3.04C94.8613 2.99733 94.8933 2.93333 94.936 2.848C95 2.76267 95.0427 2.72 95.064 2.72H112.76C113.016 2.72 113.24 2.592 113.432 2.336C113.645 2.08 113.837 1.80267 114.008 1.504C114.2 1.184 114.392 0.895999 114.584 0.639999C114.797 0.383999 115.043 0.255999 115.32 0.255999C115.491 0.255999 115.8 0.383999 116.248 0.639999C116.696 0.895999 117.155 1.20533 117.624 1.568C118.093 1.90933 118.509 2.26133 118.872 2.624C119.235 2.98667 119.416 3.264 119.416 3.456C119.416 3.584 119.384 3.69067 119.32 3.776C119.256 3.86133 119.128 3.904 118.936 3.904V3.552L118.744 3.456C118.68 3.52 118.563 3.648 118.392 3.84C118.243 4.032 118.147 4.16 118.104 4.224H109.336V6.464H116.376L117.656 5.376ZM107.288 3.2C106.968 3.2 106.787 3.328 106.744 3.584C106.723 3.84 106.712 4.10667 106.712 4.384C107.032 4.384 107.203 4.256 107.224 4C107.267 3.744 107.288 3.47733 107.288 3.2ZM109.144 3.584C109.144 3.392 109.048 3.28533 108.856 3.264C108.685 3.22133 108.547 3.2 108.44 3.2C108.44 3.30667 108.451 3.456 108.472 3.648C108.515 3.81867 108.632 3.904 108.824 3.904H108.92C109.005 3.84 109.08 3.76533 109.144 3.68V3.584ZM122.36 8.16C122.36 8.24533 122.349 8.33066 122.328 8.416C122.328 8.50133 122.264 8.55467 122.136 8.576L121.944 8.16L118.936 5.184C118.808 5.07733 118.659 5.00267 118.488 4.96C118.317 4.91733 118.157 4.896 118.008 4.896C118.008 4.78933 118.083 4.704 118.232 4.64C118.403 4.576 118.499 4.544 118.52 4.544C118.797 4.544 119.117 4.68267 119.48 4.96C119.843 5.23733 120.195 5.55733 120.536 5.92C120.899 6.28267 121.24 6.656 121.56 7.04C121.88 7.424 122.147 7.72267 122.36 7.936V8.16ZM107.064 7.584C107.064 7.54133 107.064 7.44533 107.064 7.296C107.085 7.12533 107.085 6.95467 107.064 6.784C107.064 6.592 107.043 6.41067 107 6.24C106.957 6.048 106.883 5.90933 106.776 5.824C106.584 5.90933 106.467 6.08 106.424 6.336C106.381 6.592 106.36 6.816 106.36 7.008C106.36 7.24267 106.413 7.40267 106.52 7.488C106.648 7.552 106.829 7.584 107.064 7.584ZM114.008 9.216C114.179 9.216 114.328 9.25867 114.456 9.344C114.605 9.408 114.744 9.48267 114.872 9.568C115.021 9.632 115.16 9.70667 115.288 9.792C115.437 9.856 115.597 9.888 115.768 9.888C116.003 9.888 116.131 9.77067 116.152 9.536C116.173 9.28 116.184 9.06667 116.184 8.896C116.184 8.832 116.184 8.704 116.184 8.512C116.205 8.29867 116.131 8.18133 115.96 8.16C115.832 8.13867 115.608 8.11733 115.288 8.096C114.968 8.05333 114.627 8.02133 114.264 8C113.901 7.97867 113.549 7.968 113.208 7.968C112.888 7.94667 112.664 7.936 112.536 7.936C112.429 7.936 112.216 7.94667 111.896 7.968C111.597 7.98933 111.277 8.01067 110.936 8.032C110.595 8.05333 110.275 8.07467 109.976 8.096C109.677 8.11733 109.464 8.13867 109.336 8.16V10.72H112.12L113.816 9.216H114.008ZM104.024 8.16H97.624L97.4 8.384C97.4 8.384 97.3893 8.45867 97.368 8.608C97.3467 8.75733 97.3253 8.93867 97.304 9.152C97.2827 9.344 97.2613 9.54667 97.24 9.76C97.2187 9.97333 97.1973 10.1547 97.176 10.304V10.496C97.1973 10.5387 97.2293 10.592 97.272 10.656C97.336 10.6987 97.3787 10.72 97.4 10.72H99.544L101.24 9.024C101.261 9.00267 101.293 8.992 101.336 8.992C101.592 8.992 101.816 9.07733 102.008 9.248C102.221 9.41867 102.435 9.6 102.648 9.792C102.861 9.984 103.075 10.1653 103.288 10.336C103.501 10.5067 103.747 10.592 104.024 10.592V8.16ZM100.28 12C100.365 12 100.461 11.904 100.568 11.712C100.675 11.4987 100.781 11.2533 100.888 10.976C100.995 10.6987 101.08 10.4427 101.144 10.208C101.229 9.952 101.272 9.77067 101.272 9.664C101.272 9.55733 101.261 9.48267 101.24 9.44C101.155 9.48267 101.027 9.61067 100.856 9.824C100.707 10.0373 100.547 10.272 100.376 10.528C100.205 10.784 100.056 11.0293 99.928 11.264C99.8 11.4773 99.736 11.616 99.736 11.68V11.776C99.7573 11.7973 99.8213 11.84 99.928 11.904C100.035 11.9467 100.12 11.9787 100.184 12H100.28ZM107.64 16.384C107.64 16.1493 107.533 15.872 107.32 15.552C107.128 15.2107 106.883 15.0187 106.584 14.976C106.563 14.9973 106.552 15.04 106.552 15.104C106.552 15.232 106.595 15.3707 106.68 15.52C106.787 15.648 106.893 15.776 107 15.904C107.128 16.032 107.245 16.1493 107.352 16.256C107.48 16.3627 107.576 16.4373 107.64 16.48V16.384ZM96.76 15.616C96.5893 15.7227 96.504 15.872 96.504 16.064H96.76V15.616ZM114.36 16.896C114.659 16.896 115 17.0133 115.384 17.248C115.768 17.4827 116.152 17.7707 116.536 18.112C116.92 18.432 117.283 18.7627 117.624 19.104C117.987 19.4453 118.285 19.712 118.52 19.904C118.541 19.968 118.552 20.0747 118.552 20.224C118.552 20.5013 118.424 20.704 118.168 20.832C117.912 20.96 117.677 21.0773 117.464 21.184C117.229 20.5227 116.867 20.0213 116.376 19.68L116.184 19.904C116.163 19.904 116.152 20 116.152 20.192C116.152 20.3627 116.152 20.4907 116.152 20.576C116.152 20.704 116.152 20.9387 116.152 21.28C116.173 21.6213 116.195 21.9733 116.216 22.336C116.259 22.6987 116.312 23.0293 116.376 23.328C116.461 23.6053 116.568 23.744 116.696 23.744H116.824L117.24 23.296C117.325 23.2533 117.4 23.232 117.464 23.232V29.92C117.464 30.2187 117.293 30.464 116.952 30.656C116.611 30.848 116.205 30.9973 115.736 31.104C115.288 31.232 114.84 31.3173 114.392 31.36C113.944 31.4027 113.613 31.424 113.4 31.424H112.536C112.515 31.4027 112.472 31.36 112.408 31.296C112.365 31.2533 112.344 31.2213 112.344 31.2C112.323 31.1573 112.291 31.072 112.248 30.944C112.227 30.816 112.205 30.6667 112.184 30.496C112.163 30.3467 112.141 30.208 112.12 30.08C112.12 29.952 112.12 29.8667 112.12 29.824H99.96V28.896C99.7253 28.896 99.5653 28.96 99.48 29.088C99.416 29.216 99.3627 29.4187 99.32 29.696H95.608C95.608 29.5467 95.576 29.44 95.512 29.376C95.448 29.312 95.384 29.2587 95.32 29.216C95.256 29.1947 95.192 29.1627 95.128 29.12C95.064 29.0773 95.032 28.992 95.032 28.864C95.032 28.8 95.0427 28.704 95.064 28.576C95.0853 28.4693 95.1493 28.416 95.256 28.416H108.92L108.696 28.864V29.056C108.781 29.184 108.856 29.2587 108.92 29.28L109.88 29.312C110.285 29.312 110.627 29.2693 110.904 29.184C111.181 29.0987 111.512 29.056 111.896 29.056C112.28 29.056 112.557 29.1307 112.728 29.28C112.92 29.4507 113.08 29.632 113.208 29.824C113.357 30.016 113.507 30.1867 113.656 30.336C113.805 30.5067 114.04 30.592 114.36 30.592C114.723 30.592 115.032 30.4853 115.288 30.272C115.565 30.08 115.811 29.8347 116.024 29.536C116.237 29.2587 116.44 28.96 116.632 28.64C116.824 28.32 117.027 28.032 117.24 27.776C117.176 27.6907 117.037 27.5627 116.824 27.392C116.611 27.2 116.376 27.008 116.12 26.816C115.864 26.624 115.619 26.4427 115.384 26.272C115.149 26.08 114.989 25.9413 114.904 25.856L114.68 25.824C114.36 25.824 114.115 25.9627 113.944 26.24C113.795 26.5173 113.645 26.8267 113.496 27.168C113.368 27.488 113.208 27.7867 113.016 28.064C112.824 28.3413 112.525 28.48 112.12 28.48V25.12H97.624C97.624 25.056 97.6027 24.96 97.56 24.832C97.5387 24.6827 97.496 24.544 97.432 24.416C97.368 24.288 97.2827 24.1813 97.176 24.096C97.0907 23.9893 96.984 23.936 96.856 23.936C96.6427 23.936 96.5253 24.064 96.504 24.32C96.4827 24.576 96.472 24.768 96.472 24.896C96.3653 24.896 96.28 24.832 96.216 24.704C96.1733 24.576 96.1307 24.4373 96.088 24.288C96.0667 24.1387 96.056 24 96.056 23.872C96.056 23.7227 96.056 23.6373 96.056 23.616H112.12V20.416H102.36C102.36 20.032 102.253 19.776 102.04 19.648C101.848 19.52 101.581 19.456 101.24 19.456C101.112 19.456 100.931 19.456 100.696 19.456C100.483 19.456 100.376 19.5627 100.376 19.776V19.904L100.6 20.32H96.76C96.696 20.064 96.5573 19.84 96.344 19.648C96.152 19.456 95.9173 19.36 95.64 19.36L95.704 19.264C95.704 19.2213 95.7147 19.1893 95.736 19.168C95.7573 19.1467 95.7787 19.1147 95.8 19.072C95.8213 19.0293 95.8533 18.9867 95.896 18.944H112.344L114.264 16.896H114.36ZM115.32 18.176C115.235 17.984 115.128 17.8667 115 17.824C114.893 17.76 114.755 17.728 114.584 17.728C114.435 17.728 114.328 17.7387 114.264 17.76V18.176H115.32ZM108.696 19.68C108.525 19.7867 108.44 19.9253 108.44 20.096H108.696V19.68ZM95.896 20.32C95.8107 20.2987 95.7467 20.224 95.704 20.096C95.6827 20.096 95.672 20.064 95.672 20C95.672 19.9573 95.6827 19.9253 95.704 19.904L96.12 20.32H95.896ZM114.904 20.736C114.84 20.6293 114.765 20.5653 114.68 20.544C114.659 20.5227 114.627 20.512 114.584 20.512C114.52 20.512 114.477 20.5227 114.456 20.544L114.36 20.64C114.317 20.6827 114.296 20.704 114.296 20.704L114.264 20.736C114.221 20.8 114.168 20.8853 114.104 20.992C114.04 21.0987 113.976 21.2053 113.912 21.312C113.848 21.4187 113.784 21.5253 113.72 21.632C113.656 21.7387 113.624 21.8027 113.624 21.824C113.603 21.824 113.592 21.856 113.592 21.92C113.592 21.9627 113.603 21.9947 113.624 22.016C113.645 22.016 113.72 21.9733 113.848 21.888C113.976 21.8027 114.115 21.696 114.264 21.568C114.435 21.44 114.584 21.312 114.712 21.184C114.84 21.056 114.904 20.9493 114.904 20.864V20.736ZM109.784 23.936H109.56V24.16H109.784V23.936ZM102.776 24.64C102.776 24.3627 102.669 24.2027 102.456 24.16C102.243 24.1173 102.019 24.096 101.784 24.096C101.784 24.3307 101.901 24.48 102.136 24.544C102.392 24.608 102.605 24.64 102.776 24.64ZM106.136 28.864V29.056L106.36 28.864H106.136ZM154.584 15.2C154.52 15.2853 154.445 15.36 154.36 15.424C154.317 15.296 154.232 15.1467 154.104 14.976C153.997 14.784 153.869 14.6133 153.72 14.464C153.571 14.3147 153.411 14.1867 153.24 14.08C153.069 13.9733 152.909 13.92 152.76 13.92C152.547 13.92 152.195 13.984 151.704 14.112C151.235 14.2187 150.755 14.3573 150.264 14.528C149.795 14.6987 149.379 14.9013 149.016 15.136C148.653 15.3493 148.472 15.552 148.472 15.744H142.2C142.029 15.744 141.891 15.8293 141.784 16C141.699 16.1493 141.624 16.3307 141.56 16.544C141.517 16.736 141.485 16.928 141.464 17.12C141.464 17.312 141.464 17.4507 141.464 17.536H148.376C148.483 17.536 148.611 17.4613 148.76 17.312C148.909 17.1627 149.059 16.992 149.208 16.8C149.357 16.608 149.496 16.416 149.624 16.224C149.752 16.0107 149.837 15.8507 149.88 15.744H151.384C151.427 15.8507 151.459 15.9467 151.48 16.032C151.501 16.1173 151.512 16.2027 151.512 16.288C151.533 16.3733 151.555 16.4373 151.576 16.48C151.597 16.5013 151.608 16.5333 151.608 16.576L151.576 16.704C151.512 16.6613 151.373 16.5867 151.16 16.48C150.947 16.3733 150.808 16.2987 150.744 16.256H150.52C150.627 16.5547 150.765 16.832 150.936 17.088C151.107 17.344 151.277 17.5893 151.448 17.824C151.619 18.0587 151.757 18.304 151.864 18.56C151.992 18.816 152.056 19.104 152.056 19.424C152.056 19.6587 152.024 19.8613 151.96 20.032C151.917 20.2027 151.864 20.3733 151.8 20.544C151.736 20.6933 151.672 20.8533 151.608 21.024C151.565 21.1947 151.544 21.3867 151.544 21.6L151.576 22.24L152.216 22.464H152.44C152.483 22.4427 152.557 22.4107 152.664 22.368C152.771 22.304 152.835 22.2613 152.856 22.24L152.888 22.656C152.888 23.6587 152.76 24.672 152.504 25.696C152.269 26.72 151.885 27.6373 151.352 28.448C150.84 29.28 150.179 29.952 149.368 30.464C148.557 30.976 147.587 31.232 146.456 31.232L145.624 31.2C145.432 30.9653 145.293 30.6347 145.208 30.208C145.144 29.8027 145.059 29.3973 144.952 28.992C144.867 28.608 144.717 28.2667 144.504 27.968C144.291 27.6693 143.949 27.52 143.48 27.52C143.437 27.52 143.363 27.5307 143.256 27.552C143.149 27.552 143.085 27.5627 143.064 27.584C142.765 27.7547 142.328 28.0427 141.752 28.448C141.197 28.8533 140.6 29.2587 139.96 29.664C139.32 30.0907 138.68 30.4533 138.04 30.752C137.421 31.072 136.899 31.232 136.472 31.232C136.28 31.232 136.109 31.2107 135.96 31.168C135.832 31.1253 135.768 30.9973 135.768 30.784C135.768 30.6773 135.779 30.6027 135.8 30.56C135.992 30.432 136.259 30.1973 136.6 29.856C136.941 29.536 137.304 29.1627 137.688 28.736C138.093 28.3093 138.499 27.872 138.904 27.424C139.331 26.9547 139.715 26.5387 140.056 26.176C140.419 25.792 140.707 25.472 140.92 25.216C141.155 24.96 141.293 24.8213 141.336 24.8C141.613 24.736 141.784 24.7253 141.848 24.768C141.933 24.7893 141.997 24.8107 142.04 24.832C142.083 24.832 142.147 24.8107 142.232 24.768C142.339 24.7253 142.541 24.5973 142.84 24.384C142.861 24.3627 142.872 24.32 142.872 24.256C142.872 24.2133 142.861 24.1813 142.84 24.16C142.819 24.1387 142.755 24.1067 142.648 24.064C142.541 24 142.467 23.9573 142.424 23.936H142.2C142.157 23.9573 142.083 24 141.976 24.064C141.869 24.1067 141.805 24.1387 141.784 24.16L142.424 22.656C142.424 22.6347 142.413 22.5707 142.392 22.464C142.371 22.3573 142.36 22.2827 142.36 22.24H142.2C140.792 23.5413 139.384 24.736 137.976 25.824C136.568 26.8907 134.989 27.8293 133.24 28.64C133.197 28.6613 133.123 28.672 133.016 28.672C132.803 28.672 132.653 28.6187 132.568 28.512C132.504 28.4053 132.344 28.352 132.088 28.352C132.088 28.0533 132.248 27.7333 132.568 27.392C132.888 27.0293 133.283 26.656 133.752 26.272C134.243 25.8667 134.765 25.4507 135.32 25.024C135.896 24.576 136.419 24.128 136.888 23.68C137.379 23.232 137.784 22.784 138.104 22.336C138.424 21.8667 138.584 21.408 138.584 20.96V20.736C137.923 21.0133 137.272 21.408 136.632 21.92C135.992 22.4107 135.341 22.912 134.68 23.424C134.019 23.9147 133.336 24.3413 132.632 24.704C131.949 25.0667 131.224 25.248 130.456 25.248C130.349 25.248 130.211 25.2373 130.04 25.216C129.891 25.1947 129.816 25.088 129.816 24.896V24.8L132.6 22.016C132.856 21.76 133.176 21.408 133.56 20.96C133.944 20.4907 134.317 20 134.68 19.488C135.064 18.976 135.384 18.4747 135.64 17.984C135.896 17.472 136.024 17.0453 136.024 16.704V15.936H133.24C133.005 15.936 132.835 15.7973 132.728 15.52C132.643 15.2427 132.6 15.0293 132.6 14.88V14.784C132.621 14.72 132.653 14.656 132.696 14.592C132.76 14.5067 132.803 14.464 132.824 14.464H147.736C147.885 14.464 148.024 14.368 148.152 14.176C148.28 13.9627 148.355 13.8027 148.376 13.696C148.397 13.6747 148.397 13.6107 148.376 13.504C148.376 13.44 148.365 13.3973 148.344 13.376H146.456C146.413 13.3547 146.381 13.3227 146.36 13.28C146.339 13.2373 146.317 13.2053 146.296 13.184C146.275 13.1413 146.264 13.0987 146.264 13.056C146.243 13.0347 146.2 12.9387 146.136 12.768C146.093 12.576 146.061 12.4587 146.04 12.416C146.019 12.3733 145.976 12.3093 145.912 12.224C145.869 12.1387 145.837 12.096 145.816 12.096H141.784L141.144 11.36H141.048C140.941 11.36 140.856 11.4347 140.792 11.584C140.728 11.712 140.664 11.872 140.6 12.064C140.536 12.256 140.461 12.448 140.376 12.64C140.312 12.832 140.205 12.9707 140.056 13.056C139.544 13.376 138.989 13.6107 138.392 13.76C137.795 13.888 137.197 13.952 136.6 13.952L136.024 13.92L135.8 13.504V10.944C135.8 10.816 135.747 10.752 135.64 10.752C135.555 10.7307 135.48 10.72 135.416 10.72H135.16C135.032 10.72 134.808 10.7307 134.488 10.752C134.168 10.752 133.827 10.7627 133.464 10.784C133.101 10.8053 132.749 10.8373 132.408 10.88C132.088 10.9013 131.864 10.9227 131.736 10.944V17.248C132.355 17.248 132.888 17.1733 133.336 17.024C133.805 16.8533 134.339 16.672 134.936 16.48C135.064 16.5227 135.139 16.5867 135.16 16.672C135.181 16.736 135.192 16.8107 135.192 16.896C135.192 17.0027 135.181 17.0773 135.16 17.12C134.627 17.8027 134.083 18.4107 133.528 18.944C132.995 19.456 132.397 19.9893 131.736 20.544C131.821 20.2453 131.843 20.0533 131.8 19.968C131.757 19.8827 131.683 19.8507 131.576 19.872C131.469 19.8933 131.352 19.936 131.224 20C131.117 20.064 131.032 20.096 130.968 20.096C130.968 20.1387 130.957 20.2027 130.936 20.288C130.915 20.352 130.893 20.4373 130.872 20.544C130.872 20.6293 130.883 20.7147 130.904 20.8C130.925 20.8853 130.989 20.9387 131.096 20.96C130.733 21.408 130.339 21.824 129.912 22.208C129.485 22.592 129.048 22.9653 128.6 23.328C128.152 23.6907 127.704 24.064 127.256 24.448C126.808 24.8107 126.381 25.216 125.976 25.664H125.56L124.28 23.104C124.237 23.0187 124.163 22.8693 124.056 22.656C123.949 22.4213 123.832 22.176 123.704 21.92C123.597 21.664 123.491 21.4293 123.384 21.216C123.299 20.9813 123.245 20.8213 123.224 20.736C123.203 20.7147 123.192 20.6827 123.192 20.64C123.192 20.576 123.203 20.544 123.224 20.544C123.267 20.416 123.331 20.3413 123.416 20.32C123.523 20.2987 123.693 20.256 123.928 20.192C124.184 20.1067 124.44 20.0213 124.696 19.936C124.973 19.8293 125.229 19.7333 125.464 19.648C125.72 19.5627 125.891 19.4987 125.976 19.456C126.125 19.4133 126.264 19.3493 126.392 19.264C126.541 19.1573 126.616 19.008 126.616 18.816V11.36C126.573 11.3173 126.541 11.264 126.52 11.2C126.499 11.1573 126.477 11.1147 126.456 11.072C126.435 11.0293 126.424 10.9867 126.424 10.944L126.2 10.624H124.056C124.013 10.5813 123.981 10.5387 123.96 10.496C123.939 10.4533 123.917 10.4213 123.896 10.4C123.875 10.3787 123.864 10.3467 123.864 10.304C123.821 10.2187 123.768 10.1013 123.704 9.952C123.661 9.78133 123.64 9.68533 123.64 9.664C123.64 9.6 123.661 9.536 123.704 9.472C123.768 9.38667 123.821 9.344 123.864 9.344H126.2L126.52 9.024V3.84C126.712 3.84 126.84 3.89333 126.904 4C126.968 4.08533 127.085 4.128 127.256 4.128C127.448 4.128 127.565 4.08533 127.608 4C127.672 3.89333 127.704 3.75467 127.704 3.584C127.704 3.392 127.672 3.21067 127.608 3.04C127.544 2.86933 127.427 2.73067 127.256 2.624C127.213 2.688 127.128 2.784 127 2.912C126.893 3.04 126.765 3.104 126.616 3.104V1.12C126.616 0.991999 126.669 0.927999 126.776 0.927999C126.883 0.906665 126.968 0.895998 127.032 0.895998H127.256C127.448 0.917332 127.779 0.949333 128.248 0.991999C128.717 1.03466 129.208 1.07733 129.72 1.12C130.232 1.16267 130.723 1.20533 131.192 1.248C131.661 1.29067 131.992 1.32266 132.184 1.344C132.483 1.32266 132.632 1.46133 132.632 1.76C132.632 1.93067 132.568 2.08 132.44 2.208C132.333 2.31466 132.216 2.42133 132.088 2.528C131.96 2.61333 131.832 2.72 131.704 2.848C131.597 2.95467 131.544 3.09333 131.544 3.264V6.656L131.736 6.88C131.907 6.58133 132.131 6.432 132.408 6.432C132.707 6.432 132.963 6.58133 133.176 6.88C133.411 7.17867 133.635 7.50933 133.848 7.872C134.061 8.21333 134.275 8.53333 134.488 8.832C134.723 9.10933 134.979 9.248 135.256 9.248C135.32 9.248 135.363 9.23733 135.384 9.216C135.405 9.216 135.427 9.20533 135.448 9.184C135.491 9.16267 135.533 9.14133 135.576 9.12C135.619 9.09867 135.661 9.06667 135.704 9.024V1.12C135.704 0.991999 135.8 0.927999 135.992 0.927999C136.184 0.906665 136.301 0.895998 136.344 0.895998C136.6 0.895998 136.888 0.959998 137.208 1.088C137.528 1.19467 137.848 1.33333 138.168 1.504C138.488 1.65333 138.797 1.81333 139.096 1.984C139.395 2.15466 139.651 2.29333 139.864 2.4L139.64 2.624H140.056C140.504 2.624 141.048 2.61333 141.688 2.592C142.349 2.57067 142.979 2.54933 143.576 2.528C144.195 2.50666 144.717 2.48533 145.144 2.464C145.592 2.42133 145.816 2.4 145.816 2.4L147.96 0.48H148.056C148.376 0.48 148.771 0.597333 149.24 0.831999C149.709 1.06667 150.168 1.35467 150.616 1.696C151.064 2.03733 151.448 2.38933 151.768 2.752C152.088 3.11467 152.248 3.424 152.248 3.68C152.248 3.936 152.152 4.13867 151.96 4.288C151.789 4.43733 151.597 4.58667 151.384 4.736V12.224C151.384 12.5013 151.544 12.7573 151.864 12.992C152.205 13.2053 152.579 13.4187 152.984 13.632C153.389 13.824 153.752 14.0373 154.072 14.272C154.413 14.5067 154.584 14.7733 154.584 15.072V15.2ZM147.096 2.624C147.096 2.624 147.128 2.58133 147.192 2.496C147.256 2.41066 147.32 2.31466 147.384 2.208C147.448 2.10133 147.512 1.984 147.576 1.856C147.64 1.728 147.693 1.62133 147.736 1.536C147.757 1.536 147.768 1.504 147.768 1.44C147.768 1.39733 147.757 1.36533 147.736 1.344C147.096 1.536 146.776 1.96266 146.776 2.624H147.096ZM146.04 4.096L145.624 3.776H141.336C141.315 3.584 141.219 3.37067 141.048 3.136C140.899 2.88 140.696 2.752 140.44 2.752C140.44 2.92267 140.451 3.09333 140.472 3.264C140.515 3.41333 140.589 3.552 140.696 3.68V6.464H146.04V4.096ZM140.28 4.736L139.224 3.68H139C138.936 3.70133 138.861 3.776 138.776 3.904C139.011 4.62933 138.947 5.20533 138.584 5.632C138.243 6.03733 137.741 6.31467 137.08 6.464V6.944C137.4 6.944 137.688 6.90133 137.944 6.816C138.2 6.70933 138.477 6.656 138.776 6.656C139.053 6.656 139.299 6.69866 139.512 6.784C139.747 6.86933 140.003 6.912 140.28 6.912V4.736ZM148.184 4.832C148.184 4.704 148.131 4.61867 148.024 4.576C147.917 4.512 147.8 4.48 147.672 4.48C147.672 4.65067 147.683 4.84267 147.704 5.056C147.747 5.26933 147.832 5.45067 147.96 5.6L148.184 4.96V4.832ZM146.04 7.936H140.696V10.496H146.04V7.936ZM150.744 8.8C150.744 8.71467 150.648 8.64 150.456 8.576C150.285 8.49067 150.083 8.416 149.848 8.352C149.635 8.288 149.421 8.24533 149.208 8.224C148.995 8.18133 148.856 8.16 148.792 8.16C148.536 8.16 148.365 8.288 148.28 8.544C148.195 8.8 148.152 9.03467 148.152 9.248C148.152 9.48267 148.227 9.61067 148.376 9.632C148.547 9.65333 148.739 9.664 148.952 9.664C149.059 9.664 149.208 9.664 149.4 9.664C149.613 9.64267 149.816 9.61067 150.008 9.568C150.2 9.52533 150.371 9.46133 150.52 9.376C150.669 9.29067 150.744 9.17333 150.744 9.024V8.8ZM132.824 10.176C132.824 10.0053 132.579 9.84533 132.088 9.696C131.619 9.52533 131.085 9.376 130.488 9.248C129.891 9.12 129.315 9.01333 128.76 8.928C128.227 8.84267 127.907 8.8 127.8 8.8C127.715 8.8 127.576 8.832 127.384 8.896C127.213 8.96 127.032 9.04533 126.84 9.152C126.669 9.23733 126.509 9.344 126.36 9.472C126.232 9.57867 126.168 9.67467 126.168 9.76C126.168 9.824 126.179 9.856 126.2 9.856C126.285 9.96267 126.392 10.0907 126.52 10.24C126.669 10.3893 126.819 10.5387 126.968 10.688C127.139 10.816 127.309 10.9333 127.48 11.04C127.672 11.1253 127.853 11.168 128.024 11.168C128.067 11.168 128.099 11.1573 128.12 11.136C128.312 11.072 128.504 10.9653 128.696 10.816C128.888 10.6667 129.059 10.5067 129.208 10.336C129.379 10.1653 129.528 10.0053 129.656 9.856C129.805 9.68533 129.933 9.54667 130.04 9.44C130.317 9.65333 130.605 9.888 130.904 10.144C131.224 10.4 131.565 10.528 131.928 10.528C132.035 10.528 132.205 10.5173 132.44 10.496C132.696 10.4747 132.824 10.368 132.824 10.176ZM152.664 17.76C152.515 17.76 152.461 17.6853 152.504 17.536H152.44C152.333 17.536 152.28 17.472 152.28 17.344H152.216C152.109 17.344 152.056 17.2693 152.056 17.12C152.056 16.9707 152.109 16.896 152.216 16.896C152.323 16.896 152.376 16.9707 152.376 17.12H152.44C152.589 17.12 152.643 17.1947 152.6 17.344H152.664C152.771 17.344 152.824 17.4187 152.824 17.568C152.824 17.696 152.771 17.76 152.664 17.76ZM153.08 17.984C152.995 17.92 152.92 17.8453 152.856 17.76H153.08C153.144 17.7813 153.219 17.856 153.304 17.984H153.08ZM153.72 18.624C153.613 18.624 153.56 18.5493 153.56 18.4H153.496C153.389 18.4 153.336 18.336 153.336 18.208C153.336 18.0587 153.389 17.984 153.496 17.984C153.603 17.984 153.656 18.048 153.656 18.176H153.72C153.827 18.176 153.88 18.2507 153.88 18.4C153.88 18.5493 153.827 18.624 153.72 18.624ZM149.464 18.176C149.464 18.112 149.421 18.08 149.336 18.08C149.251 18.08 149.219 18.112 149.24 18.176C149.261 18.24 149.293 18.272 149.336 18.272C149.4 18.272 149.443 18.24 149.464 18.176ZM154.392 19.04C154.392 19.1253 154.381 19.2 154.36 19.264C154.253 19.1787 154.168 19.0827 154.104 18.976C154.04 18.848 153.987 18.7307 153.944 18.624C153.965 18.6027 153.997 18.592 154.04 18.592C154.168 18.592 154.253 18.6453 154.296 18.752C154.36 18.8373 154.392 18.9333 154.392 19.04ZM146.264 19.456C146.2 19.3493 146.125 19.2853 146.04 19.264C146.019 19.2427 145.987 19.232 145.944 19.232C145.88 19.232 145.837 19.2427 145.816 19.264V19.456H146.264ZM150.744 20.736C150.701 20.672 150.595 20.576 150.424 20.448C150.275 20.2987 150.115 20.16 149.944 20.032C149.773 19.8827 149.613 19.7547 149.464 19.648C149.336 19.5413 149.261 19.4773 149.24 19.456H149.144C148.909 19.456 148.792 19.584 148.792 19.84C148.792 20.096 148.792 20.288 148.792 20.416C148.792 20.48 148.792 20.5867 148.792 20.736C148.792 20.8853 148.803 20.96 148.824 20.96C148.909 21.1307 149.091 21.3013 149.368 21.472C149.645 21.6213 149.816 21.664 149.88 21.6L150.744 20.736ZM129.624 19.68H129.4L129.624 19.904V19.68ZM153.08 20.32V19.904H153.304L153.08 20.32ZM147.544 21.824C147.523 21.7387 147.491 21.6107 147.448 21.44C147.427 21.248 147.384 21.0667 147.32 20.896C147.256 20.7253 147.171 20.576 147.064 20.448C146.957 20.32 146.829 20.256 146.68 20.256V21.376H144.984C145.069 21.568 145.197 21.7067 145.368 21.792C145.56 21.856 145.752 21.92 145.944 21.984C146.136 22.0267 146.317 22.1013 146.488 22.208C146.659 22.2933 146.797 22.4427 146.904 22.656C146.989 22.8907 146.925 23.1573 146.712 23.456C146.499 23.7333 146.243 24.032 145.944 24.352C145.667 24.6507 145.389 24.96 145.112 25.28C144.856 25.5787 144.728 25.856 144.728 26.112C144.728 26.2827 144.771 26.3893 144.856 26.432C144.963 26.4747 145.144 26.496 145.4 26.496C145.976 26.496 146.424 26.336 146.744 26.016C147.085 25.6747 147.331 25.2693 147.48 24.8C147.629 24.3093 147.715 23.7973 147.736 23.264C147.779 22.7307 147.8 22.2507 147.8 21.824H147.544ZM126.2 22.656V23.52L127.064 22.656H126.2ZM152.024 26.08H151.8V26.304H152.024V26.08ZM137.496 30.144H137.24C137.24 30.3147 137.325 30.4533 137.496 30.56V30.144Z" fill="white"/>
</svg>
